<?xml version="1.0" encoding="utf-8" standalone="no"?>
<!DOCTYPE svg PUBLIC "-//W3C//DTD SVG 1.1//EN"
  "http://www.w3.org/Graphics/SVG/1.1/DTD/svg11.dtd">
<!-- Created with matplotlib (http://matplotlib.org/) -->
<svg height="345.6pt" version="1.1" viewBox="0 0 460.8 345.6" width="460.8pt" xmlns="http://www.w3.org/2000/svg" xmlns:xlink="http://www.w3.org/1999/xlink">
 <defs>
  <style type="text/css">
*{stroke-linecap:butt;stroke-linejoin:round;}
  </style>
 </defs>
 <g id="figure_1">
  <g id="patch_1">
   <path d="M 0 345.6 
L 460.8 345.6 
L 460.8 0 
L 0 0 
z
" style="fill:#ffffff;"/>
  </g>
  <g id="axes_1">
   <g id="patch_2">
    <path d="M 46.64 303.64 
L 205.273636 303.64 
L 205.273636 25.44 
L 46.64 25.44 
z
" style="fill:#ffffff;"/>
   </g>
   <g id="matplotlib.axis_1">
    <g id="xtick_1">
     <g id="line2d_1">
      <path clip-path="url(#p3074d8ec29)" d="M 53.85062 303.64 
L 53.85062 25.44 
" style="fill:none;stroke:#b0b0b0;stroke-linecap:square;stroke-width:0.8;"/>
     </g>
     <g id="line2d_2">
      <defs>
       <path d="M 0 0 
L 0 3.5 
" id="m2c7d2094db" style="stroke:#000000;stroke-width:0.8;"/>
      </defs>
      <g>
       <use style="stroke:#000000;stroke-width:0.8;" x="53.85062" xlink:href="#m2c7d2094db" y="303.64"/>
      </g>
     </g>
     <g id="text_1">
      <!-- 0.00 -->
      <defs>
       <path d="M 31.78125 66.40625 
Q 24.171875 66.40625 20.328125 58.90625 
Q 16.5 51.421875 16.5 36.375 
Q 16.5 21.390625 20.328125 13.890625 
Q 24.171875 6.390625 31.78125 6.390625 
Q 39.453125 6.390625 43.28125 13.890625 
Q 47.125 21.390625 47.125 36.375 
Q 47.125 51.421875 43.28125 58.90625 
Q 39.453125 66.40625 31.78125 66.40625 
z
M 31.78125 74.21875 
Q 44.046875 74.21875 50.515625 64.515625 
Q 56.984375 54.828125 56.984375 36.375 
Q 56.984375 17.96875 50.515625 8.265625 
Q 44.046875 -1.421875 31.78125 -1.421875 
Q 19.53125 -1.421875 13.0625 8.265625 
Q 6.59375 17.96875 6.59375 36.375 
Q 6.59375 54.828125 13.0625 64.515625 
Q 19.53125 74.21875 31.78125 74.21875 
z
" id="DejaVuSans-30"/>
       <path d="M 10.6875 12.40625 
L 21 12.40625 
L 21 0 
L 10.6875 0 
z
" id="DejaVuSans-2e"/>
      </defs>
      <g transform="translate(42.717807 318.238437)scale(0.1 -0.1)">
       <use xlink:href="#DejaVuSans-30"/>
       <use x="63.623047" xlink:href="#DejaVuSans-2e"/>
       <use x="95.410156" xlink:href="#DejaVuSans-30"/>
       <use x="159.033203" xlink:href="#DejaVuSans-30"/>
      </g>
     </g>
    </g>
    <g id="xtick_2">
     <g id="line2d_3">
      <path clip-path="url(#p3074d8ec29)" d="M 89.903719 303.64 
L 89.903719 25.44 
" style="fill:none;stroke:#b0b0b0;stroke-linecap:square;stroke-width:0.8;"/>
     </g>
     <g id="line2d_4">
      <g>
       <use style="stroke:#000000;stroke-width:0.8;" x="89.903719" xlink:href="#m2c7d2094db" y="303.64"/>
      </g>
     </g>
     <g id="text_2">
      <!-- 0.25 -->
      <defs>
       <path d="M 19.1875 8.296875 
L 53.609375 8.296875 
L 53.609375 0 
L 7.328125 0 
L 7.328125 8.296875 
Q 12.9375 14.109375 22.625 23.890625 
Q 32.328125 33.6875 34.8125 36.53125 
Q 39.546875 41.84375 41.421875 45.53125 
Q 43.3125 49.21875 43.3125 52.78125 
Q 43.3125 58.59375 39.234375 62.25 
Q 35.15625 65.921875 28.609375 65.921875 
Q 23.96875 65.921875 18.8125 64.3125 
Q 13.671875 62.703125 7.8125 59.421875 
L 7.8125 69.390625 
Q 13.765625 71.78125 18.9375 73 
Q 24.125 74.21875 28.421875 74.21875 
Q 39.75 74.21875 46.484375 68.546875 
Q 53.21875 62.890625 53.21875 53.421875 
Q 53.21875 48.921875 51.53125 44.890625 
Q 49.859375 40.875 45.40625 35.40625 
Q 44.1875 33.984375 37.640625 27.21875 
Q 31.109375 20.453125 19.1875 8.296875 
z
" id="DejaVuSans-32"/>
       <path d="M 10.796875 72.90625 
L 49.515625 72.90625 
L 49.515625 64.59375 
L 19.828125 64.59375 
L 19.828125 46.734375 
Q 21.96875 47.46875 24.109375 47.828125 
Q 26.265625 48.1875 28.421875 48.1875 
Q 40.625 48.1875 47.75 41.5 
Q 54.890625 34.8125 54.890625 23.390625 
Q 54.890625 11.625 47.5625 5.09375 
Q 40.234375 -1.421875 26.90625 -1.421875 
Q 22.3125 -1.421875 17.546875 -0.640625 
Q 12.796875 0.140625 7.71875 1.703125 
L 7.71875 11.625 
Q 12.109375 9.234375 16.796875 8.0625 
Q 21.484375 6.890625 26.703125 6.890625 
Q 35.15625 6.890625 40.078125 11.328125 
Q 45.015625 15.765625 45.015625 23.390625 
Q 45.015625 31 40.078125 35.4375 
Q 35.15625 39.890625 26.703125 39.890625 
Q 22.75 39.890625 18.8125 39.015625 
Q 14.890625 38.140625 10.796875 36.28125 
z
" id="DejaVuSans-35"/>
      </defs>
      <g transform="translate(78.770907 318.238437)scale(0.1 -0.1)">
       <use xlink:href="#DejaVuSans-30"/>
       <use x="63.623047" xlink:href="#DejaVuSans-2e"/>
       <use x="95.410156" xlink:href="#DejaVuSans-32"/>
       <use x="159.033203" xlink:href="#DejaVuSans-35"/>
      </g>
     </g>
    </g>
    <g id="xtick_3">
     <g id="line2d_5">
      <path clip-path="url(#p3074d8ec29)" d="M 125.956818 303.64 
L 125.956818 25.44 
" style="fill:none;stroke:#b0b0b0;stroke-linecap:square;stroke-width:0.8;"/>
     </g>
     <g id="line2d_6">
      <g>
       <use style="stroke:#000000;stroke-width:0.8;" x="125.956818" xlink:href="#m2c7d2094db" y="303.64"/>
      </g>
     </g>
     <g id="text_3">
      <!-- 0.50 -->
      <g transform="translate(114.824006 318.238437)scale(0.1 -0.1)">
       <use xlink:href="#DejaVuSans-30"/>
       <use x="63.623047" xlink:href="#DejaVuSans-2e"/>
       <use x="95.410156" xlink:href="#DejaVuSans-35"/>
       <use x="159.033203" xlink:href="#DejaVuSans-30"/>
      </g>
     </g>
    </g>
    <g id="xtick_4">
     <g id="line2d_7">
      <path clip-path="url(#p3074d8ec29)" d="M 162.009917 303.64 
L 162.009917 25.44 
" style="fill:none;stroke:#b0b0b0;stroke-linecap:square;stroke-width:0.8;"/>
     </g>
     <g id="line2d_8">
      <g>
       <use style="stroke:#000000;stroke-width:0.8;" x="162.009917" xlink:href="#m2c7d2094db" y="303.64"/>
      </g>
     </g>
     <g id="text_4">
      <!-- 0.75 -->
      <defs>
       <path d="M 8.203125 72.90625 
L 55.078125 72.90625 
L 55.078125 68.703125 
L 28.609375 0 
L 18.3125 0 
L 43.21875 64.59375 
L 8.203125 64.59375 
z
" id="DejaVuSans-37"/>
      </defs>
      <g transform="translate(150.877105 318.238437)scale(0.1 -0.1)">
       <use xlink:href="#DejaVuSans-30"/>
       <use x="63.623047" xlink:href="#DejaVuSans-2e"/>
       <use x="95.410156" xlink:href="#DejaVuSans-37"/>
       <use x="159.033203" xlink:href="#DejaVuSans-35"/>
      </g>
     </g>
    </g>
    <g id="xtick_5">
     <g id="line2d_9">
      <path clip-path="url(#p3074d8ec29)" d="M 198.063017 303.64 
L 198.063017 25.44 
" style="fill:none;stroke:#b0b0b0;stroke-linecap:square;stroke-width:0.8;"/>
     </g>
     <g id="line2d_10">
      <g>
       <use style="stroke:#000000;stroke-width:0.8;" x="198.063017" xlink:href="#m2c7d2094db" y="303.64"/>
      </g>
     </g>
     <g id="text_5">
      <!-- 1.00 -->
      <defs>
       <path d="M 12.40625 8.296875 
L 28.515625 8.296875 
L 28.515625 63.921875 
L 10.984375 60.40625 
L 10.984375 69.390625 
L 28.421875 72.90625 
L 38.28125 72.90625 
L 38.28125 8.296875 
L 54.390625 8.296875 
L 54.390625 0 
L 12.40625 0 
z
" id="DejaVuSans-31"/>
      </defs>
      <g transform="translate(186.930204 318.238437)scale(0.1 -0.1)">
       <use xlink:href="#DejaVuSans-31"/>
       <use x="63.623047" xlink:href="#DejaVuSans-2e"/>
       <use x="95.410156" xlink:href="#DejaVuSans-30"/>
       <use x="159.033203" xlink:href="#DejaVuSans-30"/>
      </g>
     </g>
    </g>
    <g id="text_6">
     <!-- Time/s -->
     <defs>
      <path d="M -0.296875 72.90625 
L 61.375 72.90625 
L 61.375 64.59375 
L 35.5 64.59375 
L 35.5 0 
L 25.59375 0 
L 25.59375 64.59375 
L -0.296875 64.59375 
z
" id="DejaVuSans-54"/>
      <path d="M 9.421875 54.6875 
L 18.40625 54.6875 
L 18.40625 0 
L 9.421875 0 
z
M 9.421875 75.984375 
L 18.40625 75.984375 
L 18.40625 64.59375 
L 9.421875 64.59375 
z
" id="DejaVuSans-69"/>
      <path d="M 52 44.1875 
Q 55.375 50.25 60.0625 53.125 
Q 64.75 56 71.09375 56 
Q 79.640625 56 84.28125 50.015625 
Q 88.921875 44.046875 88.921875 33.015625 
L 88.921875 0 
L 79.890625 0 
L 79.890625 32.71875 
Q 79.890625 40.578125 77.09375 44.375 
Q 74.3125 48.1875 68.609375 48.1875 
Q 61.625 48.1875 57.5625 43.546875 
Q 53.515625 38.921875 53.515625 30.90625 
L 53.515625 0 
L 44.484375 0 
L 44.484375 32.71875 
Q 44.484375 40.625 41.703125 44.40625 
Q 38.921875 48.1875 33.109375 48.1875 
Q 26.21875 48.1875 22.15625 43.53125 
Q 18.109375 38.875 18.109375 30.90625 
L 18.109375 0 
L 9.078125 0 
L 9.078125 54.6875 
L 18.109375 54.6875 
L 18.109375 46.1875 
Q 21.1875 51.21875 25.484375 53.609375 
Q 29.78125 56 35.6875 56 
Q 41.65625 56 45.828125 52.96875 
Q 50 49.953125 52 44.1875 
z
" id="DejaVuSans-6d"/>
      <path d="M 56.203125 29.59375 
L 56.203125 25.203125 
L 14.890625 25.203125 
Q 15.484375 15.921875 20.484375 11.0625 
Q 25.484375 6.203125 34.421875 6.203125 
Q 39.59375 6.203125 44.453125 7.46875 
Q 49.3125 8.734375 54.109375 11.28125 
L 54.109375 2.78125 
Q 49.265625 0.734375 44.1875 -0.34375 
Q 39.109375 -1.421875 33.890625 -1.421875 
Q 20.796875 -1.421875 13.15625 6.1875 
Q 5.515625 13.8125 5.515625 26.8125 
Q 5.515625 40.234375 12.765625 48.109375 
Q 20.015625 56 32.328125 56 
Q 43.359375 56 49.78125 48.890625 
Q 56.203125 41.796875 56.203125 29.59375 
z
M 47.21875 32.234375 
Q 47.125 39.59375 43.09375 43.984375 
Q 39.0625 48.390625 32.421875 48.390625 
Q 24.90625 48.390625 20.390625 44.140625 
Q 15.875 39.890625 15.1875 32.171875 
z
" id="DejaVuSans-65"/>
      <path d="M 25.390625 72.90625 
L 33.6875 72.90625 
L 8.296875 -9.28125 
L 0 -9.28125 
z
" id="DejaVuSans-2f"/>
      <path d="M 44.28125 53.078125 
L 44.28125 44.578125 
Q 40.484375 46.53125 36.375 47.5 
Q 32.28125 48.484375 27.875 48.484375 
Q 21.1875 48.484375 17.84375 46.4375 
Q 14.5 44.390625 14.5 40.28125 
Q 14.5 37.15625 16.890625 35.375 
Q 19.28125 33.59375 26.515625 31.984375 
L 29.59375 31.296875 
Q 39.15625 29.25 43.1875 25.515625 
Q 47.21875 21.78125 47.21875 15.09375 
Q 47.21875 7.46875 41.1875 3.015625 
Q 35.15625 -1.421875 24.609375 -1.421875 
Q 20.21875 -1.421875 15.453125 -0.5625 
Q 10.6875 0.296875 5.421875 2 
L 5.421875 11.28125 
Q 10.40625 8.6875 15.234375 7.390625 
Q 20.0625 6.109375 24.8125 6.109375 
Q 31.15625 6.109375 34.5625 8.28125 
Q 37.984375 10.453125 37.984375 14.40625 
Q 37.984375 18.0625 35.515625 20.015625 
Q 33.0625 21.96875 24.703125 23.78125 
L 21.578125 24.515625 
Q 13.234375 26.265625 9.515625 29.90625 
Q 5.8125 33.546875 5.8125 39.890625 
Q 5.8125 47.609375 11.28125 51.796875 
Q 16.75 56 26.8125 56 
Q 31.78125 56 36.171875 55.265625 
Q 40.578125 54.546875 44.28125 53.078125 
z
" id="DejaVuSans-73"/>
     </defs>
     <g transform="translate(109.280256 331.916562)scale(0.1 -0.1)">
      <use xlink:href="#DejaVuSans-54"/>
      <use x="61.037109" xlink:href="#DejaVuSans-69"/>
      <use x="88.820312" xlink:href="#DejaVuSans-6d"/>
      <use x="186.232422" xlink:href="#DejaVuSans-65"/>
      <use x="247.755859" xlink:href="#DejaVuSans-2f"/>
      <use x="281.447266" xlink:href="#DejaVuSans-73"/>
     </g>
    </g>
   </g>
   <g id="matplotlib.axis_2">
    <g id="ytick_1">
     <g id="line2d_11">
      <path clip-path="url(#p3074d8ec29)" d="M 46.64 258.591983 
L 205.273636 258.591983 
" style="fill:none;stroke:#b0b0b0;stroke-linecap:square;stroke-width:0.8;"/>
     </g>
     <g id="line2d_12">
      <defs>
       <path d="M 0 0 
L -3.5 0 
" id="m8fbad4ac1d" style="stroke:#000000;stroke-width:0.8;"/>
      </defs>
      <g>
       <use style="stroke:#000000;stroke-width:0.8;" x="46.64" xlink:href="#m8fbad4ac1d" y="258.591983"/>
      </g>
     </g>
     <g id="text_7">
      <!-- −2 -->
      <defs>
       <path d="M 10.59375 35.5 
L 73.1875 35.5 
L 73.1875 27.203125 
L 10.59375 27.203125 
z
" id="DejaVuSans-2212"/>
      </defs>
      <g transform="translate(24.897813 262.391201)scale(0.1 -0.1)">
       <use xlink:href="#DejaVuSans-2212"/>
       <use x="83.789062" xlink:href="#DejaVuSans-32"/>
      </g>
     </g>
    </g>
    <g id="ytick_2">
     <g id="line2d_13">
      <path clip-path="url(#p3074d8ec29)" d="M 46.64 211.565991 
L 205.273636 211.565991 
" style="fill:none;stroke:#b0b0b0;stroke-linecap:square;stroke-width:0.8;"/>
     </g>
     <g id="line2d_14">
      <g>
       <use style="stroke:#000000;stroke-width:0.8;" x="46.64" xlink:href="#m8fbad4ac1d" y="211.565991"/>
      </g>
     </g>
     <g id="text_8">
      <!-- −1 -->
      <g transform="translate(24.897813 215.36521)scale(0.1 -0.1)">
       <use xlink:href="#DejaVuSans-2212"/>
       <use x="83.789062" xlink:href="#DejaVuSans-31"/>
      </g>
     </g>
    </g>
    <g id="ytick_3">
     <g id="line2d_15">
      <path clip-path="url(#p3074d8ec29)" d="M 46.64 164.54 
L 205.273636 164.54 
" style="fill:none;stroke:#b0b0b0;stroke-linecap:square;stroke-width:0.8;"/>
     </g>
     <g id="line2d_16">
      <g>
       <use style="stroke:#000000;stroke-width:0.8;" x="46.64" xlink:href="#m8fbad4ac1d" y="164.54"/>
      </g>
     </g>
     <g id="text_9">
      <!-- 0 -->
      <g transform="translate(33.2775 168.339219)scale(0.1 -0.1)">
       <use xlink:href="#DejaVuSans-30"/>
      </g>
     </g>
    </g>
    <g id="ytick_4">
     <g id="line2d_17">
      <path clip-path="url(#p3074d8ec29)" d="M 46.64 117.514009 
L 205.273636 117.514009 
" style="fill:none;stroke:#b0b0b0;stroke-linecap:square;stroke-width:0.8;"/>
     </g>
     <g id="line2d_18">
      <g>
       <use style="stroke:#000000;stroke-width:0.8;" x="46.64" xlink:href="#m8fbad4ac1d" y="117.514009"/>
      </g>
     </g>
     <g id="text_10">
      <!-- 1 -->
      <g transform="translate(33.2775 121.313227)scale(0.1 -0.1)">
       <use xlink:href="#DejaVuSans-31"/>
      </g>
     </g>
    </g>
    <g id="ytick_5">
     <g id="line2d_19">
      <path clip-path="url(#p3074d8ec29)" d="M 46.64 70.488017 
L 205.273636 70.488017 
" style="fill:none;stroke:#b0b0b0;stroke-linecap:square;stroke-width:0.8;"/>
     </g>
     <g id="line2d_20">
      <g>
       <use style="stroke:#000000;stroke-width:0.8;" x="46.64" xlink:href="#m8fbad4ac1d" y="70.488017"/>
      </g>
     </g>
     <g id="text_11">
      <!-- 2 -->
      <g transform="translate(33.2775 74.287236)scale(0.1 -0.1)">
       <use xlink:href="#DejaVuSans-32"/>
      </g>
     </g>
    </g>
    <g id="text_12">
     <!-- Amplitude -->
     <defs>
      <path d="M 34.1875 63.1875 
L 20.796875 26.90625 
L 47.609375 26.90625 
z
M 28.609375 72.90625 
L 39.796875 72.90625 
L 67.578125 0 
L 57.328125 0 
L 50.6875 18.703125 
L 17.828125 18.703125 
L 11.1875 0 
L 0.78125 0 
z
" id="DejaVuSans-41"/>
      <path d="M 18.109375 8.203125 
L 18.109375 -20.796875 
L 9.078125 -20.796875 
L 9.078125 54.6875 
L 18.109375 54.6875 
L 18.109375 46.390625 
Q 20.953125 51.265625 25.265625 53.625 
Q 29.59375 56 35.59375 56 
Q 45.5625 56 51.78125 48.09375 
Q 58.015625 40.1875 58.015625 27.296875 
Q 58.015625 14.40625 51.78125 6.484375 
Q 45.5625 -1.421875 35.59375 -1.421875 
Q 29.59375 -1.421875 25.265625 0.953125 
Q 20.953125 3.328125 18.109375 8.203125 
z
M 48.6875 27.296875 
Q 48.6875 37.203125 44.609375 42.84375 
Q 40.53125 48.484375 33.40625 48.484375 
Q 26.265625 48.484375 22.1875 42.84375 
Q 18.109375 37.203125 18.109375 27.296875 
Q 18.109375 17.390625 22.1875 11.75 
Q 26.265625 6.109375 33.40625 6.109375 
Q 40.53125 6.109375 44.609375 11.75 
Q 48.6875 17.390625 48.6875 27.296875 
z
" id="DejaVuSans-70"/>
      <path d="M 9.421875 75.984375 
L 18.40625 75.984375 
L 18.40625 0 
L 9.421875 0 
z
" id="DejaVuSans-6c"/>
      <path d="M 18.3125 70.21875 
L 18.3125 54.6875 
L 36.8125 54.6875 
L 36.8125 47.703125 
L 18.3125 47.703125 
L 18.3125 18.015625 
Q 18.3125 11.328125 20.140625 9.421875 
Q 21.96875 7.515625 27.59375 7.515625 
L 36.8125 7.515625 
L 36.8125 0 
L 27.59375 0 
Q 17.1875 0 13.234375 3.875 
Q 9.28125 7.765625 9.28125 18.015625 
L 9.28125 47.703125 
L 2.6875 47.703125 
L 2.6875 54.6875 
L 9.28125 54.6875 
L 9.28125 70.21875 
z
" id="DejaVuSans-74"/>
      <path d="M 8.5 21.578125 
L 8.5 54.6875 
L 17.484375 54.6875 
L 17.484375 21.921875 
Q 17.484375 14.15625 20.5 10.265625 
Q 23.53125 6.390625 29.59375 6.390625 
Q 36.859375 6.390625 41.078125 11.03125 
Q 45.3125 15.671875 45.3125 23.6875 
L 45.3125 54.6875 
L 54.296875 54.6875 
L 54.296875 0 
L 45.3125 0 
L 45.3125 8.40625 
Q 42.046875 3.421875 37.71875 1 
Q 33.40625 -1.421875 27.6875 -1.421875 
Q 18.265625 -1.421875 13.375 4.4375 
Q 8.5 10.296875 8.5 21.578125 
z
M 31.109375 56 
z
" id="DejaVuSans-75"/>
      <path d="M 45.40625 46.390625 
L 45.40625 75.984375 
L 54.390625 75.984375 
L 54.390625 0 
L 45.40625 0 
L 45.40625 8.203125 
Q 42.578125 3.328125 38.25 0.953125 
Q 33.9375 -1.421875 27.875 -1.421875 
Q 17.96875 -1.421875 11.734375 6.484375 
Q 5.515625 14.40625 5.515625 27.296875 
Q 5.515625 40.1875 11.734375 48.09375 
Q 17.96875 56 27.875 56 
Q 33.9375 56 38.25 53.625 
Q 42.578125 51.265625 45.40625 46.390625 
z
M 14.796875 27.296875 
Q 14.796875 17.390625 18.875 11.75 
Q 22.953125 6.109375 30.078125 6.109375 
Q 37.203125 6.109375 41.296875 11.75 
Q 45.40625 17.390625 45.40625 27.296875 
Q 45.40625 37.203125 41.296875 42.84375 
Q 37.203125 48.484375 30.078125 48.484375 
Q 22.953125 48.484375 18.875 42.84375 
Q 14.796875 37.203125 14.796875 27.296875 
z
" id="DejaVuSans-64"/>
     </defs>
     <g transform="translate(18.818125 190.162656)rotate(-90)scale(0.1 -0.1)">
      <use xlink:href="#DejaVuSans-41"/>
      <use x="68.408203" xlink:href="#DejaVuSans-6d"/>
      <use x="165.820312" xlink:href="#DejaVuSans-70"/>
      <use x="229.296875" xlink:href="#DejaVuSans-6c"/>
      <use x="257.080078" xlink:href="#DejaVuSans-69"/>
      <use x="284.863281" xlink:href="#DejaVuSans-74"/>
      <use x="324.072266" xlink:href="#DejaVuSans-75"/>
      <use x="387.451172" xlink:href="#DejaVuSans-64"/>
      <use x="450.927734" xlink:href="#DejaVuSans-65"/>
     </g>
    </g>
   </g>
   <g id="line2d_21">
    <path clip-path="url(#p3074d8ec29)" d="M 53.85062 164.54 
L 53.922762 84.333605 
L 53.994904 136.909598 
L 54.139189 64.739665 
L 54.211331 164.613208 
L 54.283473 119.65053 
L 54.427758 226.229116 
L 54.4999 139.288263 
L 54.572043 164.983421 
L 54.644185 189.084125 
L 54.716327 102.561704 
L 54.860612 208.874718 
L 54.932754 164.767987 
L 55.004896 265.366379 
L 55.077038 261.005138 
L 55.149181 192.287027 
L 55.221323 244.965938 
L 55.365607 84.572786 
L 55.43775 137.006597 
L 55.582034 65.78054 
L 55.654177 164.892101 
L 55.726319 119.108627 
L 55.870603 225.916855 
L 55.942746 138.598253 
L 56.014888 165.870018 
L 56.08703 188.359213 
L 56.159172 102.29576 
L 56.303457 208.307515 
L 56.375599 165.091469 
L 56.447742 266.377179 
L 56.519884 260.013639 
L 56.592026 192.423121 
L 56.664168 245.165563 
L 56.808453 84.831317 
L 56.880595 137.083829 
L 56.952737 65.154905 
L 57.02488 66.835829 
L 57.097022 165.148688 
L 57.169164 118.579962 
L 57.313449 225.58168 
L 57.385591 137.926141 
L 57.457733 166.755879 
L 57.529876 187.617312 
L 57.602018 102.053198 
L 57.746302 207.728263 
L 57.818445 165.437214 
L 57.890587 267.37233 
L 57.962729 259.013844 
L 58.034871 192.578521 
L 58.107014 245.345 
L 58.251298 85.108901 
L 58.323441 137.141159 
L 58.395583 64.201337 
L 58.467725 67.905105 
L 58.539867 165.382978 
L 58.61201 118.064919 
L 58.756294 225.223768 
L 58.828436 137.272211 
L 58.900579 167.640514 
L 58.972721 186.858744 
L 59.044863 101.834154 
L 59.189148 207.137372 
L 59.26129 165.805185 
L 59.333432 268.351433 
L 59.405575 258.006235 
L 59.477717 192.753052 
L 59.549859 245.503988 
L 59.694144 85.405231 
L 59.766286 137.178465 
L 59.838428 63.258419 
L 59.91057 68.987938 
L 59.982713 165.594988 
L 60.054855 117.563874 
L 60.19914 224.843307 
L 60.271282 136.636738 
L 60.343424 168.523433 
L 60.415566 186.083836 
L 60.487709 101.638751 
L 60.631993 206.535255 
L 60.704135 166.195333 
L 60.776278 269.314096 
L 60.84842 256.991295 
L 60.920562 192.94653 
L 60.992705 245.642274 
L 61.136989 85.719993 
L 61.209131 137.195635 
L 61.281274 62.326613 
L 61.353416 70.083891 
L 61.425558 165.784748 
L 61.4977 117.077197 
L 61.641985 224.440495 
L 61.714127 136.019989 
L 61.786269 169.404148 
L 61.858412 185.292926 
L 61.930554 101.467103 
L 62.074839 205.922334 
L 62.146981 166.607602 
L 62.219123 270.259935 
L 62.291265 255.96951 
L 62.363408 193.158758 
L 62.43555 245.759617 
L 62.579834 86.052865 
L 62.651977 137.192568 
L 62.724119 61.406371 
L 62.796261 71.192522 
L 62.868404 165.952299 
L 62.940546 116.60525 
L 63.08483 224.015538 
L 63.156973 135.422221 
L 63.229115 170.282172 
L 63.301257 184.486359 
L 63.373399 101.319312 
L 63.517684 205.299035 
L 63.589826 167.041921 
L 63.661968 271.188573 
L 63.734111 254.94137 
L 63.806253 193.389533 
L 63.878395 245.855784 
L 64.02268 86.403515 
L 64.094822 137.169172 
L 64.166964 60.498146 
L 64.239107 72.313381 
L 64.311249 166.097693 
L 64.383391 116.148387 
L 64.527676 223.568656 
L 64.599818 134.843681 
L 64.67196 171.157017 
L 64.744103 183.664489 
L 64.816245 101.19547 
L 64.960529 204.665789 
L 65.032672 167.498211 
L 65.104814 272.09964 
L 65.176956 253.907365 
L 65.249098 193.638639 
L 65.321241 245.930552 
L 65.465525 86.771605 
L 65.537667 137.125368 
L 65.60981 59.602381 
L 65.681952 73.446016 
L 65.754094 166.220991 
L 65.826237 115.706956 
L 65.970521 223.100076 
L 66.042663 134.284606 
L 66.114806 172.0282 
L 66.186948 182.827677 
L 66.25909 101.095657 
L 66.403375 204.023032 
L 66.475517 167.976379 
L 66.547659 272.992776 
L 66.619802 252.867989 
L 66.691944 193.905852 
L 66.764086 245.983707 
L 66.908371 87.156787 
L 66.980513 137.061087 
L 67.052655 58.719518 
L 67.124797 74.589969 
L 67.19694 166.322267 
L 67.269082 115.281296 
L 67.413366 222.610036 
L 67.485509 133.745225 
L 67.557651 172.895237 
L 67.629793 181.976291 
L 67.701936 101.019944 
L 67.84622 203.371206 
L 67.918362 168.476325 
L 67.990505 273.867627 
L 68.062647 251.823735 
L 68.134789 194.190938 
L 68.206931 246.015046 
L 68.351216 87.558707 
L 68.423358 136.976271 
L 68.495501 57.849992 
L 68.567643 75.744775 
L 68.639785 166.401605 
L 68.711927 114.871739 
L 68.856212 222.098783 
L 68.928354 133.225755 
L 69.000496 173.757647 
L 69.072639 181.110709 
L 69.144781 100.968389 
L 69.289066 202.710756 
L 69.361208 168.997934 
L 69.43335 274.723846 
L 69.505492 250.7751 
L 69.577635 194.493652 
L 69.649777 246.024377 
L 69.794061 87.977003 
L 69.866204 136.870872 
L 69.938346 56.994232 
L 70.010488 76.909968 
L 70.08263 166.4591 
L 70.154773 114.478607 
L 70.299057 221.566575 
L 70.3712 132.726404 
L 70.443342 174.614952 
L 70.515484 180.231313 
L 70.587626 100.94104 
L 70.731911 202.042133 
L 70.804053 169.541084 
L 70.876195 275.561098 
L 70.948338 249.722581 
L 71.02048 194.813742 
L 71.092622 246.011516 
L 71.236907 88.411306 
L 71.309049 136.744853 
L 71.381191 56.152662 
L 71.453334 78.085075 
L 71.525476 166.494858 
L 71.597618 114.102217 
L 71.741903 221.013678 
L 71.814045 132.24737 
L 71.886187 175.466676 
L 71.958329 179.338496 
L 72.030472 100.937933 
L 72.174756 201.365791 
L 72.246899 170.105641 
L 72.319041 276.379052 
L 72.391183 248.666675 
L 72.463325 195.150944 
L 72.535468 245.97629 
L 72.679752 88.861239 
L 72.751894 136.59819 
L 72.824037 55.3257 
L 72.896179 79.26962 
L 72.968321 166.508995 
L 73.040464 113.742874 
L 73.184748 220.440368 
L 73.25689 131.78884 
L 73.329033 176.312346 
L 73.401175 178.432653 
L 73.473317 100.959095 
L 73.617602 200.682189 
L 73.689744 170.691458 
L 73.761886 277.17739 
L 73.834028 247.607881 
L 73.906171 195.504988 
L 73.978313 245.918538 
L 74.122598 89.326419 
L 74.19474 136.430867 
L 74.266882 54.513758 
L 74.339024 80.463123 
L 74.411167 166.501638 
L 74.483309 113.400877 
L 74.627593 219.84693 
L 74.699736 131.350992 
L 74.771878 177.151491 
L 74.84402 177.514191 
L 74.916163 101.004539 
L 75.060447 199.991789 
L 75.132589 171.298381 
L 75.204732 277.955799 
L 75.276874 246.546699 
L 75.349016 195.875592 
L 75.421158 245.838106 
L 75.565443 89.806455 
L 75.637585 136.242881 
L 75.709727 53.717241 
L 75.78187 81.665099 
L 75.854012 166.472925 
L 75.926154 113.076515 
L 76.070439 219.23366 
L 76.142581 130.933991 
L 76.214723 177.983643 
L 76.286866 176.583521 
L 76.359008 101.074269 
L 76.503292 199.295057 
L 76.575435 171.926244 
L 76.647577 278.713978 
L 76.719719 245.483626 
L 76.791862 196.262467 
L 76.864004 245.734854 
L 77.008288 90.300951 
L 77.080431 136.034239 
L 77.152573 52.936549 
L 77.224715 82.875062 
L 77.296857 166.423003 
L 77.369 112.770068 
L 77.513284 218.600859 
L 77.585426 130.537996 
L 77.657569 178.808341 
L 77.729711 175.641059 
L 77.801853 101.168278 
L 77.946138 198.59246 
L 78.01828 172.57487 
L 78.090422 279.451632 
L 78.162565 244.419163 
L 78.234707 196.665314 
L 78.306849 245.60865 
L 78.451134 90.809503 
L 78.523276 135.80496 
L 78.595418 52.172073 
L 78.667561 84.09252 
L 78.739703 166.35203 
L 78.811845 112.481808 
L 78.95613 217.948841 
L 79.028272 130.16315 
L 79.100414 179.625123 
L 79.172556 174.687229 
L 79.244699 101.286546 
L 79.388983 197.884472 
L 79.461126 173.244073 
L 79.533268 280.168478 
L 79.60541 243.353808 
L 79.677552 197.083827 
L 79.749695 245.459374 
L 79.893979 91.331702 
L 79.966121 135.555072 
L 80.038264 51.424198 
L 80.110406 85.31698 
L 80.182548 166.260177 
L 80.25469 112.211997 
L 80.398975 217.277926 
L 80.471117 129.809591 
L 80.54326 180.433533 
L 80.615402 173.722462 
L 80.687544 101.429045 
L 80.831829 197.171567 
L 80.903971 173.933654 
L 80.976113 280.86424 
L 81.048255 242.28806 
L 81.120398 197.517689 
L 81.19254 245.286917 
L 81.336825 91.867134 
L 81.408967 135.284615 
L 81.481109 50.693304 
L 81.553251 86.547946 
L 81.625394 166.147621 
L 81.697536 111.960888 
L 81.84182 216.588443 
L 81.913963 129.477442 
L 81.986105 181.233119 
L 82.058247 172.747192 
L 82.130389 101.595732 
L 82.274674 196.454223 
L 82.346816 174.643408 
L 82.418959 281.538654 
L 82.491101 241.222415 
L 82.563243 197.966577 
L 82.635385 245.091179 
L 82.77967 92.415376 
L 82.851812 134.993641 
L 82.923954 49.979761 
L 82.996097 87.784918 
L 83.068239 166.014552 
L 83.140381 111.728725 
L 83.284666 215.88073 
L 83.356808 129.166816 
L 83.42895 182.023435 
L 83.501093 171.761861 
L 83.573235 101.786557 
L 83.717519 195.732919 
L 83.789662 175.373117 
L 83.861804 282.191462 
L 83.933946 240.15737 
L 84.006088 198.43016 
L 84.078231 244.872073 
L 84.222515 92.976002 
L 84.294658 134.682211 
L 84.3668 49.283933 
L 84.438942 89.027396 
L 84.511084 165.861169 
L 84.583227 111.515741 
L 84.727511 215.155133 
L 84.799653 128.877819 
L 84.871796 182.804037 
L 84.943938 170.766915 
L 85.01608 102.001456 
L 85.088223 195.458961 
L 85.160365 195.008137 
L 85.232507 176.122552 
L 85.304649 282.822419 
L 85.376792 239.093422 
L 85.448934 198.908097 
L 85.521076 244.629522 
L 85.665361 93.54858 
L 85.737503 134.350398 
L 85.809645 48.606174 
L 85.881787 90.274876 
L 85.95393 165.687681 
L 86.026072 111.322162 
L 86.170357 214.412006 
L 86.242499 128.61054 
L 86.314641 183.574486 
L 86.386783 169.762806 
L 86.458926 102.240355 
L 86.531068 196.386532 
L 86.60321 194.28036 
L 86.675352 176.891478 
L 86.747495 283.431289 
L 86.819637 238.031062 
L 86.891779 199.40004 
L 86.963922 244.363458 
L 87.108206 94.132673 
L 87.180348 133.998286 
L 87.252491 47.946834 
L 87.324633 91.526853 
L 87.396775 165.494307 
L 87.468917 111.148201 
L 87.613202 213.651711 
L 87.685344 128.365063 
L 87.757486 184.33435 
L 87.829629 168.749989 
L 87.901771 102.503169 
L 87.973913 197.298849 
L 88.046056 193.550075 
L 88.118198 177.679647 
L 88.19034 284.017845 
L 88.262482 236.970783 
L 88.334625 199.905635 
L 88.406767 244.073828 
L 88.551051 94.72784 
L 88.623194 133.625969 
L 88.695336 47.306253 
L 88.767478 92.78282 
L 88.839621 165.281275 
L 88.911763 110.994064 
L 89.056047 212.874616 
L 89.12819 128.141457 
L 89.200332 185.0832 
L 89.272474 167.728927 
L 89.344616 102.789804 
L 89.416759 198.195567 
L 89.488901 192.817767 
L 89.561043 178.486802 
L 89.633185 284.58187 
L 89.705328 235.913075 
L 89.77747 200.424517 
L 89.849612 243.760585 
L 89.993897 95.333632 
L 90.066039 133.233551 
L 90.138181 46.684762 
L 90.282466 165.048825 
L 90.354608 110.859945 
L 90.498893 212.081099 
L 90.571035 127.939783 
L 90.643177 185.820614 
L 90.71532 166.700085 
L 90.787462 103.100151 
L 90.859604 199.076346 
L 90.931746 192.083924 
L 91.003889 179.312678 
L 91.076031 285.123157 
L 91.148173 234.858425 
L 91.220315 200.956319 
L 91.292458 243.423698 
L 91.436742 95.949599 
L 91.508885 132.821149 
L 91.581027 46.082685 
L 91.725311 164.797203 
L 91.797454 110.74603 
L 91.941738 211.271545 
L 92.01388 127.760088 
L 92.086023 186.546176 
L 92.158165 165.663932 
L 92.230307 103.434094 
L 92.302449 199.940858 
L 92.374592 191.349036 
L 92.446734 180.156998 
L 92.518876 285.641512 
L 92.591019 233.807319 
L 92.663161 201.500661 
L 92.735303 243.063143 
L 92.879588 96.575286 
L 92.95173 132.388889 
L 93.023872 45.500337 
L 93.168157 164.526667 
L 93.240299 110.652492 
L 93.384584 210.446344 
L 93.456726 127.602411 
L 93.528868 187.259473 
L 93.60101 164.620942 
L 93.673153 103.791505 
L 93.745295 200.78878 
L 93.817437 190.613591 
L 93.889579 181.019479 
L 93.961722 286.136748 
L 94.033864 232.76024 
L 94.106006 202.05716 
L 94.178148 242.678909 
L 94.322433 97.210233 
L 94.394575 131.936908 
L 94.466718 44.938024 
L 94.611002 164.237484 
L 94.683144 110.579496 
L 94.827429 209.605895 
L 94.899571 127.466778 
L 94.971713 187.960102 
L 95.043856 163.571594 
L 95.115998 104.172244 
L 95.18814 201.6198 
L 95.260283 189.87808 
L 95.332425 181.899825 
L 95.404567 286.608689 
L 95.476709 231.717666 
L 95.548852 202.625425 
L 95.620994 242.270997 
L 95.765278 97.853977 
L 95.837421 131.465354 
L 95.909563 44.396045 
L 96.053847 163.929929 
L 96.12599 110.527196 
L 96.270274 208.750604 
L 96.342417 127.353205 
L 96.414559 188.647662 
L 96.486701 162.516369 
L 96.558843 104.576163 
L 96.630986 202.433613 
L 96.703128 189.142992 
L 96.77527 182.797734 
L 96.847412 287.057171 
L 96.991697 203.205059 
L 97.063839 241.839416 
L 97.208124 98.50605 
L 97.280266 130.974383 
L 97.352408 43.874687 
L 97.496693 163.604286 
L 97.568835 110.495735 
L 97.71312 207.880881 
L 97.785262 127.261698 
L 97.857404 189.321763 
L 97.929546 161.455751 
L 98.001689 105.003101 
L 98.073831 203.229923 
L 98.145973 188.408817 
L 98.218116 183.712894 
L 98.290258 287.482039 
L 98.434542 203.795658 
L 98.506685 241.384189 
L 98.650969 99.165983 
L 98.723111 130.464165 
L 98.795254 43.374231 
L 98.939538 163.260849 
L 99.011681 110.485248 
L 99.155965 206.997145 
L 99.228107 127.192249 
L 99.30025 189.982019 
L 99.372392 160.390228 
L 99.444534 105.452887 
L 99.516676 204.008445 
L 99.588819 187.676046 
L 99.660961 184.644984 
L 99.733103 287.883149 
L 99.877388 204.396812 
L 99.94953 240.905348 
L 100.093815 99.833301 
L 100.165957 129.934879 
L 100.238099 42.894948 
L 100.382384 162.899919 
L 100.454526 110.495855 
L 100.59881 206.099821 
L 100.670953 127.144841 
L 100.743095 190.62805 
L 100.815237 159.320291 
L 100.88738 105.925341 
L 100.959522 204.768902 
L 101.031664 186.945166 
L 101.103806 185.593676 
L 101.175949 288.260368 
L 101.320233 205.008105 
L 101.392375 240.402937 
L 101.53666 100.50753 
L 101.608802 129.386712 
L 101.680945 42.437097 
L 101.825229 162.521808 
L 101.897371 110.52767 
L 102.041656 205.189338 
L 102.113798 127.119447 
L 102.18594 191.259485 
L 102.258083 158.246434 
L 102.330225 106.420272 
L 102.402367 205.511024 
L 102.474509 186.216666 
L 102.546652 186.558631 
L 102.618794 288.613574 
L 102.763079 205.629116 
L 102.835221 239.877012 
L 102.979505 101.18819 
L 103.051648 128.819863 
L 103.12379 42.000932 
L 103.268074 162.126834 
L 103.340217 110.580794 
L 103.484501 204.266132 
L 103.556644 127.116027 
L 103.628786 191.87596 
L 103.700928 157.169151 
L 103.77307 106.937478 
L 103.845213 206.234554 
L 103.917355 185.491035 
L 103.989497 187.539504 
L 104.061639 288.942656 
L 104.205924 206.259417 
L 104.278066 239.327638 
L 104.422351 101.8748 
L 104.494493 128.234542 
L 104.566635 41.586694 
L 104.71092 161.715324 
L 104.783062 110.655316 
L 104.927347 203.330645 
L 104.999489 127.134532 
L 105.071631 192.477116 
L 105.215916 107.476748 
L 105.288058 206.939243 
L 105.3602 184.768756 
L 105.432343 188.535941 
L 105.504485 289.247512 
L 105.648769 206.898577 
L 105.720912 238.754892 
L 105.865196 102.566876 
L 105.937338 127.630967 
L 106.009481 41.194615 
L 106.153765 161.287613 
L 106.225907 110.751317 
L 106.370192 202.383324 
L 106.442334 127.1749 
L 106.514477 193.062605 
L 106.658761 108.037861 
L 106.730903 207.62485 
L 106.803046 184.050316 
L 106.875188 189.54758 
L 106.94733 289.528053 
L 107.091615 207.546157 
L 107.163757 238.158862 
L 107.308042 103.263933 
L 107.380184 127.009367 
L 107.452326 40.824919 
L 107.596611 160.844045 
L 107.668753 110.868866 
L 107.813037 201.424621 
L 107.88518 127.237059 
L 107.957322 193.632085 
L 108.101606 108.620584 
L 108.173749 208.291147 
L 108.245891 183.336197 
L 108.318033 190.574051 
L 108.390176 289.7842 
L 108.53446 208.201715 
L 108.606602 237.539646 
L 108.750887 103.965483 
L 108.823029 126.36998 
L 108.895171 40.477817 
L 109.039456 160.384969 
L 109.111598 111.00802 
L 109.183741 200.753442 
L 109.255883 200.454992 
L 109.328025 127.320927 
L 109.400167 194.185222 
L 109.544452 109.224677 
L 109.616594 208.937914 
L 109.688736 182.626879 
L 109.760879 191.614976 
L 109.833021 290.015885 
L 109.977305 208.864805 
L 110.049448 236.897355 
L 110.193732 104.671039 
L 110.265875 125.713054 
L 110.338017 40.153512 
L 110.482301 159.910745 
L 110.554444 111.168828 
L 110.626586 201.761997 
L 110.698728 199.4749 
L 110.77087 127.426411 
L 110.843013 194.72169 
L 110.987297 109.849888 
L 111.05944 209.564941 
L 111.131582 181.922841 
L 111.203724 192.669972 
L 111.275866 290.223052 
L 111.420151 209.534974 
L 111.492293 236.232108 
L 111.636578 105.38011 
L 111.70872 125.038846 
L 111.780862 39.852197 
L 111.925147 159.421738 
L 111.997289 111.351324 
L 112.069431 202.757107 
L 112.141574 198.48481 
L 112.213716 127.553407 
L 112.285858 195.241171 
L 112.430143 110.495959 
L 112.502285 210.172028 
L 112.574427 181.224559 
L 112.646569 193.738647 
L 112.718712 290.405654 
L 112.862996 210.211767 
L 112.935139 235.544037 
L 113.079423 106.092206 
L 113.151565 124.347623 
L 113.223708 39.574055 
L 113.367992 158.918321 
L 113.440134 111.555535 
L 113.512277 203.738347 
L 113.584419 197.485193 
L 113.656561 127.701798 
L 113.728704 195.743356 
L 113.872988 111.162617 
L 113.94513 210.758985 
L 114.017273 180.532507 
L 114.089415 194.820601 
L 114.161557 290.563658 
L 114.305842 210.894724 
L 114.377984 234.833284 
L 114.522268 106.806836 
L 114.594411 123.639661 
L 114.666553 39.319256 
L 114.810838 158.400873 
L 114.88298 111.781476 
L 114.955122 204.705297 
L 115.027264 196.476524 
L 115.099407 127.871461 
L 115.171549 196.227945 
L 115.315833 111.849586 
L 115.387976 211.325634 
L 115.460118 179.847154 
L 115.53226 195.915429 
L 115.604403 290.697038 
L 115.748687 211.583381 
L 115.820829 234.100001 
L 115.892972 107.501539 
L 115.965114 107.523506 
L 116.037256 122.915244 
L 116.109398 39.087962 
L 116.253683 157.869782 
L 116.325825 112.029148 
L 116.397967 205.657544 
L 116.47011 195.459279 
L 116.542252 128.06226 
L 116.614394 196.694646 
L 116.758679 112.556575 
L 116.830821 211.871804 
L 116.902963 179.168969 
L 116.975106 197.022718 
L 117.047248 290.805783 
L 117.191532 212.277271 
L 117.263675 233.344351 
L 117.335817 106.474617 
L 117.407959 108.241725 
L 117.480102 122.174667 
L 117.552244 38.880325 
L 117.696528 157.325439 
L 117.768671 112.298546 
L 117.840813 206.594682 
L 117.912955 194.433941 
L 117.985097 128.274047 
L 118.05724 197.143174 
L 118.201524 113.283289 
L 118.273666 212.397338 
L 118.345809 178.498415 
L 118.417951 198.14205 
L 118.490093 290.889891 
L 118.634378 212.975925 
L 118.70652 232.566508 
L 118.778662 105.467021 
L 118.850805 108.961002 
L 118.922947 121.418232 
L 118.995089 38.696484 
L 119.139374 156.768246 
L 119.211516 112.58965 
L 119.283658 207.51631 
L 119.355801 193.400996 
L 119.427943 128.506665 
L 119.500085 197.573257 
L 119.64437 114.02942 
L 119.716512 212.902088 
L 119.788654 177.835953 
L 119.860796 199.272998 
L 119.932939 290.949372 
L 120.077223 213.678867 
L 120.149365 231.766656 
L 120.221508 104.479041 
L 120.29365 109.680843 
L 120.365792 120.646251 
L 120.437935 38.53657 
L 120.582219 156.198607 
L 120.654361 112.902431 
L 120.726504 208.422036 
L 120.798646 192.36093 
L 120.870788 128.759949 
L 120.94293 197.98463 
L 121.087215 114.794655 
L 121.159357 213.385915 
L 121.2315 177.182038 
L 121.303642 200.415133 
L 121.375784 290.984246 
L 121.447926 214.24502 
L 121.520069 214.385623 
L 121.592211 230.944989 
L 121.664353 103.51096 
L 121.736495 110.400757 
L 121.808638 119.859043 
L 121.88078 38.400702 
L 122.025064 155.616934 
L 122.097207 113.236849 
L 122.169349 209.311474 
L 122.241491 191.314236 
L 122.313634 129.033719 
L 122.385776 198.377035 
L 122.53006 115.578668 
L 122.602203 213.848693 
L 122.674345 176.537123 
L 122.746487 201.568016 
L 122.818629 290.994545 
L 122.890772 213.373626 
L 122.962914 215.095712 
L 123.035056 230.101712 
L 123.107199 102.563053 
L 123.179341 111.120254 
L 123.251483 119.056937 
L 123.323625 38.288987 
L 123.46791 155.023646 
L 123.540052 113.592851 
L 123.612194 210.184244 
L 123.684337 190.261407 
L 123.756479 129.32779 
L 123.828621 198.750228 
L 123.972906 116.381129 
L 124.045048 214.290306 
L 124.11719 175.901656 
L 124.189333 202.731206 
L 124.261475 290.980312 
L 124.333617 212.515369 
L 124.405759 215.808653 
L 124.477902 229.23704 
L 124.550044 101.635582 
L 124.622186 111.838843 
L 124.694328 118.240268 
L 124.766471 38.201524 
L 124.910755 154.419165 
L 124.982898 113.970377 
L 125.05504 211.039974 
L 125.127182 189.202938 
L 125.199324 129.641962 
L 125.271467 199.103972 
L 125.415751 117.201698 
L 125.487893 214.710647 
L 125.560036 175.27608 
L 125.632178 203.904253 
L 125.70432 290.941601 
L 125.776463 211.670618 
L 125.848605 216.523963 
L 125.920747 228.351197 
L 125.992889 100.728803 
L 126.065032 112.556037 
L 126.137174 117.409382 
L 126.209316 38.138399 
L 126.353601 153.80392 
L 126.425743 114.369353 
L 126.497885 211.878302 
L 126.570027 188.139328 
L 126.64217 129.976028 
L 126.714312 199.438038 
L 126.858597 118.040026 
L 126.930739 215.109623 
L 127.002881 174.660835 
L 127.075023 205.086704 
L 127.147166 290.878476 
L 127.219308 210.839732 
L 127.29145 217.241157 
L 127.363592 227.444418 
L 127.435735 99.84296 
L 127.507877 113.271347 
L 127.580019 116.564631 
L 127.652162 38.099688 
L 127.796446 153.178344 
L 127.868588 114.789694 
L 127.940731 212.698871 
L 128.012873 187.071078 
L 128.085015 130.329772 
L 128.157157 199.75221 
L 128.301442 118.895756 
L 128.373584 215.487149 
L 128.445726 174.056354 
L 128.517869 206.278101 
L 128.590011 290.791013 
L 128.662153 210.023063 
L 128.734296 217.959746 
L 128.806438 226.516947 
L 128.87858 98.978288 
L 128.950722 113.984288 
L 129.022865 115.706374 
L 129.095007 38.085455 
L 129.239291 152.542877 
L 129.311434 115.231307 
L 129.383576 213.501332 
L 129.455718 185.998688 
L 129.527861 130.702965 
L 129.600003 200.046281 
L 129.744287 119.768526 
L 129.81643 215.843151 
L 129.888572 173.463066 
L 130.032856 290.679298 
L 130.104999 209.220957 
L 130.177141 218.679243 
L 130.249283 225.56904 
L 130.321425 98.135011 
L 130.393568 114.694377 
L 130.46571 114.83498 
L 130.537852 38.095754 
L 130.682137 151.897962 
L 130.754279 115.694085 
L 130.826421 214.285345 
L 130.898564 184.922663 
L 130.970706 131.09537 
L 131.042848 200.320051 
L 131.187133 120.657964 
L 131.259275 216.177569 
L 131.331417 172.881393 
L 131.475702 290.54343 
L 131.547844 208.433749 
L 131.619986 219.399157 
L 131.692129 224.600959 
L 131.764271 97.313344 
L 131.836413 115.401133 
L 131.908555 113.950822 
L 131.980698 38.130628 
L 132.124982 151.244047 
L 132.197124 116.177912 
L 132.269267 215.05058 
L 132.341409 183.843506 
L 132.413551 131.506743 
L 132.485694 200.573335 
L 132.629978 121.56369 
L 132.70212 216.49035 
L 132.774263 172.311754 
L 132.918547 290.383516 
L 132.990689 207.661768 
L 133.062832 220.118998 
L 133.134974 223.612979 
L 133.207116 96.513492 
L 133.279259 116.104075 
L 133.351401 113.054284 
L 133.423543 38.190109 
L 133.567828 150.581585 
L 133.63997 116.682662 
L 133.712112 215.796711 
L 133.784254 182.761724 
L 133.856397 131.936826 
L 133.928539 200.805953 
L 134.072823 122.485318 
L 134.144966 216.781454 
L 134.217108 171.754561 
L 134.361393 290.199675 
L 134.433535 206.905333 
L 134.505677 220.838275 
L 134.577819 222.605383 
L 134.649962 95.735649 
L 134.722104 116.802729 
L 134.794246 112.145753 
L 134.866388 38.274217 
L 135.010673 149.911031 
L 135.082815 117.208196 
L 135.154958 216.523425 
L 135.2271 181.677821 
L 135.299242 132.385354 
L 135.371384 201.01774 
L 135.515669 123.422456 
L 135.587811 217.050852 
L 135.659953 171.210218 
L 135.804238 289.992038 
L 135.87638 206.164756 
L 135.948523 221.556494 
L 136.020665 221.578461 
L 136.092807 94.979999 
L 136.164949 117.496619 
L 136.237092 111.225627 
L 136.309234 38.382962 
L 136.453518 149.232846 
L 136.525661 117.754366 
L 136.597803 217.230414 
L 136.669945 180.592305 
L 136.742087 132.852055 
L 136.81423 201.208539 
L 136.958514 124.374703 
L 137.030657 217.298524 
L 137.102799 170.679127 
L 137.247083 289.760744 
L 137.319226 205.440339 
L 137.391368 222.273164 
L 137.46351 220.532516 
L 137.535652 94.246716 
L 137.607795 118.185276 
L 137.679937 110.294306 
L 137.752079 38.516342 
L 137.896364 148.547493 
L 137.968506 118.321015 
L 138.040648 217.917383 
L 138.112791 179.505683 
L 138.184933 133.336644 
L 138.257075 201.378202 
L 138.40136 125.341653 
L 138.473502 217.524465 
L 138.545644 170.161679 
L 138.689929 289.505945 
L 138.762071 204.732377 
L 138.834213 222.987794 
L 138.906356 219.467857 
L 138.978498 93.535963 
L 139.05064 118.868233 
L 139.122782 109.3522 
L 139.194925 38.674346 
L 139.339209 147.855441 
L 139.411351 118.907972 
L 139.483494 218.584041 
L 139.555636 178.41846 
L 139.627778 133.838829 
L 139.699921 201.526593 
L 139.844205 126.322893 
L 139.916347 217.728676 
L 139.98849 169.658262 
L 140.132774 289.227803 
L 140.204916 204.041154 
L 140.277059 223.69989 
L 140.349201 218.384804 
L 140.421343 92.847892 
L 140.493485 119.545026 
L 140.565628 108.399724 
L 140.63777 38.856948 
L 140.782055 147.157159 
L 140.854197 119.515059 
L 140.926339 219.230112 
L 140.998481 177.331145 
L 141.070624 134.35831 
L 141.142766 201.653589 
L 141.28705 127.318003 
L 141.359193 217.911172 
L 141.431335 169.169255 
L 141.57562 288.926488 
L 141.647762 203.366946 
L 141.719904 224.408961 
L 141.792046 217.283683 
L 141.864189 92.182645 
L 141.936331 120.215195 
L 142.008473 107.437299 
L 142.080615 39.064115 
L 142.2249 146.453121 
L 142.297042 120.142086 
L 142.369184 219.855323 
L 142.441327 176.244242 
L 142.513469 134.894778 
L 142.585611 201.759073 
L 142.729896 128.326558 
L 142.802038 218.07198 
L 142.87418 168.695031 
L 143.018465 288.602183 
L 143.090607 202.71002 
L 143.162749 225.114517 
L 143.234892 216.164832 
L 143.307034 91.540354 
L 143.379176 120.878285 
L 143.451319 106.465351 
L 143.523461 39.2958 
L 143.667745 145.743803 
L 143.739888 120.788853 
L 143.81203 220.459416 
L 143.884172 175.158257 
L 143.956314 135.447915 
L 144.028457 201.842941 
L 144.100599 127.655379 
L 144.172741 129.348127 
L 144.244883 218.211134 
L 144.317026 168.235955 
L 144.46131 288.255081 
L 144.533453 202.070633 
L 144.605595 225.816067 
L 144.677737 215.028593 
L 144.749879 90.921138 
L 144.822022 121.533843 
L 144.894164 105.484314 
L 144.966306 39.551947 
L 145.110591 145.029684 
L 145.182733 121.45515 
L 145.254875 221.042139 
L 145.327018 174.073695 
L 145.39916 136.017395 
L 145.471302 201.9051 
L 145.543444 126.696676 
L 145.615587 130.382273 
L 145.687729 218.328683 
L 145.759871 167.792387 
L 145.904156 287.885385 
L 145.976298 201.449033 
L 146.04844 226.513124 
L 146.120583 213.875322 
L 146.192725 90.325108 
L 146.264867 122.181423 
L 146.337009 104.494624 
L 146.409152 39.832488 
L 146.553436 144.311244 
L 146.625578 122.140757 
L 146.697721 221.603252 
L 146.769863 172.991059 
L 146.842005 136.602884 
L 146.914147 201.945468 
L 146.98629 125.749355 
L 147.058432 131.428553 
L 147.130574 218.424684 
L 147.202717 167.364676 
L 147.347001 287.493306 
L 147.419143 200.845458 
L 147.491286 227.2052 
L 147.563428 212.705376 
L 147.63557 89.752362 
L 147.707712 122.820583 
L 147.779855 103.496724 
L 147.851997 40.137344 
L 147.996282 143.588965 
L 148.068424 122.845446 
L 148.140566 222.142522 
L 148.212708 171.910849 
L 148.284851 137.20404 
L 148.356993 201.963973 
L 148.429135 124.813868 
L 148.501277 132.48652 
L 148.57342 218.499206 
L 148.645562 166.953166 
L 148.789846 287.079068 
L 148.861989 200.260137 
L 148.934131 227.89181 
L 149.006273 211.519126 
L 149.078416 89.202988 
L 149.150558 123.450884 
L 149.2227 102.491064 
L 149.294842 40.466426 
L 149.439127 142.863334 
L 149.511269 123.568976 
L 149.583411 222.659728 
L 149.655554 170.833566 
L 149.727696 137.820515 
L 149.799838 201.960553 
L 149.871981 123.890662 
L 149.944123 133.555722 
L 150.016265 218.55233 
L 150.088407 166.558192 
L 150.232692 286.642903 
L 150.304834 199.693288 
L 150.376976 228.57247 
L 150.449119 210.316948 
L 150.521261 88.677063 
L 150.593403 124.071895 
L 150.665545 101.478094 
L 150.737688 40.819632 
L 150.80983 143.486324 
L 150.881972 142.134834 
L 150.954115 124.311098 
L 151.026257 223.154659 
L 151.170541 138.45195 
L 151.242684 201.935159 
L 151.314826 122.980179 
L 151.386968 134.635701 
L 151.45911 218.584145 
L 151.531253 166.180081 
L 151.675537 286.185052 
L 151.74768 199.145121 
L 151.819822 229.246699 
L 151.891964 209.099225 
L 151.964106 88.174652 
L 152.036249 124.683188 
L 152.180533 41.196851 
L 152.252675 144.435016 
L 152.324818 141.403954 
L 152.39696 125.071555 
L 152.469102 223.627113 
L 152.613387 139.097981 
L 152.685529 201.887751 
L 152.757671 122.082855 
L 152.829814 135.725995 
L 152.901956 218.594752 
L 152.974098 165.819151 
L 153.118383 285.705769 
L 153.190525 198.615835 
L 153.262667 229.914017 
L 153.334809 207.866348 
L 153.406952 87.695811 
L 153.479094 125.284342 
L 153.623379 41.597961 
L 153.695521 145.367106 
L 153.767663 140.671183 
L 153.839805 125.850077 
L 153.911948 224.076899 
L 154.056232 139.758237 
L 154.128374 201.818302 
L 154.200517 121.199119 
L 154.272659 136.826139 
L 154.344801 218.584265 
L 154.416943 165.475714 
L 154.561228 285.205313 
L 154.63337 198.105617 
L 154.705513 230.57395 
L 154.777655 206.618715 
L 154.849797 87.240584 
L 154.921939 125.874941 
L 155.066224 42.022829 
L 155.138366 146.282266 
L 155.210508 139.937008 
L 155.282651 126.646387 
L 155.354793 224.503837 
L 155.499078 140.432338 
L 155.57122 201.726795 
L 155.643362 120.329396 
L 155.715504 137.935662 
L 155.787647 218.552804 
L 155.859789 165.150071 
L 156.004073 284.683955 
L 156.076216 197.614646 
L 156.148358 231.226023 
L 156.2205 205.356732 
L 156.292642 86.809003 
L 156.364785 126.454575 
L 156.509069 42.471311 
L 156.581212 147.180175 
L 156.653354 139.20192 
L 156.725496 127.4602 
L 156.797638 224.907756 
L 156.941923 141.119898 
L 157.014065 201.613222 
L 157.086207 119.474105 
L 157.15835 139.054089 
L 157.230492 218.500504 
L 157.302634 164.842516 
L 157.446919 284.141976 
L 157.519061 197.143092 
L 157.591203 231.869767 
L 157.663346 204.080811 
L 157.735488 86.401091 
L 157.80763 127.02284 
L 157.951915 42.943252 
L 158.024057 148.060521 
L 158.096199 138.466409 
L 158.168342 128.29122 
L 158.240484 225.288495 
L 158.384768 141.820527 
L 158.456911 201.477589 
L 158.529053 118.633656 
L 158.601195 140.180943 
L 158.673337 218.427508 
L 158.74548 164.553333 
L 158.889764 283.579663 
L 158.961906 196.691111 
L 159.034049 232.504714 
L 159.106191 202.79137 
L 159.178333 86.016857 
L 159.250476 127.579339 
L 159.39476 43.438488 
L 159.466902 148.923002 
L 159.539045 137.730964 
L 159.611187 129.139142 
L 159.683329 225.645906 
L 159.827614 142.533824 
L 159.899756 201.319912 
L 159.971898 117.808455 
L 160.044041 141.315743 
L 160.116183 218.33397 
L 160.188325 164.282797 
L 160.33261 282.997315 
L 160.404752 196.258851 
L 160.476894 233.130401 
L 160.549036 201.488834 
L 160.621179 85.656302 
L 160.693321 128.123681 
L 160.837605 43.956843 
L 160.909748 149.767322 
L 160.98189 136.996076 
L 161.054032 130.003654 
L 161.126175 225.979849 
L 161.270459 143.259386 
L 161.342601 201.140217 
L 161.414744 116.998901 
L 161.486886 142.458004 
L 161.559028 218.220055 
L 161.63117 164.031175 
L 161.775455 282.395238 
L 161.847597 195.846449 
L 161.91974 233.746368 
L 161.991882 200.173634 
L 162.064024 85.319415 
L 162.136166 128.655483 
L 162.280451 44.49813 
L 162.352593 150.593198 
L 162.424735 136.262233 
L 162.496878 130.884433 
L 162.56902 226.290196 
L 162.713304 143.9968 
L 162.785447 200.938543 
L 162.857589 116.205384 
L 162.929731 143.607239 
L 163.001874 218.085936 
L 163.074016 163.798725 
L 163.2183 281.773747 
L 163.290443 195.454031 
L 163.362585 234.35216 
L 163.434727 198.846207 
L 163.506869 85.006172 
L 163.579012 129.174365 
L 163.723296 45.062155 
L 163.795439 151.400353 
L 163.867581 135.529925 
L 163.939723 131.781151 
L 164.011865 226.576831 
L 164.15615 144.74565 
L 164.228292 200.714937 
L 164.300434 115.428289 
L 164.372577 144.762957 
L 164.444719 217.931799 
L 164.516861 163.585693 
L 164.661146 281.133166 
L 164.733288 195.081714 
L 164.80543 234.947327 
L 164.877573 197.506996 
L 164.949715 84.716542 
L 165.021857 129.67996 
L 165.166142 45.648711 
L 165.238284 152.188522 
L 165.310426 134.79964 
L 165.382568 132.693468 
L 165.454711 226.839645 
L 165.598995 145.505514 
L 165.671138 200.46946 
L 165.74328 114.667994 
L 165.815422 145.924666 
L 165.887564 217.757838 
L 165.959707 163.392319 
L 166.103991 280.473826 
L 166.176133 194.729602 
L 166.248276 235.53142 
L 166.320418 196.156449 
L 166.39256 84.450478 
L 166.464702 130.171903 
L 166.608987 46.257581 
L 166.681129 152.957448 
L 166.753272 134.071863 
L 166.825414 133.621039 
L 166.897556 227.078544 
L 167.041841 146.275963 
L 167.113983 200.202181 
L 167.186125 113.924867 
L 167.258267 147.091872 
L 167.33041 217.564259 
L 167.402552 163.218831 
L 167.546837 279.796067 
L 167.618979 194.397789 
L 167.691121 236.103998 
L 167.763263 194.79502 
L 167.835406 84.207927 
L 167.907548 130.64984 
L 168.051832 46.888538 
L 168.123975 153.706883 
L 168.196117 133.347081 
L 168.268259 134.563509 
L 168.340402 227.293443 
L 168.484686 147.056565 
L 168.556828 199.913184 
L 168.628971 113.19927 
L 168.701113 148.264076 
L 168.773255 217.351275 
L 168.845397 163.065448 
L 168.989682 279.100239 
L 169.061824 194.086359 
L 169.133966 236.664624 
L 169.494678 47.541346 
L 169.56682 154.436592 
L 169.638962 132.625777 
L 169.711105 135.520516 
L 169.783247 227.484268 
L 169.927531 147.846881 
L 169.999674 199.602558 
L 170.071816 112.491557 
L 170.143958 149.440781 
L 170.216101 217.119112 
L 170.288243 162.932379 
L 170.432527 278.386696 
L 170.50467 193.795385 
L 170.576812 237.212866 
L 170.937523 48.21576 
L 171.009665 155.146346 
L 171.081808 131.908433 
L 171.15395 136.49169 
L 171.226092 227.650955 
L 171.370377 148.646467 
L 171.442519 199.270409 
L 171.514661 111.802074 
L 171.586804 150.621487 
L 171.658946 216.868003 
L 171.731088 162.819823 
L 171.875373 277.655802 
L 171.947515 193.524928 
L 172.019657 237.748298 
L 172.380369 48.911522 
L 172.452511 155.835927 
L 172.524653 131.195528 
L 172.596795 137.476654 
L 172.668938 227.793454 
L 172.813222 149.454877 
L 172.885364 198.91685 
L 172.957507 111.131159 
L 173.029649 151.805691 
L 173.101791 216.598192 
L 173.173934 162.72797 
L 173.318218 276.907927 
L 173.39036 193.27504 
L 173.462503 238.270497 
L 173.823214 49.628368 
L 173.895356 156.50513 
L 173.967499 130.48754 
L 174.039641 138.475025 
L 174.111783 227.911722 
L 174.256068 150.271659 
L 174.32821 198.542004 
L 174.400352 110.479141 
L 174.472494 152.992891 
L 174.544637 216.309932 
L 174.616779 162.656997 
L 174.761063 276.143451 
L 174.833206 193.045761 
L 174.905348 238.779049 
L 175.266059 50.366022 
L 175.338202 157.153756 
L 175.410344 129.784943 
L 175.482486 139.48641 
L 175.554628 228.005731 
L 175.698913 151.096357 
L 175.771055 198.146009 
L 175.843198 109.84634 
L 175.91534 154.182584 
L 175.987482 216.003485 
L 176.059624 162.607075 
L 176.203909 275.362759 
L 176.276051 192.837119 
L 176.348193 239.273545 
L 176.708905 51.124201 
L 176.781047 157.781619 
L 176.853189 129.088211 
L 176.925332 140.510411 
L 176.997474 228.075461 
L 177.069616 151.565809 
L 177.141758 151.928509 
L 177.213901 197.729008 
L 177.286043 109.23307 
L 177.358185 155.374266 
L 177.430327 215.679123 
L 177.50247 162.578362 
L 177.646754 274.566242 
L 177.718897 192.649133 
L 177.791039 239.753581 
L 178.079608 81.472119 
L 178.15175 51.90261 
L 178.223892 158.388542 
L 178.296035 128.397811 
L 178.368177 141.546624 
L 178.440319 228.120905 
L 178.512461 150.647347 
L 178.584604 152.767654 
L 178.656746 197.29116 
L 178.728888 108.639632 
L 178.873173 215.337126 
L 178.945315 162.571005 
L 179.0896 273.7543 
L 179.161742 192.48181 
L 179.233884 240.218761 
L 179.522453 80.413325 
L 179.594596 52.700948 
L 179.666738 158.974359 
L 179.73888 127.714209 
L 179.811022 142.594636 
L 179.883165 228.142067 
L 179.955307 149.741504 
L 180.027449 153.613324 
L 180.099591 196.83263 
L 180.171734 108.066322 
L 180.316018 214.977783 
L 180.388161 162.585142 
L 180.532445 272.927338 
L 180.604587 192.335147 
L 180.67673 240.668694 
L 180.965299 79.357419 
L 181.037441 53.518902 
L 181.109583 159.538916 
L 181.181725 127.037867 
L 181.253868 143.654031 
L 181.32601 228.13896 
L 181.398152 148.848687 
L 181.470295 154.465048 
L 181.542437 196.353596 
L 181.614579 107.513425 
L 181.758864 214.601393 
L 181.831006 162.6209 
L 181.97529 272.085768 
L 182.047433 192.209128 
L 182.119575 241.102997 
L 182.408144 78.3049 
L 182.480286 54.356154 
L 182.552429 160.082066 
L 182.624571 126.369244 
L 182.696713 144.724385 
L 182.768855 228.111611 
L 182.840998 147.969291 
L 182.91314 155.322353 
L 182.985282 195.854245 
L 183.057424 106.981217 
L 183.201709 214.208261 
L 183.273851 162.678395 
L 183.418136 271.230008 
L 183.490278 192.103729 
L 183.56242 241.521293 
L 183.850989 77.256265 
L 183.923132 55.212373 
L 183.995274 160.603675 
L 184.067416 125.708794 
L 184.139559 145.805267 
L 184.211701 228.060056 
L 184.283843 147.103709 
L 184.355985 156.184763 
L 184.428128 195.334775 
L 184.50027 106.469964 
L 184.644554 213.798704 
L 184.716697 162.757733 
L 184.860981 270.360482 
L 184.933123 192.018913 
L 185.005266 241.923213 
L 185.293835 76.212011 
L 185.365977 56.087224 
L 185.438119 161.103621 
L 185.510262 125.056968 
L 185.582404 146.896242 
L 185.654546 227.984343 
L 185.726688 146.252323 
L 185.798831 157.0518 
L 185.870973 194.795394 
L 185.943115 105.979924 
L 186.0874 213.373044 
L 186.159542 162.859009 
L 186.303827 269.477619 
L 186.375969 191.954632 
L 186.448111 242.308395 
L 186.73668 75.172635 
L 186.808822 56.98036 
L 186.880965 161.581789 
L 186.953107 124.414211 
L 187.025249 147.996871 
L 187.097392 227.88453 
L 187.169534 145.415511 
L 187.241676 157.922983 
L 187.313818 194.236319 
L 187.385961 105.511344 
L 187.530245 212.931613 
L 187.602387 162.982307 
L 187.746672 268.581854 
L 187.818814 191.910828 
L 187.890957 242.676485 
L 188.179526 74.13863 
L 188.251668 57.891427 
L 188.32381 162.038079 
L 188.395952 123.780965 
L 188.468095 149.106705 
L 188.540237 227.760688 
L 188.612379 144.593641 
L 188.684521 158.797828 
L 188.756664 193.657779 
L 188.828806 105.064462 
L 188.973091 212.47475 
L 189.045233 163.127701 
L 189.189517 267.673629 
L 189.26166 191.887432 
L 189.333802 243.027135 
L 189.478086 83.320383 
L 189.550229 135.921242 
L 189.694513 58.820065 
L 189.766656 162.472398 
L 189.838798 123.157666 
L 189.91094 150.225296 
L 189.983082 227.612897 
L 190.055225 143.787074 
L 190.127367 159.675852 
L 190.199509 193.060011 
L 190.271651 104.639505 
L 190.415936 212.002803 
L 190.488078 163.295252 
L 190.632363 266.753387 
L 190.704505 191.884365 
L 190.776647 243.360007 
L 190.920932 83.437726 
L 190.993074 136.13347 
L 191.137359 59.765904 
L 191.209501 162.884667 
L 191.281643 122.544745 
L 191.353785 151.352185 
L 191.425928 227.441249 
L 191.49807 142.996164 
L 191.570212 160.556567 
L 191.642355 192.443262 
L 191.714497 104.236693 
L 191.858781 211.516126 
L 191.930924 163.485012 
L 192.075208 265.821581 
L 192.14735 191.901535 
L 192.219493 243.674769 
L 192.363777 83.576012 
L 192.43592 136.326948 
L 192.580204 60.728567 
L 192.652346 163.274815 
L 192.724489 121.942628 
L 192.868773 227.245846 
L 192.940915 142.221256 
L 193.013058 161.439486 
L 193.0852 191.807789 
L 193.157342 103.856232 
L 193.301627 211.015081 
L 193.373769 163.697022 
L 193.518054 264.878663 
L 193.590196 191.938841 
L 193.662338 243.971099 
L 193.806623 83.735 
L 193.878765 136.501479 
L 194.023049 61.70767 
L 194.095192 163.642786 
L 194.167334 121.351737 
L 194.311619 227.026802 
L 194.383761 141.462688 
L 194.455903 162.324121 
L 194.528045 191.153859 
L 194.600188 103.49832 
L 194.744472 210.500038 
L 194.816614 163.931312 
L 194.960899 263.925095 
L 195.033041 191.996171 
L 195.105183 244.248683 
L 195.249468 83.914437 
L 195.32161 136.656879 
L 195.465895 62.702821 
L 195.538037 163.988531 
L 195.610179 120.772485 
L 195.754464 226.78424 
L 195.826606 140.720787 
L 195.898748 163.209982 
L 195.970891 190.481747 
L 196.043033 103.163145 
L 196.187318 209.971373 
L 196.25946 164.187899 
L 196.331602 263.29946 
L 196.403744 262.961339 
L 196.475887 192.073403 
L 196.548029 244.507214 
L 196.692313 84.114062 
L 196.764456 136.792973 
L 196.90874 63.713621 
L 196.980882 164.312013 
L 197.053025 120.205282 
L 197.197309 226.518296 
L 197.269452 139.995875 
L 197.341594 164.096579 
L 197.413736 189.791737 
L 197.485878 102.850884 
L 197.630163 209.42947 
L 197.702305 164.466792 
L 197.774447 264.340335 
L 197.84659 261.987863 
L 197.918732 192.170402 
L 197.990874 244.746395 
L 198.063017 164.54 
L 198.063017 164.54 
" style="fill:none;stroke:#1f77b4;stroke-linecap:square;stroke-width:1.5;"/>
   </g>
   <g id="patch_3">
    <path d="M 46.64 303.64 
L 46.64 25.44 
" style="fill:none;stroke:#000000;stroke-linecap:square;stroke-linejoin:miter;stroke-width:0.8;"/>
   </g>
   <g id="patch_4">
    <path d="M 205.273636 303.64 
L 205.273636 25.44 
" style="fill:none;stroke:#000000;stroke-linecap:square;stroke-linejoin:miter;stroke-width:0.8;"/>
   </g>
   <g id="patch_5">
    <path d="M 46.64 303.64 
L 205.273636 303.64 
" style="fill:none;stroke:#000000;stroke-linecap:square;stroke-linejoin:miter;stroke-width:0.8;"/>
   </g>
   <g id="patch_6">
    <path d="M 46.64 25.44 
L 205.273636 25.44 
" style="fill:none;stroke:#000000;stroke-linecap:square;stroke-linejoin:miter;stroke-width:0.8;"/>
   </g>
   <g id="text_13">
    <!-- Orignal Signal (Time domain) -->
    <defs>
     <path d="M 39.40625 66.21875 
Q 28.65625 66.21875 22.328125 58.203125 
Q 16.015625 50.203125 16.015625 36.375 
Q 16.015625 22.609375 22.328125 14.59375 
Q 28.65625 6.59375 39.40625 6.59375 
Q 50.140625 6.59375 56.421875 14.59375 
Q 62.703125 22.609375 62.703125 36.375 
Q 62.703125 50.203125 56.421875 58.203125 
Q 50.140625 66.21875 39.40625 66.21875 
z
M 39.40625 74.21875 
Q 54.734375 74.21875 63.90625 63.9375 
Q 73.09375 53.65625 73.09375 36.375 
Q 73.09375 19.140625 63.90625 8.859375 
Q 54.734375 -1.421875 39.40625 -1.421875 
Q 24.03125 -1.421875 14.8125 8.828125 
Q 5.609375 19.09375 5.609375 36.375 
Q 5.609375 53.65625 14.8125 63.9375 
Q 24.03125 74.21875 39.40625 74.21875 
z
" id="DejaVuSans-4f"/>
     <path d="M 41.109375 46.296875 
Q 39.59375 47.171875 37.8125 47.578125 
Q 36.03125 48 33.890625 48 
Q 26.265625 48 22.1875 43.046875 
Q 18.109375 38.09375 18.109375 28.8125 
L 18.109375 0 
L 9.078125 0 
L 9.078125 54.6875 
L 18.109375 54.6875 
L 18.109375 46.1875 
Q 20.953125 51.171875 25.484375 53.578125 
Q 30.03125 56 36.53125 56 
Q 37.453125 56 38.578125 55.875 
Q 39.703125 55.765625 41.0625 55.515625 
z
" id="DejaVuSans-72"/>
     <path d="M 45.40625 27.984375 
Q 45.40625 37.75 41.375 43.109375 
Q 37.359375 48.484375 30.078125 48.484375 
Q 22.859375 48.484375 18.828125 43.109375 
Q 14.796875 37.75 14.796875 27.984375 
Q 14.796875 18.265625 18.828125 12.890625 
Q 22.859375 7.515625 30.078125 7.515625 
Q 37.359375 7.515625 41.375 12.890625 
Q 45.40625 18.265625 45.40625 27.984375 
z
M 54.390625 6.78125 
Q 54.390625 -7.171875 48.1875 -13.984375 
Q 42 -20.796875 29.203125 -20.796875 
Q 24.46875 -20.796875 20.265625 -20.09375 
Q 16.0625 -19.390625 12.109375 -17.921875 
L 12.109375 -9.1875 
Q 16.0625 -11.328125 19.921875 -12.34375 
Q 23.78125 -13.375 27.78125 -13.375 
Q 36.625 -13.375 41.015625 -8.765625 
Q 45.40625 -4.15625 45.40625 5.171875 
L 45.40625 9.625 
Q 42.625 4.78125 38.28125 2.390625 
Q 33.9375 0 27.875 0 
Q 17.828125 0 11.671875 7.65625 
Q 5.515625 15.328125 5.515625 27.984375 
Q 5.515625 40.671875 11.671875 48.328125 
Q 17.828125 56 27.875 56 
Q 33.9375 56 38.28125 53.609375 
Q 42.625 51.21875 45.40625 46.390625 
L 45.40625 54.6875 
L 54.390625 54.6875 
z
" id="DejaVuSans-67"/>
     <path d="M 54.890625 33.015625 
L 54.890625 0 
L 45.90625 0 
L 45.90625 32.71875 
Q 45.90625 40.484375 42.875 44.328125 
Q 39.84375 48.1875 33.796875 48.1875 
Q 26.515625 48.1875 22.3125 43.546875 
Q 18.109375 38.921875 18.109375 30.90625 
L 18.109375 0 
L 9.078125 0 
L 9.078125 54.6875 
L 18.109375 54.6875 
L 18.109375 46.1875 
Q 21.34375 51.125 25.703125 53.5625 
Q 30.078125 56 35.796875 56 
Q 45.21875 56 50.046875 50.171875 
Q 54.890625 44.34375 54.890625 33.015625 
z
" id="DejaVuSans-6e"/>
     <path d="M 34.28125 27.484375 
Q 23.390625 27.484375 19.1875 25 
Q 14.984375 22.515625 14.984375 16.5 
Q 14.984375 11.71875 18.140625 8.90625 
Q 21.296875 6.109375 26.703125 6.109375 
Q 34.1875 6.109375 38.703125 11.40625 
Q 43.21875 16.703125 43.21875 25.484375 
L 43.21875 27.484375 
z
M 52.203125 31.203125 
L 52.203125 0 
L 43.21875 0 
L 43.21875 8.296875 
Q 40.140625 3.328125 35.546875 0.953125 
Q 30.953125 -1.421875 24.3125 -1.421875 
Q 15.921875 -1.421875 10.953125 3.296875 
Q 6 8.015625 6 15.921875 
Q 6 25.140625 12.171875 29.828125 
Q 18.359375 34.515625 30.609375 34.515625 
L 43.21875 34.515625 
L 43.21875 35.40625 
Q 43.21875 41.609375 39.140625 45 
Q 35.0625 48.390625 27.6875 48.390625 
Q 23 48.390625 18.546875 47.265625 
Q 14.109375 46.140625 10.015625 43.890625 
L 10.015625 52.203125 
Q 14.9375 54.109375 19.578125 55.046875 
Q 24.21875 56 28.609375 56 
Q 40.484375 56 46.34375 49.84375 
Q 52.203125 43.703125 52.203125 31.203125 
z
" id="DejaVuSans-61"/>
     <path id="DejaVuSans-20"/>
     <path d="M 53.515625 70.515625 
L 53.515625 60.890625 
Q 47.90625 63.578125 42.921875 64.890625 
Q 37.9375 66.21875 33.296875 66.21875 
Q 25.25 66.21875 20.875 63.09375 
Q 16.5 59.96875 16.5 54.203125 
Q 16.5 49.359375 19.40625 46.890625 
Q 22.3125 44.4375 30.421875 42.921875 
L 36.375 41.703125 
Q 47.40625 39.59375 52.65625 34.296875 
Q 57.90625 29 57.90625 20.125 
Q 57.90625 9.515625 50.796875 4.046875 
Q 43.703125 -1.421875 29.984375 -1.421875 
Q 24.8125 -1.421875 18.96875 -0.25 
Q 13.140625 0.921875 6.890625 3.21875 
L 6.890625 13.375 
Q 12.890625 10.015625 18.65625 8.296875 
Q 24.421875 6.59375 29.984375 6.59375 
Q 38.421875 6.59375 43.015625 9.90625 
Q 47.609375 13.234375 47.609375 19.390625 
Q 47.609375 24.75 44.3125 27.78125 
Q 41.015625 30.8125 33.5 32.328125 
L 27.484375 33.5 
Q 16.453125 35.6875 11.515625 40.375 
Q 6.59375 45.0625 6.59375 53.421875 
Q 6.59375 63.09375 13.40625 68.65625 
Q 20.21875 74.21875 32.171875 74.21875 
Q 37.3125 74.21875 42.625 73.28125 
Q 47.953125 72.359375 53.515625 70.515625 
z
" id="DejaVuSans-53"/>
     <path d="M 31 75.875 
Q 24.46875 64.65625 21.28125 53.65625 
Q 18.109375 42.671875 18.109375 31.390625 
Q 18.109375 20.125 21.3125 9.0625 
Q 24.515625 -2 31 -13.1875 
L 23.1875 -13.1875 
Q 15.875 -1.703125 12.234375 9.375 
Q 8.59375 20.453125 8.59375 31.390625 
Q 8.59375 42.28125 12.203125 53.3125 
Q 15.828125 64.359375 23.1875 75.875 
z
" id="DejaVuSans-28"/>
     <path d="M 30.609375 48.390625 
Q 23.390625 48.390625 19.1875 42.75 
Q 14.984375 37.109375 14.984375 27.296875 
Q 14.984375 17.484375 19.15625 11.84375 
Q 23.34375 6.203125 30.609375 6.203125 
Q 37.796875 6.203125 41.984375 11.859375 
Q 46.1875 17.53125 46.1875 27.296875 
Q 46.1875 37.015625 41.984375 42.703125 
Q 37.796875 48.390625 30.609375 48.390625 
z
M 30.609375 56 
Q 42.328125 56 49.015625 48.375 
Q 55.71875 40.765625 55.71875 27.296875 
Q 55.71875 13.875 49.015625 6.21875 
Q 42.328125 -1.421875 30.609375 -1.421875 
Q 18.84375 -1.421875 12.171875 6.21875 
Q 5.515625 13.875 5.515625 27.296875 
Q 5.515625 40.765625 12.171875 48.375 
Q 18.84375 56 30.609375 56 
z
" id="DejaVuSans-6f"/>
     <path d="M 8.015625 75.875 
L 15.828125 75.875 
Q 23.140625 64.359375 26.78125 53.3125 
Q 30.421875 42.28125 30.421875 31.390625 
Q 30.421875 20.453125 26.78125 9.375 
Q 23.140625 -1.703125 15.828125 -13.1875 
L 8.015625 -13.1875 
Q 14.5 -2 17.703125 9.0625 
Q 20.90625 20.125 20.90625 31.390625 
Q 20.90625 42.671875 17.703125 53.65625 
Q 14.5 64.65625 8.015625 75.875 
z
" id="DejaVuSans-29"/>
    </defs>
    <g transform="translate(37.975256 19.44)scale(0.12 -0.12)">
     <use xlink:href="#DejaVuSans-4f"/>
     <use x="78.710938" xlink:href="#DejaVuSans-72"/>
     <use x="119.824219" xlink:href="#DejaVuSans-69"/>
     <use x="147.607422" xlink:href="#DejaVuSans-67"/>
     <use x="211.083984" xlink:href="#DejaVuSans-6e"/>
     <use x="274.462891" xlink:href="#DejaVuSans-61"/>
     <use x="335.742188" xlink:href="#DejaVuSans-6c"/>
     <use x="363.525391" xlink:href="#DejaVuSans-20"/>
     <use x="395.3125" xlink:href="#DejaVuSans-53"/>
     <use x="458.789062" xlink:href="#DejaVuSans-69"/>
     <use x="486.572266" xlink:href="#DejaVuSans-67"/>
     <use x="550.048828" xlink:href="#DejaVuSans-6e"/>
     <use x="613.427734" xlink:href="#DejaVuSans-61"/>
     <use x="674.707031" xlink:href="#DejaVuSans-6c"/>
     <use x="702.490234" xlink:href="#DejaVuSans-20"/>
     <use x="734.277344" xlink:href="#DejaVuSans-28"/>
     <use x="773.291016" xlink:href="#DejaVuSans-54"/>
     <use x="834.328125" xlink:href="#DejaVuSans-69"/>
     <use x="862.111328" xlink:href="#DejaVuSans-6d"/>
     <use x="959.523438" xlink:href="#DejaVuSans-65"/>
     <use x="1021.046875" xlink:href="#DejaVuSans-20"/>
     <use x="1052.833984" xlink:href="#DejaVuSans-64"/>
     <use x="1116.310547" xlink:href="#DejaVuSans-6f"/>
     <use x="1177.492188" xlink:href="#DejaVuSans-6d"/>
     <use x="1274.904297" xlink:href="#DejaVuSans-61"/>
     <use x="1336.183594" xlink:href="#DejaVuSans-69"/>
     <use x="1363.966797" xlink:href="#DejaVuSans-6e"/>
     <use x="1427.345703" xlink:href="#DejaVuSans-29"/>
    </g>
   </g>
  </g>
  <g id="axes_2">
   <g id="patch_7">
    <path d="M 269.3 303.64 
L 427.933636 303.64 
L 427.933636 25.44 
L 269.3 25.44 
z
" style="fill:#ffffff;"/>
   </g>
   <g id="matplotlib.axis_3">
    <g id="xtick_6">
     <g id="line2d_22">
      <path clip-path="url(#p2fa93cf027)" d="M 276.51062 303.64 
L 276.51062 25.44 
" style="fill:none;stroke:#b0b0b0;stroke-linecap:square;stroke-width:0.8;"/>
     </g>
     <g id="line2d_23">
      <g>
       <use style="stroke:#000000;stroke-width:0.8;" x="276.51062" xlink:href="#m2c7d2094db" y="303.64"/>
      </g>
     </g>
     <g id="text_14">
      <!-- −1000 -->
      <g transform="translate(259.595776 318.238437)scale(0.1 -0.1)">
       <use xlink:href="#DejaVuSans-2212"/>
       <use x="83.789062" xlink:href="#DejaVuSans-31"/>
       <use x="147.412109" xlink:href="#DejaVuSans-30"/>
       <use x="211.035156" xlink:href="#DejaVuSans-30"/>
       <use x="274.658203" xlink:href="#DejaVuSans-30"/>
      </g>
     </g>
    </g>
    <g id="xtick_7">
     <g id="line2d_24">
      <path clip-path="url(#p2fa93cf027)" d="M 312.563719 303.64 
L 312.563719 25.44 
" style="fill:none;stroke:#b0b0b0;stroke-linecap:square;stroke-width:0.8;"/>
     </g>
     <g id="line2d_25">
      <g>
       <use style="stroke:#000000;stroke-width:0.8;" x="312.563719" xlink:href="#m2c7d2094db" y="303.64"/>
      </g>
     </g>
     <g id="text_15">
      <!-- −500 -->
      <g transform="translate(298.830125 318.238437)scale(0.1 -0.1)">
       <use xlink:href="#DejaVuSans-2212"/>
       <use x="83.789062" xlink:href="#DejaVuSans-35"/>
       <use x="147.412109" xlink:href="#DejaVuSans-30"/>
       <use x="211.035156" xlink:href="#DejaVuSans-30"/>
      </g>
     </g>
    </g>
    <g id="xtick_8">
     <g id="line2d_26">
      <path clip-path="url(#p2fa93cf027)" d="M 348.616818 303.64 
L 348.616818 25.44 
" style="fill:none;stroke:#b0b0b0;stroke-linecap:square;stroke-width:0.8;"/>
     </g>
     <g id="line2d_27">
      <g>
       <use style="stroke:#000000;stroke-width:0.8;" x="348.616818" xlink:href="#m2c7d2094db" y="303.64"/>
      </g>
     </g>
     <g id="text_16">
      <!-- 0 -->
      <g transform="translate(345.435568 318.238437)scale(0.1 -0.1)">
       <use xlink:href="#DejaVuSans-30"/>
      </g>
     </g>
    </g>
    <g id="xtick_9">
     <g id="line2d_28">
      <path clip-path="url(#p2fa93cf027)" d="M 384.669917 303.64 
L 384.669917 25.44 
" style="fill:none;stroke:#b0b0b0;stroke-linecap:square;stroke-width:0.8;"/>
     </g>
     <g id="line2d_29">
      <g>
       <use style="stroke:#000000;stroke-width:0.8;" x="384.669917" xlink:href="#m2c7d2094db" y="303.64"/>
      </g>
     </g>
     <g id="text_17">
      <!-- 500 -->
      <g transform="translate(375.126167 318.238437)scale(0.1 -0.1)">
       <use xlink:href="#DejaVuSans-35"/>
       <use x="63.623047" xlink:href="#DejaVuSans-30"/>
       <use x="127.246094" xlink:href="#DejaVuSans-30"/>
      </g>
     </g>
    </g>
    <g id="xtick_10">
     <g id="line2d_30">
      <path clip-path="url(#p2fa93cf027)" d="M 420.723017 303.64 
L 420.723017 25.44 
" style="fill:none;stroke:#b0b0b0;stroke-linecap:square;stroke-width:0.8;"/>
     </g>
     <g id="line2d_31">
      <g>
       <use style="stroke:#000000;stroke-width:0.8;" x="420.723017" xlink:href="#m2c7d2094db" y="303.64"/>
      </g>
     </g>
     <g id="text_18">
      <!-- 1000 -->
      <g transform="translate(407.998017 318.238437)scale(0.1 -0.1)">
       <use xlink:href="#DejaVuSans-31"/>
       <use x="63.623047" xlink:href="#DejaVuSans-30"/>
       <use x="127.246094" xlink:href="#DejaVuSans-30"/>
       <use x="190.869141" xlink:href="#DejaVuSans-30"/>
      </g>
     </g>
    </g>
    <g id="text_19">
     <!-- Frequency/Hz -->
     <defs>
      <path d="M 9.8125 72.90625 
L 51.703125 72.90625 
L 51.703125 64.59375 
L 19.671875 64.59375 
L 19.671875 43.109375 
L 48.578125 43.109375 
L 48.578125 34.8125 
L 19.671875 34.8125 
L 19.671875 0 
L 9.8125 0 
z
" id="DejaVuSans-46"/>
      <path d="M 14.796875 27.296875 
Q 14.796875 17.390625 18.875 11.75 
Q 22.953125 6.109375 30.078125 6.109375 
Q 37.203125 6.109375 41.296875 11.75 
Q 45.40625 17.390625 45.40625 27.296875 
Q 45.40625 37.203125 41.296875 42.84375 
Q 37.203125 48.484375 30.078125 48.484375 
Q 22.953125 48.484375 18.875 42.84375 
Q 14.796875 37.203125 14.796875 27.296875 
z
M 45.40625 8.203125 
Q 42.578125 3.328125 38.25 0.953125 
Q 33.9375 -1.421875 27.875 -1.421875 
Q 17.96875 -1.421875 11.734375 6.484375 
Q 5.515625 14.40625 5.515625 27.296875 
Q 5.515625 40.1875 11.734375 48.09375 
Q 17.96875 56 27.875 56 
Q 33.9375 56 38.25 53.625 
Q 42.578125 51.265625 45.40625 46.390625 
L 45.40625 54.6875 
L 54.390625 54.6875 
L 54.390625 -20.796875 
L 45.40625 -20.796875 
z
" id="DejaVuSans-71"/>
      <path d="M 48.78125 52.59375 
L 48.78125 44.1875 
Q 44.96875 46.296875 41.140625 47.34375 
Q 37.3125 48.390625 33.40625 48.390625 
Q 24.65625 48.390625 19.8125 42.84375 
Q 14.984375 37.3125 14.984375 27.296875 
Q 14.984375 17.28125 19.8125 11.734375 
Q 24.65625 6.203125 33.40625 6.203125 
Q 37.3125 6.203125 41.140625 7.25 
Q 44.96875 8.296875 48.78125 10.40625 
L 48.78125 2.09375 
Q 45.015625 0.34375 40.984375 -0.53125 
Q 36.96875 -1.421875 32.421875 -1.421875 
Q 20.0625 -1.421875 12.78125 6.34375 
Q 5.515625 14.109375 5.515625 27.296875 
Q 5.515625 40.671875 12.859375 48.328125 
Q 20.21875 56 33.015625 56 
Q 37.15625 56 41.109375 55.140625 
Q 45.0625 54.296875 48.78125 52.59375 
z
" id="DejaVuSans-63"/>
      <path d="M 32.171875 -5.078125 
Q 28.375 -14.84375 24.75 -17.8125 
Q 21.140625 -20.796875 15.09375 -20.796875 
L 7.90625 -20.796875 
L 7.90625 -13.28125 
L 13.1875 -13.28125 
Q 16.890625 -13.28125 18.9375 -11.515625 
Q 21 -9.765625 23.484375 -3.21875 
L 25.09375 0.875 
L 2.984375 54.6875 
L 12.5 54.6875 
L 29.59375 11.921875 
L 46.6875 54.6875 
L 56.203125 54.6875 
z
" id="DejaVuSans-79"/>
      <path d="M 9.8125 72.90625 
L 19.671875 72.90625 
L 19.671875 43.015625 
L 55.515625 43.015625 
L 55.515625 72.90625 
L 65.375 72.90625 
L 65.375 0 
L 55.515625 0 
L 55.515625 34.71875 
L 19.671875 34.71875 
L 19.671875 0 
L 9.8125 0 
z
" id="DejaVuSans-48"/>
      <path d="M 5.515625 54.6875 
L 48.1875 54.6875 
L 48.1875 46.484375 
L 14.40625 7.171875 
L 48.1875 7.171875 
L 48.1875 0 
L 4.296875 0 
L 4.296875 8.203125 
L 38.09375 47.515625 
L 5.515625 47.515625 
z
" id="DejaVuSans-7a"/>
     </defs>
     <g transform="translate(314.250412 331.916562)scale(0.1 -0.1)">
      <use xlink:href="#DejaVuSans-46"/>
      <use x="57.410156" xlink:href="#DejaVuSans-72"/>
      <use x="98.492188" xlink:href="#DejaVuSans-65"/>
      <use x="160.015625" xlink:href="#DejaVuSans-71"/>
      <use x="223.492188" xlink:href="#DejaVuSans-75"/>
      <use x="286.871094" xlink:href="#DejaVuSans-65"/>
      <use x="348.394531" xlink:href="#DejaVuSans-6e"/>
      <use x="411.773438" xlink:href="#DejaVuSans-63"/>
      <use x="466.753906" xlink:href="#DejaVuSans-79"/>
      <use x="525.933594" xlink:href="#DejaVuSans-2f"/>
      <use x="559.625" xlink:href="#DejaVuSans-48"/>
      <use x="634.820312" xlink:href="#DejaVuSans-7a"/>
     </g>
    </g>
   </g>
   <g id="matplotlib.axis_4">
    <g id="ytick_6">
     <g id="line2d_32">
      <path clip-path="url(#p2fa93cf027)" d="M 269.3 290.994545 
L 427.933636 290.994545 
" style="fill:none;stroke:#b0b0b0;stroke-linecap:square;stroke-width:0.8;"/>
     </g>
     <g id="line2d_33">
      <g>
       <use style="stroke:#000000;stroke-width:0.8;" x="269.3" xlink:href="#m8fbad4ac1d" y="290.994545"/>
      </g>
     </g>
     <g id="text_20">
      <!-- 0 -->
      <g transform="translate(255.9375 294.793764)scale(0.1 -0.1)">
       <use xlink:href="#DejaVuSans-30"/>
      </g>
     </g>
    </g>
    <g id="ytick_7">
     <g id="line2d_34">
      <path clip-path="url(#p2fa93cf027)" d="M 269.3 240.22816 
L 427.933636 240.22816 
" style="fill:none;stroke:#b0b0b0;stroke-linecap:square;stroke-width:0.8;"/>
     </g>
     <g id="line2d_35">
      <g>
       <use style="stroke:#000000;stroke-width:0.8;" x="269.3" xlink:href="#m8fbad4ac1d" y="240.22816"/>
      </g>
     </g>
     <g id="text_21">
      <!-- 200 -->
      <g transform="translate(243.2125 244.027378)scale(0.1 -0.1)">
       <use xlink:href="#DejaVuSans-32"/>
       <use x="63.623047" xlink:href="#DejaVuSans-30"/>
       <use x="127.246094" xlink:href="#DejaVuSans-30"/>
      </g>
     </g>
    </g>
    <g id="ytick_8">
     <g id="line2d_36">
      <path clip-path="url(#p2fa93cf027)" d="M 269.3 189.461774 
L 427.933636 189.461774 
" style="fill:none;stroke:#b0b0b0;stroke-linecap:square;stroke-width:0.8;"/>
     </g>
     <g id="line2d_37">
      <g>
       <use style="stroke:#000000;stroke-width:0.8;" x="269.3" xlink:href="#m8fbad4ac1d" y="189.461774"/>
      </g>
     </g>
     <g id="text_22">
      <!-- 400 -->
      <defs>
       <path d="M 37.796875 64.3125 
L 12.890625 25.390625 
L 37.796875 25.390625 
z
M 35.203125 72.90625 
L 47.609375 72.90625 
L 47.609375 25.390625 
L 58.015625 25.390625 
L 58.015625 17.1875 
L 47.609375 17.1875 
L 47.609375 0 
L 37.796875 0 
L 37.796875 17.1875 
L 4.890625 17.1875 
L 4.890625 26.703125 
z
" id="DejaVuSans-34"/>
      </defs>
      <g transform="translate(243.2125 193.260992)scale(0.1 -0.1)">
       <use xlink:href="#DejaVuSans-34"/>
       <use x="63.623047" xlink:href="#DejaVuSans-30"/>
       <use x="127.246094" xlink:href="#DejaVuSans-30"/>
      </g>
     </g>
    </g>
    <g id="ytick_9">
     <g id="line2d_38">
      <path clip-path="url(#p2fa93cf027)" d="M 269.3 138.695388 
L 427.933636 138.695388 
" style="fill:none;stroke:#b0b0b0;stroke-linecap:square;stroke-width:0.8;"/>
     </g>
     <g id="line2d_39">
      <g>
       <use style="stroke:#000000;stroke-width:0.8;" x="269.3" xlink:href="#m8fbad4ac1d" y="138.695388"/>
      </g>
     </g>
     <g id="text_23">
      <!-- 600 -->
      <defs>
       <path d="M 33.015625 40.375 
Q 26.375 40.375 22.484375 35.828125 
Q 18.609375 31.296875 18.609375 23.390625 
Q 18.609375 15.53125 22.484375 10.953125 
Q 26.375 6.390625 33.015625 6.390625 
Q 39.65625 6.390625 43.53125 10.953125 
Q 47.40625 15.53125 47.40625 23.390625 
Q 47.40625 31.296875 43.53125 35.828125 
Q 39.65625 40.375 33.015625 40.375 
z
M 52.59375 71.296875 
L 52.59375 62.3125 
Q 48.875 64.0625 45.09375 64.984375 
Q 41.3125 65.921875 37.59375 65.921875 
Q 27.828125 65.921875 22.671875 59.328125 
Q 17.53125 52.734375 16.796875 39.40625 
Q 19.671875 43.65625 24.015625 45.921875 
Q 28.375 48.1875 33.59375 48.1875 
Q 44.578125 48.1875 50.953125 41.515625 
Q 57.328125 34.859375 57.328125 23.390625 
Q 57.328125 12.15625 50.6875 5.359375 
Q 44.046875 -1.421875 33.015625 -1.421875 
Q 20.359375 -1.421875 13.671875 8.265625 
Q 6.984375 17.96875 6.984375 36.375 
Q 6.984375 53.65625 15.1875 63.9375 
Q 23.390625 74.21875 37.203125 74.21875 
Q 40.921875 74.21875 44.703125 73.484375 
Q 48.484375 72.75 52.59375 71.296875 
z
" id="DejaVuSans-36"/>
      </defs>
      <g transform="translate(243.2125 142.494607)scale(0.1 -0.1)">
       <use xlink:href="#DejaVuSans-36"/>
       <use x="63.623047" xlink:href="#DejaVuSans-30"/>
       <use x="127.246094" xlink:href="#DejaVuSans-30"/>
      </g>
     </g>
    </g>
    <g id="ytick_10">
     <g id="line2d_40">
      <path clip-path="url(#p2fa93cf027)" d="M 269.3 87.929002 
L 427.933636 87.929002 
" style="fill:none;stroke:#b0b0b0;stroke-linecap:square;stroke-width:0.8;"/>
     </g>
     <g id="line2d_41">
      <g>
       <use style="stroke:#000000;stroke-width:0.8;" x="269.3" xlink:href="#m8fbad4ac1d" y="87.929002"/>
      </g>
     </g>
     <g id="text_24">
      <!-- 800 -->
      <defs>
       <path d="M 31.78125 34.625 
Q 24.75 34.625 20.71875 30.859375 
Q 16.703125 27.09375 16.703125 20.515625 
Q 16.703125 13.921875 20.71875 10.15625 
Q 24.75 6.390625 31.78125 6.390625 
Q 38.8125 6.390625 42.859375 10.171875 
Q 46.921875 13.96875 46.921875 20.515625 
Q 46.921875 27.09375 42.890625 30.859375 
Q 38.875 34.625 31.78125 34.625 
z
M 21.921875 38.8125 
Q 15.578125 40.375 12.03125 44.71875 
Q 8.5 49.078125 8.5 55.328125 
Q 8.5 64.0625 14.71875 69.140625 
Q 20.953125 74.21875 31.78125 74.21875 
Q 42.671875 74.21875 48.875 69.140625 
Q 55.078125 64.0625 55.078125 55.328125 
Q 55.078125 49.078125 51.53125 44.71875 
Q 48 40.375 41.703125 38.8125 
Q 48.828125 37.15625 52.796875 32.3125 
Q 56.78125 27.484375 56.78125 20.515625 
Q 56.78125 9.90625 50.3125 4.234375 
Q 43.84375 -1.421875 31.78125 -1.421875 
Q 19.734375 -1.421875 13.25 4.234375 
Q 6.78125 9.90625 6.78125 20.515625 
Q 6.78125 27.484375 10.78125 32.3125 
Q 14.796875 37.15625 21.921875 38.8125 
z
M 18.3125 54.390625 
Q 18.3125 48.734375 21.84375 45.5625 
Q 25.390625 42.390625 31.78125 42.390625 
Q 38.140625 42.390625 41.71875 45.5625 
Q 45.3125 48.734375 45.3125 54.390625 
Q 45.3125 60.0625 41.71875 63.234375 
Q 38.140625 66.40625 31.78125 66.40625 
Q 25.390625 66.40625 21.84375 63.234375 
Q 18.3125 60.0625 18.3125 54.390625 
z
" id="DejaVuSans-38"/>
      </defs>
      <g transform="translate(243.2125 91.728221)scale(0.1 -0.1)">
       <use xlink:href="#DejaVuSans-38"/>
       <use x="63.623047" xlink:href="#DejaVuSans-30"/>
       <use x="127.246094" xlink:href="#DejaVuSans-30"/>
      </g>
     </g>
    </g>
    <g id="ytick_11">
     <g id="line2d_42">
      <path clip-path="url(#p2fa93cf027)" d="M 269.3 37.162616 
L 427.933636 37.162616 
" style="fill:none;stroke:#b0b0b0;stroke-linecap:square;stroke-width:0.8;"/>
     </g>
     <g id="line2d_43">
      <g>
       <use style="stroke:#000000;stroke-width:0.8;" x="269.3" xlink:href="#m8fbad4ac1d" y="37.162616"/>
      </g>
     </g>
     <g id="text_25">
      <!-- 1000 -->
      <g transform="translate(236.85 40.961835)scale(0.1 -0.1)">
       <use xlink:href="#DejaVuSans-31"/>
       <use x="63.623047" xlink:href="#DejaVuSans-30"/>
       <use x="127.246094" xlink:href="#DejaVuSans-30"/>
       <use x="190.869141" xlink:href="#DejaVuSans-30"/>
      </g>
     </g>
    </g>
    <g id="text_26">
     <!-- Amplitude -->
     <g transform="translate(230.770312 190.162656)rotate(-90)scale(0.1 -0.1)">
      <use xlink:href="#DejaVuSans-41"/>
      <use x="68.408203" xlink:href="#DejaVuSans-6d"/>
      <use x="165.820312" xlink:href="#DejaVuSans-70"/>
      <use x="229.296875" xlink:href="#DejaVuSans-6c"/>
      <use x="257.080078" xlink:href="#DejaVuSans-69"/>
      <use x="284.863281" xlink:href="#DejaVuSans-74"/>
      <use x="324.072266" xlink:href="#DejaVuSans-75"/>
      <use x="387.451172" xlink:href="#DejaVuSans-64"/>
      <use x="450.927734" xlink:href="#DejaVuSans-65"/>
     </g>
    </g>
   </g>
   <g id="line2d_44">
    <path clip-path="url(#p2fa93cf027)" d="M 276.51062 290.372952 
L 285.74483 290.262464 
L 290.578362 290.012227 
L 293.0312 289.687327 
L 294.474045 289.287687 
L 295.411894 288.798301 
L 296.061175 288.198376 
L 296.566171 287.386323 
L 296.926882 286.387869 
L 297.215451 285.020551 
L 297.50402 282.388335 
L 297.720447 277.967963 
L 297.864732 270.9838 
L 298.009016 247.066239 
L 298.153301 85.632207 
L 298.297585 260.63427 
L 298.514012 277.815263 
L 298.802581 283.573081 
L 299.163292 286.256334 
L 299.596146 287.73569 
L 300.101142 288.641214 
L 300.67828 289.236987 
L 301.471845 289.720477 
L 302.553979 290.100682 
L 304.213251 290.421928 
L 306.882515 290.685941 
L 311.716047 290.91048 
L 316.477437 290.954138 
L 328.741623 290.568246 
L 331.122318 290.281002 
L 332.204452 289.949681 
L 332.78159 289.578925 
L 333.214444 289.028339 
L 333.503013 288.296055 
L 333.71944 287.194157 
L 333.935866 284.404259 
L 334.080151 277.658345 
L 334.152293 263.047314 
L 334.224435 41.513729 
L 334.36872 279.295526 
L 334.585147 286.298147 
L 334.873716 288.459135 
L 335.234427 289.443401 
L 335.667281 289.986643 
L 336.316561 290.396204 
L 337.326553 290.727102 
L 338.697256 290.961658 
L 339.923675 290.593416 
L 340.428671 290.259885 
L 340.789382 289.733872 
L 341.005809 289.010478 
L 341.150093 287.927306 
L 341.294378 284.636867 
L 341.36652 277.806946 
L 341.438662 38.085455 
L 341.582947 284.711669 
L 341.799374 288.38553 
L 342.087943 289.504286 
L 342.448654 290.015783 
L 342.95365 290.333865 
L 343.819357 290.581839 
L 345.550772 290.797634 
L 348.941458 290.978745 
L 353.12571 290.643922 
L 354.279986 290.363699 
L 354.857124 290.015783 
L 355.217836 289.504286 
L 355.434263 288.802476 
L 355.578547 287.764153 
L 355.722832 284.711669 
L 355.794974 278.833764 
L 355.867116 38.085455 
L 356.011401 284.636867 
L 356.227828 288.577566 
L 356.516397 289.733872 
L 356.877108 290.259885 
L 357.382104 290.593416 
L 358.319953 290.895451 
L 358.969234 290.950221 
L 360.844933 290.457735 
L 361.566356 290.04811 
L 361.999209 289.563015 
L 362.287778 288.957962 
L 362.504205 288.118183 
L 362.720632 286.298147 
L 362.864916 283.134391 
L 362.937059 279.295526 
L 363.009201 268.480666 
L 363.081343 41.513729 
L 363.225628 277.658345 
L 363.442055 285.713145 
L 363.730624 288.010953 
L 364.091335 289.028339 
L 364.524189 289.578925 
L 365.101327 289.949681 
L 366.039176 290.250221 
L 367.626306 290.487554 
L 370.728424 290.68847 
L 378.23122 290.897274 
L 384.868309 290.932674 
L 391.072544 290.637285 
L 393.81395 290.306486 
L 395.328938 289.924447 
L 396.266787 289.48941 
L 396.916068 288.977102 
L 397.421063 288.316884 
L 397.853917 287.350069 
L 398.214628 285.880484 
L 398.503198 283.573081 
L 398.719624 279.934774 
L 398.863909 274.721283 
L 399.008193 260.63427 
L 399.080336 237.940451 
L 399.152478 85.632207 
L 399.368905 263.538088 
L 399.585332 277.967963 
L 399.873901 283.250993 
L 400.234612 285.797566 
L 400.667466 287.225332 
L 401.172461 288.107566 
L 401.7496 288.691212 
L 402.543165 289.166274 
L 403.625299 289.539879 
L 405.284571 289.853551 
L 407.953835 290.104538 
L 412.57094 290.289076 
L 420.723017 290.372946 
L 420.723017 290.372946 
" style="fill:none;stroke:#1f77b4;stroke-linecap:square;stroke-width:1.5;"/>
   </g>
   <g id="patch_8">
    <path d="M 269.3 303.64 
L 269.3 25.44 
" style="fill:none;stroke:#000000;stroke-linecap:square;stroke-linejoin:miter;stroke-width:0.8;"/>
   </g>
   <g id="patch_9">
    <path d="M 427.933636 303.64 
L 427.933636 25.44 
" style="fill:none;stroke:#000000;stroke-linecap:square;stroke-linejoin:miter;stroke-width:0.8;"/>
   </g>
   <g id="patch_10">
    <path d="M 269.3 303.64 
L 427.933636 303.64 
" style="fill:none;stroke:#000000;stroke-linecap:square;stroke-linejoin:miter;stroke-width:0.8;"/>
   </g>
   <g id="patch_11">
    <path d="M 269.3 25.44 
L 427.933636 25.44 
" style="fill:none;stroke:#000000;stroke-linecap:square;stroke-linejoin:miter;stroke-width:0.8;"/>
   </g>
   <g id="text_27">
    <!-- Orignal Signal (frequency domain) -->
    <defs>
     <path d="M 37.109375 75.984375 
L 37.109375 68.5 
L 28.515625 68.5 
Q 23.6875 68.5 21.796875 66.546875 
Q 19.921875 64.59375 19.921875 59.515625 
L 19.921875 54.6875 
L 34.71875 54.6875 
L 34.71875 47.703125 
L 19.921875 47.703125 
L 19.921875 0 
L 10.890625 0 
L 10.890625 47.703125 
L 2.296875 47.703125 
L 2.296875 54.6875 
L 10.890625 54.6875 
L 10.890625 58.5 
Q 10.890625 67.625 15.140625 71.796875 
Q 19.390625 75.984375 28.609375 75.984375 
z
" id="DejaVuSans-66"/>
    </defs>
    <g transform="translate(245.275256 19.44)scale(0.12 -0.12)">
     <use xlink:href="#DejaVuSans-4f"/>
     <use x="78.710938" xlink:href="#DejaVuSans-72"/>
     <use x="119.824219" xlink:href="#DejaVuSans-69"/>
     <use x="147.607422" xlink:href="#DejaVuSans-67"/>
     <use x="211.083984" xlink:href="#DejaVuSans-6e"/>
     <use x="274.462891" xlink:href="#DejaVuSans-61"/>
     <use x="335.742188" xlink:href="#DejaVuSans-6c"/>
     <use x="363.525391" xlink:href="#DejaVuSans-20"/>
     <use x="395.3125" xlink:href="#DejaVuSans-53"/>
     <use x="458.789062" xlink:href="#DejaVuSans-69"/>
     <use x="486.572266" xlink:href="#DejaVuSans-67"/>
     <use x="550.048828" xlink:href="#DejaVuSans-6e"/>
     <use x="613.427734" xlink:href="#DejaVuSans-61"/>
     <use x="674.707031" xlink:href="#DejaVuSans-6c"/>
     <use x="702.490234" xlink:href="#DejaVuSans-20"/>
     <use x="734.277344" xlink:href="#DejaVuSans-28"/>
     <use x="773.291016" xlink:href="#DejaVuSans-66"/>
     <use x="808.496094" xlink:href="#DejaVuSans-72"/>
     <use x="849.578125" xlink:href="#DejaVuSans-65"/>
     <use x="911.101562" xlink:href="#DejaVuSans-71"/>
     <use x="974.578125" xlink:href="#DejaVuSans-75"/>
     <use x="1037.957031" xlink:href="#DejaVuSans-65"/>
     <use x="1099.480469" xlink:href="#DejaVuSans-6e"/>
     <use x="1162.859375" xlink:href="#DejaVuSans-63"/>
     <use x="1217.839844" xlink:href="#DejaVuSans-79"/>
     <use x="1277.019531" xlink:href="#DejaVuSans-20"/>
     <use x="1308.806641" xlink:href="#DejaVuSans-64"/>
     <use x="1372.283203" xlink:href="#DejaVuSans-6f"/>
     <use x="1433.464844" xlink:href="#DejaVuSans-6d"/>
     <use x="1530.876953" xlink:href="#DejaVuSans-61"/>
     <use x="1592.15625" xlink:href="#DejaVuSans-69"/>
     <use x="1619.939453" xlink:href="#DejaVuSans-6e"/>
     <use x="1683.318359" xlink:href="#DejaVuSans-29"/>
    </g>
   </g>
  </g>
 </g>
 <defs>
  <clipPath id="p3074d8ec29">
   <rect height="278.2" width="158.633636" x="46.64" y="25.44"/>
  </clipPath>
  <clipPath id="p2fa93cf027">
   <rect height="278.2" width="158.633636" x="269.3" y="25.44"/>
  </clipPath>
 </defs>
</svg>
