<?xml version="1.0" encoding="utf-8" standalone="no"?>
<!DOCTYPE svg PUBLIC "-//W3C//DTD SVG 1.1//EN"
  "http://www.w3.org/Graphics/SVG/1.1/DTD/svg11.dtd">
<!-- Created with matplotlib (http://matplotlib.org/) -->
<svg height="345pt" version="1.1" viewBox="0 0 460 345" width="460pt" xmlns="http://www.w3.org/2000/svg" xmlns:xlink="http://www.w3.org/1999/xlink">
 <defs>
  <style type="text/css">
*{stroke-linecap:butt;stroke-linejoin:round;}
  </style>
 </defs>
 <g id="figure_1">
  <g id="patch_1">
   <path d="M 0 345.6 
L 460.8 345.6 
L 460.8 0 
L 0 0 
z
" style="fill:#ffffff;"/>
  </g>
  <g id="axes_1">
   <g id="patch_2">
    <path d="M 52.94 136.24 
L 219.299318 136.24 
L 219.299318 26.88 
L 52.94 26.88 
z
" style="fill:#ffffff;"/>
   </g>
   <g id="matplotlib.axis_1">
    <g id="xtick_1">
     <g id="line2d_1">
      <path clip-path="url(#p41c607870c)" d="M 60.501787 136.24 
L 60.501787 26.88 
" style="fill:none;stroke:#b0b0b0;stroke-linecap:square;stroke-width:0.8;"/>
     </g>
     <g id="line2d_2">
      <defs>
       <path d="M 0 0 
L 0 3.5 
" id="mbf9ed2adab" style="stroke:#000000;stroke-width:0.8;"/>
      </defs>
      <g>
       <use style="stroke:#000000;stroke-width:0.8;" x="60.501787" xlink:href="#mbf9ed2adab" y="136.24"/>
      </g>
     </g>
     <g id="text_1">
      <!-- 0 -->
      <defs>
       <path d="M 31.78125 66.40625 
Q 24.171875 66.40625 20.328125 58.90625 
Q 16.5 51.421875 16.5 36.375 
Q 16.5 21.390625 20.328125 13.890625 
Q 24.171875 6.390625 31.78125 6.390625 
Q 39.453125 6.390625 43.28125 13.890625 
Q 47.125 21.390625 47.125 36.375 
Q 47.125 51.421875 43.28125 58.90625 
Q 39.453125 66.40625 31.78125 66.40625 
M 31.78125 74.21875 
Q 44.046875 74.21875 50.515625 64.515625 
Q 56.984375 54.828125 56.984375 36.375 
Q 56.984375 17.96875 50.515625 8.265625 
Q 44.046875 -1.421875 31.78125 -1.421875 
Q 19.53125 -1.421875 13.0625 8.265625 
Q 6.59375 17.96875 6.59375 36.375 
Q 6.59375 54.828125 13.0625 64.515625 
Q 19.53125 74.21875 31.78125 74.21875 
" id="DejaVuSans-30"/>
      </defs>
      <g transform="translate(57.320537 150.838437)scale(0.1 -0.1)">
       <use xlink:href="#DejaVuSans-30"/>
      </g>
     </g>
    </g>
    <g id="xtick_2">
     <g id="line2d_3">
      <path clip-path="url(#p41c607870c)" d="M 119.57825 136.24 
L 119.57825 26.88 
" style="fill:none;stroke:#b0b0b0;stroke-linecap:square;stroke-width:0.8;"/>
     </g>
     <g id="line2d_4">
      <g>
       <use style="stroke:#000000;stroke-width:0.8;" x="119.57825" xlink:href="#mbf9ed2adab" y="136.24"/>
      </g>
     </g>
     <g id="text_2">
      <!-- 100 -->
      <defs>
       <path d="M 12.40625 8.296875 
L 28.515625 8.296875 
L 28.515625 63.921875 
L 10.984375 60.40625 
L 10.984375 69.390625 
L 28.421875 72.90625 
L 38.28125 72.90625 
L 38.28125 8.296875 
L 54.390625 8.296875 
L 54.390625 0 
L 12.40625 0 
z
" id="DejaVuSans-31"/>
      </defs>
      <g transform="translate(110.0345 150.838437)scale(0.1 -0.1)">
       <use xlink:href="#DejaVuSans-31"/>
       <use x="63.623047" xlink:href="#DejaVuSans-30"/>
       <use x="127.246094" xlink:href="#DejaVuSans-30"/>
      </g>
     </g>
    </g>
    <g id="xtick_3">
     <g id="line2d_5">
      <path clip-path="url(#p41c607870c)" d="M 178.654712 136.24 
L 178.654712 26.88 
" style="fill:none;stroke:#b0b0b0;stroke-linecap:square;stroke-width:0.8;"/>
     </g>
     <g id="line2d_6">
      <g>
       <use style="stroke:#000000;stroke-width:0.8;" x="178.654712" xlink:href="#mbf9ed2adab" y="136.24"/>
      </g>
     </g>
     <g id="text_3">
      <!-- 200 -->
      <defs>
       <path d="M 19.1875 8.296875 
L 53.609375 8.296875 
L 53.609375 0 
L 7.328125 0 
L 7.328125 8.296875 
Q 12.9375 14.109375 22.625 23.890625 
Q 32.328125 33.6875 34.8125 36.53125 
Q 39.546875 41.84375 41.421875 45.53125 
Q 43.3125 49.21875 43.3125 52.78125 
Q 43.3125 58.59375 39.234375 62.25 
Q 35.15625 65.921875 28.609375 65.921875 
Q 23.96875 65.921875 18.8125 64.3125 
Q 13.671875 62.703125 7.8125 59.421875 
L 7.8125 69.390625 
Q 13.765625 71.78125 18.9375 73 
Q 24.125 74.21875 28.421875 74.21875 
Q 39.75 74.21875 46.484375 68.546875 
Q 53.21875 62.890625 53.21875 53.421875 
Q 53.21875 48.921875 51.53125 44.890625 
Q 49.859375 40.875 45.40625 35.40625 
Q 44.1875 33.984375 37.640625 27.21875 
Q 31.109375 20.453125 19.1875 8.296875 
" id="DejaVuSans-32"/>
      </defs>
      <g transform="translate(169.110962 150.838437)scale(0.1 -0.1)">
       <use xlink:href="#DejaVuSans-32"/>
       <use x="63.623047" xlink:href="#DejaVuSans-30"/>
       <use x="127.246094" xlink:href="#DejaVuSans-30"/>
      </g>
     </g>
    </g>
    <g id="text_4">
     <!-- Frequency/Hz -->
     <defs>
      <path d="M 9.8125 72.90625 
L 51.703125 72.90625 
L 51.703125 64.59375 
L 19.671875 64.59375 
L 19.671875 43.109375 
L 48.578125 43.109375 
L 48.578125 34.8125 
L 19.671875 34.8125 
L 19.671875 0 
L 9.8125 0 
z
" id="DejaVuSans-46"/>
      <path d="M 41.109375 46.296875 
Q 39.59375 47.171875 37.8125 47.578125 
Q 36.03125 48 33.890625 48 
Q 26.265625 48 22.1875 43.046875 
Q 18.109375 38.09375 18.109375 28.8125 
L 18.109375 0 
L 9.078125 0 
L 9.078125 54.6875 
L 18.109375 54.6875 
L 18.109375 46.1875 
Q 20.953125 51.171875 25.484375 53.578125 
Q 30.03125 56 36.53125 56 
Q 37.453125 56 38.578125 55.875 
Q 39.703125 55.765625 41.0625 55.515625 
z
" id="DejaVuSans-72"/>
      <path d="M 56.203125 29.59375 
L 56.203125 25.203125 
L 14.890625 25.203125 
Q 15.484375 15.921875 20.484375 11.0625 
Q 25.484375 6.203125 34.421875 6.203125 
Q 39.59375 6.203125 44.453125 7.46875 
Q 49.3125 8.734375 54.109375 11.28125 
L 54.109375 2.78125 
Q 49.265625 0.734375 44.1875 -0.34375 
Q 39.109375 -1.421875 33.890625 -1.421875 
Q 20.796875 -1.421875 13.15625 6.1875 
Q 5.515625 13.8125 5.515625 26.8125 
Q 5.515625 40.234375 12.765625 48.109375 
Q 20.015625 56 32.328125 56 
Q 43.359375 56 49.78125 48.890625 
Q 56.203125 41.796875 56.203125 29.59375 
M 47.21875 32.234375 
Q 47.125 39.59375 43.09375 43.984375 
Q 39.0625 48.390625 32.421875 48.390625 
Q 24.90625 48.390625 20.390625 44.140625 
Q 15.875 39.890625 15.1875 32.171875 
z
" id="DejaVuSans-65"/>
      <path d="M 14.796875 27.296875 
Q 14.796875 17.390625 18.875 11.75 
Q 22.953125 6.109375 30.078125 6.109375 
Q 37.203125 6.109375 41.296875 11.75 
Q 45.40625 17.390625 45.40625 27.296875 
Q 45.40625 37.203125 41.296875 42.84375 
Q 37.203125 48.484375 30.078125 48.484375 
Q 22.953125 48.484375 18.875 42.84375 
Q 14.796875 37.203125 14.796875 27.296875 
M 45.40625 8.203125 
Q 42.578125 3.328125 38.25 0.953125 
Q 33.9375 -1.421875 27.875 -1.421875 
Q 17.96875 -1.421875 11.734375 6.484375 
Q 5.515625 14.40625 5.515625 27.296875 
Q 5.515625 40.1875 11.734375 48.09375 
Q 17.96875 56 27.875 56 
Q 33.9375 56 38.25 53.625 
Q 42.578125 51.265625 45.40625 46.390625 
L 45.40625 54.6875 
L 54.390625 54.6875 
L 54.390625 -20.796875 
L 45.40625 -20.796875 
z
" id="DejaVuSans-71"/>
      <path d="M 8.5 21.578125 
L 8.5 54.6875 
L 17.484375 54.6875 
L 17.484375 21.921875 
Q 17.484375 14.15625 20.5 10.265625 
Q 23.53125 6.390625 29.59375 6.390625 
Q 36.859375 6.390625 41.078125 11.03125 
Q 45.3125 15.671875 45.3125 23.6875 
L 45.3125 54.6875 
L 54.296875 54.6875 
L 54.296875 0 
L 45.3125 0 
L 45.3125 8.40625 
Q 42.046875 3.421875 37.71875 1 
Q 33.40625 -1.421875 27.6875 -1.421875 
Q 18.265625 -1.421875 13.375 4.4375 
Q 8.5 10.296875 8.5 21.578125 
M 31.109375 56 
z
" id="DejaVuSans-75"/>
      <path d="M 54.890625 33.015625 
L 54.890625 0 
L 45.90625 0 
L 45.90625 32.71875 
Q 45.90625 40.484375 42.875 44.328125 
Q 39.84375 48.1875 33.796875 48.1875 
Q 26.515625 48.1875 22.3125 43.546875 
Q 18.109375 38.921875 18.109375 30.90625 
L 18.109375 0 
L 9.078125 0 
L 9.078125 54.6875 
L 18.109375 54.6875 
L 18.109375 46.1875 
Q 21.34375 51.125 25.703125 53.5625 
Q 30.078125 56 35.796875 56 
Q 45.21875 56 50.046875 50.171875 
Q 54.890625 44.34375 54.890625 33.015625 
" id="DejaVuSans-6e"/>
      <path d="M 48.78125 52.59375 
L 48.78125 44.1875 
Q 44.96875 46.296875 41.140625 47.34375 
Q 37.3125 48.390625 33.40625 48.390625 
Q 24.65625 48.390625 19.8125 42.84375 
Q 14.984375 37.3125 14.984375 27.296875 
Q 14.984375 17.28125 19.8125 11.734375 
Q 24.65625 6.203125 33.40625 6.203125 
Q 37.3125 6.203125 41.140625 7.25 
Q 44.96875 8.296875 48.78125 10.40625 
L 48.78125 2.09375 
Q 45.015625 0.34375 40.984375 -0.53125 
Q 36.96875 -1.421875 32.421875 -1.421875 
Q 20.0625 -1.421875 12.78125 6.34375 
Q 5.515625 14.109375 5.515625 27.296875 
Q 5.515625 40.671875 12.859375 48.328125 
Q 20.21875 56 33.015625 56 
Q 37.15625 56 41.109375 55.140625 
Q 45.0625 54.296875 48.78125 52.59375 
" id="DejaVuSans-63"/>
      <path d="M 32.171875 -5.078125 
Q 28.375 -14.84375 24.75 -17.8125 
Q 21.140625 -20.796875 15.09375 -20.796875 
L 7.90625 -20.796875 
L 7.90625 -13.28125 
L 13.1875 -13.28125 
Q 16.890625 -13.28125 18.9375 -11.515625 
Q 21 -9.765625 23.484375 -3.21875 
L 25.09375 0.875 
L 2.984375 54.6875 
L 12.5 54.6875 
L 29.59375 11.921875 
L 46.6875 54.6875 
L 56.203125 54.6875 
z
" id="DejaVuSans-79"/>
      <path d="M 25.390625 72.90625 
L 33.6875 72.90625 
L 8.296875 -9.28125 
L 0 -9.28125 
z
" id="DejaVuSans-2f"/>
      <path d="M 9.8125 72.90625 
L 19.671875 72.90625 
L 19.671875 43.015625 
L 55.515625 43.015625 
L 55.515625 72.90625 
L 65.375 72.90625 
L 65.375 0 
L 55.515625 0 
L 55.515625 34.71875 
L 19.671875 34.71875 
L 19.671875 0 
L 9.8125 0 
z
" id="DejaVuSans-48"/>
      <path d="M 5.515625 54.6875 
L 48.1875 54.6875 
L 48.1875 46.484375 
L 14.40625 7.171875 
L 48.1875 7.171875 
L 48.1875 0 
L 4.296875 0 
L 4.296875 8.203125 
L 38.09375 47.515625 
L 5.515625 47.515625 
z
" id="DejaVuSans-7a"/>
     </defs>
     <g transform="translate(101.753253 164.516562)scale(0.1 -0.1)">
      <use xlink:href="#DejaVuSans-46"/>
      <use x="57.410156" xlink:href="#DejaVuSans-72"/>
      <use x="98.492188" xlink:href="#DejaVuSans-65"/>
      <use x="160.015625" xlink:href="#DejaVuSans-71"/>
      <use x="223.492188" xlink:href="#DejaVuSans-75"/>
      <use x="286.871094" xlink:href="#DejaVuSans-65"/>
      <use x="348.394531" xlink:href="#DejaVuSans-6e"/>
      <use x="411.773438" xlink:href="#DejaVuSans-63"/>
      <use x="466.753906" xlink:href="#DejaVuSans-79"/>
      <use x="525.933594" xlink:href="#DejaVuSans-2f"/>
      <use x="559.625" xlink:href="#DejaVuSans-48"/>
      <use x="634.820312" xlink:href="#DejaVuSans-7a"/>
     </g>
    </g>
   </g>
   <g id="matplotlib.axis_2">
    <g id="ytick_1">
     <g id="line2d_7">
      <path clip-path="url(#p41c607870c)" d="M 52.94 124.614566 
L 219.299318 124.614566 
" style="fill:none;stroke:#b0b0b0;stroke-linecap:square;stroke-width:0.8;"/>
     </g>
     <g id="line2d_8">
      <defs>
       <path d="M 0 0 
L -3.5 0 
" id="ma232af8f4b" style="stroke:#000000;stroke-width:0.8;"/>
      </defs>
      <g>
       <use style="stroke:#000000;stroke-width:0.8;" x="52.94" xlink:href="#ma232af8f4b" y="124.614566"/>
      </g>
     </g>
     <g id="text_5">
      <!-- −10 -->
      <defs>
       <path d="M 10.59375 35.5 
L 73.1875 35.5 
L 73.1875 27.203125 
L 10.59375 27.203125 
z
" id="DejaVuSans-2212"/>
      </defs>
      <g transform="translate(24.835313 128.413785)scale(0.1 -0.1)">
       <use xlink:href="#DejaVuSans-2212"/>
       <use x="83.789062" xlink:href="#DejaVuSans-31"/>
       <use x="147.412109" xlink:href="#DejaVuSans-30"/>
      </g>
     </g>
    </g>
    <g id="ytick_2">
     <g id="line2d_9">
      <path clip-path="url(#p41c607870c)" d="M 52.94 82.915356 
L 219.299318 82.915356 
" style="fill:none;stroke:#b0b0b0;stroke-linecap:square;stroke-width:0.8;"/>
     </g>
     <g id="line2d_10">
      <g>
       <use style="stroke:#000000;stroke-width:0.8;" x="52.94" xlink:href="#ma232af8f4b" y="82.915356"/>
      </g>
     </g>
     <g id="text_6">
      <!-- 0 -->
      <g transform="translate(39.5775 86.714575)scale(0.1 -0.1)">
       <use xlink:href="#DejaVuSans-30"/>
      </g>
     </g>
    </g>
    <g id="ytick_3">
     <g id="line2d_11">
      <path clip-path="url(#p41c607870c)" d="M 52.94 41.216145 
L 219.299318 41.216145 
" style="fill:none;stroke:#b0b0b0;stroke-linecap:square;stroke-width:0.8;"/>
     </g>
     <g id="line2d_12">
      <g>
       <use style="stroke:#000000;stroke-width:0.8;" x="52.94" xlink:href="#ma232af8f4b" y="41.216145"/>
      </g>
     </g>
     <g id="text_7">
      <!-- 10 -->
      <g transform="translate(33.215 45.015364)scale(0.1 -0.1)">
       <use xlink:href="#DejaVuSans-31"/>
       <use x="63.623047" xlink:href="#DejaVuSans-30"/>
      </g>
     </g>
    </g>
    <g id="text_8">
     <!-- Amplitude -->
     <defs>
      <path d="M 34.1875 63.1875 
L 20.796875 26.90625 
L 47.609375 26.90625 
z
M 28.609375 72.90625 
L 39.796875 72.90625 
L 67.578125 0 
L 57.328125 0 
L 50.6875 18.703125 
L 17.828125 18.703125 
L 11.1875 0 
L 0.78125 0 
z
" id="DejaVuSans-41"/>
      <path d="M 52 44.1875 
Q 55.375 50.25 60.0625 53.125 
Q 64.75 56 71.09375 56 
Q 79.640625 56 84.28125 50.015625 
Q 88.921875 44.046875 88.921875 33.015625 
L 88.921875 0 
L 79.890625 0 
L 79.890625 32.71875 
Q 79.890625 40.578125 77.09375 44.375 
Q 74.3125 48.1875 68.609375 48.1875 
Q 61.625 48.1875 57.5625 43.546875 
Q 53.515625 38.921875 53.515625 30.90625 
L 53.515625 0 
L 44.484375 0 
L 44.484375 32.71875 
Q 44.484375 40.625 41.703125 44.40625 
Q 38.921875 48.1875 33.109375 48.1875 
Q 26.21875 48.1875 22.15625 43.53125 
Q 18.109375 38.875 18.109375 30.90625 
L 18.109375 0 
L 9.078125 0 
L 9.078125 54.6875 
L 18.109375 54.6875 
L 18.109375 46.1875 
Q 21.1875 51.21875 25.484375 53.609375 
Q 29.78125 56 35.6875 56 
Q 41.65625 56 45.828125 52.96875 
Q 50 49.953125 52 44.1875 
" id="DejaVuSans-6d"/>
      <path d="M 18.109375 8.203125 
L 18.109375 -20.796875 
L 9.078125 -20.796875 
L 9.078125 54.6875 
L 18.109375 54.6875 
L 18.109375 46.390625 
Q 20.953125 51.265625 25.265625 53.625 
Q 29.59375 56 35.59375 56 
Q 45.5625 56 51.78125 48.09375 
Q 58.015625 40.1875 58.015625 27.296875 
Q 58.015625 14.40625 51.78125 6.484375 
Q 45.5625 -1.421875 35.59375 -1.421875 
Q 29.59375 -1.421875 25.265625 0.953125 
Q 20.953125 3.328125 18.109375 8.203125 
M 48.6875 27.296875 
Q 48.6875 37.203125 44.609375 42.84375 
Q 40.53125 48.484375 33.40625 48.484375 
Q 26.265625 48.484375 22.1875 42.84375 
Q 18.109375 37.203125 18.109375 27.296875 
Q 18.109375 17.390625 22.1875 11.75 
Q 26.265625 6.109375 33.40625 6.109375 
Q 40.53125 6.109375 44.609375 11.75 
Q 48.6875 17.390625 48.6875 27.296875 
" id="DejaVuSans-70"/>
      <path d="M 9.421875 75.984375 
L 18.40625 75.984375 
L 18.40625 0 
L 9.421875 0 
z
" id="DejaVuSans-6c"/>
      <path d="M 9.421875 54.6875 
L 18.40625 54.6875 
L 18.40625 0 
L 9.421875 0 
z
M 9.421875 75.984375 
L 18.40625 75.984375 
L 18.40625 64.59375 
L 9.421875 64.59375 
z
" id="DejaVuSans-69"/>
      <path d="M 18.3125 70.21875 
L 18.3125 54.6875 
L 36.8125 54.6875 
L 36.8125 47.703125 
L 18.3125 47.703125 
L 18.3125 18.015625 
Q 18.3125 11.328125 20.140625 9.421875 
Q 21.96875 7.515625 27.59375 7.515625 
L 36.8125 7.515625 
L 36.8125 0 
L 27.59375 0 
Q 17.1875 0 13.234375 3.875 
Q 9.28125 7.765625 9.28125 18.015625 
L 9.28125 47.703125 
L 2.6875 47.703125 
L 2.6875 54.6875 
L 9.28125 54.6875 
L 9.28125 70.21875 
z
" id="DejaVuSans-74"/>
      <path d="M 45.40625 46.390625 
L 45.40625 75.984375 
L 54.390625 75.984375 
L 54.390625 0 
L 45.40625 0 
L 45.40625 8.203125 
Q 42.578125 3.328125 38.25 0.953125 
Q 33.9375 -1.421875 27.875 -1.421875 
Q 17.96875 -1.421875 11.734375 6.484375 
Q 5.515625 14.40625 5.515625 27.296875 
Q 5.515625 40.1875 11.734375 48.09375 
Q 17.96875 56 27.875 56 
Q 33.9375 56 38.25 53.625 
Q 42.578125 51.265625 45.40625 46.390625 
M 14.796875 27.296875 
Q 14.796875 17.390625 18.875 11.75 
Q 22.953125 6.109375 30.078125 6.109375 
Q 37.203125 6.109375 41.296875 11.75 
Q 45.40625 17.390625 45.40625 27.296875 
Q 45.40625 37.203125 41.296875 42.84375 
Q 37.203125 48.484375 30.078125 48.484375 
Q 22.953125 48.484375 18.875 42.84375 
Q 14.796875 37.203125 14.796875 27.296875 
" id="DejaVuSans-64"/>
     </defs>
     <g transform="translate(18.755625 107.182656)rotate(-90)scale(0.1 -0.1)">
      <use xlink:href="#DejaVuSans-41"/>
      <use x="68.408203" xlink:href="#DejaVuSans-6d"/>
      <use x="165.820312" xlink:href="#DejaVuSans-70"/>
      <use x="229.296875" xlink:href="#DejaVuSans-6c"/>
      <use x="257.080078" xlink:href="#DejaVuSans-69"/>
      <use x="284.863281" xlink:href="#DejaVuSans-74"/>
      <use x="324.072266" xlink:href="#DejaVuSans-75"/>
      <use x="387.451172" xlink:href="#DejaVuSans-64"/>
      <use x="450.927734" xlink:href="#DejaVuSans-65"/>
     </g>
    </g>
   </g>
   <g id="line2d_13">
    <path clip-path="url(#p41c607870c)" d="M 60.501787 82.915356 
L 71.45232 82.915356 
L 71.748281 31.850909 
L 72.044241 82.915356 
L 143.666648 82.915356 
L 143.962609 131.269091 
L 144.258569 82.915356 
L 211.737531 82.915356 
L 211.737531 82.915356 
" style="fill:none;stroke:#1f77b4;stroke-linecap:square;stroke-width:1.5;"/>
   </g>
   <g id="patch_3">
    <path d="M 52.94 136.24 
L 52.94 26.88 
" style="fill:none;stroke:#000000;stroke-linecap:square;stroke-linejoin:miter;stroke-width:0.8;"/>
   </g>
   <g id="patch_4">
    <path d="M 219.299318 136.24 
L 219.299318 26.88 
" style="fill:none;stroke:#000000;stroke-linecap:square;stroke-linejoin:miter;stroke-width:0.8;"/>
   </g>
   <g id="patch_5">
    <path d="M 52.94 136.24 
L 219.299318 136.24 
" style="fill:none;stroke:#000000;stroke-linecap:square;stroke-linejoin:miter;stroke-width:0.8;"/>
   </g>
   <g id="patch_6">
    <path d="M 52.94 26.88 
L 219.299318 26.88 
" style="fill:none;stroke:#000000;stroke-linecap:square;stroke-linejoin:miter;stroke-width:0.8;"/>
   </g>
   <g id="text_9">
    <!-- Reconstructed Signal (k=2) -->
    <defs>
     <path d="M 44.390625 34.1875 
Q 47.5625 33.109375 50.5625 29.59375 
Q 53.5625 26.078125 56.59375 19.921875 
L 66.609375 0 
L 56 0 
L 46.6875 18.703125 
Q 43.0625 26.03125 39.671875 28.421875 
Q 36.28125 30.8125 30.421875 30.8125 
L 19.671875 30.8125 
L 19.671875 0 
L 9.8125 0 
L 9.8125 72.90625 
L 32.078125 72.90625 
Q 44.578125 72.90625 50.734375 67.671875 
Q 56.890625 62.453125 56.890625 51.90625 
Q 56.890625 45.015625 53.6875 40.46875 
Q 50.484375 35.9375 44.390625 34.1875 
M 19.671875 64.796875 
L 19.671875 38.921875 
L 32.078125 38.921875 
Q 39.203125 38.921875 42.84375 42.21875 
Q 46.484375 45.515625 46.484375 51.90625 
Q 46.484375 58.296875 42.84375 61.546875 
Q 39.203125 64.796875 32.078125 64.796875 
z
" id="DejaVuSans-52"/>
     <path d="M 30.609375 48.390625 
Q 23.390625 48.390625 19.1875 42.75 
Q 14.984375 37.109375 14.984375 27.296875 
Q 14.984375 17.484375 19.15625 11.84375 
Q 23.34375 6.203125 30.609375 6.203125 
Q 37.796875 6.203125 41.984375 11.859375 
Q 46.1875 17.53125 46.1875 27.296875 
Q 46.1875 37.015625 41.984375 42.703125 
Q 37.796875 48.390625 30.609375 48.390625 
M 30.609375 56 
Q 42.328125 56 49.015625 48.375 
Q 55.71875 40.765625 55.71875 27.296875 
Q 55.71875 13.875 49.015625 6.21875 
Q 42.328125 -1.421875 30.609375 -1.421875 
Q 18.84375 -1.421875 12.171875 6.21875 
Q 5.515625 13.875 5.515625 27.296875 
Q 5.515625 40.765625 12.171875 48.375 
Q 18.84375 56 30.609375 56 
" id="DejaVuSans-6f"/>
     <path d="M 44.28125 53.078125 
L 44.28125 44.578125 
Q 40.484375 46.53125 36.375 47.5 
Q 32.28125 48.484375 27.875 48.484375 
Q 21.1875 48.484375 17.84375 46.4375 
Q 14.5 44.390625 14.5 40.28125 
Q 14.5 37.15625 16.890625 35.375 
Q 19.28125 33.59375 26.515625 31.984375 
L 29.59375 31.296875 
Q 39.15625 29.25 43.1875 25.515625 
Q 47.21875 21.78125 47.21875 15.09375 
Q 47.21875 7.46875 41.1875 3.015625 
Q 35.15625 -1.421875 24.609375 -1.421875 
Q 20.21875 -1.421875 15.453125 -0.5625 
Q 10.6875 0.296875 5.421875 2 
L 5.421875 11.28125 
Q 10.40625 8.6875 15.234375 7.390625 
Q 20.0625 6.109375 24.8125 6.109375 
Q 31.15625 6.109375 34.5625 8.28125 
Q 37.984375 10.453125 37.984375 14.40625 
Q 37.984375 18.0625 35.515625 20.015625 
Q 33.0625 21.96875 24.703125 23.78125 
L 21.578125 24.515625 
Q 13.234375 26.265625 9.515625 29.90625 
Q 5.8125 33.546875 5.8125 39.890625 
Q 5.8125 47.609375 11.28125 51.796875 
Q 16.75 56 26.8125 56 
Q 31.78125 56 36.171875 55.265625 
Q 40.578125 54.546875 44.28125 53.078125 
" id="DejaVuSans-73"/>
     <path id="DejaVuSans-20"/>
     <path d="M 53.515625 70.515625 
L 53.515625 60.890625 
Q 47.90625 63.578125 42.921875 64.890625 
Q 37.9375 66.21875 33.296875 66.21875 
Q 25.25 66.21875 20.875 63.09375 
Q 16.5 59.96875 16.5 54.203125 
Q 16.5 49.359375 19.40625 46.890625 
Q 22.3125 44.4375 30.421875 42.921875 
L 36.375 41.703125 
Q 47.40625 39.59375 52.65625 34.296875 
Q 57.90625 29 57.90625 20.125 
Q 57.90625 9.515625 50.796875 4.046875 
Q 43.703125 -1.421875 29.984375 -1.421875 
Q 24.8125 -1.421875 18.96875 -0.25 
Q 13.140625 0.921875 6.890625 3.21875 
L 6.890625 13.375 
Q 12.890625 10.015625 18.65625 8.296875 
Q 24.421875 6.59375 29.984375 6.59375 
Q 38.421875 6.59375 43.015625 9.90625 
Q 47.609375 13.234375 47.609375 19.390625 
Q 47.609375 24.75 44.3125 27.78125 
Q 41.015625 30.8125 33.5 32.328125 
L 27.484375 33.5 
Q 16.453125 35.6875 11.515625 40.375 
Q 6.59375 45.0625 6.59375 53.421875 
Q 6.59375 63.09375 13.40625 68.65625 
Q 20.21875 74.21875 32.171875 74.21875 
Q 37.3125 74.21875 42.625 73.28125 
Q 47.953125 72.359375 53.515625 70.515625 
" id="DejaVuSans-53"/>
     <path d="M 45.40625 27.984375 
Q 45.40625 37.75 41.375 43.109375 
Q 37.359375 48.484375 30.078125 48.484375 
Q 22.859375 48.484375 18.828125 43.109375 
Q 14.796875 37.75 14.796875 27.984375 
Q 14.796875 18.265625 18.828125 12.890625 
Q 22.859375 7.515625 30.078125 7.515625 
Q 37.359375 7.515625 41.375 12.890625 
Q 45.40625 18.265625 45.40625 27.984375 
M 54.390625 6.78125 
Q 54.390625 -7.171875 48.1875 -13.984375 
Q 42 -20.796875 29.203125 -20.796875 
Q 24.46875 -20.796875 20.265625 -20.09375 
Q 16.0625 -19.390625 12.109375 -17.921875 
L 12.109375 -9.1875 
Q 16.0625 -11.328125 19.921875 -12.34375 
Q 23.78125 -13.375 27.78125 -13.375 
Q 36.625 -13.375 41.015625 -8.765625 
Q 45.40625 -4.15625 45.40625 5.171875 
L 45.40625 9.625 
Q 42.625 4.78125 38.28125 2.390625 
Q 33.9375 0 27.875 0 
Q 17.828125 0 11.671875 7.65625 
Q 5.515625 15.328125 5.515625 27.984375 
Q 5.515625 40.671875 11.671875 48.328125 
Q 17.828125 56 27.875 56 
Q 33.9375 56 38.28125 53.609375 
Q 42.625 51.21875 45.40625 46.390625 
L 45.40625 54.6875 
L 54.390625 54.6875 
z
" id="DejaVuSans-67"/>
     <path d="M 34.28125 27.484375 
Q 23.390625 27.484375 19.1875 25 
Q 14.984375 22.515625 14.984375 16.5 
Q 14.984375 11.71875 18.140625 8.90625 
Q 21.296875 6.109375 26.703125 6.109375 
Q 34.1875 6.109375 38.703125 11.40625 
Q 43.21875 16.703125 43.21875 25.484375 
L 43.21875 27.484375 
z
M 52.203125 31.203125 
L 52.203125 0 
L 43.21875 0 
L 43.21875 8.296875 
Q 40.140625 3.328125 35.546875 0.953125 
Q 30.953125 -1.421875 24.3125 -1.421875 
Q 15.921875 -1.421875 10.953125 3.296875 
Q 6 8.015625 6 15.921875 
Q 6 25.140625 12.171875 29.828125 
Q 18.359375 34.515625 30.609375 34.515625 
L 43.21875 34.515625 
L 43.21875 35.40625 
Q 43.21875 41.609375 39.140625 45 
Q 35.0625 48.390625 27.6875 48.390625 
Q 23 48.390625 18.546875 47.265625 
Q 14.109375 46.140625 10.015625 43.890625 
L 10.015625 52.203125 
Q 14.9375 54.109375 19.578125 55.046875 
Q 24.21875 56 28.609375 56 
Q 40.484375 56 46.34375 49.84375 
Q 52.203125 43.703125 52.203125 31.203125 
" id="DejaVuSans-61"/>
     <path d="M 31 75.875 
Q 24.46875 64.65625 21.28125 53.65625 
Q 18.109375 42.671875 18.109375 31.390625 
Q 18.109375 20.125 21.3125 9.0625 
Q 24.515625 -2 31 -13.1875 
L 23.1875 -13.1875 
Q 15.875 -1.703125 12.234375 9.375 
Q 8.59375 20.453125 8.59375 31.390625 
Q 8.59375 42.28125 12.203125 53.3125 
Q 15.828125 64.359375 23.1875 75.875 
z
" id="DejaVuSans-28"/>
     <path d="M 9.078125 75.984375 
L 18.109375 75.984375 
L 18.109375 31.109375 
L 44.921875 54.6875 
L 56.390625 54.6875 
L 27.390625 29.109375 
L 57.625 0 
L 45.90625 0 
L 18.109375 26.703125 
L 18.109375 0 
L 9.078125 0 
z
" id="DejaVuSans-6b"/>
     <path d="M 10.59375 45.40625 
L 73.1875 45.40625 
L 73.1875 37.203125 
L 10.59375 37.203125 
z
M 10.59375 25.484375 
L 73.1875 25.484375 
L 73.1875 17.1875 
L 10.59375 17.1875 
z
" id="DejaVuSans-3d"/>
     <path d="M 8.015625 75.875 
L 15.828125 75.875 
Q 23.140625 64.359375 26.78125 53.3125 
Q 30.421875 42.28125 30.421875 31.390625 
Q 30.421875 20.453125 26.78125 9.375 
Q 23.140625 -1.703125 15.828125 -13.1875 
L 8.015625 -13.1875 
Q 14.5 -2 17.703125 9.0625 
Q 20.90625 20.125 20.90625 31.390625 
Q 20.90625 42.671875 17.703125 53.65625 
Q 14.5 64.65625 8.015625 75.875 
" id="DejaVuSans-29"/>
    </defs>
    <g transform="translate(53.344034 20.88)scale(0.12 -0.12)">
     <use xlink:href="#DejaVuSans-52"/>
     <use x="69.419922" xlink:href="#DejaVuSans-65"/>
     <use x="130.943359" xlink:href="#DejaVuSans-63"/>
     <use x="185.923828" xlink:href="#DejaVuSans-6f"/>
     <use x="247.105469" xlink:href="#DejaVuSans-6e"/>
     <use x="310.484375" xlink:href="#DejaVuSans-73"/>
     <use x="362.583984" xlink:href="#DejaVuSans-74"/>
     <use x="401.792969" xlink:href="#DejaVuSans-72"/>
     <use x="442.90625" xlink:href="#DejaVuSans-75"/>
     <use x="506.285156" xlink:href="#DejaVuSans-63"/>
     <use x="561.265625" xlink:href="#DejaVuSans-74"/>
     <use x="600.474609" xlink:href="#DejaVuSans-65"/>
     <use x="661.998047" xlink:href="#DejaVuSans-64"/>
     <use x="725.474609" xlink:href="#DejaVuSans-20"/>
     <use x="757.261719" xlink:href="#DejaVuSans-53"/>
     <use x="820.738281" xlink:href="#DejaVuSans-69"/>
     <use x="848.521484" xlink:href="#DejaVuSans-67"/>
     <use x="911.998047" xlink:href="#DejaVuSans-6e"/>
     <use x="975.376953" xlink:href="#DejaVuSans-61"/>
     <use x="1036.65625" xlink:href="#DejaVuSans-6c"/>
     <use x="1064.439453" xlink:href="#DejaVuSans-20"/>
     <use x="1096.226562" xlink:href="#DejaVuSans-28"/>
     <use x="1135.240234" xlink:href="#DejaVuSans-6b"/>
     <use x="1193.150391" xlink:href="#DejaVuSans-3d"/>
     <use x="1276.939453" xlink:href="#DejaVuSans-32"/>
     <use x="1340.5625" xlink:href="#DejaVuSans-29"/>
    </g>
   </g>
  </g>
  <g id="axes_2">
   <g id="patch_7">
    <path d="M 274.759318 136.24 
L 441.118636 136.24 
L 441.118636 26.88 
L 274.759318 26.88 
z
" style="fill:#ffffff;"/>
   </g>
   <g id="matplotlib.axis_3">
    <g id="xtick_4">
     <g id="line2d_14">
      <path clip-path="url(#pf41d3935e9)" d="M 282.321105 136.24 
L 282.321105 26.88 
" style="fill:none;stroke:#b0b0b0;stroke-linecap:square;stroke-width:0.8;"/>
     </g>
     <g id="line2d_15">
      <g>
       <use style="stroke:#000000;stroke-width:0.8;" x="282.321105" xlink:href="#mbf9ed2adab" y="136.24"/>
      </g>
     </g>
     <g id="text_10">
      <!-- 0 -->
      <g transform="translate(279.139855 150.838437)scale(0.1 -0.1)">
       <use xlink:href="#DejaVuSans-30"/>
      </g>
     </g>
    </g>
    <g id="xtick_5">
     <g id="line2d_16">
      <path clip-path="url(#pf41d3935e9)" d="M 341.397568 136.24 
L 341.397568 26.88 
" style="fill:none;stroke:#b0b0b0;stroke-linecap:square;stroke-width:0.8;"/>
     </g>
     <g id="line2d_17">
      <g>
       <use style="stroke:#000000;stroke-width:0.8;" x="341.397568" xlink:href="#mbf9ed2adab" y="136.24"/>
      </g>
     </g>
     <g id="text_11">
      <!-- 100 -->
      <g transform="translate(331.853818 150.838437)scale(0.1 -0.1)">
       <use xlink:href="#DejaVuSans-31"/>
       <use x="63.623047" xlink:href="#DejaVuSans-30"/>
       <use x="127.246094" xlink:href="#DejaVuSans-30"/>
      </g>
     </g>
    </g>
    <g id="xtick_6">
     <g id="line2d_18">
      <path clip-path="url(#pf41d3935e9)" d="M 400.47403 136.24 
L 400.47403 26.88 
" style="fill:none;stroke:#b0b0b0;stroke-linecap:square;stroke-width:0.8;"/>
     </g>
     <g id="line2d_19">
      <g>
       <use style="stroke:#000000;stroke-width:0.8;" x="400.47403" xlink:href="#mbf9ed2adab" y="136.24"/>
      </g>
     </g>
     <g id="text_12">
      <!-- 200 -->
      <g transform="translate(390.93028 150.838437)scale(0.1 -0.1)">
       <use xlink:href="#DejaVuSans-32"/>
       <use x="63.623047" xlink:href="#DejaVuSans-30"/>
       <use x="127.246094" xlink:href="#DejaVuSans-30"/>
      </g>
     </g>
    </g>
    <g id="text_13">
     <!-- Frequency/Hz -->
     <g transform="translate(323.572571 164.516562)scale(0.1 -0.1)">
      <use xlink:href="#DejaVuSans-46"/>
      <use x="57.410156" xlink:href="#DejaVuSans-72"/>
      <use x="98.492188" xlink:href="#DejaVuSans-65"/>
      <use x="160.015625" xlink:href="#DejaVuSans-71"/>
      <use x="223.492188" xlink:href="#DejaVuSans-75"/>
      <use x="286.871094" xlink:href="#DejaVuSans-65"/>
      <use x="348.394531" xlink:href="#DejaVuSans-6e"/>
      <use x="411.773438" xlink:href="#DejaVuSans-63"/>
      <use x="466.753906" xlink:href="#DejaVuSans-79"/>
      <use x="525.933594" xlink:href="#DejaVuSans-2f"/>
      <use x="559.625" xlink:href="#DejaVuSans-48"/>
      <use x="634.820312" xlink:href="#DejaVuSans-7a"/>
     </g>
    </g>
   </g>
   <g id="matplotlib.axis_4">
    <g id="ytick_4">
     <g id="line2d_20">
      <path clip-path="url(#pf41d3935e9)" d="M 274.759318 127.183709 
L 441.118636 127.183709 
" style="fill:none;stroke:#b0b0b0;stroke-linecap:square;stroke-width:0.8;"/>
     </g>
     <g id="line2d_21">
      <g>
       <use style="stroke:#000000;stroke-width:0.8;" x="274.759318" xlink:href="#ma232af8f4b" y="127.183709"/>
      </g>
     </g>
     <g id="text_14">
      <!-- −10 -->
      <g transform="translate(246.654631 130.982928)scale(0.1 -0.1)">
       <use xlink:href="#DejaVuSans-2212"/>
       <use x="83.789062" xlink:href="#DejaVuSans-31"/>
       <use x="147.412109" xlink:href="#DejaVuSans-30"/>
      </g>
     </g>
    </g>
    <g id="ytick_5">
     <g id="line2d_22">
      <path clip-path="url(#pf41d3935e9)" d="M 274.759318 83.905116 
L 441.118636 83.905116 
" style="fill:none;stroke:#b0b0b0;stroke-linecap:square;stroke-width:0.8;"/>
     </g>
     <g id="line2d_23">
      <g>
       <use style="stroke:#000000;stroke-width:0.8;" x="274.759318" xlink:href="#ma232af8f4b" y="83.905116"/>
      </g>
     </g>
     <g id="text_15">
      <!-- 0 -->
      <g transform="translate(261.396818 87.704335)scale(0.1 -0.1)">
       <use xlink:href="#DejaVuSans-30"/>
      </g>
     </g>
    </g>
    <g id="ytick_6">
     <g id="line2d_24">
      <path clip-path="url(#pf41d3935e9)" d="M 274.759318 40.626523 
L 441.118636 40.626523 
" style="fill:none;stroke:#b0b0b0;stroke-linecap:square;stroke-width:0.8;"/>
     </g>
     <g id="line2d_25">
      <g>
       <use style="stroke:#000000;stroke-width:0.8;" x="274.759318" xlink:href="#ma232af8f4b" y="40.626523"/>
      </g>
     </g>
     <g id="text_16">
      <!-- 10 -->
      <g transform="translate(255.034318 44.425742)scale(0.1 -0.1)">
       <use xlink:href="#DejaVuSans-31"/>
       <use x="63.623047" xlink:href="#DejaVuSans-30"/>
      </g>
     </g>
    </g>
    <g id="text_17">
     <!-- Amplitude -->
     <g transform="translate(240.574943 107.182656)rotate(-90)scale(0.1 -0.1)">
      <use xlink:href="#DejaVuSans-41"/>
      <use x="68.408203" xlink:href="#DejaVuSans-6d"/>
      <use x="165.820312" xlink:href="#DejaVuSans-70"/>
      <use x="229.296875" xlink:href="#DejaVuSans-6c"/>
      <use x="257.080078" xlink:href="#DejaVuSans-69"/>
      <use x="284.863281" xlink:href="#DejaVuSans-74"/>
      <use x="324.072266" xlink:href="#DejaVuSans-75"/>
      <use x="387.451172" xlink:href="#DejaVuSans-64"/>
      <use x="450.927734" xlink:href="#DejaVuSans-65"/>
     </g>
    </g>
   </g>
   <g id="line2d_26">
    <path clip-path="url(#pf41d3935e9)" d="M 282.321105 83.905116 
L 293.271639 83.905116 
L 293.567599 31.850909 
L 293.863559 83.905116 
L 305.997934 83.905116 
L 306.293895 131.269091 
L 306.589855 83.905116 
L 364.598085 83.905116 
L 364.894046 43.334103 
L 365.190006 83.905116 
L 365.485966 83.905116 
L 365.781927 125.503449 
L 366.077887 83.905116 
L 433.556849 83.905116 
L 433.556849 83.905116 
" style="fill:none;stroke:#1f77b4;stroke-linecap:square;stroke-width:1.5;"/>
   </g>
   <g id="patch_8">
    <path d="M 274.759318 136.24 
L 274.759318 26.88 
" style="fill:none;stroke:#000000;stroke-linecap:square;stroke-linejoin:miter;stroke-width:0.8;"/>
   </g>
   <g id="patch_9">
    <path d="M 441.118636 136.24 
L 441.118636 26.88 
" style="fill:none;stroke:#000000;stroke-linecap:square;stroke-linejoin:miter;stroke-width:0.8;"/>
   </g>
   <g id="patch_10">
    <path d="M 274.759318 136.24 
L 441.118636 136.24 
" style="fill:none;stroke:#000000;stroke-linecap:square;stroke-linejoin:miter;stroke-width:0.8;"/>
   </g>
   <g id="patch_11">
    <path d="M 274.759318 26.88 
L 441.118636 26.88 
" style="fill:none;stroke:#000000;stroke-linecap:square;stroke-linejoin:miter;stroke-width:0.8;"/>
   </g>
   <g id="text_18">
    <!-- Reconstructed Signal (k=4) -->
    <defs>
     <path d="M 37.796875 64.3125 
L 12.890625 25.390625 
L 37.796875 25.390625 
z
M 35.203125 72.90625 
L 47.609375 72.90625 
L 47.609375 25.390625 
L 58.015625 25.390625 
L 58.015625 17.1875 
L 47.609375 17.1875 
L 47.609375 0 
L 37.796875 0 
L 37.796875 17.1875 
L 4.890625 17.1875 
L 4.890625 26.703125 
z
" id="DejaVuSans-34"/>
    </defs>
    <g transform="translate(275.163352 20.88)scale(0.12 -0.12)">
     <use xlink:href="#DejaVuSans-52"/>
     <use x="69.419922" xlink:href="#DejaVuSans-65"/>
     <use x="130.943359" xlink:href="#DejaVuSans-63"/>
     <use x="185.923828" xlink:href="#DejaVuSans-6f"/>
     <use x="247.105469" xlink:href="#DejaVuSans-6e"/>
     <use x="310.484375" xlink:href="#DejaVuSans-73"/>
     <use x="362.583984" xlink:href="#DejaVuSans-74"/>
     <use x="401.792969" xlink:href="#DejaVuSans-72"/>
     <use x="442.90625" xlink:href="#DejaVuSans-75"/>
     <use x="506.285156" xlink:href="#DejaVuSans-63"/>
     <use x="561.265625" xlink:href="#DejaVuSans-74"/>
     <use x="600.474609" xlink:href="#DejaVuSans-65"/>
     <use x="661.998047" xlink:href="#DejaVuSans-64"/>
     <use x="725.474609" xlink:href="#DejaVuSans-20"/>
     <use x="757.261719" xlink:href="#DejaVuSans-53"/>
     <use x="820.738281" xlink:href="#DejaVuSans-69"/>
     <use x="848.521484" xlink:href="#DejaVuSans-67"/>
     <use x="911.998047" xlink:href="#DejaVuSans-6e"/>
     <use x="975.376953" xlink:href="#DejaVuSans-61"/>
     <use x="1036.65625" xlink:href="#DejaVuSans-6c"/>
     <use x="1064.439453" xlink:href="#DejaVuSans-20"/>
     <use x="1096.226562" xlink:href="#DejaVuSans-28"/>
     <use x="1135.240234" xlink:href="#DejaVuSans-6b"/>
     <use x="1193.150391" xlink:href="#DejaVuSans-3d"/>
     <use x="1276.939453" xlink:href="#DejaVuSans-34"/>
     <use x="1340.5625" xlink:href="#DejaVuSans-29"/>
    </g>
   </g>
  </g>
  <g id="axes_3">
   <g id="patch_12">
    <path d="M 52.94 303.64 
L 219.299318 303.64 
L 219.299318 194.28 
L 52.94 194.28 
z
" style="fill:#ffffff;"/>
   </g>
   <g id="matplotlib.axis_5">
    <g id="xtick_7">
     <g id="line2d_27">
      <path clip-path="url(#p5c7e6e4c20)" d="M 60.501787 303.64 
L 60.501787 194.28 
" style="fill:none;stroke:#b0b0b0;stroke-linecap:square;stroke-width:0.8;"/>
     </g>
     <g id="line2d_28">
      <g>
       <use style="stroke:#000000;stroke-width:0.8;" x="60.501787" xlink:href="#mbf9ed2adab" y="303.64"/>
      </g>
     </g>
     <g id="text_19">
      <!-- 0 -->
      <g transform="translate(57.320537 318.238438)scale(0.1 -0.1)">
       <use xlink:href="#DejaVuSans-30"/>
      </g>
     </g>
    </g>
    <g id="xtick_8">
     <g id="line2d_29">
      <path clip-path="url(#p5c7e6e4c20)" d="M 119.57825 303.64 
L 119.57825 194.28 
" style="fill:none;stroke:#b0b0b0;stroke-linecap:square;stroke-width:0.8;"/>
     </g>
     <g id="line2d_30">
      <g>
       <use style="stroke:#000000;stroke-width:0.8;" x="119.57825" xlink:href="#mbf9ed2adab" y="303.64"/>
      </g>
     </g>
     <g id="text_20">
      <!-- 100 -->
      <g transform="translate(110.0345 318.238438)scale(0.1 -0.1)">
       <use xlink:href="#DejaVuSans-31"/>
       <use x="63.623047" xlink:href="#DejaVuSans-30"/>
       <use x="127.246094" xlink:href="#DejaVuSans-30"/>
      </g>
     </g>
    </g>
    <g id="xtick_9">
     <g id="line2d_31">
      <path clip-path="url(#p5c7e6e4c20)" d="M 178.654712 303.64 
L 178.654712 194.28 
" style="fill:none;stroke:#b0b0b0;stroke-linecap:square;stroke-width:0.8;"/>
     </g>
     <g id="line2d_32">
      <g>
       <use style="stroke:#000000;stroke-width:0.8;" x="178.654712" xlink:href="#mbf9ed2adab" y="303.64"/>
      </g>
     </g>
     <g id="text_21">
      <!-- 200 -->
      <g transform="translate(169.110962 318.238438)scale(0.1 -0.1)">
       <use xlink:href="#DejaVuSans-32"/>
       <use x="63.623047" xlink:href="#DejaVuSans-30"/>
       <use x="127.246094" xlink:href="#DejaVuSans-30"/>
      </g>
     </g>
    </g>
    <g id="text_22">
     <!-- Frequency/Hz -->
     <g transform="translate(101.753253 331.916562)scale(0.1 -0.1)">
      <use xlink:href="#DejaVuSans-46"/>
      <use x="57.410156" xlink:href="#DejaVuSans-72"/>
      <use x="98.492188" xlink:href="#DejaVuSans-65"/>
      <use x="160.015625" xlink:href="#DejaVuSans-71"/>
      <use x="223.492188" xlink:href="#DejaVuSans-75"/>
      <use x="286.871094" xlink:href="#DejaVuSans-65"/>
      <use x="348.394531" xlink:href="#DejaVuSans-6e"/>
      <use x="411.773438" xlink:href="#DejaVuSans-63"/>
      <use x="466.753906" xlink:href="#DejaVuSans-79"/>
      <use x="525.933594" xlink:href="#DejaVuSans-2f"/>
      <use x="559.625" xlink:href="#DejaVuSans-48"/>
      <use x="634.820312" xlink:href="#DejaVuSans-7a"/>
     </g>
    </g>
   </g>
   <g id="matplotlib.axis_6">
    <g id="ytick_7">
     <g id="line2d_33">
      <path clip-path="url(#p5c7e6e4c20)" d="M 52.94 293.542123 
L 219.299318 293.542123 
" style="fill:none;stroke:#b0b0b0;stroke-linecap:square;stroke-width:0.8;"/>
     </g>
     <g id="line2d_34">
      <g>
       <use style="stroke:#000000;stroke-width:0.8;" x="52.94" xlink:href="#ma232af8f4b" y="293.542123"/>
      </g>
     </g>
     <g id="text_23">
      <!-- −10 -->
      <g transform="translate(24.835313 297.341342)scale(0.1 -0.1)">
       <use xlink:href="#DejaVuSans-2212"/>
       <use x="83.789062" xlink:href="#DejaVuSans-31"/>
       <use x="147.412109" xlink:href="#DejaVuSans-30"/>
      </g>
     </g>
    </g>
    <g id="ytick_8">
     <g id="line2d_35">
      <path clip-path="url(#p5c7e6e4c20)" d="M 52.94 269.9818 
L 219.299318 269.9818 
" style="fill:none;stroke:#b0b0b0;stroke-linecap:square;stroke-width:0.8;"/>
     </g>
     <g id="line2d_36">
      <g>
       <use style="stroke:#000000;stroke-width:0.8;" x="52.94" xlink:href="#ma232af8f4b" y="269.9818"/>
      </g>
     </g>
     <g id="text_24">
      <!-- −5 -->
      <defs>
       <path d="M 10.796875 72.90625 
L 49.515625 72.90625 
L 49.515625 64.59375 
L 19.828125 64.59375 
L 19.828125 46.734375 
Q 21.96875 47.46875 24.109375 47.828125 
Q 26.265625 48.1875 28.421875 48.1875 
Q 40.625 48.1875 47.75 41.5 
Q 54.890625 34.8125 54.890625 23.390625 
Q 54.890625 11.625 47.5625 5.09375 
Q 40.234375 -1.421875 26.90625 -1.421875 
Q 22.3125 -1.421875 17.546875 -0.640625 
Q 12.796875 0.140625 7.71875 1.703125 
L 7.71875 11.625 
Q 12.109375 9.234375 16.796875 8.0625 
Q 21.484375 6.890625 26.703125 6.890625 
Q 35.15625 6.890625 40.078125 11.328125 
Q 45.015625 15.765625 45.015625 23.390625 
Q 45.015625 31 40.078125 35.4375 
Q 35.15625 39.890625 26.703125 39.890625 
Q 22.75 39.890625 18.8125 39.015625 
Q 14.890625 38.140625 10.796875 36.28125 
z
" id="DejaVuSans-35"/>
      </defs>
      <g transform="translate(31.197813 273.781019)scale(0.1 -0.1)">
       <use xlink:href="#DejaVuSans-2212"/>
       <use x="83.789062" xlink:href="#DejaVuSans-35"/>
      </g>
     </g>
    </g>
    <g id="ytick_9">
     <g id="line2d_37">
      <path clip-path="url(#p5c7e6e4c20)" d="M 52.94 246.421477 
L 219.299318 246.421477 
" style="fill:none;stroke:#b0b0b0;stroke-linecap:square;stroke-width:0.8;"/>
     </g>
     <g id="line2d_38">
      <g>
       <use style="stroke:#000000;stroke-width:0.8;" x="52.94" xlink:href="#ma232af8f4b" y="246.421477"/>
      </g>
     </g>
     <g id="text_25">
      <!-- 0 -->
      <g transform="translate(39.5775 250.220696)scale(0.1 -0.1)">
       <use xlink:href="#DejaVuSans-30"/>
      </g>
     </g>
    </g>
    <g id="ytick_10">
     <g id="line2d_39">
      <path clip-path="url(#p5c7e6e4c20)" d="M 52.94 222.861154 
L 219.299318 222.861154 
" style="fill:none;stroke:#b0b0b0;stroke-linecap:square;stroke-width:0.8;"/>
     </g>
     <g id="line2d_40">
      <g>
       <use style="stroke:#000000;stroke-width:0.8;" x="52.94" xlink:href="#ma232af8f4b" y="222.861154"/>
      </g>
     </g>
     <g id="text_26">
      <!-- 5 -->
      <g transform="translate(39.5775 226.660373)scale(0.1 -0.1)">
       <use xlink:href="#DejaVuSans-35"/>
      </g>
     </g>
    </g>
    <g id="ytick_11">
     <g id="line2d_41">
      <path clip-path="url(#p5c7e6e4c20)" d="M 52.94 199.300831 
L 219.299318 199.300831 
" style="fill:none;stroke:#b0b0b0;stroke-linecap:square;stroke-width:0.8;"/>
     </g>
     <g id="line2d_42">
      <g>
       <use style="stroke:#000000;stroke-width:0.8;" x="52.94" xlink:href="#ma232af8f4b" y="199.300831"/>
      </g>
     </g>
     <g id="text_27">
      <!-- 10 -->
      <g transform="translate(33.215 203.10005)scale(0.1 -0.1)">
       <use xlink:href="#DejaVuSans-31"/>
       <use x="63.623047" xlink:href="#DejaVuSans-30"/>
      </g>
     </g>
    </g>
    <g id="text_28">
     <!-- Amplitude -->
     <g transform="translate(18.755625 274.582656)rotate(-90)scale(0.1 -0.1)">
      <use xlink:href="#DejaVuSans-41"/>
      <use x="68.408203" xlink:href="#DejaVuSans-6d"/>
      <use x="165.820312" xlink:href="#DejaVuSans-70"/>
      <use x="229.296875" xlink:href="#DejaVuSans-6c"/>
      <use x="257.080078" xlink:href="#DejaVuSans-69"/>
      <use x="284.863281" xlink:href="#DejaVuSans-74"/>
      <use x="324.072266" xlink:href="#DejaVuSans-75"/>
      <use x="387.451172" xlink:href="#DejaVuSans-64"/>
      <use x="450.927734" xlink:href="#DejaVuSans-65"/>
     </g>
    </g>
   </g>
   <g id="line2d_43">
    <path clip-path="url(#p5c7e6e4c20)" d="M 60.501787 246.421477 
L 71.45232 246.421477 
L 71.748281 199.250909 
L 72.044241 246.421477 
L 72.340202 246.421477 
L 72.636162 287.640807 
L 72.932122 246.421477 
L 83.586695 246.421477 
L 83.882656 204.838175 
L 84.474576 298.669091 
L 84.770537 246.421477 
L 142.778767 246.421477 
L 143.074728 201.92969 
L 143.370688 246.421477 
L 143.666648 246.421477 
L 143.962609 291.611429 
L 144.258569 246.421477 
L 211.737531 246.421477 
L 211.737531 246.421477 
" style="fill:none;stroke:#1f77b4;stroke-linecap:square;stroke-width:1.5;"/>
   </g>
   <g id="patch_13">
    <path d="M 52.94 303.64 
L 52.94 194.28 
" style="fill:none;stroke:#000000;stroke-linecap:square;stroke-linejoin:miter;stroke-width:0.8;"/>
   </g>
   <g id="patch_14">
    <path d="M 219.299318 303.64 
L 219.299318 194.28 
" style="fill:none;stroke:#000000;stroke-linecap:square;stroke-linejoin:miter;stroke-width:0.8;"/>
   </g>
   <g id="patch_15">
    <path d="M 52.94 303.64 
L 219.299318 303.64 
" style="fill:none;stroke:#000000;stroke-linecap:square;stroke-linejoin:miter;stroke-width:0.8;"/>
   </g>
   <g id="patch_16">
    <path d="M 52.94 194.28 
L 219.299318 194.28 
" style="fill:none;stroke:#000000;stroke-linecap:square;stroke-linejoin:miter;stroke-width:0.8;"/>
   </g>
   <g id="text_29">
    <!-- Reconstructed Signal (k=6) -->
    <defs>
     <path d="M 33.015625 40.375 
Q 26.375 40.375 22.484375 35.828125 
Q 18.609375 31.296875 18.609375 23.390625 
Q 18.609375 15.53125 22.484375 10.953125 
Q 26.375 6.390625 33.015625 6.390625 
Q 39.65625 6.390625 43.53125 10.953125 
Q 47.40625 15.53125 47.40625 23.390625 
Q 47.40625 31.296875 43.53125 35.828125 
Q 39.65625 40.375 33.015625 40.375 
M 52.59375 71.296875 
L 52.59375 62.3125 
Q 48.875 64.0625 45.09375 64.984375 
Q 41.3125 65.921875 37.59375 65.921875 
Q 27.828125 65.921875 22.671875 59.328125 
Q 17.53125 52.734375 16.796875 39.40625 
Q 19.671875 43.65625 24.015625 45.921875 
Q 28.375 48.1875 33.59375 48.1875 
Q 44.578125 48.1875 50.953125 41.515625 
Q 57.328125 34.859375 57.328125 23.390625 
Q 57.328125 12.15625 50.6875 5.359375 
Q 44.046875 -1.421875 33.015625 -1.421875 
Q 20.359375 -1.421875 13.671875 8.265625 
Q 6.984375 17.96875 6.984375 36.375 
Q 6.984375 53.65625 15.1875 63.9375 
Q 23.390625 74.21875 37.203125 74.21875 
Q 40.921875 74.21875 44.703125 73.484375 
Q 48.484375 72.75 52.59375 71.296875 
" id="DejaVuSans-36"/>
    </defs>
    <g transform="translate(53.344034 188.28)scale(0.12 -0.12)">
     <use xlink:href="#DejaVuSans-52"/>
     <use x="69.419922" xlink:href="#DejaVuSans-65"/>
     <use x="130.943359" xlink:href="#DejaVuSans-63"/>
     <use x="185.923828" xlink:href="#DejaVuSans-6f"/>
     <use x="247.105469" xlink:href="#DejaVuSans-6e"/>
     <use x="310.484375" xlink:href="#DejaVuSans-73"/>
     <use x="362.583984" xlink:href="#DejaVuSans-74"/>
     <use x="401.792969" xlink:href="#DejaVuSans-72"/>
     <use x="442.90625" xlink:href="#DejaVuSans-75"/>
     <use x="506.285156" xlink:href="#DejaVuSans-63"/>
     <use x="561.265625" xlink:href="#DejaVuSans-74"/>
     <use x="600.474609" xlink:href="#DejaVuSans-65"/>
     <use x="661.998047" xlink:href="#DejaVuSans-64"/>
     <use x="725.474609" xlink:href="#DejaVuSans-20"/>
     <use x="757.261719" xlink:href="#DejaVuSans-53"/>
     <use x="820.738281" xlink:href="#DejaVuSans-69"/>
     <use x="848.521484" xlink:href="#DejaVuSans-67"/>
     <use x="911.998047" xlink:href="#DejaVuSans-6e"/>
     <use x="975.376953" xlink:href="#DejaVuSans-61"/>
     <use x="1036.65625" xlink:href="#DejaVuSans-6c"/>
     <use x="1064.439453" xlink:href="#DejaVuSans-20"/>
     <use x="1096.226562" xlink:href="#DejaVuSans-28"/>
     <use x="1135.240234" xlink:href="#DejaVuSans-6b"/>
     <use x="1193.150391" xlink:href="#DejaVuSans-3d"/>
     <use x="1276.939453" xlink:href="#DejaVuSans-36"/>
     <use x="1340.5625" xlink:href="#DejaVuSans-29"/>
    </g>
   </g>
  </g>
  <g id="axes_4">
   <g id="patch_17">
    <path d="M 274.759318 303.64 
L 441.118636 303.64 
L 441.118636 194.28 
L 274.759318 194.28 
z
" style="fill:#ffffff;"/>
   </g>
   <g id="matplotlib.axis_7">
    <g id="xtick_10">
     <g id="line2d_44">
      <path clip-path="url(#pc010cc78a4)" d="M 282.321105 303.64 
L 282.321105 194.28 
" style="fill:none;stroke:#b0b0b0;stroke-linecap:square;stroke-width:0.8;"/>
     </g>
     <g id="line2d_45">
      <g>
       <use style="stroke:#000000;stroke-width:0.8;" x="282.321105" xlink:href="#mbf9ed2adab" y="303.64"/>
      </g>
     </g>
     <g id="text_30">
      <!-- 0 -->
      <g transform="translate(279.139855 318.238438)scale(0.1 -0.1)">
       <use xlink:href="#DejaVuSans-30"/>
      </g>
     </g>
    </g>
    <g id="xtick_11">
     <g id="line2d_46">
      <path clip-path="url(#pc010cc78a4)" d="M 341.397568 303.64 
L 341.397568 194.28 
" style="fill:none;stroke:#b0b0b0;stroke-linecap:square;stroke-width:0.8;"/>
     </g>
     <g id="line2d_47">
      <g>
       <use style="stroke:#000000;stroke-width:0.8;" x="341.397568" xlink:href="#mbf9ed2adab" y="303.64"/>
      </g>
     </g>
     <g id="text_31">
      <!-- 100 -->
      <g transform="translate(331.853818 318.238438)scale(0.1 -0.1)">
       <use xlink:href="#DejaVuSans-31"/>
       <use x="63.623047" xlink:href="#DejaVuSans-30"/>
       <use x="127.246094" xlink:href="#DejaVuSans-30"/>
      </g>
     </g>
    </g>
    <g id="xtick_12">
     <g id="line2d_48">
      <path clip-path="url(#pc010cc78a4)" d="M 400.47403 303.64 
L 400.47403 194.28 
" style="fill:none;stroke:#b0b0b0;stroke-linecap:square;stroke-width:0.8;"/>
     </g>
     <g id="line2d_49">
      <g>
       <use style="stroke:#000000;stroke-width:0.8;" x="400.47403" xlink:href="#mbf9ed2adab" y="303.64"/>
      </g>
     </g>
     <g id="text_32">
      <!-- 200 -->
      <g transform="translate(390.93028 318.238438)scale(0.1 -0.1)">
       <use xlink:href="#DejaVuSans-32"/>
       <use x="63.623047" xlink:href="#DejaVuSans-30"/>
       <use x="127.246094" xlink:href="#DejaVuSans-30"/>
      </g>
     </g>
    </g>
    <g id="text_33">
     <!-- Frequency/Hz -->
     <g transform="translate(323.572571 331.916562)scale(0.1 -0.1)">
      <use xlink:href="#DejaVuSans-46"/>
      <use x="57.410156" xlink:href="#DejaVuSans-72"/>
      <use x="98.492188" xlink:href="#DejaVuSans-65"/>
      <use x="160.015625" xlink:href="#DejaVuSans-71"/>
      <use x="223.492188" xlink:href="#DejaVuSans-75"/>
      <use x="286.871094" xlink:href="#DejaVuSans-65"/>
      <use x="348.394531" xlink:href="#DejaVuSans-6e"/>
      <use x="411.773438" xlink:href="#DejaVuSans-63"/>
      <use x="466.753906" xlink:href="#DejaVuSans-79"/>
      <use x="525.933594" xlink:href="#DejaVuSans-2f"/>
      <use x="559.625" xlink:href="#DejaVuSans-48"/>
      <use x="634.820312" xlink:href="#DejaVuSans-7a"/>
     </g>
    </g>
   </g>
   <g id="matplotlib.axis_8">
    <g id="ytick_12">
     <g id="line2d_50">
      <path clip-path="url(#pc010cc78a4)" d="M 274.759318 293.286579 
L 441.118636 293.286579 
" style="fill:none;stroke:#b0b0b0;stroke-linecap:square;stroke-width:0.8;"/>
     </g>
     <g id="line2d_51">
      <g>
       <use style="stroke:#000000;stroke-width:0.8;" x="274.759318" xlink:href="#ma232af8f4b" y="293.286579"/>
      </g>
     </g>
     <g id="text_34">
      <!-- −10 -->
      <g transform="translate(246.654631 297.085798)scale(0.1 -0.1)">
       <use xlink:href="#DejaVuSans-2212"/>
       <use x="83.789062" xlink:href="#DejaVuSans-31"/>
       <use x="147.412109" xlink:href="#DejaVuSans-30"/>
      </g>
     </g>
    </g>
    <g id="ytick_13">
     <g id="line2d_52">
      <path clip-path="url(#pc010cc78a4)" d="M 274.759318 251.460608 
L 441.118636 251.460608 
" style="fill:none;stroke:#b0b0b0;stroke-linecap:square;stroke-width:0.8;"/>
     </g>
     <g id="line2d_53">
      <g>
       <use style="stroke:#000000;stroke-width:0.8;" x="274.759318" xlink:href="#ma232af8f4b" y="251.460608"/>
      </g>
     </g>
     <g id="text_35">
      <!-- 0 -->
      <g transform="translate(261.396818 255.259827)scale(0.1 -0.1)">
       <use xlink:href="#DejaVuSans-30"/>
      </g>
     </g>
    </g>
    <g id="ytick_14">
     <g id="line2d_54">
      <path clip-path="url(#pc010cc78a4)" d="M 274.759318 209.634638 
L 441.118636 209.634638 
" style="fill:none;stroke:#b0b0b0;stroke-linecap:square;stroke-width:0.8;"/>
     </g>
     <g id="line2d_55">
      <g>
       <use style="stroke:#000000;stroke-width:0.8;" x="274.759318" xlink:href="#ma232af8f4b" y="209.634638"/>
      </g>
     </g>
     <g id="text_36">
      <!-- 10 -->
      <g transform="translate(255.034318 213.433856)scale(0.1 -0.1)">
       <use xlink:href="#DejaVuSans-31"/>
       <use x="63.623047" xlink:href="#DejaVuSans-30"/>
      </g>
     </g>
    </g>
    <g id="text_37">
     <!-- Amplitude -->
     <g transform="translate(240.574943 274.582656)rotate(-90)scale(0.1 -0.1)">
      <use xlink:href="#DejaVuSans-41"/>
      <use x="68.408203" xlink:href="#DejaVuSans-6d"/>
      <use x="165.820312" xlink:href="#DejaVuSans-70"/>
      <use x="229.296875" xlink:href="#DejaVuSans-6c"/>
      <use x="257.080078" xlink:href="#DejaVuSans-69"/>
      <use x="284.863281" xlink:href="#DejaVuSans-74"/>
      <use x="324.072266" xlink:href="#DejaVuSans-75"/>
      <use x="387.451172" xlink:href="#DejaVuSans-64"/>
      <use x="450.927734" xlink:href="#DejaVuSans-65"/>
     </g>
    </g>
   </g>
   <g id="line2d_56">
    <path clip-path="url(#pc010cc78a4)" d="M 282.321105 248.547824 
L 282.617066 251.460608 
L 282.913026 251.460608 
L 283.208986 246.044675 
L 283.504947 251.460608 
L 283.800907 251.460608 
L 284.096868 246.437853 
L 284.392828 251.460608 
L 284.688788 249.245019 
L 284.984749 251.460608 
L 285.280709 246.429276 
L 285.576669 251.460608 
L 285.87263 251.460608 
L 286.16859 245.913786 
L 286.46455 251.460608 
L 286.760511 251.460608 
L 287.056471 245.773624 
L 287.352431 251.460608 
L 287.648392 251.460608 
L 287.944352 245.27014 
L 288.240313 251.460608 
L 288.536273 251.460608 
L 288.832233 244.700624 
L 289.128194 251.460608 
L 289.424154 251.460608 
L 289.720114 244.195293 
L 290.016075 251.460608 
L 290.312035 251.460608 
L 290.607995 242.919862 
L 290.903956 251.460608 
L 291.199916 251.460608 
L 291.495877 241.296287 
L 291.791837 251.460608 
L 292.087797 246.63544 
L 292.383758 251.460608 
L 292.679718 233.912829 
L 292.975678 251.460608 
L 293.271639 258.030311 
L 293.567599 199.250909 
L 293.863559 251.460608 
L 294.15952 251.460608 
L 294.45548 285.346597 
L 294.75144 251.460608 
L 295.047401 263.638361 
L 295.343361 251.460608 
L 295.639322 251.460608 
L 295.935282 258.741941 
L 296.231242 251.460608 
L 296.527203 251.460608 
L 296.823163 254.361932 
L 297.119123 251.460608 
L 297.415084 252.678097 
L 297.711044 251.460608 
L 298.007004 251.460608 
L 298.302965 252.257024 
L 298.598925 251.460608 
L 299.782767 251.460608 
L 300.078727 250.439584 
L 300.374687 251.460608 
L 300.670648 249.815732 
L 300.966608 251.460608 
L 301.262568 251.460608 
L 301.558529 248.316274 
L 301.854489 251.460608 
L 302.150449 251.460608 
L 302.44641 246.852895 
L 302.74237 251.460608 
L 303.038331 251.460608 
L 303.334291 244.981421 
L 303.630251 251.460608 
L 303.926212 251.460608 
L 304.222172 240.874406 
L 304.518132 251.460608 
L 304.814093 251.460608 
L 305.110053 231.063818 
L 305.406013 251.460608 
L 305.701974 214.450562 
L 306.293895 298.669091 
L 306.589855 253.410914 
L 306.885815 251.460608 
L 307.181776 266.647859 
L 307.477736 251.460608 
L 307.773696 251.460608 
L 308.069657 260.449436 
L 308.365617 251.460608 
L 308.661577 251.460608 
L 308.957538 257.955102 
L 309.253498 251.460608 
L 309.549458 251.460608 
L 309.845419 256.317235 
L 310.141379 251.460608 
L 310.43734 251.460608 
L 310.7333 255.234865 
L 311.02926 251.460608 
L 311.325221 251.460608 
L 311.621181 254.73212 
L 311.917141 251.460608 
L 312.213102 251.460608 
L 312.509062 254.33381 
L 312.805022 251.460608 
L 313.100983 251.460608 
L 313.396943 253.792146 
L 313.692903 251.460608 
L 313.988864 251.460608 
L 314.284824 253.426455 
L 314.580785 251.460608 
L 314.876745 251.460608 
L 315.172705 253.342569 
L 315.468666 251.460608 
L 315.764626 251.460608 
L 316.060586 253.169112 
L 316.356547 251.460608 
L 316.652507 251.460608 
L 316.948467 252.816951 
L 317.244428 251.460608 
L 317.540388 251.460608 
L 317.836349 252.664991 
L 318.132309 251.460608 
L 318.428269 251.460608 
L 318.72423 252.744844 
L 319.02019 251.460608 
L 319.31615 251.460608 
L 319.612111 252.525534 
L 319.908071 251.460608 
L 320.499992 251.460608 
L 320.795952 252.384805 
L 321.091912 251.460608 
L 321.387873 251.460608 
L 321.683833 252.228834 
L 321.979794 251.460608 
L 350.096028 251.460608 
L 350.391988 250.645031 
L 350.687948 251.460608 
L 350.983909 251.460608 
L 351.279869 250.492932 
L 351.57583 251.460608 
L 352.16775 251.460608 
L 352.463711 250.350866 
L 352.759671 251.460608 
L 353.055631 251.460608 
L 353.351592 250.082015 
L 353.647552 251.460608 
L 353.943512 251.460608 
L 354.239473 250.171688 
L 354.535433 251.460608 
L 354.831393 251.460608 
L 355.127354 250.077604 
L 355.423314 251.460608 
L 355.719275 251.460608 
L 356.015235 249.710421 
L 356.311195 251.460608 
L 356.607156 251.460608 
L 356.903116 249.455221 
L 357.199076 251.460608 
L 357.495037 251.460608 
L 357.790997 249.374247 
L 358.086957 251.460608 
L 358.382918 251.460608 
L 358.678878 249.066757 
L 358.974839 251.460608 
L 359.270799 251.460608 
L 359.566759 248.422046 
L 359.86272 251.460608 
L 360.15868 251.460608 
L 360.45464 247.802195 
L 360.750601 251.460608 
L 361.046561 251.460608 
L 361.342521 247.208623 
L 361.638482 251.460608 
L 361.934442 251.460608 
L 362.230402 245.901581 
L 362.526363 251.460608 
L 362.822323 251.460608 
L 363.118284 243.101595 
L 363.414244 251.460608 
L 363.710204 251.460608 
L 364.006165 237.592176 
L 364.302125 251.460608 
L 364.598085 251.460608 
L 364.894046 214.680193 
L 365.190006 243.59422 
L 365.485966 251.460608 
L 365.781927 295.517536 
L 366.077887 251.460608 
L 366.373848 251.460608 
L 366.669808 266.374473 
L 366.965768 251.460608 
L 367.261729 251.460608 
L 367.557689 260.611504 
L 367.853649 251.460608 
L 368.14961 251.460608 
L 368.44557 257.821927 
L 368.74153 251.460608 
L 369.037491 251.460608 
L 369.333451 256.398462 
L 369.629411 251.460608 
L 369.925372 251.460608 
L 370.221332 255.67676 
L 370.517293 251.460608 
L 370.813253 251.460608 
L 371.109213 255.103185 
L 371.405174 251.460608 
L 371.701134 251.460608 
L 371.997094 254.562012 
L 372.293055 251.460608 
L 372.589015 251.460608 
L 372.884975 254.197073 
L 373.180936 251.460608 
L 373.476896 251.460608 
L 373.772857 253.998236 
L 374.068817 251.460608 
L 374.364777 251.460608 
L 374.660738 253.805025 
L 374.956698 251.460608 
L 375.252658 251.460608 
L 375.548619 253.574588 
L 375.844579 251.460608 
L 376.140539 251.460608 
L 376.4365 253.401309 
L 376.73246 251.460608 
L 377.02842 251.460608 
L 377.324381 253.312453 
L 377.620341 251.460608 
L 377.916302 251.460608 
L 378.212262 253.224187 
L 378.508222 251.460608 
L 378.804183 251.460608 
L 379.100143 253.096309 
L 379.396103 251.460608 
L 379.692064 251.460608 
L 379.988024 252.988594 
L 380.283984 251.460608 
L 380.579945 251.460608 
L 380.875905 252.938892 
L 381.171866 251.460608 
L 381.467826 251.460608 
L 381.763786 252.895571 
L 382.059747 251.460608 
L 382.355707 251.460608 
L 382.651667 252.814241 
L 382.947628 251.460608 
L 383.243588 251.460608 
L 383.539548 252.734797 
L 383.835509 251.460608 
L 384.131469 251.460608 
L 384.427429 252.703535 
L 384.72339 251.460608 
L 385.01935 251.460608 
L 385.315311 252.685928 
L 385.611271 251.460608 
L 385.907231 251.460608 
L 386.203192 252.629201 
L 386.499152 251.460608 
L 386.795112 251.460608 
L 387.091073 252.561206 
L 387.387033 251.460608 
L 387.682993 251.460608 
L 387.978954 252.540937 
L 388.274914 251.460608 
L 388.570875 251.460608 
L 388.866835 252.544454 
L 389.162795 251.460608 
L 389.458756 251.460608 
L 389.754716 252.500993 
L 390.050676 251.460608 
L 390.346637 251.460608 
L 390.642597 252.428814 
L 390.938557 251.460608 
L 391.234518 251.460608 
L 391.530478 252.418142 
L 391.826438 251.460608 
L 392.122399 251.460608 
L 392.418359 252.460963 
L 392.71432 251.460608 
L 393.01028 251.460608 
L 393.30624 252.419585 
L 393.602201 251.460608 
L 393.898161 251.460608 
L 394.194121 252.221717 
L 394.490082 251.460608 
L 433.556849 251.460608 
L 433.556849 251.460608 
" style="fill:none;stroke:#1f77b4;stroke-linecap:square;stroke-width:1.5;"/>
   </g>
   <g id="patch_18">
    <path d="M 274.759318 303.64 
L 274.759318 194.28 
" style="fill:none;stroke:#000000;stroke-linecap:square;stroke-linejoin:miter;stroke-width:0.8;"/>
   </g>
   <g id="patch_19">
    <path d="M 441.118636 303.64 
L 441.118636 194.28 
" style="fill:none;stroke:#000000;stroke-linecap:square;stroke-linejoin:miter;stroke-width:0.8;"/>
   </g>
   <g id="patch_20">
    <path d="M 274.759318 303.64 
L 441.118636 303.64 
" style="fill:none;stroke:#000000;stroke-linecap:square;stroke-linejoin:miter;stroke-width:0.8;"/>
   </g>
   <g id="patch_21">
    <path d="M 274.759318 194.28 
L 441.118636 194.28 
" style="fill:none;stroke:#000000;stroke-linecap:square;stroke-linejoin:miter;stroke-width:0.8;"/>
   </g>
   <g id="text_38">
    <!-- Reconstructed Signal (k=100) -->
    <g transform="translate(267.528352 188.28)scale(0.12 -0.12)">
     <use xlink:href="#DejaVuSans-52"/>
     <use x="69.419922" xlink:href="#DejaVuSans-65"/>
     <use x="130.943359" xlink:href="#DejaVuSans-63"/>
     <use x="185.923828" xlink:href="#DejaVuSans-6f"/>
     <use x="247.105469" xlink:href="#DejaVuSans-6e"/>
     <use x="310.484375" xlink:href="#DejaVuSans-73"/>
     <use x="362.583984" xlink:href="#DejaVuSans-74"/>
     <use x="401.792969" xlink:href="#DejaVuSans-72"/>
     <use x="442.90625" xlink:href="#DejaVuSans-75"/>
     <use x="506.285156" xlink:href="#DejaVuSans-63"/>
     <use x="561.265625" xlink:href="#DejaVuSans-74"/>
     <use x="600.474609" xlink:href="#DejaVuSans-65"/>
     <use x="661.998047" xlink:href="#DejaVuSans-64"/>
     <use x="725.474609" xlink:href="#DejaVuSans-20"/>
     <use x="757.261719" xlink:href="#DejaVuSans-53"/>
     <use x="820.738281" xlink:href="#DejaVuSans-69"/>
     <use x="848.521484" xlink:href="#DejaVuSans-67"/>
     <use x="911.998047" xlink:href="#DejaVuSans-6e"/>
     <use x="975.376953" xlink:href="#DejaVuSans-61"/>
     <use x="1036.65625" xlink:href="#DejaVuSans-6c"/>
     <use x="1064.439453" xlink:href="#DejaVuSans-20"/>
     <use x="1096.226562" xlink:href="#DejaVuSans-28"/>
     <use x="1135.240234" xlink:href="#DejaVuSans-6b"/>
     <use x="1193.150391" xlink:href="#DejaVuSans-3d"/>
     <use x="1276.939453" xlink:href="#DejaVuSans-31"/>
     <use x="1340.5625" xlink:href="#DejaVuSans-30"/>
     <use x="1404.185547" xlink:href="#DejaVuSans-30"/>
     <use x="1467.808594" xlink:href="#DejaVuSans-29"/>
    </g>
   </g>
  </g>
 </g>
 <defs>
  <clipPath id="p41c607870c">
   <rect height="109.36" width="166.359318" x="52.94" y="26.88"/>
  </clipPath>
  <clipPath id="pf41d3935e9">
   <rect height="109.36" width="166.359318" x="274.759318" y="26.88"/>
  </clipPath>
  <clipPath id="p5c7e6e4c20">
   <rect height="109.36" width="166.359318" x="52.94" y="194.28"/>
  </clipPath>
  <clipPath id="pc010cc78a4">
   <rect height="109.36" width="166.359318" x="274.759318" y="194.28"/>
  </clipPath>
 </defs>
</svg>
