<?xml version="1.0" encoding="utf-8" standalone="no"?>
<!DOCTYPE svg PUBLIC "-//W3C//DTD SVG 1.1//EN"
  "http://www.w3.org/Graphics/SVG/1.1/DTD/svg11.dtd">
<!-- Created with matplotlib (http://matplotlib.org/) -->
<svg height="345pt" version="1.1" viewBox="0 0 460 345" width="460pt" xmlns="http://www.w3.org/2000/svg" xmlns:xlink="http://www.w3.org/1999/xlink">
 <defs>
  <style type="text/css">
*{stroke-linecap:butt;stroke-linejoin:round;}
  </style>
 </defs>
 <g id="figure_1">
  <g id="patch_1">
   <path d="M 0 345.6 
L 460.8 345.6 
L 460.8 0 
L 0 0 
z
" style="fill:#ffffff;"/>
  </g>
  <g id="axes_1">
   <g id="patch_2">
    <path d="M 56.09 136.24 
L 223.438574 136.24 
L 223.438574 26.88 
L 56.09 26.88 
z
" style="fill:#ffffff;"/>
   </g>
   <g id="matplotlib.axis_1">
    <g id="xtick_1">
     <g id="line2d_1">
      <path clip-path="url(#p975ee9dd1e)" d="M 63.696753 136.24 
L 63.696753 26.88 
" style="fill:none;stroke:#b0b0b0;stroke-linecap:square;stroke-width:0.8;"/>
     </g>
     <g id="line2d_2">
      <defs>
       <path d="M 0 0 
L 0 3.5 
" id="m644d1a3f29" style="stroke:#000000;stroke-width:0.8;"/>
      </defs>
      <g>
       <use style="stroke:#000000;stroke-width:0.8;" x="63.696753" xlink:href="#m644d1a3f29" y="136.24"/>
      </g>
     </g>
     <g id="text_1">
      <!-- 0.00 -->
      <defs>
       <path d="M 31.78125 66.40625 
Q 24.171875 66.40625 20.328125 58.90625 
Q 16.5 51.421875 16.5 36.375 
Q 16.5 21.390625 20.328125 13.890625 
Q 24.171875 6.390625 31.78125 6.390625 
Q 39.453125 6.390625 43.28125 13.890625 
Q 47.125 21.390625 47.125 36.375 
Q 47.125 51.421875 43.28125 58.90625 
Q 39.453125 66.40625 31.78125 66.40625 
M 31.78125 74.21875 
Q 44.046875 74.21875 50.515625 64.515625 
Q 56.984375 54.828125 56.984375 36.375 
Q 56.984375 17.96875 50.515625 8.265625 
Q 44.046875 -1.421875 31.78125 -1.421875 
Q 19.53125 -1.421875 13.0625 8.265625 
Q 6.59375 17.96875 6.59375 36.375 
Q 6.59375 54.828125 13.0625 64.515625 
Q 19.53125 74.21875 31.78125 74.21875 
" id="DejaVuSans-30"/>
       <path d="M 10.6875 12.40625 
L 21 12.40625 
L 21 0 
L 10.6875 0 
z
" id="DejaVuSans-2e"/>
      </defs>
      <g transform="translate(52.563941 150.838437)scale(0.1 -0.1)">
       <use xlink:href="#DejaVuSans-30"/>
       <use x="63.623047" xlink:href="#DejaVuSans-2e"/>
       <use x="95.410156" xlink:href="#DejaVuSans-30"/>
       <use x="159.033203" xlink:href="#DejaVuSans-30"/>
      </g>
     </g>
    </g>
    <g id="xtick_2">
     <g id="line2d_3">
      <path clip-path="url(#p975ee9dd1e)" d="M 101.73052 136.24 
L 101.73052 26.88 
" style="fill:none;stroke:#b0b0b0;stroke-linecap:square;stroke-width:0.8;"/>
     </g>
     <g id="line2d_4">
      <g>
       <use style="stroke:#000000;stroke-width:0.8;" x="101.73052" xlink:href="#m644d1a3f29" y="136.24"/>
      </g>
     </g>
     <g id="text_2">
      <!-- 0.25 -->
      <defs>
       <path d="M 19.1875 8.296875 
L 53.609375 8.296875 
L 53.609375 0 
L 7.328125 0 
L 7.328125 8.296875 
Q 12.9375 14.109375 22.625 23.890625 
Q 32.328125 33.6875 34.8125 36.53125 
Q 39.546875 41.84375 41.421875 45.53125 
Q 43.3125 49.21875 43.3125 52.78125 
Q 43.3125 58.59375 39.234375 62.25 
Q 35.15625 65.921875 28.609375 65.921875 
Q 23.96875 65.921875 18.8125 64.3125 
Q 13.671875 62.703125 7.8125 59.421875 
L 7.8125 69.390625 
Q 13.765625 71.78125 18.9375 73 
Q 24.125 74.21875 28.421875 74.21875 
Q 39.75 74.21875 46.484375 68.546875 
Q 53.21875 62.890625 53.21875 53.421875 
Q 53.21875 48.921875 51.53125 44.890625 
Q 49.859375 40.875 45.40625 35.40625 
Q 44.1875 33.984375 37.640625 27.21875 
Q 31.109375 20.453125 19.1875 8.296875 
" id="DejaVuSans-32"/>
       <path d="M 10.796875 72.90625 
L 49.515625 72.90625 
L 49.515625 64.59375 
L 19.828125 64.59375 
L 19.828125 46.734375 
Q 21.96875 47.46875 24.109375 47.828125 
Q 26.265625 48.1875 28.421875 48.1875 
Q 40.625 48.1875 47.75 41.5 
Q 54.890625 34.8125 54.890625 23.390625 
Q 54.890625 11.625 47.5625 5.09375 
Q 40.234375 -1.421875 26.90625 -1.421875 
Q 22.3125 -1.421875 17.546875 -0.640625 
Q 12.796875 0.140625 7.71875 1.703125 
L 7.71875 11.625 
Q 12.109375 9.234375 16.796875 8.0625 
Q 21.484375 6.890625 26.703125 6.890625 
Q 35.15625 6.890625 40.078125 11.328125 
Q 45.015625 15.765625 45.015625 23.390625 
Q 45.015625 31 40.078125 35.4375 
Q 35.15625 39.890625 26.703125 39.890625 
Q 22.75 39.890625 18.8125 39.015625 
Q 14.890625 38.140625 10.796875 36.28125 
z
" id="DejaVuSans-35"/>
      </defs>
      <g transform="translate(90.597708 150.838437)scale(0.1 -0.1)">
       <use xlink:href="#DejaVuSans-30"/>
       <use x="63.623047" xlink:href="#DejaVuSans-2e"/>
       <use x="95.410156" xlink:href="#DejaVuSans-32"/>
       <use x="159.033203" xlink:href="#DejaVuSans-35"/>
      </g>
     </g>
    </g>
    <g id="xtick_3">
     <g id="line2d_5">
      <path clip-path="url(#p975ee9dd1e)" d="M 139.764287 136.24 
L 139.764287 26.88 
" style="fill:none;stroke:#b0b0b0;stroke-linecap:square;stroke-width:0.8;"/>
     </g>
     <g id="line2d_6">
      <g>
       <use style="stroke:#000000;stroke-width:0.8;" x="139.764287" xlink:href="#m644d1a3f29" y="136.24"/>
      </g>
     </g>
     <g id="text_3">
      <!-- 0.50 -->
      <g transform="translate(128.631475 150.838437)scale(0.1 -0.1)">
       <use xlink:href="#DejaVuSans-30"/>
       <use x="63.623047" xlink:href="#DejaVuSans-2e"/>
       <use x="95.410156" xlink:href="#DejaVuSans-35"/>
       <use x="159.033203" xlink:href="#DejaVuSans-30"/>
      </g>
     </g>
    </g>
    <g id="xtick_4">
     <g id="line2d_7">
      <path clip-path="url(#p975ee9dd1e)" d="M 177.798054 136.24 
L 177.798054 26.88 
" style="fill:none;stroke:#b0b0b0;stroke-linecap:square;stroke-width:0.8;"/>
     </g>
     <g id="line2d_8">
      <g>
       <use style="stroke:#000000;stroke-width:0.8;" x="177.798054" xlink:href="#m644d1a3f29" y="136.24"/>
      </g>
     </g>
     <g id="text_4">
      <!-- 0.75 -->
      <defs>
       <path d="M 8.203125 72.90625 
L 55.078125 72.90625 
L 55.078125 68.703125 
L 28.609375 0 
L 18.3125 0 
L 43.21875 64.59375 
L 8.203125 64.59375 
z
" id="DejaVuSans-37"/>
      </defs>
      <g transform="translate(166.665242 150.838437)scale(0.1 -0.1)">
       <use xlink:href="#DejaVuSans-30"/>
       <use x="63.623047" xlink:href="#DejaVuSans-2e"/>
       <use x="95.410156" xlink:href="#DejaVuSans-37"/>
       <use x="159.033203" xlink:href="#DejaVuSans-35"/>
      </g>
     </g>
    </g>
    <g id="xtick_5">
     <g id="line2d_9">
      <path clip-path="url(#p975ee9dd1e)" d="M 215.831821 136.24 
L 215.831821 26.88 
" style="fill:none;stroke:#b0b0b0;stroke-linecap:square;stroke-width:0.8;"/>
     </g>
     <g id="line2d_10">
      <g>
       <use style="stroke:#000000;stroke-width:0.8;" x="215.831821" xlink:href="#m644d1a3f29" y="136.24"/>
      </g>
     </g>
     <g id="text_5">
      <!-- 1.00 -->
      <defs>
       <path d="M 12.40625 8.296875 
L 28.515625 8.296875 
L 28.515625 63.921875 
L 10.984375 60.40625 
L 10.984375 69.390625 
L 28.421875 72.90625 
L 38.28125 72.90625 
L 38.28125 8.296875 
L 54.390625 8.296875 
L 54.390625 0 
L 12.40625 0 
z
" id="DejaVuSans-31"/>
      </defs>
      <g transform="translate(204.699008 150.838437)scale(0.1 -0.1)">
       <use xlink:href="#DejaVuSans-31"/>
       <use x="63.623047" xlink:href="#DejaVuSans-2e"/>
       <use x="95.410156" xlink:href="#DejaVuSans-30"/>
       <use x="159.033203" xlink:href="#DejaVuSans-30"/>
      </g>
     </g>
    </g>
    <g id="text_6">
     <!-- Time/s -->
     <defs>
      <path d="M -0.296875 72.90625 
L 61.375 72.90625 
L 61.375 64.59375 
L 35.5 64.59375 
L 35.5 0 
L 25.59375 0 
L 25.59375 64.59375 
L -0.296875 64.59375 
z
" id="DejaVuSans-54"/>
      <path d="M 9.421875 54.6875 
L 18.40625 54.6875 
L 18.40625 0 
L 9.421875 0 
z
M 9.421875 75.984375 
L 18.40625 75.984375 
L 18.40625 64.59375 
L 9.421875 64.59375 
z
" id="DejaVuSans-69"/>
      <path d="M 52 44.1875 
Q 55.375 50.25 60.0625 53.125 
Q 64.75 56 71.09375 56 
Q 79.640625 56 84.28125 50.015625 
Q 88.921875 44.046875 88.921875 33.015625 
L 88.921875 0 
L 79.890625 0 
L 79.890625 32.71875 
Q 79.890625 40.578125 77.09375 44.375 
Q 74.3125 48.1875 68.609375 48.1875 
Q 61.625 48.1875 57.5625 43.546875 
Q 53.515625 38.921875 53.515625 30.90625 
L 53.515625 0 
L 44.484375 0 
L 44.484375 32.71875 
Q 44.484375 40.625 41.703125 44.40625 
Q 38.921875 48.1875 33.109375 48.1875 
Q 26.21875 48.1875 22.15625 43.53125 
Q 18.109375 38.875 18.109375 30.90625 
L 18.109375 0 
L 9.078125 0 
L 9.078125 54.6875 
L 18.109375 54.6875 
L 18.109375 46.1875 
Q 21.1875 51.21875 25.484375 53.609375 
Q 29.78125 56 35.6875 56 
Q 41.65625 56 45.828125 52.96875 
Q 50 49.953125 52 44.1875 
" id="DejaVuSans-6d"/>
      <path d="M 56.203125 29.59375 
L 56.203125 25.203125 
L 14.890625 25.203125 
Q 15.484375 15.921875 20.484375 11.0625 
Q 25.484375 6.203125 34.421875 6.203125 
Q 39.59375 6.203125 44.453125 7.46875 
Q 49.3125 8.734375 54.109375 11.28125 
L 54.109375 2.78125 
Q 49.265625 0.734375 44.1875 -0.34375 
Q 39.109375 -1.421875 33.890625 -1.421875 
Q 20.796875 -1.421875 13.15625 6.1875 
Q 5.515625 13.8125 5.515625 26.8125 
Q 5.515625 40.234375 12.765625 48.109375 
Q 20.015625 56 32.328125 56 
Q 43.359375 56 49.78125 48.890625 
Q 56.203125 41.796875 56.203125 29.59375 
M 47.21875 32.234375 
Q 47.125 39.59375 43.09375 43.984375 
Q 39.0625 48.390625 32.421875 48.390625 
Q 24.90625 48.390625 20.390625 44.140625 
Q 15.875 39.890625 15.1875 32.171875 
z
" id="DejaVuSans-65"/>
      <path d="M 25.390625 72.90625 
L 33.6875 72.90625 
L 8.296875 -9.28125 
L 0 -9.28125 
z
" id="DejaVuSans-2f"/>
      <path d="M 44.28125 53.078125 
L 44.28125 44.578125 
Q 40.484375 46.53125 36.375 47.5 
Q 32.28125 48.484375 27.875 48.484375 
Q 21.1875 48.484375 17.84375 46.4375 
Q 14.5 44.390625 14.5 40.28125 
Q 14.5 37.15625 16.890625 35.375 
Q 19.28125 33.59375 26.515625 31.984375 
L 29.59375 31.296875 
Q 39.15625 29.25 43.1875 25.515625 
Q 47.21875 21.78125 47.21875 15.09375 
Q 47.21875 7.46875 41.1875 3.015625 
Q 35.15625 -1.421875 24.609375 -1.421875 
Q 20.21875 -1.421875 15.453125 -0.5625 
Q 10.6875 0.296875 5.421875 2 
L 5.421875 11.28125 
Q 10.40625 8.6875 15.234375 7.390625 
Q 20.0625 6.109375 24.8125 6.109375 
Q 31.15625 6.109375 34.5625 8.28125 
Q 37.984375 10.453125 37.984375 14.40625 
Q 37.984375 18.0625 35.515625 20.015625 
Q 33.0625 21.96875 24.703125 23.78125 
L 21.578125 24.515625 
Q 13.234375 26.265625 9.515625 29.90625 
Q 5.8125 33.546875 5.8125 39.890625 
Q 5.8125 47.609375 11.28125 51.796875 
Q 16.75 56 26.8125 56 
Q 31.78125 56 36.171875 55.265625 
Q 40.578125 54.546875 44.28125 53.078125 
" id="DejaVuSans-73"/>
     </defs>
     <g transform="translate(123.087725 164.516562)scale(0.1 -0.1)">
      <use xlink:href="#DejaVuSans-54"/>
      <use x="61.037109" xlink:href="#DejaVuSans-69"/>
      <use x="88.820312" xlink:href="#DejaVuSans-6d"/>
      <use x="186.232422" xlink:href="#DejaVuSans-65"/>
      <use x="247.755859" xlink:href="#DejaVuSans-2f"/>
      <use x="281.447266" xlink:href="#DejaVuSans-73"/>
     </g>
    </g>
   </g>
   <g id="matplotlib.axis_2">
    <g id="ytick_1">
     <g id="line2d_11">
      <path clip-path="url(#p975ee9dd1e)" d="M 56.09 122.098121 
L 223.438574 122.098121 
" style="fill:none;stroke:#b0b0b0;stroke-linecap:square;stroke-width:0.8;"/>
     </g>
     <g id="line2d_12">
      <defs>
       <path d="M 0 0 
L -3.5 0 
" id="m5b5aa343d7" style="stroke:#000000;stroke-width:0.8;"/>
      </defs>
      <g>
       <use style="stroke:#000000;stroke-width:0.8;" x="56.09" xlink:href="#m5b5aa343d7" y="122.098121"/>
      </g>
     </g>
     <g id="text_7">
      <!-- −1 -->
      <defs>
       <path d="M 10.59375 35.5 
L 73.1875 35.5 
L 73.1875 27.203125 
L 10.59375 27.203125 
z
" id="DejaVuSans-2212"/>
      </defs>
      <g transform="translate(34.347813 125.89734)scale(0.1 -0.1)">
       <use xlink:href="#DejaVuSans-2212"/>
       <use x="83.789062" xlink:href="#DejaVuSans-31"/>
      </g>
     </g>
    </g>
    <g id="ytick_2">
     <g id="line2d_13">
      <path clip-path="url(#p975ee9dd1e)" d="M 56.09 84.851327 
L 223.438574 84.851327 
" style="fill:none;stroke:#b0b0b0;stroke-linecap:square;stroke-width:0.8;"/>
     </g>
     <g id="line2d_14">
      <g>
       <use style="stroke:#000000;stroke-width:0.8;" x="56.09" xlink:href="#m5b5aa343d7" y="84.851327"/>
      </g>
     </g>
     <g id="text_8">
      <!-- 0 -->
      <g transform="translate(42.7275 88.650545)scale(0.1 -0.1)">
       <use xlink:href="#DejaVuSans-30"/>
      </g>
     </g>
    </g>
    <g id="ytick_3">
     <g id="line2d_15">
      <path clip-path="url(#p975ee9dd1e)" d="M 56.09 47.604532 
L 223.438574 47.604532 
" style="fill:none;stroke:#b0b0b0;stroke-linecap:square;stroke-width:0.8;"/>
     </g>
     <g id="line2d_16">
      <g>
       <use style="stroke:#000000;stroke-width:0.8;" x="56.09" xlink:href="#m5b5aa343d7" y="47.604532"/>
      </g>
     </g>
     <g id="text_9">
      <!-- 1 -->
      <g transform="translate(42.7275 51.403751)scale(0.1 -0.1)">
       <use xlink:href="#DejaVuSans-31"/>
      </g>
     </g>
    </g>
    <g id="text_10">
     <!-- Amplitude -->
     <defs>
      <path d="M 34.1875 63.1875 
L 20.796875 26.90625 
L 47.609375 26.90625 
z
M 28.609375 72.90625 
L 39.796875 72.90625 
L 67.578125 0 
L 57.328125 0 
L 50.6875 18.703125 
L 17.828125 18.703125 
L 11.1875 0 
L 0.78125 0 
z
" id="DejaVuSans-41"/>
      <path d="M 18.109375 8.203125 
L 18.109375 -20.796875 
L 9.078125 -20.796875 
L 9.078125 54.6875 
L 18.109375 54.6875 
L 18.109375 46.390625 
Q 20.953125 51.265625 25.265625 53.625 
Q 29.59375 56 35.59375 56 
Q 45.5625 56 51.78125 48.09375 
Q 58.015625 40.1875 58.015625 27.296875 
Q 58.015625 14.40625 51.78125 6.484375 
Q 45.5625 -1.421875 35.59375 -1.421875 
Q 29.59375 -1.421875 25.265625 0.953125 
Q 20.953125 3.328125 18.109375 8.203125 
M 48.6875 27.296875 
Q 48.6875 37.203125 44.609375 42.84375 
Q 40.53125 48.484375 33.40625 48.484375 
Q 26.265625 48.484375 22.1875 42.84375 
Q 18.109375 37.203125 18.109375 27.296875 
Q 18.109375 17.390625 22.1875 11.75 
Q 26.265625 6.109375 33.40625 6.109375 
Q 40.53125 6.109375 44.609375 11.75 
Q 48.6875 17.390625 48.6875 27.296875 
" id="DejaVuSans-70"/>
      <path d="M 9.421875 75.984375 
L 18.40625 75.984375 
L 18.40625 0 
L 9.421875 0 
z
" id="DejaVuSans-6c"/>
      <path d="M 18.3125 70.21875 
L 18.3125 54.6875 
L 36.8125 54.6875 
L 36.8125 47.703125 
L 18.3125 47.703125 
L 18.3125 18.015625 
Q 18.3125 11.328125 20.140625 9.421875 
Q 21.96875 7.515625 27.59375 7.515625 
L 36.8125 7.515625 
L 36.8125 0 
L 27.59375 0 
Q 17.1875 0 13.234375 3.875 
Q 9.28125 7.765625 9.28125 18.015625 
L 9.28125 47.703125 
L 2.6875 47.703125 
L 2.6875 54.6875 
L 9.28125 54.6875 
L 9.28125 70.21875 
z
" id="DejaVuSans-74"/>
      <path d="M 8.5 21.578125 
L 8.5 54.6875 
L 17.484375 54.6875 
L 17.484375 21.921875 
Q 17.484375 14.15625 20.5 10.265625 
Q 23.53125 6.390625 29.59375 6.390625 
Q 36.859375 6.390625 41.078125 11.03125 
Q 45.3125 15.671875 45.3125 23.6875 
L 45.3125 54.6875 
L 54.296875 54.6875 
L 54.296875 0 
L 45.3125 0 
L 45.3125 8.40625 
Q 42.046875 3.421875 37.71875 1 
Q 33.40625 -1.421875 27.6875 -1.421875 
Q 18.265625 -1.421875 13.375 4.4375 
Q 8.5 10.296875 8.5 21.578125 
M 31.109375 56 
z
" id="DejaVuSans-75"/>
      <path d="M 45.40625 46.390625 
L 45.40625 75.984375 
L 54.390625 75.984375 
L 54.390625 0 
L 45.40625 0 
L 45.40625 8.203125 
Q 42.578125 3.328125 38.25 0.953125 
Q 33.9375 -1.421875 27.875 -1.421875 
Q 17.96875 -1.421875 11.734375 6.484375 
Q 5.515625 14.40625 5.515625 27.296875 
Q 5.515625 40.1875 11.734375 48.09375 
Q 17.96875 56 27.875 56 
Q 33.9375 56 38.25 53.625 
Q 42.578125 51.265625 45.40625 46.390625 
M 14.796875 27.296875 
Q 14.796875 17.390625 18.875 11.75 
Q 22.953125 6.109375 30.078125 6.109375 
Q 37.203125 6.109375 41.296875 11.75 
Q 45.40625 17.390625 45.40625 27.296875 
Q 45.40625 37.203125 41.296875 42.84375 
Q 37.203125 48.484375 30.078125 48.484375 
Q 22.953125 48.484375 18.875 42.84375 
Q 14.796875 37.203125 14.796875 27.296875 
" id="DejaVuSans-64"/>
     </defs>
     <g transform="translate(28.268125 107.182656)rotate(-90)scale(0.1 -0.1)">
      <use xlink:href="#DejaVuSans-41"/>
      <use x="68.408203" xlink:href="#DejaVuSans-6d"/>
      <use x="165.820312" xlink:href="#DejaVuSans-70"/>
      <use x="229.296875" xlink:href="#DejaVuSans-6c"/>
      <use x="257.080078" xlink:href="#DejaVuSans-69"/>
      <use x="284.863281" xlink:href="#DejaVuSans-74"/>
      <use x="324.072266" xlink:href="#DejaVuSans-75"/>
      <use x="387.451172" xlink:href="#DejaVuSans-64"/>
      <use x="450.927734" xlink:href="#DejaVuSans-65"/>
     </g>
    </g>
   </g>
   <g id="line2d_17">
    <path clip-path="url(#p975ee9dd1e)" d="M 63.696753 47.326108 
L 64.293361 35.571081 
L 64.88997 46.196006 
L 67.276402 106.783294 
L 67.87301 113.068661 
L 68.469618 113.336805 
L 69.066226 108.608428 
L 70.259443 93.018149 
L 70.856051 87.248752 
L 71.452659 85.408993 
L 72.049267 88.089033 
L 72.645875 94.572728 
L 73.839091 110.855191 
L 74.435699 115.503837 
L 75.032307 114.922217 
L 75.628916 108.179014 
L 76.225524 95.718867 
L 78.015348 46.211448 
L 78.611956 35.575377 
L 79.208564 31.850909 
L 79.805172 35.69632 
L 80.40178 46.290284 
L 82.788213 105.366543 
L 83.384821 111.170138 
L 83.981429 111.109409 
L 84.578037 106.293915 
L 85.771253 91.396108 
L 86.367861 86.342972 
L 86.96447 85.343677 
L 87.561078 88.861735 
L 88.157686 96.055913 
L 89.350902 113.027919 
L 89.94751 117.60388 
L 90.544118 116.724369 
L 91.140726 109.547872 
L 91.737334 96.624079 
L 93.527159 46.334657 
L 94.123767 35.708147 
L 94.720375 32.055461 
L 95.316983 35.951747 
L 95.913591 46.49587 
L 98.300024 103.93459 
L 98.896632 109.233173 
L 99.49324 108.828437 
L 100.089848 103.918161 
L 101.283064 89.710842 
L 101.879672 85.374094 
L 102.47628 85.213377 
L 103.072889 89.565111 
L 103.669497 97.464089 
L 104.862713 115.120573 
L 105.459321 119.630494 
L 106.055929 118.468787 
L 106.652537 110.884053 
L 107.249145 97.529415 
L 109.03897 46.563326 
L 109.635578 35.967921 
L 110.232186 32.395669 
L 110.828794 36.337596 
L 111.425402 46.81398 
L 113.215226 92.198552 
L 113.811834 102.493237 
L 114.408443 107.264355 
L 115.005051 106.500819 
L 115.601659 101.487881 
L 116.794875 87.966875 
L 117.391483 84.344833 
L 117.988091 85.018754 
L 118.584699 90.197746 
L 120.374524 117.127381 
L 120.971132 121.577451 
L 121.56774 120.149276 
L 122.164348 112.181784 
L 122.760956 98.429782 
L 124.55078 46.894804 
L 125.147389 36.352831 
L 125.743997 32.870465 
L 126.340605 36.853684 
L 126.937213 47.245449 
L 128.727037 91.367501 
L 129.323645 101.048236 
L 129.920253 105.270308 
L 130.516862 104.1336 
L 131.11347 99.009971 
L 132.306686 86.169008 
L 132.903294 83.258212 
L 133.499902 84.760797 
L 134.09651 90.758564 
L 135.886334 119.042856 
L 136.482943 123.438751 
L 137.079551 121.759795 
L 137.676159 113.435357 
L 138.272767 99.320046 
L 140.062591 47.326108 
L 140.659199 36.860617 
L 141.255807 33.478362 
L 141.852416 37.499409 
L 142.449024 47.790725 
L 144.238848 90.565134 
L 144.835456 99.605268 
L 145.432064 103.257674 
L 146.028672 101.733918 
L 146.62528 96.491486 
L 147.818497 84.322305 
L 148.415105 82.117551 
L 149.011713 84.44082 
L 149.608321 91.24683 
L 151.398145 120.861814 
L 151.994753 125.208646 
L 152.591362 123.294483 
L 153.18797 114.639149 
L 153.784578 100.195058 
L 155.574402 47.85394 
L 156.17101 37.488638 
L 156.767618 34.217456 
L 157.364226 38.273751 
L 157.960834 48.449867 
L 159.750659 89.795692 
L 160.347267 98.169921 
L 160.943875 101.233085 
L 161.540483 99.308979 
L 162.137091 93.939618 
L 162.733699 87.467327 
L 163.330307 82.432068 
L 163.926916 80.926454 
L 164.523524 84.060451 
L 165.120132 91.66215 
L 166.909956 122.57939 
L 167.506564 126.881659 
L 168.103172 124.747678 
L 168.69978 115.787648 
L 169.296389 101.049673 
L 171.086213 48.474698 
L 171.682821 38.233882 
L 172.279429 35.085434 
L 172.876037 39.175271 
L 173.472645 49.222537 
L 175.26247 89.063219 
L 175.859078 96.747669 
L 176.455686 99.203139 
L 177.052294 96.866032 
L 178.842118 80.503828 
L 179.438726 79.688796 
L 180.035335 83.621633 
L 180.631943 92.004468 
L 182.421767 124.191056 
L 183.018375 128.452603 
L 183.614983 126.113938 
L 184.211591 116.875471 
L 184.808199 101.878769 
L 186.598024 49.184493 
L 187.194632 39.092978 
L 187.79124 36.079579 
L 188.387848 40.202119 
L 188.984456 50.108006 
L 190.77428 88.371543 
L 191.370889 95.34385 
L 191.967497 97.174381 
L 192.564105 94.412344 
L 193.757321 82.64339 
L 194.353929 78.543323 
L 194.950537 78.408712 
L 195.547145 83.12661 
L 196.143753 92.274072 
L 197.33697 116.274694 
L 197.933578 125.692632 
L 198.530186 129.916598 
L 199.126794 127.388064 
L 199.723402 117.89739 
L 200.32001 102.677276 
L 202.109835 49.979166 
L 202.706443 40.062211 
L 203.303051 37.196784 
L 203.899659 41.352033 
L 204.496267 51.105145 
L 206.286091 87.724262 
L 206.882699 93.963649 
L 207.479307 95.153272 
L 208.075916 91.955175 
L 209.269132 80.200896 
L 209.86574 76.556477 
L 210.462348 77.09058 
L 211.058956 82.577922 
L 211.655564 92.471581 
L 212.84878 117.490219 
L 213.445389 127.0803 
L 214.041997 131.269091 
L 214.638605 128.565118 
L 215.235213 118.848349 
L 215.831821 103.440193 
L 215.831821 103.440193 
" style="fill:none;stroke:#1f77b4;stroke-linecap:square;stroke-width:1.5;"/>
   </g>
   <g id="patch_3">
    <path d="M 56.09 136.24 
L 56.09 26.88 
" style="fill:none;stroke:#000000;stroke-linecap:square;stroke-linejoin:miter;stroke-width:0.8;"/>
   </g>
   <g id="patch_4">
    <path d="M 223.438574 136.24 
L 223.438574 26.88 
" style="fill:none;stroke:#000000;stroke-linecap:square;stroke-linejoin:miter;stroke-width:0.8;"/>
   </g>
   <g id="patch_5">
    <path d="M 56.09 136.24 
L 223.438574 136.24 
" style="fill:none;stroke:#000000;stroke-linecap:square;stroke-linejoin:miter;stroke-width:0.8;"/>
   </g>
   <g id="patch_6">
    <path d="M 56.09 26.88 
L 223.438574 26.88 
" style="fill:none;stroke:#000000;stroke-linecap:square;stroke-linejoin:miter;stroke-width:0.8;"/>
   </g>
   <g id="text_11">
    <!-- Reconstructed Signal (k=2) -->
    <defs>
     <path d="M 44.390625 34.1875 
Q 47.5625 33.109375 50.5625 29.59375 
Q 53.5625 26.078125 56.59375 19.921875 
L 66.609375 0 
L 56 0 
L 46.6875 18.703125 
Q 43.0625 26.03125 39.671875 28.421875 
Q 36.28125 30.8125 30.421875 30.8125 
L 19.671875 30.8125 
L 19.671875 0 
L 9.8125 0 
L 9.8125 72.90625 
L 32.078125 72.90625 
Q 44.578125 72.90625 50.734375 67.671875 
Q 56.890625 62.453125 56.890625 51.90625 
Q 56.890625 45.015625 53.6875 40.46875 
Q 50.484375 35.9375 44.390625 34.1875 
M 19.671875 64.796875 
L 19.671875 38.921875 
L 32.078125 38.921875 
Q 39.203125 38.921875 42.84375 42.21875 
Q 46.484375 45.515625 46.484375 51.90625 
Q 46.484375 58.296875 42.84375 61.546875 
Q 39.203125 64.796875 32.078125 64.796875 
z
" id="DejaVuSans-52"/>
     <path d="M 48.78125 52.59375 
L 48.78125 44.1875 
Q 44.96875 46.296875 41.140625 47.34375 
Q 37.3125 48.390625 33.40625 48.390625 
Q 24.65625 48.390625 19.8125 42.84375 
Q 14.984375 37.3125 14.984375 27.296875 
Q 14.984375 17.28125 19.8125 11.734375 
Q 24.65625 6.203125 33.40625 6.203125 
Q 37.3125 6.203125 41.140625 7.25 
Q 44.96875 8.296875 48.78125 10.40625 
L 48.78125 2.09375 
Q 45.015625 0.34375 40.984375 -0.53125 
Q 36.96875 -1.421875 32.421875 -1.421875 
Q 20.0625 -1.421875 12.78125 6.34375 
Q 5.515625 14.109375 5.515625 27.296875 
Q 5.515625 40.671875 12.859375 48.328125 
Q 20.21875 56 33.015625 56 
Q 37.15625 56 41.109375 55.140625 
Q 45.0625 54.296875 48.78125 52.59375 
" id="DejaVuSans-63"/>
     <path d="M 30.609375 48.390625 
Q 23.390625 48.390625 19.1875 42.75 
Q 14.984375 37.109375 14.984375 27.296875 
Q 14.984375 17.484375 19.15625 11.84375 
Q 23.34375 6.203125 30.609375 6.203125 
Q 37.796875 6.203125 41.984375 11.859375 
Q 46.1875 17.53125 46.1875 27.296875 
Q 46.1875 37.015625 41.984375 42.703125 
Q 37.796875 48.390625 30.609375 48.390625 
M 30.609375 56 
Q 42.328125 56 49.015625 48.375 
Q 55.71875 40.765625 55.71875 27.296875 
Q 55.71875 13.875 49.015625 6.21875 
Q 42.328125 -1.421875 30.609375 -1.421875 
Q 18.84375 -1.421875 12.171875 6.21875 
Q 5.515625 13.875 5.515625 27.296875 
Q 5.515625 40.765625 12.171875 48.375 
Q 18.84375 56 30.609375 56 
" id="DejaVuSans-6f"/>
     <path d="M 54.890625 33.015625 
L 54.890625 0 
L 45.90625 0 
L 45.90625 32.71875 
Q 45.90625 40.484375 42.875 44.328125 
Q 39.84375 48.1875 33.796875 48.1875 
Q 26.515625 48.1875 22.3125 43.546875 
Q 18.109375 38.921875 18.109375 30.90625 
L 18.109375 0 
L 9.078125 0 
L 9.078125 54.6875 
L 18.109375 54.6875 
L 18.109375 46.1875 
Q 21.34375 51.125 25.703125 53.5625 
Q 30.078125 56 35.796875 56 
Q 45.21875 56 50.046875 50.171875 
Q 54.890625 44.34375 54.890625 33.015625 
" id="DejaVuSans-6e"/>
     <path d="M 41.109375 46.296875 
Q 39.59375 47.171875 37.8125 47.578125 
Q 36.03125 48 33.890625 48 
Q 26.265625 48 22.1875 43.046875 
Q 18.109375 38.09375 18.109375 28.8125 
L 18.109375 0 
L 9.078125 0 
L 9.078125 54.6875 
L 18.109375 54.6875 
L 18.109375 46.1875 
Q 20.953125 51.171875 25.484375 53.578125 
Q 30.03125 56 36.53125 56 
Q 37.453125 56 38.578125 55.875 
Q 39.703125 55.765625 41.0625 55.515625 
z
" id="DejaVuSans-72"/>
     <path id="DejaVuSans-20"/>
     <path d="M 53.515625 70.515625 
L 53.515625 60.890625 
Q 47.90625 63.578125 42.921875 64.890625 
Q 37.9375 66.21875 33.296875 66.21875 
Q 25.25 66.21875 20.875 63.09375 
Q 16.5 59.96875 16.5 54.203125 
Q 16.5 49.359375 19.40625 46.890625 
Q 22.3125 44.4375 30.421875 42.921875 
L 36.375 41.703125 
Q 47.40625 39.59375 52.65625 34.296875 
Q 57.90625 29 57.90625 20.125 
Q 57.90625 9.515625 50.796875 4.046875 
Q 43.703125 -1.421875 29.984375 -1.421875 
Q 24.8125 -1.421875 18.96875 -0.25 
Q 13.140625 0.921875 6.890625 3.21875 
L 6.890625 13.375 
Q 12.890625 10.015625 18.65625 8.296875 
Q 24.421875 6.59375 29.984375 6.59375 
Q 38.421875 6.59375 43.015625 9.90625 
Q 47.609375 13.234375 47.609375 19.390625 
Q 47.609375 24.75 44.3125 27.78125 
Q 41.015625 30.8125 33.5 32.328125 
L 27.484375 33.5 
Q 16.453125 35.6875 11.515625 40.375 
Q 6.59375 45.0625 6.59375 53.421875 
Q 6.59375 63.09375 13.40625 68.65625 
Q 20.21875 74.21875 32.171875 74.21875 
Q 37.3125 74.21875 42.625 73.28125 
Q 47.953125 72.359375 53.515625 70.515625 
" id="DejaVuSans-53"/>
     <path d="M 45.40625 27.984375 
Q 45.40625 37.75 41.375 43.109375 
Q 37.359375 48.484375 30.078125 48.484375 
Q 22.859375 48.484375 18.828125 43.109375 
Q 14.796875 37.75 14.796875 27.984375 
Q 14.796875 18.265625 18.828125 12.890625 
Q 22.859375 7.515625 30.078125 7.515625 
Q 37.359375 7.515625 41.375 12.890625 
Q 45.40625 18.265625 45.40625 27.984375 
M 54.390625 6.78125 
Q 54.390625 -7.171875 48.1875 -13.984375 
Q 42 -20.796875 29.203125 -20.796875 
Q 24.46875 -20.796875 20.265625 -20.09375 
Q 16.0625 -19.390625 12.109375 -17.921875 
L 12.109375 -9.1875 
Q 16.0625 -11.328125 19.921875 -12.34375 
Q 23.78125 -13.375 27.78125 -13.375 
Q 36.625 -13.375 41.015625 -8.765625 
Q 45.40625 -4.15625 45.40625 5.171875 
L 45.40625 9.625 
Q 42.625 4.78125 38.28125 2.390625 
Q 33.9375 0 27.875 0 
Q 17.828125 0 11.671875 7.65625 
Q 5.515625 15.328125 5.515625 27.984375 
Q 5.515625 40.671875 11.671875 48.328125 
Q 17.828125 56 27.875 56 
Q 33.9375 56 38.28125 53.609375 
Q 42.625 51.21875 45.40625 46.390625 
L 45.40625 54.6875 
L 54.390625 54.6875 
z
" id="DejaVuSans-67"/>
     <path d="M 34.28125 27.484375 
Q 23.390625 27.484375 19.1875 25 
Q 14.984375 22.515625 14.984375 16.5 
Q 14.984375 11.71875 18.140625 8.90625 
Q 21.296875 6.109375 26.703125 6.109375 
Q 34.1875 6.109375 38.703125 11.40625 
Q 43.21875 16.703125 43.21875 25.484375 
L 43.21875 27.484375 
z
M 52.203125 31.203125 
L 52.203125 0 
L 43.21875 0 
L 43.21875 8.296875 
Q 40.140625 3.328125 35.546875 0.953125 
Q 30.953125 -1.421875 24.3125 -1.421875 
Q 15.921875 -1.421875 10.953125 3.296875 
Q 6 8.015625 6 15.921875 
Q 6 25.140625 12.171875 29.828125 
Q 18.359375 34.515625 30.609375 34.515625 
L 43.21875 34.515625 
L 43.21875 35.40625 
Q 43.21875 41.609375 39.140625 45 
Q 35.0625 48.390625 27.6875 48.390625 
Q 23 48.390625 18.546875 47.265625 
Q 14.109375 46.140625 10.015625 43.890625 
L 10.015625 52.203125 
Q 14.9375 54.109375 19.578125 55.046875 
Q 24.21875 56 28.609375 56 
Q 40.484375 56 46.34375 49.84375 
Q 52.203125 43.703125 52.203125 31.203125 
" id="DejaVuSans-61"/>
     <path d="M 31 75.875 
Q 24.46875 64.65625 21.28125 53.65625 
Q 18.109375 42.671875 18.109375 31.390625 
Q 18.109375 20.125 21.3125 9.0625 
Q 24.515625 -2 31 -13.1875 
L 23.1875 -13.1875 
Q 15.875 -1.703125 12.234375 9.375 
Q 8.59375 20.453125 8.59375 31.390625 
Q 8.59375 42.28125 12.203125 53.3125 
Q 15.828125 64.359375 23.1875 75.875 
z
" id="DejaVuSans-28"/>
     <path d="M 9.078125 75.984375 
L 18.109375 75.984375 
L 18.109375 31.109375 
L 44.921875 54.6875 
L 56.390625 54.6875 
L 27.390625 29.109375 
L 57.625 0 
L 45.90625 0 
L 18.109375 26.703125 
L 18.109375 0 
L 9.078125 0 
z
" id="DejaVuSans-6b"/>
     <path d="M 10.59375 45.40625 
L 73.1875 45.40625 
L 73.1875 37.203125 
L 10.59375 37.203125 
z
M 10.59375 25.484375 
L 73.1875 25.484375 
L 73.1875 17.1875 
L 10.59375 17.1875 
z
" id="DejaVuSans-3d"/>
     <path d="M 8.015625 75.875 
L 15.828125 75.875 
Q 23.140625 64.359375 26.78125 53.3125 
Q 30.421875 42.28125 30.421875 31.390625 
Q 30.421875 20.453125 26.78125 9.375 
Q 23.140625 -1.703125 15.828125 -13.1875 
L 8.015625 -13.1875 
Q 14.5 -2 17.703125 9.0625 
Q 20.90625 20.125 20.90625 31.390625 
Q 20.90625 42.671875 17.703125 53.65625 
Q 14.5 64.65625 8.015625 75.875 
" id="DejaVuSans-29"/>
    </defs>
    <g transform="translate(56.988662 20.88)scale(0.12 -0.12)">
     <use xlink:href="#DejaVuSans-52"/>
     <use x="69.419922" xlink:href="#DejaVuSans-65"/>
     <use x="130.943359" xlink:href="#DejaVuSans-63"/>
     <use x="185.923828" xlink:href="#DejaVuSans-6f"/>
     <use x="247.105469" xlink:href="#DejaVuSans-6e"/>
     <use x="310.484375" xlink:href="#DejaVuSans-73"/>
     <use x="362.583984" xlink:href="#DejaVuSans-74"/>
     <use x="401.792969" xlink:href="#DejaVuSans-72"/>
     <use x="442.90625" xlink:href="#DejaVuSans-75"/>
     <use x="506.285156" xlink:href="#DejaVuSans-63"/>
     <use x="561.265625" xlink:href="#DejaVuSans-74"/>
     <use x="600.474609" xlink:href="#DejaVuSans-65"/>
     <use x="661.998047" xlink:href="#DejaVuSans-64"/>
     <use x="725.474609" xlink:href="#DejaVuSans-20"/>
     <use x="757.261719" xlink:href="#DejaVuSans-53"/>
     <use x="820.738281" xlink:href="#DejaVuSans-69"/>
     <use x="848.521484" xlink:href="#DejaVuSans-67"/>
     <use x="911.998047" xlink:href="#DejaVuSans-6e"/>
     <use x="975.376953" xlink:href="#DejaVuSans-61"/>
     <use x="1036.65625" xlink:href="#DejaVuSans-6c"/>
     <use x="1064.439453" xlink:href="#DejaVuSans-20"/>
     <use x="1096.226562" xlink:href="#DejaVuSans-28"/>
     <use x="1135.240234" xlink:href="#DejaVuSans-6b"/>
     <use x="1193.150391" xlink:href="#DejaVuSans-3d"/>
     <use x="1276.939453" xlink:href="#DejaVuSans-32"/>
     <use x="1340.5625" xlink:href="#DejaVuSans-29"/>
    </g>
   </g>
  </g>
  <g id="axes_2">
   <g id="patch_7">
    <path d="M 273.770062 136.24 
L 441.118636 136.24 
L 441.118636 26.88 
L 273.770062 26.88 
z
" style="fill:#ffffff;"/>
   </g>
   <g id="matplotlib.axis_3">
    <g id="xtick_6">
     <g id="line2d_18">
      <path clip-path="url(#p3969971446)" d="M 281.376815 136.24 
L 281.376815 26.88 
" style="fill:none;stroke:#b0b0b0;stroke-linecap:square;stroke-width:0.8;"/>
     </g>
     <g id="line2d_19">
      <g>
       <use style="stroke:#000000;stroke-width:0.8;" x="281.376815" xlink:href="#m644d1a3f29" y="136.24"/>
      </g>
     </g>
     <g id="text_12">
      <!-- 0.00 -->
      <g transform="translate(270.244003 150.838437)scale(0.1 -0.1)">
       <use xlink:href="#DejaVuSans-30"/>
       <use x="63.623047" xlink:href="#DejaVuSans-2e"/>
       <use x="95.410156" xlink:href="#DejaVuSans-30"/>
       <use x="159.033203" xlink:href="#DejaVuSans-30"/>
      </g>
     </g>
    </g>
    <g id="xtick_7">
     <g id="line2d_20">
      <path clip-path="url(#p3969971446)" d="M 319.410582 136.24 
L 319.410582 26.88 
" style="fill:none;stroke:#b0b0b0;stroke-linecap:square;stroke-width:0.8;"/>
     </g>
     <g id="line2d_21">
      <g>
       <use style="stroke:#000000;stroke-width:0.8;" x="319.410582" xlink:href="#m644d1a3f29" y="136.24"/>
      </g>
     </g>
     <g id="text_13">
      <!-- 0.25 -->
      <g transform="translate(308.27777 150.838437)scale(0.1 -0.1)">
       <use xlink:href="#DejaVuSans-30"/>
       <use x="63.623047" xlink:href="#DejaVuSans-2e"/>
       <use x="95.410156" xlink:href="#DejaVuSans-32"/>
       <use x="159.033203" xlink:href="#DejaVuSans-35"/>
      </g>
     </g>
    </g>
    <g id="xtick_8">
     <g id="line2d_22">
      <path clip-path="url(#p3969971446)" d="M 357.444349 136.24 
L 357.444349 26.88 
" style="fill:none;stroke:#b0b0b0;stroke-linecap:square;stroke-width:0.8;"/>
     </g>
     <g id="line2d_23">
      <g>
       <use style="stroke:#000000;stroke-width:0.8;" x="357.444349" xlink:href="#m644d1a3f29" y="136.24"/>
      </g>
     </g>
     <g id="text_14">
      <!-- 0.50 -->
      <g transform="translate(346.311537 150.838437)scale(0.1 -0.1)">
       <use xlink:href="#DejaVuSans-30"/>
       <use x="63.623047" xlink:href="#DejaVuSans-2e"/>
       <use x="95.410156" xlink:href="#DejaVuSans-35"/>
       <use x="159.033203" xlink:href="#DejaVuSans-30"/>
      </g>
     </g>
    </g>
    <g id="xtick_9">
     <g id="line2d_24">
      <path clip-path="url(#p3969971446)" d="M 395.478116 136.24 
L 395.478116 26.88 
" style="fill:none;stroke:#b0b0b0;stroke-linecap:square;stroke-width:0.8;"/>
     </g>
     <g id="line2d_25">
      <g>
       <use style="stroke:#000000;stroke-width:0.8;" x="395.478116" xlink:href="#m644d1a3f29" y="136.24"/>
      </g>
     </g>
     <g id="text_15">
      <!-- 0.75 -->
      <g transform="translate(384.345304 150.838437)scale(0.1 -0.1)">
       <use xlink:href="#DejaVuSans-30"/>
       <use x="63.623047" xlink:href="#DejaVuSans-2e"/>
       <use x="95.410156" xlink:href="#DejaVuSans-37"/>
       <use x="159.033203" xlink:href="#DejaVuSans-35"/>
      </g>
     </g>
    </g>
    <g id="xtick_10">
     <g id="line2d_26">
      <path clip-path="url(#p3969971446)" d="M 433.511883 136.24 
L 433.511883 26.88 
" style="fill:none;stroke:#b0b0b0;stroke-linecap:square;stroke-width:0.8;"/>
     </g>
     <g id="line2d_27">
      <g>
       <use style="stroke:#000000;stroke-width:0.8;" x="433.511883" xlink:href="#m644d1a3f29" y="136.24"/>
      </g>
     </g>
     <g id="text_16">
      <!-- 1.00 -->
      <g transform="translate(422.37907 150.838437)scale(0.1 -0.1)">
       <use xlink:href="#DejaVuSans-31"/>
       <use x="63.623047" xlink:href="#DejaVuSans-2e"/>
       <use x="95.410156" xlink:href="#DejaVuSans-30"/>
       <use x="159.033203" xlink:href="#DejaVuSans-30"/>
      </g>
     </g>
    </g>
    <g id="text_17">
     <!-- Time/s -->
     <g transform="translate(340.767787 164.516562)scale(0.1 -0.1)">
      <use xlink:href="#DejaVuSans-54"/>
      <use x="61.037109" xlink:href="#DejaVuSans-69"/>
      <use x="88.820312" xlink:href="#DejaVuSans-6d"/>
      <use x="186.232422" xlink:href="#DejaVuSans-65"/>
      <use x="247.755859" xlink:href="#DejaVuSans-2f"/>
      <use x="281.447266" xlink:href="#DejaVuSans-73"/>
     </g>
    </g>
   </g>
   <g id="matplotlib.axis_4">
    <g id="ytick_4">
     <g id="line2d_28">
      <path clip-path="url(#p3969971446)" d="M 273.770062 125.907291 
L 441.118636 125.907291 
" style="fill:none;stroke:#b0b0b0;stroke-linecap:square;stroke-width:0.8;"/>
     </g>
     <g id="line2d_29">
      <g>
       <use style="stroke:#000000;stroke-width:0.8;" x="273.770062" xlink:href="#m5b5aa343d7" y="125.907291"/>
      </g>
     </g>
     <g id="text_18">
      <!-- −2 -->
      <g transform="translate(252.027874 129.706509)scale(0.1 -0.1)">
       <use xlink:href="#DejaVuSans-2212"/>
       <use x="83.789062" xlink:href="#DejaVuSans-32"/>
      </g>
     </g>
    </g>
    <g id="ytick_5">
     <g id="line2d_30">
      <path clip-path="url(#p3969971446)" d="M 273.770062 84.181926 
L 441.118636 84.181926 
" style="fill:none;stroke:#b0b0b0;stroke-linecap:square;stroke-width:0.8;"/>
     </g>
     <g id="line2d_31">
      <g>
       <use style="stroke:#000000;stroke-width:0.8;" x="273.770062" xlink:href="#m5b5aa343d7" y="84.181926"/>
      </g>
     </g>
     <g id="text_19">
      <!-- 0 -->
      <g transform="translate(260.407562 87.981144)scale(0.1 -0.1)">
       <use xlink:href="#DejaVuSans-30"/>
      </g>
     </g>
    </g>
    <g id="ytick_6">
     <g id="line2d_32">
      <path clip-path="url(#p3969971446)" d="M 273.770062 42.456561 
L 441.118636 42.456561 
" style="fill:none;stroke:#b0b0b0;stroke-linecap:square;stroke-width:0.8;"/>
     </g>
     <g id="line2d_33">
      <g>
       <use style="stroke:#000000;stroke-width:0.8;" x="273.770062" xlink:href="#m5b5aa343d7" y="42.456561"/>
      </g>
     </g>
     <g id="text_20">
      <!-- 2 -->
      <g transform="translate(260.407562 46.255779)scale(0.1 -0.1)">
       <use xlink:href="#DejaVuSans-32"/>
      </g>
     </g>
    </g>
    <g id="text_21">
     <!-- Amplitude -->
     <g transform="translate(245.948187 107.182656)rotate(-90)scale(0.1 -0.1)">
      <use xlink:href="#DejaVuSans-41"/>
      <use x="68.408203" xlink:href="#DejaVuSans-6d"/>
      <use x="165.820312" xlink:href="#DejaVuSans-70"/>
      <use x="229.296875" xlink:href="#DejaVuSans-6c"/>
      <use x="257.080078" xlink:href="#DejaVuSans-69"/>
      <use x="284.863281" xlink:href="#DejaVuSans-74"/>
      <use x="324.072266" xlink:href="#DejaVuSans-75"/>
      <use x="387.451172" xlink:href="#DejaVuSans-64"/>
      <use x="450.927734" xlink:href="#DejaVuSans-65"/>
     </g>
    </g>
   </g>
   <g id="line2d_34">
    <path clip-path="url(#p3969971446)" d="M 281.376815 64.235571 
L 281.973423 56.026403 
L 282.570032 61.281271 
L 283.16664 72.703888 
L 283.763248 81.315197 
L 284.359856 87.546008 
L 284.956464 97.100231 
L 285.553072 102.397767 
L 286.14968 98.203097 
L 286.746288 95.4572 
L 287.342896 96.390373 
L 287.939505 89.834449 
L 288.536113 81.381922 
L 289.132721 84.856664 
L 289.729329 90.602979 
L 290.325937 87.506581 
L 290.922545 89.92669 
L 291.519153 102.711204 
L 292.115761 104.878035 
L 292.712369 95.398938 
L 293.308978 95.308153 
L 293.905586 97.109865 
L 295.098802 63.872258 
L 295.69541 65.244037 
L 296.292018 63.65289 
L 296.888626 49.229742 
L 297.485234 50.791675 
L 298.081842 70.15589 
L 298.678451 74.889255 
L 299.275059 71.27802 
L 300.468275 105.879935 
L 301.661491 88.824988 
L 302.258099 101.827591 
L 302.854707 100.821226 
L 303.451315 79.093736 
L 304.047923 78.580775 
L 304.644532 95.701164 
L 305.24114 89.58178 
L 305.837748 77.688186 
L 307.030964 113.047241 
L 307.627572 97.571447 
L 308.22418 89.98267 
L 308.820788 106.986683 
L 309.417396 100.461004 
L 310.014005 68.99603 
L 310.610613 65.245393 
L 311.207221 77.363219 
L 312.400437 38.813256 
L 313.593653 78.000128 
L 314.190261 62.997608 
L 314.786869 67.153328 
L 315.383478 101.283932 
L 315.980086 104.567695 
L 316.576694 81.935952 
L 317.173302 92.621417 
L 317.76991 112.758864 
L 318.963126 68.68968 
L 319.559734 90.645881 
L 320.156342 101.122568 
L 320.752951 75.281128 
L 321.349559 77.713815 
L 321.946167 112.534633 
L 322.542775 109.980527 
L 323.139383 84.535987 
L 323.735991 99.932123 
L 324.332599 119.244867 
L 325.525815 61.791851 
L 326.122423 81.026104 
L 326.719032 80.050581 
L 327.31564 41.784347 
L 327.912248 41.838767 
L 328.508856 76.307929 
L 329.105464 70.07069 
L 329.702072 49.312672 
L 330.895288 110.652373 
L 331.491896 87.682842 
L 332.088505 76.027078 
L 332.685113 109.192345 
L 333.281721 110.509913 
L 333.878329 71.234916 
L 334.474937 74.362011 
L 335.071545 106.031128 
L 335.668153 89.140347 
L 336.264761 63.274197 
L 337.457978 120.931434 
L 338.054586 92.536567 
L 338.651194 84.099546 
L 339.247802 120.152681 
L 339.84441 115.346081 
L 340.441018 70.540932 
L 341.037626 72.552619 
L 341.634234 96.120513 
L 342.827451 31.850909 
L 343.424059 60.793328 
L 344.020667 80.885727 
L 344.617275 50.081299 
L 345.213883 51.525894 
L 345.810491 99.254973 
L 346.407099 101.771574 
L 347.003707 69.650333 
L 347.600315 88.86942 
L 348.196923 120.786334 
L 349.39014 62.712667 
L 349.986748 93.949162 
L 350.583356 106.178224 
L 351.179964 68.029848 
L 351.776572 69.476991 
L 352.37318 114.37912 
L 352.969788 109.877923 
L 353.566396 78.090278 
L 354.163005 102.132745 
L 354.759613 131.269091 
L 355.356221 95.746409 
L 355.952829 67.205981 
L 356.549437 94.489107 
L 357.146045 93.390012 
L 357.742653 44.448611 
L 358.339261 41.682176 
L 358.935869 78.909718 
L 359.532478 66.056658 
L 360.129086 37.365317 
L 361.322302 106.080997 
L 361.91891 79.75808 
L 362.515518 68.699181 
L 363.112126 109.378464 
L 363.708734 112.756876 
L 364.305342 69.999662 
L 364.901951 74.262811 
L 365.498559 108.40771 
L 366.095167 87.797876 
L 366.691775 57.956919 
L 367.884991 118.342736 
L 368.481599 88.910849 
L 369.078207 82.698349 
L 369.674815 123.835039 
L 370.271424 122.01765 
L 370.868032 78.938289 
L 371.46464 83.294012 
L 372.061248 107.364524 
L 373.254464 38.404662 
L 373.851072 63.46861 
L 374.44768 78.88666 
L 375.044288 45.274678 
L 375.640896 44.854925 
L 376.237505 90.088901 
L 376.834113 92.963832 
L 377.430721 64.645589 
L 378.027329 85.493086 
L 378.623937 117.301886 
L 379.817153 65.980934 
L 380.413761 93.982441 
L 381.010369 103.287753 
L 381.606978 67.504893 
L 382.203586 67.964674 
L 382.800194 107.098033 
L 383.396802 103.673636 
L 383.99341 78.444699 
L 385.186626 130.092601 
L 385.783234 102.58946 
L 386.379842 80.695984 
L 386.976451 103.480064 
L 387.573059 100.402227 
L 388.169667 57.292578 
L 388.766275 51.440105 
L 389.362883 76.908283 
L 389.959491 62.702238 
L 390.556099 38.166018 
L 391.749315 91.889192 
L 392.345924 73.752358 
L 392.942532 68.767466 
L 393.53914 102.197214 
L 394.135748 106.146676 
L 394.732356 75.571413 
L 395.328964 78.895386 
L 395.925572 102.003667 
L 396.52218 85.073429 
L 397.118788 63.013589 
L 398.312005 105.284349 
L 398.908613 87.035085 
L 399.505221 86.6851 
L 400.101829 117.847383 
L 400.698437 119.010939 
L 401.295045 92.835381 
L 401.891653 96.425434 
L 402.488261 109.467106 
L 403.681478 57.526964 
L 404.278086 68.212542 
L 404.874694 72.266123 
L 405.471302 48.820467 
L 406.06791 48.39683 
L 406.664518 75.750645 
L 407.261126 79.162276 
L 407.857734 67.072752 
L 408.454342 83.297508 
L 409.050951 103.148263 
L 410.244167 77.392266 
L 410.840775 91.269476 
L 411.437383 93.045028 
L 412.033991 72.903705 
L 412.630599 73.323019 
L 413.227207 92.787574 
L 413.823815 92.296614 
L 414.420424 84.733138 
L 415.61364 116.936848 
L 416.210248 106.96781 
L 416.806856 99.475978 
L 417.403464 107.610249 
L 418.000072 100.637679 
L 418.59668 77.223943 
L 419.193288 69.368562 
L 419.789896 71.985144 
L 420.983113 50.284009 
L 422.176329 71.585219 
L 422.772937 69.686271 
L 423.369545 75.008009 
L 423.966153 89.85742 
L 424.562761 92.333731 
L 425.159369 85.348498 
L 425.755978 86.945859 
L 426.352586 89.361646 
L 426.949194 81.16721 
L 427.545802 75.823319 
L 428.14241 81.458229 
L 428.739018 85.488171 
L 429.335626 86.155321 
L 429.932234 94.185291 
L 430.528842 104.846121 
L 431.125451 107.871728 
L 431.722059 108.247574 
L 432.318667 109.592008 
L 432.915275 104.301371 
L 433.511883 93.14504 
L 433.511883 93.14504 
" style="fill:none;stroke:#1f77b4;stroke-linecap:square;stroke-width:1.5;"/>
   </g>
   <g id="patch_8">
    <path d="M 273.770062 136.24 
L 273.770062 26.88 
" style="fill:none;stroke:#000000;stroke-linecap:square;stroke-linejoin:miter;stroke-width:0.8;"/>
   </g>
   <g id="patch_9">
    <path d="M 441.118636 136.24 
L 441.118636 26.88 
" style="fill:none;stroke:#000000;stroke-linecap:square;stroke-linejoin:miter;stroke-width:0.8;"/>
   </g>
   <g id="patch_10">
    <path d="M 273.770062 136.24 
L 441.118636 136.24 
" style="fill:none;stroke:#000000;stroke-linecap:square;stroke-linejoin:miter;stroke-width:0.8;"/>
   </g>
   <g id="patch_11">
    <path d="M 273.770062 26.88 
L 441.118636 26.88 
" style="fill:none;stroke:#000000;stroke-linecap:square;stroke-linejoin:miter;stroke-width:0.8;"/>
   </g>
   <g id="text_22">
    <!-- Reconstructed Signal (k=4) -->
    <defs>
     <path d="M 37.796875 64.3125 
L 12.890625 25.390625 
L 37.796875 25.390625 
z
M 35.203125 72.90625 
L 47.609375 72.90625 
L 47.609375 25.390625 
L 58.015625 25.390625 
L 58.015625 17.1875 
L 47.609375 17.1875 
L 47.609375 0 
L 37.796875 0 
L 37.796875 17.1875 
L 4.890625 17.1875 
L 4.890625 26.703125 
z
" id="DejaVuSans-34"/>
    </defs>
    <g transform="translate(274.668724 20.88)scale(0.12 -0.12)">
     <use xlink:href="#DejaVuSans-52"/>
     <use x="69.419922" xlink:href="#DejaVuSans-65"/>
     <use x="130.943359" xlink:href="#DejaVuSans-63"/>
     <use x="185.923828" xlink:href="#DejaVuSans-6f"/>
     <use x="247.105469" xlink:href="#DejaVuSans-6e"/>
     <use x="310.484375" xlink:href="#DejaVuSans-73"/>
     <use x="362.583984" xlink:href="#DejaVuSans-74"/>
     <use x="401.792969" xlink:href="#DejaVuSans-72"/>
     <use x="442.90625" xlink:href="#DejaVuSans-75"/>
     <use x="506.285156" xlink:href="#DejaVuSans-63"/>
     <use x="561.265625" xlink:href="#DejaVuSans-74"/>
     <use x="600.474609" xlink:href="#DejaVuSans-65"/>
     <use x="661.998047" xlink:href="#DejaVuSans-64"/>
     <use x="725.474609" xlink:href="#DejaVuSans-20"/>
     <use x="757.261719" xlink:href="#DejaVuSans-53"/>
     <use x="820.738281" xlink:href="#DejaVuSans-69"/>
     <use x="848.521484" xlink:href="#DejaVuSans-67"/>
     <use x="911.998047" xlink:href="#DejaVuSans-6e"/>
     <use x="975.376953" xlink:href="#DejaVuSans-61"/>
     <use x="1036.65625" xlink:href="#DejaVuSans-6c"/>
     <use x="1064.439453" xlink:href="#DejaVuSans-20"/>
     <use x="1096.226562" xlink:href="#DejaVuSans-28"/>
     <use x="1135.240234" xlink:href="#DejaVuSans-6b"/>
     <use x="1193.150391" xlink:href="#DejaVuSans-3d"/>
     <use x="1276.939453" xlink:href="#DejaVuSans-34"/>
     <use x="1340.5625" xlink:href="#DejaVuSans-29"/>
    </g>
   </g>
  </g>
  <g id="axes_3">
   <g id="patch_12">
    <path d="M 56.09 303.64 
L 223.438574 303.64 
L 223.438574 194.28 
L 56.09 194.28 
z
" style="fill:#ffffff;"/>
   </g>
   <g id="matplotlib.axis_5">
    <g id="xtick_11">
     <g id="line2d_35">
      <path clip-path="url(#p10085f95c5)" d="M 63.696753 303.64 
L 63.696753 194.28 
" style="fill:none;stroke:#b0b0b0;stroke-linecap:square;stroke-width:0.8;"/>
     </g>
     <g id="line2d_36">
      <g>
       <use style="stroke:#000000;stroke-width:0.8;" x="63.696753" xlink:href="#m644d1a3f29" y="303.64"/>
      </g>
     </g>
     <g id="text_23">
      <!-- 0.00 -->
      <g transform="translate(52.563941 318.238438)scale(0.1 -0.1)">
       <use xlink:href="#DejaVuSans-30"/>
       <use x="63.623047" xlink:href="#DejaVuSans-2e"/>
       <use x="95.410156" xlink:href="#DejaVuSans-30"/>
       <use x="159.033203" xlink:href="#DejaVuSans-30"/>
      </g>
     </g>
    </g>
    <g id="xtick_12">
     <g id="line2d_37">
      <path clip-path="url(#p10085f95c5)" d="M 101.73052 303.64 
L 101.73052 194.28 
" style="fill:none;stroke:#b0b0b0;stroke-linecap:square;stroke-width:0.8;"/>
     </g>
     <g id="line2d_38">
      <g>
       <use style="stroke:#000000;stroke-width:0.8;" x="101.73052" xlink:href="#m644d1a3f29" y="303.64"/>
      </g>
     </g>
     <g id="text_24">
      <!-- 0.25 -->
      <g transform="translate(90.597708 318.238438)scale(0.1 -0.1)">
       <use xlink:href="#DejaVuSans-30"/>
       <use x="63.623047" xlink:href="#DejaVuSans-2e"/>
       <use x="95.410156" xlink:href="#DejaVuSans-32"/>
       <use x="159.033203" xlink:href="#DejaVuSans-35"/>
      </g>
     </g>
    </g>
    <g id="xtick_13">
     <g id="line2d_39">
      <path clip-path="url(#p10085f95c5)" d="M 139.764287 303.64 
L 139.764287 194.28 
" style="fill:none;stroke:#b0b0b0;stroke-linecap:square;stroke-width:0.8;"/>
     </g>
     <g id="line2d_40">
      <g>
       <use style="stroke:#000000;stroke-width:0.8;" x="139.764287" xlink:href="#m644d1a3f29" y="303.64"/>
      </g>
     </g>
     <g id="text_25">
      <!-- 0.50 -->
      <g transform="translate(128.631475 318.238438)scale(0.1 -0.1)">
       <use xlink:href="#DejaVuSans-30"/>
       <use x="63.623047" xlink:href="#DejaVuSans-2e"/>
       <use x="95.410156" xlink:href="#DejaVuSans-35"/>
       <use x="159.033203" xlink:href="#DejaVuSans-30"/>
      </g>
     </g>
    </g>
    <g id="xtick_14">
     <g id="line2d_41">
      <path clip-path="url(#p10085f95c5)" d="M 177.798054 303.64 
L 177.798054 194.28 
" style="fill:none;stroke:#b0b0b0;stroke-linecap:square;stroke-width:0.8;"/>
     </g>
     <g id="line2d_42">
      <g>
       <use style="stroke:#000000;stroke-width:0.8;" x="177.798054" xlink:href="#m644d1a3f29" y="303.64"/>
      </g>
     </g>
     <g id="text_26">
      <!-- 0.75 -->
      <g transform="translate(166.665242 318.238438)scale(0.1 -0.1)">
       <use xlink:href="#DejaVuSans-30"/>
       <use x="63.623047" xlink:href="#DejaVuSans-2e"/>
       <use x="95.410156" xlink:href="#DejaVuSans-37"/>
       <use x="159.033203" xlink:href="#DejaVuSans-35"/>
      </g>
     </g>
    </g>
    <g id="xtick_15">
     <g id="line2d_43">
      <path clip-path="url(#p10085f95c5)" d="M 215.831821 303.64 
L 215.831821 194.28 
" style="fill:none;stroke:#b0b0b0;stroke-linecap:square;stroke-width:0.8;"/>
     </g>
     <g id="line2d_44">
      <g>
       <use style="stroke:#000000;stroke-width:0.8;" x="215.831821" xlink:href="#m644d1a3f29" y="303.64"/>
      </g>
     </g>
     <g id="text_27">
      <!-- 1.00 -->
      <g transform="translate(204.699008 318.238438)scale(0.1 -0.1)">
       <use xlink:href="#DejaVuSans-31"/>
       <use x="63.623047" xlink:href="#DejaVuSans-2e"/>
       <use x="95.410156" xlink:href="#DejaVuSans-30"/>
       <use x="159.033203" xlink:href="#DejaVuSans-30"/>
      </g>
     </g>
    </g>
    <g id="text_28">
     <!-- Time/s -->
     <g transform="translate(123.087725 331.916562)scale(0.1 -0.1)">
      <use xlink:href="#DejaVuSans-54"/>
      <use x="61.037109" xlink:href="#DejaVuSans-69"/>
      <use x="88.820312" xlink:href="#DejaVuSans-6d"/>
      <use x="186.232422" xlink:href="#DejaVuSans-65"/>
      <use x="247.755859" xlink:href="#DejaVuSans-2f"/>
      <use x="281.447266" xlink:href="#DejaVuSans-73"/>
     </g>
    </g>
   </g>
   <g id="matplotlib.axis_6">
    <g id="ytick_7">
     <g id="line2d_45">
      <path clip-path="url(#p10085f95c5)" d="M 56.09 285.209324 
L 223.438574 285.209324 
" style="fill:none;stroke:#b0b0b0;stroke-linecap:square;stroke-width:0.8;"/>
     </g>
     <g id="line2d_46">
      <g>
       <use style="stroke:#000000;stroke-width:0.8;" x="56.09" xlink:href="#m5b5aa343d7" y="285.209324"/>
      </g>
     </g>
     <g id="text_29">
      <!-- −2 -->
      <g transform="translate(34.347813 289.008542)scale(0.1 -0.1)">
       <use xlink:href="#DejaVuSans-2212"/>
       <use x="83.789062" xlink:href="#DejaVuSans-32"/>
      </g>
     </g>
    </g>
    <g id="ytick_8">
     <g id="line2d_47">
      <path clip-path="url(#p10085f95c5)" d="M 56.09 250.407618 
L 223.438574 250.407618 
" style="fill:none;stroke:#b0b0b0;stroke-linecap:square;stroke-width:0.8;"/>
     </g>
     <g id="line2d_48">
      <g>
       <use style="stroke:#000000;stroke-width:0.8;" x="56.09" xlink:href="#m5b5aa343d7" y="250.407618"/>
      </g>
     </g>
     <g id="text_30">
      <!-- 0 -->
      <g transform="translate(42.7275 254.206837)scale(0.1 -0.1)">
       <use xlink:href="#DejaVuSans-30"/>
      </g>
     </g>
    </g>
    <g id="ytick_9">
     <g id="line2d_49">
      <path clip-path="url(#p10085f95c5)" d="M 56.09 215.605913 
L 223.438574 215.605913 
" style="fill:none;stroke:#b0b0b0;stroke-linecap:square;stroke-width:0.8;"/>
     </g>
     <g id="line2d_50">
      <g>
       <use style="stroke:#000000;stroke-width:0.8;" x="56.09" xlink:href="#m5b5aa343d7" y="215.605913"/>
      </g>
     </g>
     <g id="text_31">
      <!-- 2 -->
      <g transform="translate(42.7275 219.405131)scale(0.1 -0.1)">
       <use xlink:href="#DejaVuSans-32"/>
      </g>
     </g>
    </g>
    <g id="text_32">
     <!-- Amplitude -->
     <g transform="translate(28.268125 274.582656)rotate(-90)scale(0.1 -0.1)">
      <use xlink:href="#DejaVuSans-41"/>
      <use x="68.408203" xlink:href="#DejaVuSans-6d"/>
      <use x="165.820312" xlink:href="#DejaVuSans-70"/>
      <use x="229.296875" xlink:href="#DejaVuSans-6c"/>
      <use x="257.080078" xlink:href="#DejaVuSans-69"/>
      <use x="284.863281" xlink:href="#DejaVuSans-74"/>
      <use x="324.072266" xlink:href="#DejaVuSans-75"/>
      <use x="387.451172" xlink:href="#DejaVuSans-64"/>
      <use x="450.927734" xlink:href="#DejaVuSans-65"/>
     </g>
    </g>
   </g>
   <g id="line2d_51">
    <path clip-path="url(#p10085f95c5)" d="M 63.696753 246.442883 
L 64.293361 243.522136 
L 64.88997 244.204021 
L 65.486578 248.391009 
L 66.083186 249.636557 
L 66.679794 249.409378 
L 67.276402 253.395265 
L 67.87301 255.818778 
L 68.469618 252.372439 
L 69.066226 251.765776 
L 69.662834 255.09382 
L 70.259443 252.134863 
L 70.856051 246.742808 
L 72.049267 253.607791 
L 72.645875 248.84935 
L 73.242483 248.375595 
L 73.839091 257.124712 
L 74.435699 258.418587 
L 75.032307 251.927946 
L 75.628916 255.27781 
L 76.225524 261.803691 
L 77.41874 245.34782 
L 78.015348 250.582141 
L 78.611956 251.121314 
L 79.208564 238.33293 
L 79.805172 236.380067 
L 80.40178 247.4074 
L 80.998389 245.351647 
L 81.594997 236.579867 
L 82.191605 246.254683 
L 82.788213 258.351088 
L 83.384821 250.206387 
L 83.981429 245.051609 
L 84.578037 258.420965 
L 85.174645 260.351537 
L 85.771253 244.37351 
L 86.367861 244.843318 
L 86.96447 258.560717 
L 87.561078 251.680254 
L 88.157686 239.407246 
L 89.350902 265.912972 
L 89.94751 253.860075 
L 90.544118 250.376789 
L 91.140726 269.124024 
L 91.737334 269.241797 
L 92.333943 248.532712 
L 92.930551 249.819483 
L 93.527159 262.305035 
L 94.123767 246.269417 
L 94.720375 227.20319 
L 95.316983 240.041248 
L 95.913591 249.066816 
L 96.510199 230.530084 
L 97.106807 229.007806 
L 97.703416 254.310997 
L 98.300024 256.052856 
L 98.896632 238.186027 
L 99.49324 249.515246 
L 100.089848 269.264603 
L 101.283064 236.561152 
L 101.879672 254.900261 
L 102.47628 262.319748 
L 103.072889 238.63196 
L 103.669497 238.522958 
L 104.266105 266.303375 
L 104.862713 264.497377 
L 105.459321 245.531393 
L 106.055929 262.430759 
L 106.652537 283.797197 
L 107.845753 246.054996 
L 108.442362 264.946343 
L 109.03897 264.517335 
L 109.635578 230.367296 
L 110.232186 225.937953 
L 110.828794 248.798396 
L 111.425402 237.385561 
L 112.02201 214.655393 
L 113.215226 260.522313 
L 113.811834 241.943819 
L 114.408443 234.451737 
L 115.005051 265.169835 
L 115.601659 269.215268 
L 116.198267 238.484481 
L 116.794875 241.719085 
L 117.391483 267.32172 
L 117.988091 251.393203 
L 118.584699 227.692265 
L 119.777916 274.081101 
L 120.374524 252.065719 
L 120.971132 248.54139 
L 121.56774 283.499293 
L 122.164348 284.889858 
L 122.760956 252.36593 
L 123.357564 257.311149 
L 123.954172 277.908753 
L 125.147389 218.570407 
L 125.743997 236.999963 
L 126.340605 247.441399 
L 126.937213 215.965003 
L 127.533821 212.900627 
L 128.130429 250.565178 
L 128.727037 252.763151 
L 129.323645 227.938453 
L 129.920253 247.044641 
L 130.516862 276.91269 
L 131.710078 232.240549 
L 132.306686 258.02931 
L 132.903294 266.752043 
L 133.499902 232.900642 
L 134.09651 232.375079 
L 134.693118 269.220818 
L 135.289726 266.558529 
L 135.886334 242.985207 
L 136.482943 267.492646 
L 137.079551 297.004359 
L 138.272767 252.141243 
L 138.869375 276.367636 
L 139.465983 274.344161 
L 140.062591 229.939254 
L 140.659199 222.176863 
L 141.255807 246.886296 
L 141.852416 230.084242 
L 142.449024 201.383546 
L 143.64224 255.547444 
L 144.238848 235.225502 
L 144.835456 229.015274 
L 145.432064 266.417449 
L 146.028672 272.235513 
L 146.62528 238.389029 
L 147.221889 242.256274 
L 147.818497 269.684172 
L 148.415105 250.635642 
L 149.011713 223.896055 
L 150.204929 273.815887 
L 150.801537 251.61789 
L 151.398145 250.404683 
L 151.994753 289.658864 
L 152.591362 293.102179 
L 153.18797 261.087692 
L 153.784578 266.684591 
L 154.381186 286.228405 
L 155.574402 220.51196 
L 156.17101 235.135211 
L 156.767618 241.689304 
L 157.364226 208.43153 
L 157.960834 204.782401 
L 158.557443 241.535722 
L 159.154051 245.169759 
L 159.750659 224.420321 
L 160.347267 245.427989 
L 160.943875 275.362764 
L 162.137091 235.845099 
L 162.733699 258.62918 
L 163.330307 264.78395 
L 163.926916 233.052746 
L 164.523524 232.135788 
L 165.120132 264.799542 
L 165.71674 263.699066 
L 166.313348 246.095124 
L 167.506564 298.669091 
L 168.69978 264.013434 
L 169.296389 283.050116 
L 169.892997 277.957573 
L 170.489605 237.264143 
L 171.086213 226.241728 
L 171.682821 241.033336 
L 172.279429 223.56551 
L 172.876037 199.250909 
L 174.069253 243.297133 
L 174.665862 230.817798 
L 175.26247 230.34421 
L 175.859078 261.969044 
L 176.455686 268.17745 
L 177.052294 244.181266 
L 177.648902 246.907755 
L 178.24551 264.899863 
L 178.842118 248.940108 
L 179.438726 228.999081 
L 180.631943 264.976527 
L 181.228551 252.630899 
L 181.825159 256.539613 
L 182.421767 287.272838 
L 183.018375 292.515747 
L 183.614983 273.485324 
L 184.211591 277.058902 
L 184.808199 285.977594 
L 186.001416 232.445163 
L 186.598024 234.84386 
L 187.194632 232.27484 
L 187.79124 208.351599 
L 188.387848 205.87279 
L 188.984456 228.972896 
L 189.581064 234.171125 
L 190.177672 227.75361 
L 191.370889 265.253461 
L 192.564105 246.385542 
L 193.160713 257.069421 
L 193.757321 256.840586 
L 194.353929 238.336196 
L 194.950537 237.822224 
L 195.547145 254.655651 
L 196.143753 256.536008 
L 196.740362 253.966249 
L 197.933578 289.669282 
L 199.126794 279.328807 
L 199.723402 284.730348 
L 200.32001 275.12103 
L 200.916618 249.964334 
L 201.513226 236.918328 
L 202.109835 232.891398 
L 202.706443 218.489345 
L 203.303051 207.247055 
L 203.899659 215.719704 
L 204.496267 226.754399 
L 205.092875 228.736089 
L 205.689483 237.371422 
L 206.286091 253.593811 
L 206.882699 258.337496 
L 207.479307 253.608742 
L 208.075916 254.500222 
L 208.672524 255.013886 
L 209.269132 246.391401 
L 209.86574 240.716858 
L 211.655564 254.314512 
L 212.252172 265.221649 
L 212.84878 278.418029 
L 213.445389 284.326784 
L 214.041997 286.208035 
L 214.638605 286.520117 
L 215.235213 278.846704 
L 215.831821 264.275376 
L 215.831821 264.275376 
" style="fill:none;stroke:#1f77b4;stroke-linecap:square;stroke-width:1.5;"/>
   </g>
   <g id="patch_13">
    <path d="M 56.09 303.64 
L 56.09 194.28 
" style="fill:none;stroke:#000000;stroke-linecap:square;stroke-linejoin:miter;stroke-width:0.8;"/>
   </g>
   <g id="patch_14">
    <path d="M 223.438574 303.64 
L 223.438574 194.28 
" style="fill:none;stroke:#000000;stroke-linecap:square;stroke-linejoin:miter;stroke-width:0.8;"/>
   </g>
   <g id="patch_15">
    <path d="M 56.09 303.64 
L 223.438574 303.64 
" style="fill:none;stroke:#000000;stroke-linecap:square;stroke-linejoin:miter;stroke-width:0.8;"/>
   </g>
   <g id="patch_16">
    <path d="M 56.09 194.28 
L 223.438574 194.28 
" style="fill:none;stroke:#000000;stroke-linecap:square;stroke-linejoin:miter;stroke-width:0.8;"/>
   </g>
   <g id="text_33">
    <!-- Reconstructed Signal (k=6) -->
    <defs>
     <path d="M 33.015625 40.375 
Q 26.375 40.375 22.484375 35.828125 
Q 18.609375 31.296875 18.609375 23.390625 
Q 18.609375 15.53125 22.484375 10.953125 
Q 26.375 6.390625 33.015625 6.390625 
Q 39.65625 6.390625 43.53125 10.953125 
Q 47.40625 15.53125 47.40625 23.390625 
Q 47.40625 31.296875 43.53125 35.828125 
Q 39.65625 40.375 33.015625 40.375 
M 52.59375 71.296875 
L 52.59375 62.3125 
Q 48.875 64.0625 45.09375 64.984375 
Q 41.3125 65.921875 37.59375 65.921875 
Q 27.828125 65.921875 22.671875 59.328125 
Q 17.53125 52.734375 16.796875 39.40625 
Q 19.671875 43.65625 24.015625 45.921875 
Q 28.375 48.1875 33.59375 48.1875 
Q 44.578125 48.1875 50.953125 41.515625 
Q 57.328125 34.859375 57.328125 23.390625 
Q 57.328125 12.15625 50.6875 5.359375 
Q 44.046875 -1.421875 33.015625 -1.421875 
Q 20.359375 -1.421875 13.671875 8.265625 
Q 6.984375 17.96875 6.984375 36.375 
Q 6.984375 53.65625 15.1875 63.9375 
Q 23.390625 74.21875 37.203125 74.21875 
Q 40.921875 74.21875 44.703125 73.484375 
Q 48.484375 72.75 52.59375 71.296875 
" id="DejaVuSans-36"/>
    </defs>
    <g transform="translate(56.988662 188.28)scale(0.12 -0.12)">
     <use xlink:href="#DejaVuSans-52"/>
     <use x="69.419922" xlink:href="#DejaVuSans-65"/>
     <use x="130.943359" xlink:href="#DejaVuSans-63"/>
     <use x="185.923828" xlink:href="#DejaVuSans-6f"/>
     <use x="247.105469" xlink:href="#DejaVuSans-6e"/>
     <use x="310.484375" xlink:href="#DejaVuSans-73"/>
     <use x="362.583984" xlink:href="#DejaVuSans-74"/>
     <use x="401.792969" xlink:href="#DejaVuSans-72"/>
     <use x="442.90625" xlink:href="#DejaVuSans-75"/>
     <use x="506.285156" xlink:href="#DejaVuSans-63"/>
     <use x="561.265625" xlink:href="#DejaVuSans-74"/>
     <use x="600.474609" xlink:href="#DejaVuSans-65"/>
     <use x="661.998047" xlink:href="#DejaVuSans-64"/>
     <use x="725.474609" xlink:href="#DejaVuSans-20"/>
     <use x="757.261719" xlink:href="#DejaVuSans-53"/>
     <use x="820.738281" xlink:href="#DejaVuSans-69"/>
     <use x="848.521484" xlink:href="#DejaVuSans-67"/>
     <use x="911.998047" xlink:href="#DejaVuSans-6e"/>
     <use x="975.376953" xlink:href="#DejaVuSans-61"/>
     <use x="1036.65625" xlink:href="#DejaVuSans-6c"/>
     <use x="1064.439453" xlink:href="#DejaVuSans-20"/>
     <use x="1096.226562" xlink:href="#DejaVuSans-28"/>
     <use x="1135.240234" xlink:href="#DejaVuSans-6b"/>
     <use x="1193.150391" xlink:href="#DejaVuSans-3d"/>
     <use x="1276.939453" xlink:href="#DejaVuSans-36"/>
     <use x="1340.5625" xlink:href="#DejaVuSans-29"/>
    </g>
   </g>
  </g>
  <g id="axes_4">
   <g id="patch_17">
    <path d="M 273.770062 303.64 
L 441.118636 303.64 
L 441.118636 194.28 
L 273.770062 194.28 
z
" style="fill:#ffffff;"/>
   </g>
   <g id="matplotlib.axis_7">
    <g id="xtick_16">
     <g id="line2d_52">
      <path clip-path="url(#pda8c1b5f79)" d="M 281.376815 303.64 
L 281.376815 194.28 
" style="fill:none;stroke:#b0b0b0;stroke-linecap:square;stroke-width:0.8;"/>
     </g>
     <g id="line2d_53">
      <g>
       <use style="stroke:#000000;stroke-width:0.8;" x="281.376815" xlink:href="#m644d1a3f29" y="303.64"/>
      </g>
     </g>
     <g id="text_34">
      <!-- 0.00 -->
      <g transform="translate(270.244003 318.238438)scale(0.1 -0.1)">
       <use xlink:href="#DejaVuSans-30"/>
       <use x="63.623047" xlink:href="#DejaVuSans-2e"/>
       <use x="95.410156" xlink:href="#DejaVuSans-30"/>
       <use x="159.033203" xlink:href="#DejaVuSans-30"/>
      </g>
     </g>
    </g>
    <g id="xtick_17">
     <g id="line2d_54">
      <path clip-path="url(#pda8c1b5f79)" d="M 319.410582 303.64 
L 319.410582 194.28 
" style="fill:none;stroke:#b0b0b0;stroke-linecap:square;stroke-width:0.8;"/>
     </g>
     <g id="line2d_55">
      <g>
       <use style="stroke:#000000;stroke-width:0.8;" x="319.410582" xlink:href="#m644d1a3f29" y="303.64"/>
      </g>
     </g>
     <g id="text_35">
      <!-- 0.25 -->
      <g transform="translate(308.27777 318.238438)scale(0.1 -0.1)">
       <use xlink:href="#DejaVuSans-30"/>
       <use x="63.623047" xlink:href="#DejaVuSans-2e"/>
       <use x="95.410156" xlink:href="#DejaVuSans-32"/>
       <use x="159.033203" xlink:href="#DejaVuSans-35"/>
      </g>
     </g>
    </g>
    <g id="xtick_18">
     <g id="line2d_56">
      <path clip-path="url(#pda8c1b5f79)" d="M 357.444349 303.64 
L 357.444349 194.28 
" style="fill:none;stroke:#b0b0b0;stroke-linecap:square;stroke-width:0.8;"/>
     </g>
     <g id="line2d_57">
      <g>
       <use style="stroke:#000000;stroke-width:0.8;" x="357.444349" xlink:href="#m644d1a3f29" y="303.64"/>
      </g>
     </g>
     <g id="text_36">
      <!-- 0.50 -->
      <g transform="translate(346.311537 318.238438)scale(0.1 -0.1)">
       <use xlink:href="#DejaVuSans-30"/>
       <use x="63.623047" xlink:href="#DejaVuSans-2e"/>
       <use x="95.410156" xlink:href="#DejaVuSans-35"/>
       <use x="159.033203" xlink:href="#DejaVuSans-30"/>
      </g>
     </g>
    </g>
    <g id="xtick_19">
     <g id="line2d_58">
      <path clip-path="url(#pda8c1b5f79)" d="M 395.478116 303.64 
L 395.478116 194.28 
" style="fill:none;stroke:#b0b0b0;stroke-linecap:square;stroke-width:0.8;"/>
     </g>
     <g id="line2d_59">
      <g>
       <use style="stroke:#000000;stroke-width:0.8;" x="395.478116" xlink:href="#m644d1a3f29" y="303.64"/>
      </g>
     </g>
     <g id="text_37">
      <!-- 0.75 -->
      <g transform="translate(384.345304 318.238438)scale(0.1 -0.1)">
       <use xlink:href="#DejaVuSans-30"/>
       <use x="63.623047" xlink:href="#DejaVuSans-2e"/>
       <use x="95.410156" xlink:href="#DejaVuSans-37"/>
       <use x="159.033203" xlink:href="#DejaVuSans-35"/>
      </g>
     </g>
    </g>
    <g id="xtick_20">
     <g id="line2d_60">
      <path clip-path="url(#pda8c1b5f79)" d="M 433.511883 303.64 
L 433.511883 194.28 
" style="fill:none;stroke:#b0b0b0;stroke-linecap:square;stroke-width:0.8;"/>
     </g>
     <g id="line2d_61">
      <g>
       <use style="stroke:#000000;stroke-width:0.8;" x="433.511883" xlink:href="#m644d1a3f29" y="303.64"/>
      </g>
     </g>
     <g id="text_38">
      <!-- 1.00 -->
      <g transform="translate(422.37907 318.238438)scale(0.1 -0.1)">
       <use xlink:href="#DejaVuSans-31"/>
       <use x="63.623047" xlink:href="#DejaVuSans-2e"/>
       <use x="95.410156" xlink:href="#DejaVuSans-30"/>
       <use x="159.033203" xlink:href="#DejaVuSans-30"/>
      </g>
     </g>
    </g>
    <g id="text_39">
     <!-- Time/s -->
     <g transform="translate(340.767787 331.916562)scale(0.1 -0.1)">
      <use xlink:href="#DejaVuSans-54"/>
      <use x="61.037109" xlink:href="#DejaVuSans-69"/>
      <use x="88.820312" xlink:href="#DejaVuSans-6d"/>
      <use x="186.232422" xlink:href="#DejaVuSans-65"/>
      <use x="247.755859" xlink:href="#DejaVuSans-2f"/>
      <use x="281.447266" xlink:href="#DejaVuSans-73"/>
     </g>
    </g>
   </g>
   <g id="matplotlib.axis_8">
    <g id="ytick_10">
     <g id="line2d_62">
      <path clip-path="url(#pda8c1b5f79)" d="M 273.770062 285.910075 
L 441.118636 285.910075 
" style="fill:none;stroke:#b0b0b0;stroke-linecap:square;stroke-width:0.8;"/>
     </g>
     <g id="line2d_63">
      <g>
       <use style="stroke:#000000;stroke-width:0.8;" x="273.770062" xlink:href="#m5b5aa343d7" y="285.910075"/>
      </g>
     </g>
     <g id="text_40">
      <!-- −2 -->
      <g transform="translate(252.027874 289.709294)scale(0.1 -0.1)">
       <use xlink:href="#DejaVuSans-2212"/>
       <use x="83.789062" xlink:href="#DejaVuSans-32"/>
      </g>
     </g>
    </g>
    <g id="ytick_11">
     <g id="line2d_64">
      <path clip-path="url(#pda8c1b5f79)" d="M 273.770062 249.076969 
L 441.118636 249.076969 
" style="fill:none;stroke:#b0b0b0;stroke-linecap:square;stroke-width:0.8;"/>
     </g>
     <g id="line2d_65">
      <g>
       <use style="stroke:#000000;stroke-width:0.8;" x="273.770062" xlink:href="#m5b5aa343d7" y="249.076969"/>
      </g>
     </g>
     <g id="text_41">
      <!-- 0 -->
      <g transform="translate(260.407562 252.876188)scale(0.1 -0.1)">
       <use xlink:href="#DejaVuSans-30"/>
      </g>
     </g>
    </g>
    <g id="ytick_12">
     <g id="line2d_66">
      <path clip-path="url(#pda8c1b5f79)" d="M 273.770062 212.243863 
L 441.118636 212.243863 
" style="fill:none;stroke:#b0b0b0;stroke-linecap:square;stroke-width:0.8;"/>
     </g>
     <g id="line2d_67">
      <g>
       <use style="stroke:#000000;stroke-width:0.8;" x="273.770062" xlink:href="#m5b5aa343d7" y="212.243863"/>
      </g>
     </g>
     <g id="text_42">
      <!-- 2 -->
      <g transform="translate(260.407562 216.043081)scale(0.1 -0.1)">
       <use xlink:href="#DejaVuSans-32"/>
      </g>
     </g>
    </g>
    <g id="text_43">
     <!-- Amplitude -->
     <g transform="translate(245.948187 274.582656)rotate(-90)scale(0.1 -0.1)">
      <use xlink:href="#DejaVuSans-41"/>
      <use x="68.408203" xlink:href="#DejaVuSans-6d"/>
      <use x="165.820312" xlink:href="#DejaVuSans-70"/>
      <use x="229.296875" xlink:href="#DejaVuSans-6c"/>
      <use x="257.080078" xlink:href="#DejaVuSans-69"/>
      <use x="284.863281" xlink:href="#DejaVuSans-74"/>
      <use x="324.072266" xlink:href="#DejaVuSans-75"/>
      <use x="387.451172" xlink:href="#DejaVuSans-64"/>
      <use x="450.927734" xlink:href="#DejaVuSans-65"/>
     </g>
    </g>
   </g>
   <g id="line2d_68">
    <path clip-path="url(#pda8c1b5f79)" d="M 281.376815 242.754191 
L 281.973423 223.462474 
L 282.570032 225.341013 
L 283.16664 237.157768 
L 283.763248 208.463553 
L 284.359856 208.062244 
L 284.956464 243.37143 
L 285.553072 241.722896 
L 286.14968 226.71066 
L 287.342896 274.312848 
L 288.536113 233.628664 
L 289.132721 255.190035 
L 289.729329 260.101472 
L 290.325937 230.309141 
L 290.922545 233.486358 
L 291.519153 264.498172 
L 292.115761 263.338253 
L 292.712369 248.732565 
L 293.905586 297.96748 
L 294.502194 276.054594 
L 295.098802 260.216668 
L 295.69541 279.131306 
L 296.292018 270.062951 
L 296.888626 228.425649 
L 297.485234 219.874996 
L 298.081842 237.266469 
L 298.678451 221.607622 
L 299.275059 199.329226 
L 300.468275 250.423235 
L 301.064883 235.041663 
L 301.661491 234.116686 
L 302.258099 265.619819 
L 302.854707 267.722967 
L 303.451315 238.811555 
L 304.047923 242.211182 
L 304.644532 263.410726 
L 305.837748 223.578133 
L 306.434356 249.408792 
L 307.030964 269.878136 
L 307.627572 253.055783 
L 308.22418 256.248874 
L 308.820788 291.293947 
L 309.417396 292.823432 
L 310.014005 263.703368 
L 310.610613 267.541785 
L 311.207221 280.337614 
L 312.400437 218.258059 
L 312.997045 230.883001 
L 313.593653 234.866723 
L 314.190261 206.413517 
L 314.786869 206.790168 
L 315.383478 241.831786 
L 315.980086 244.486843 
L 316.576694 227.050277 
L 317.173302 248.355321 
L 317.76991 273.65637 
L 318.963126 234.845563 
L 319.559734 255.569691 
L 320.156342 259.840039 
L 320.752951 230.349377 
L 321.349559 232.76722 
L 321.946167 265.36007 
L 322.542775 263.818381 
L 323.139383 248.813167 
L 324.332599 298.227654 
L 324.929207 276.51858 
L 325.525815 259.760356 
L 326.122423 277.838969 
L 326.719032 269.777114 
L 327.31564 227.983395 
L 327.912248 220.086194 
L 328.508856 237.55219 
L 329.105464 221.163886 
L 329.702072 199.471432 
L 330.895288 250.171393 
L 331.491896 235.037324 
L 332.088505 233.827263 
L 332.685113 266.326698 
L 333.281721 268.266396 
L 333.878329 238.977699 
L 334.474937 242.56705 
L 335.071545 263.312809 
L 336.264761 223.819437 
L 337.457978 270.022785 
L 338.054586 252.583096 
L 338.651194 255.905037 
L 339.247802 290.97191 
L 339.84441 292.159718 
L 340.441018 263.648549 
L 341.037626 267.46396 
L 341.634234 280.508612 
L 342.827451 217.876469 
L 343.424059 230.962389 
L 344.020667 234.921204 
L 344.617275 206.507838 
L 345.213883 207.30304 
L 345.810491 242.111786 
L 346.407099 245.090723 
L 347.003707 227.392977 
L 347.600315 248.270156 
L 348.196923 273.740759 
L 349.39014 234.66072 
L 349.986748 255.521759 
L 350.583356 259.450783 
L 351.179964 230.159875 
L 351.776572 232.27843 
L 352.37318 265.052128 
L 352.969788 263.765691 
L 353.566396 248.504633 
L 354.759613 298.493793 
L 355.356221 276.711564 
L 355.952829 260.117245 
L 356.549437 277.851244 
L 357.146045 270.093465 
L 357.742653 228.29074 
L 358.339261 220.291796 
L 358.935869 238.08667 
L 359.532478 221.210218 
L 360.129086 199.405506 
L 361.322302 249.606055 
L 361.91891 234.689474 
L 362.515518 233.302044 
L 363.112126 266.063178 
L 363.708734 268.299267 
L 364.305342 238.673678 
L 364.901951 242.572254 
L 365.498559 263.276942 
L 366.691775 224.143161 
L 367.884991 270.571042 
L 368.481599 253.031285 
L 369.078207 256.059464 
L 369.674815 291.349444 
L 370.271424 292.129194 
L 370.868032 263.625062 
L 371.46464 267.505253 
L 372.061248 280.292933 
L 373.254464 217.408115 
L 373.851072 230.453701 
L 374.44768 234.599537 
L 375.044288 205.929987 
L 375.640896 207.212453 
L 376.237505 242.191795 
L 376.834113 245.236826 
L 377.430721 227.791477 
L 378.027329 248.36217 
L 378.623937 274.067372 
L 379.817153 234.718791 
L 380.413761 256.007104 
L 381.010369 259.703471 
L 381.606978 230.398585 
L 382.203586 232.418002 
L 382.800194 264.755309 
L 383.396802 263.611477 
L 383.99341 248.027096 
L 385.186626 298.388003 
L 385.783234 276.276314 
L 386.379842 259.982706 
L 386.976451 277.701865 
L 387.573059 269.908012 
L 388.169667 228.426271 
L 388.766275 220.279181 
L 389.362883 238.563944 
L 389.959491 221.757394 
L 390.556099 199.603095 
L 391.749315 249.596324 
L 392.345924 234.694824 
L 392.942532 233.397155 
L 393.53914 265.917369 
L 394.135748 268.512429 
L 394.732356 238.565333 
L 395.328964 242.366098 
L 395.925572 263.165044 
L 397.118788 223.75818 
L 398.312005 270.483027 
L 398.908613 253.346851 
L 399.505221 255.997325 
L 400.101829 291.62197 
L 400.698437 292.440857 
L 401.295045 263.599636 
L 401.891653 267.861301 
L 402.488261 280.377641 
L 403.681478 217.763056 
L 404.278086 230.279172 
L 404.874694 234.624262 
L 405.471302 205.54513 
L 406.06791 206.957521 
L 406.664518 242.457602 
L 407.261126 245.029576 
L 407.857734 227.809635 
L 408.454342 248.174795 
L 409.050951 273.717139 
L 410.244167 234.085977 
L 410.840775 255.968481 
L 411.437383 260.137607 
L 412.033991 230.735591 
L 412.630599 233.187763 
L 413.227207 264.736223 
L 413.823815 263.532695 
L 414.420424 248.114617 
L 415.61364 298.669091 
L 416.210248 276.088893 
L 416.806856 259.938802 
L 417.403464 278.278263 
L 418.000072 269.612728 
L 418.59668 228.307609 
L 419.193288 219.821149 
L 419.789896 238.32507 
L 420.386505 222.513111 
L 420.983113 199.250909 
L 422.176329 249.172035 
L 422.772937 234.042461 
L 423.369545 234.102972 
L 423.966153 265.824663 
L 424.562761 268.984665 
L 425.159369 239.642861 
L 425.755978 242.613568 
L 426.352586 264.018362 
L 427.545802 221.845584 
L 428.14241 249.501158 
L 428.739018 270.891076 
L 429.335626 256.083769 
L 429.932234 256.049971 
L 430.528842 290.116987 
L 431.125451 293.141901 
L 431.722059 261.317163 
L 432.915275 278.773925 
L 433.511883 248.514275 
L 433.511883 248.514275 
" style="fill:none;stroke:#1f77b4;stroke-linecap:square;stroke-width:1.5;"/>
   </g>
   <g id="patch_18">
    <path d="M 273.770062 303.64 
L 273.770062 194.28 
" style="fill:none;stroke:#000000;stroke-linecap:square;stroke-linejoin:miter;stroke-width:0.8;"/>
   </g>
   <g id="patch_19">
    <path d="M 441.118636 303.64 
L 441.118636 194.28 
" style="fill:none;stroke:#000000;stroke-linecap:square;stroke-linejoin:miter;stroke-width:0.8;"/>
   </g>
   <g id="patch_20">
    <path d="M 273.770062 303.64 
L 441.118636 303.64 
" style="fill:none;stroke:#000000;stroke-linecap:square;stroke-linejoin:miter;stroke-width:0.8;"/>
   </g>
   <g id="patch_21">
    <path d="M 273.770062 194.28 
L 441.118636 194.28 
" style="fill:none;stroke:#000000;stroke-linecap:square;stroke-linejoin:miter;stroke-width:0.8;"/>
   </g>
   <g id="text_44">
    <!-- Reconstructed Signal (k=100) -->
    <g transform="translate(267.033724 188.28)scale(0.12 -0.12)">
     <use xlink:href="#DejaVuSans-52"/>
     <use x="69.419922" xlink:href="#DejaVuSans-65"/>
     <use x="130.943359" xlink:href="#DejaVuSans-63"/>
     <use x="185.923828" xlink:href="#DejaVuSans-6f"/>
     <use x="247.105469" xlink:href="#DejaVuSans-6e"/>
     <use x="310.484375" xlink:href="#DejaVuSans-73"/>
     <use x="362.583984" xlink:href="#DejaVuSans-74"/>
     <use x="401.792969" xlink:href="#DejaVuSans-72"/>
     <use x="442.90625" xlink:href="#DejaVuSans-75"/>
     <use x="506.285156" xlink:href="#DejaVuSans-63"/>
     <use x="561.265625" xlink:href="#DejaVuSans-74"/>
     <use x="600.474609" xlink:href="#DejaVuSans-65"/>
     <use x="661.998047" xlink:href="#DejaVuSans-64"/>
     <use x="725.474609" xlink:href="#DejaVuSans-20"/>
     <use x="757.261719" xlink:href="#DejaVuSans-53"/>
     <use x="820.738281" xlink:href="#DejaVuSans-69"/>
     <use x="848.521484" xlink:href="#DejaVuSans-67"/>
     <use x="911.998047" xlink:href="#DejaVuSans-6e"/>
     <use x="975.376953" xlink:href="#DejaVuSans-61"/>
     <use x="1036.65625" xlink:href="#DejaVuSans-6c"/>
     <use x="1064.439453" xlink:href="#DejaVuSans-20"/>
     <use x="1096.226562" xlink:href="#DejaVuSans-28"/>
     <use x="1135.240234" xlink:href="#DejaVuSans-6b"/>
     <use x="1193.150391" xlink:href="#DejaVuSans-3d"/>
     <use x="1276.939453" xlink:href="#DejaVuSans-31"/>
     <use x="1340.5625" xlink:href="#DejaVuSans-30"/>
     <use x="1404.185547" xlink:href="#DejaVuSans-30"/>
     <use x="1467.808594" xlink:href="#DejaVuSans-29"/>
    </g>
   </g>
  </g>
 </g>
 <defs>
  <clipPath id="p975ee9dd1e">
   <rect height="109.36" width="167.348574" x="56.09" y="26.88"/>
  </clipPath>
  <clipPath id="p3969971446">
   <rect height="109.36" width="167.348574" x="273.770062" y="26.88"/>
  </clipPath>
  <clipPath id="p10085f95c5">
   <rect height="109.36" width="167.348574" x="56.09" y="194.28"/>
  </clipPath>
  <clipPath id="pda8c1b5f79">
   <rect height="109.36" width="167.348574" x="273.770062" y="194.28"/>
  </clipPath>
 </defs>
</svg>
