<?xml version="1.0" encoding="utf-8" standalone="no"?>
<!DOCTYPE svg PUBLIC "-//W3C//DTD SVG 1.1//EN"
  "http://www.w3.org/Graphics/SVG/1.1/DTD/svg11.dtd">
<!-- Created with matplotlib (http://matplotlib.org/) -->
<svg height="345pt" version="1.1" viewBox="0 0 460 345" width="460pt" xmlns="http://www.w3.org/2000/svg" xmlns:xlink="http://www.w3.org/1999/xlink">
 <defs>
  <style type="text/css">
*{stroke-linecap:butt;stroke-linejoin:round;}
  </style>
 </defs>
 <g id="figure_1">
  <g id="patch_1">
   <path d="M 0 345.6 
L 460.8 345.6 
L 460.8 0 
L 0 0 
z
" style="fill:#ffffff;"/>
  </g>
  <g id="axes_1">
   <g id="patch_2">
    <path d="M 56.09 136.24 
L 223.438574 136.24 
L 223.438574 26.88 
L 56.09 26.88 
z
" style="fill:#ffffff;"/>
   </g>
   <g id="matplotlib.axis_1">
    <g id="xtick_1">
     <g id="line2d_1">
      <path clip-path="url(#pbcf0fe5564)" d="M 63.696753 136.24 
L 63.696753 26.88 
" style="fill:none;stroke:#b0b0b0;stroke-linecap:square;stroke-width:0.8;"/>
     </g>
     <g id="line2d_2">
      <defs>
       <path d="M 0 0 
L 0 3.5 
" id="m0da9e5a826" style="stroke:#000000;stroke-width:0.8;"/>
      </defs>
      <g>
       <use style="stroke:#000000;stroke-width:0.8;" x="63.696753" xlink:href="#m0da9e5a826" y="136.24"/>
      </g>
     </g>
     <g id="text_1">
      <!-- 0.00 -->
      <defs>
       <path d="M 31.78125 66.40625 
Q 24.171875 66.40625 20.328125 58.90625 
Q 16.5 51.421875 16.5 36.375 
Q 16.5 21.390625 20.328125 13.890625 
Q 24.171875 6.390625 31.78125 6.390625 
Q 39.453125 6.390625 43.28125 13.890625 
Q 47.125 21.390625 47.125 36.375 
Q 47.125 51.421875 43.28125 58.90625 
Q 39.453125 66.40625 31.78125 66.40625 
M 31.78125 74.21875 
Q 44.046875 74.21875 50.515625 64.515625 
Q 56.984375 54.828125 56.984375 36.375 
Q 56.984375 17.96875 50.515625 8.265625 
Q 44.046875 -1.421875 31.78125 -1.421875 
Q 19.53125 -1.421875 13.0625 8.265625 
Q 6.59375 17.96875 6.59375 36.375 
Q 6.59375 54.828125 13.0625 64.515625 
Q 19.53125 74.21875 31.78125 74.21875 
" id="DejaVuSans-30"/>
       <path d="M 10.6875 12.40625 
L 21 12.40625 
L 21 0 
L 10.6875 0 
z
" id="DejaVuSans-2e"/>
      </defs>
      <g transform="translate(52.563941 150.838437)scale(0.1 -0.1)">
       <use xlink:href="#DejaVuSans-30"/>
       <use x="63.623047" xlink:href="#DejaVuSans-2e"/>
       <use x="95.410156" xlink:href="#DejaVuSans-30"/>
       <use x="159.033203" xlink:href="#DejaVuSans-30"/>
      </g>
     </g>
    </g>
    <g id="xtick_2">
     <g id="line2d_3">
      <path clip-path="url(#pbcf0fe5564)" d="M 101.73052 136.24 
L 101.73052 26.88 
" style="fill:none;stroke:#b0b0b0;stroke-linecap:square;stroke-width:0.8;"/>
     </g>
     <g id="line2d_4">
      <g>
       <use style="stroke:#000000;stroke-width:0.8;" x="101.73052" xlink:href="#m0da9e5a826" y="136.24"/>
      </g>
     </g>
     <g id="text_2">
      <!-- 0.25 -->
      <defs>
       <path d="M 19.1875 8.296875 
L 53.609375 8.296875 
L 53.609375 0 
L 7.328125 0 
L 7.328125 8.296875 
Q 12.9375 14.109375 22.625 23.890625 
Q 32.328125 33.6875 34.8125 36.53125 
Q 39.546875 41.84375 41.421875 45.53125 
Q 43.3125 49.21875 43.3125 52.78125 
Q 43.3125 58.59375 39.234375 62.25 
Q 35.15625 65.921875 28.609375 65.921875 
Q 23.96875 65.921875 18.8125 64.3125 
Q 13.671875 62.703125 7.8125 59.421875 
L 7.8125 69.390625 
Q 13.765625 71.78125 18.9375 73 
Q 24.125 74.21875 28.421875 74.21875 
Q 39.75 74.21875 46.484375 68.546875 
Q 53.21875 62.890625 53.21875 53.421875 
Q 53.21875 48.921875 51.53125 44.890625 
Q 49.859375 40.875 45.40625 35.40625 
Q 44.1875 33.984375 37.640625 27.21875 
Q 31.109375 20.453125 19.1875 8.296875 
" id="DejaVuSans-32"/>
       <path d="M 10.796875 72.90625 
L 49.515625 72.90625 
L 49.515625 64.59375 
L 19.828125 64.59375 
L 19.828125 46.734375 
Q 21.96875 47.46875 24.109375 47.828125 
Q 26.265625 48.1875 28.421875 48.1875 
Q 40.625 48.1875 47.75 41.5 
Q 54.890625 34.8125 54.890625 23.390625 
Q 54.890625 11.625 47.5625 5.09375 
Q 40.234375 -1.421875 26.90625 -1.421875 
Q 22.3125 -1.421875 17.546875 -0.640625 
Q 12.796875 0.140625 7.71875 1.703125 
L 7.71875 11.625 
Q 12.109375 9.234375 16.796875 8.0625 
Q 21.484375 6.890625 26.703125 6.890625 
Q 35.15625 6.890625 40.078125 11.328125 
Q 45.015625 15.765625 45.015625 23.390625 
Q 45.015625 31 40.078125 35.4375 
Q 35.15625 39.890625 26.703125 39.890625 
Q 22.75 39.890625 18.8125 39.015625 
Q 14.890625 38.140625 10.796875 36.28125 
z
" id="DejaVuSans-35"/>
      </defs>
      <g transform="translate(90.597708 150.838437)scale(0.1 -0.1)">
       <use xlink:href="#DejaVuSans-30"/>
       <use x="63.623047" xlink:href="#DejaVuSans-2e"/>
       <use x="95.410156" xlink:href="#DejaVuSans-32"/>
       <use x="159.033203" xlink:href="#DejaVuSans-35"/>
      </g>
     </g>
    </g>
    <g id="xtick_3">
     <g id="line2d_5">
      <path clip-path="url(#pbcf0fe5564)" d="M 139.764287 136.24 
L 139.764287 26.88 
" style="fill:none;stroke:#b0b0b0;stroke-linecap:square;stroke-width:0.8;"/>
     </g>
     <g id="line2d_6">
      <g>
       <use style="stroke:#000000;stroke-width:0.8;" x="139.764287" xlink:href="#m0da9e5a826" y="136.24"/>
      </g>
     </g>
     <g id="text_3">
      <!-- 0.50 -->
      <g transform="translate(128.631475 150.838437)scale(0.1 -0.1)">
       <use xlink:href="#DejaVuSans-30"/>
       <use x="63.623047" xlink:href="#DejaVuSans-2e"/>
       <use x="95.410156" xlink:href="#DejaVuSans-35"/>
       <use x="159.033203" xlink:href="#DejaVuSans-30"/>
      </g>
     </g>
    </g>
    <g id="xtick_4">
     <g id="line2d_7">
      <path clip-path="url(#pbcf0fe5564)" d="M 177.798054 136.24 
L 177.798054 26.88 
" style="fill:none;stroke:#b0b0b0;stroke-linecap:square;stroke-width:0.8;"/>
     </g>
     <g id="line2d_8">
      <g>
       <use style="stroke:#000000;stroke-width:0.8;" x="177.798054" xlink:href="#m0da9e5a826" y="136.24"/>
      </g>
     </g>
     <g id="text_4">
      <!-- 0.75 -->
      <defs>
       <path d="M 8.203125 72.90625 
L 55.078125 72.90625 
L 55.078125 68.703125 
L 28.609375 0 
L 18.3125 0 
L 43.21875 64.59375 
L 8.203125 64.59375 
z
" id="DejaVuSans-37"/>
      </defs>
      <g transform="translate(166.665242 150.838437)scale(0.1 -0.1)">
       <use xlink:href="#DejaVuSans-30"/>
       <use x="63.623047" xlink:href="#DejaVuSans-2e"/>
       <use x="95.410156" xlink:href="#DejaVuSans-37"/>
       <use x="159.033203" xlink:href="#DejaVuSans-35"/>
      </g>
     </g>
    </g>
    <g id="xtick_5">
     <g id="line2d_9">
      <path clip-path="url(#pbcf0fe5564)" d="M 215.831821 136.24 
L 215.831821 26.88 
" style="fill:none;stroke:#b0b0b0;stroke-linecap:square;stroke-width:0.8;"/>
     </g>
     <g id="line2d_10">
      <g>
       <use style="stroke:#000000;stroke-width:0.8;" x="215.831821" xlink:href="#m0da9e5a826" y="136.24"/>
      </g>
     </g>
     <g id="text_5">
      <!-- 1.00 -->
      <defs>
       <path d="M 12.40625 8.296875 
L 28.515625 8.296875 
L 28.515625 63.921875 
L 10.984375 60.40625 
L 10.984375 69.390625 
L 28.421875 72.90625 
L 38.28125 72.90625 
L 38.28125 8.296875 
L 54.390625 8.296875 
L 54.390625 0 
L 12.40625 0 
z
" id="DejaVuSans-31"/>
      </defs>
      <g transform="translate(204.699008 150.838437)scale(0.1 -0.1)">
       <use xlink:href="#DejaVuSans-31"/>
       <use x="63.623047" xlink:href="#DejaVuSans-2e"/>
       <use x="95.410156" xlink:href="#DejaVuSans-30"/>
       <use x="159.033203" xlink:href="#DejaVuSans-30"/>
      </g>
     </g>
    </g>
    <g id="text_6">
     <!-- Time/s -->
     <defs>
      <path d="M -0.296875 72.90625 
L 61.375 72.90625 
L 61.375 64.59375 
L 35.5 64.59375 
L 35.5 0 
L 25.59375 0 
L 25.59375 64.59375 
L -0.296875 64.59375 
z
" id="DejaVuSans-54"/>
      <path d="M 9.421875 54.6875 
L 18.40625 54.6875 
L 18.40625 0 
L 9.421875 0 
z
M 9.421875 75.984375 
L 18.40625 75.984375 
L 18.40625 64.59375 
L 9.421875 64.59375 
z
" id="DejaVuSans-69"/>
      <path d="M 52 44.1875 
Q 55.375 50.25 60.0625 53.125 
Q 64.75 56 71.09375 56 
Q 79.640625 56 84.28125 50.015625 
Q 88.921875 44.046875 88.921875 33.015625 
L 88.921875 0 
L 79.890625 0 
L 79.890625 32.71875 
Q 79.890625 40.578125 77.09375 44.375 
Q 74.3125 48.1875 68.609375 48.1875 
Q 61.625 48.1875 57.5625 43.546875 
Q 53.515625 38.921875 53.515625 30.90625 
L 53.515625 0 
L 44.484375 0 
L 44.484375 32.71875 
Q 44.484375 40.625 41.703125 44.40625 
Q 38.921875 48.1875 33.109375 48.1875 
Q 26.21875 48.1875 22.15625 43.53125 
Q 18.109375 38.875 18.109375 30.90625 
L 18.109375 0 
L 9.078125 0 
L 9.078125 54.6875 
L 18.109375 54.6875 
L 18.109375 46.1875 
Q 21.1875 51.21875 25.484375 53.609375 
Q 29.78125 56 35.6875 56 
Q 41.65625 56 45.828125 52.96875 
Q 50 49.953125 52 44.1875 
" id="DejaVuSans-6d"/>
      <path d="M 56.203125 29.59375 
L 56.203125 25.203125 
L 14.890625 25.203125 
Q 15.484375 15.921875 20.484375 11.0625 
Q 25.484375 6.203125 34.421875 6.203125 
Q 39.59375 6.203125 44.453125 7.46875 
Q 49.3125 8.734375 54.109375 11.28125 
L 54.109375 2.78125 
Q 49.265625 0.734375 44.1875 -0.34375 
Q 39.109375 -1.421875 33.890625 -1.421875 
Q 20.796875 -1.421875 13.15625 6.1875 
Q 5.515625 13.8125 5.515625 26.8125 
Q 5.515625 40.234375 12.765625 48.109375 
Q 20.015625 56 32.328125 56 
Q 43.359375 56 49.78125 48.890625 
Q 56.203125 41.796875 56.203125 29.59375 
M 47.21875 32.234375 
Q 47.125 39.59375 43.09375 43.984375 
Q 39.0625 48.390625 32.421875 48.390625 
Q 24.90625 48.390625 20.390625 44.140625 
Q 15.875 39.890625 15.1875 32.171875 
z
" id="DejaVuSans-65"/>
      <path d="M 25.390625 72.90625 
L 33.6875 72.90625 
L 8.296875 -9.28125 
L 0 -9.28125 
z
" id="DejaVuSans-2f"/>
      <path d="M 44.28125 53.078125 
L 44.28125 44.578125 
Q 40.484375 46.53125 36.375 47.5 
Q 32.28125 48.484375 27.875 48.484375 
Q 21.1875 48.484375 17.84375 46.4375 
Q 14.5 44.390625 14.5 40.28125 
Q 14.5 37.15625 16.890625 35.375 
Q 19.28125 33.59375 26.515625 31.984375 
L 29.59375 31.296875 
Q 39.15625 29.25 43.1875 25.515625 
Q 47.21875 21.78125 47.21875 15.09375 
Q 47.21875 7.46875 41.1875 3.015625 
Q 35.15625 -1.421875 24.609375 -1.421875 
Q 20.21875 -1.421875 15.453125 -0.5625 
Q 10.6875 0.296875 5.421875 2 
L 5.421875 11.28125 
Q 10.40625 8.6875 15.234375 7.390625 
Q 20.0625 6.109375 24.8125 6.109375 
Q 31.15625 6.109375 34.5625 8.28125 
Q 37.984375 10.453125 37.984375 14.40625 
Q 37.984375 18.0625 35.515625 20.015625 
Q 33.0625 21.96875 24.703125 23.78125 
L 21.578125 24.515625 
Q 13.234375 26.265625 9.515625 29.90625 
Q 5.8125 33.546875 5.8125 39.890625 
Q 5.8125 47.609375 11.28125 51.796875 
Q 16.75 56 26.8125 56 
Q 31.78125 56 36.171875 55.265625 
Q 40.578125 54.546875 44.28125 53.078125 
" id="DejaVuSans-73"/>
     </defs>
     <g transform="translate(123.087725 164.516562)scale(0.1 -0.1)">
      <use xlink:href="#DejaVuSans-54"/>
      <use x="61.037109" xlink:href="#DejaVuSans-69"/>
      <use x="88.820312" xlink:href="#DejaVuSans-6d"/>
      <use x="186.232422" xlink:href="#DejaVuSans-65"/>
      <use x="247.755859" xlink:href="#DejaVuSans-2f"/>
      <use x="281.447266" xlink:href="#DejaVuSans-73"/>
     </g>
    </g>
   </g>
   <g id="matplotlib.axis_2">
    <g id="ytick_1">
     <g id="line2d_11">
      <path clip-path="url(#pbcf0fe5564)" d="M 56.09 118.245566 
L 223.438574 118.245566 
" style="fill:none;stroke:#b0b0b0;stroke-linecap:square;stroke-width:0.8;"/>
     </g>
     <g id="line2d_12">
      <defs>
       <path d="M 0 0 
L -3.5 0 
" id="mfa579671e8" style="stroke:#000000;stroke-width:0.8;"/>
      </defs>
      <g>
       <use style="stroke:#000000;stroke-width:0.8;" x="56.09" xlink:href="#mfa579671e8" y="118.245566"/>
      </g>
     </g>
     <g id="text_7">
      <!-- −1 -->
      <defs>
       <path d="M 10.59375 35.5 
L 73.1875 35.5 
L 73.1875 27.203125 
L 10.59375 27.203125 
z
" id="DejaVuSans-2212"/>
      </defs>
      <g transform="translate(34.347813 122.044785)scale(0.1 -0.1)">
       <use xlink:href="#DejaVuSans-2212"/>
       <use x="83.789062" xlink:href="#DejaVuSans-31"/>
      </g>
     </g>
    </g>
    <g id="ytick_2">
     <g id="line2d_13">
      <path clip-path="url(#pbcf0fe5564)" d="M 56.09 81.56 
L 223.438574 81.56 
" style="fill:none;stroke:#b0b0b0;stroke-linecap:square;stroke-width:0.8;"/>
     </g>
     <g id="line2d_14">
      <g>
       <use style="stroke:#000000;stroke-width:0.8;" x="56.09" xlink:href="#mfa579671e8" y="81.56"/>
      </g>
     </g>
     <g id="text_8">
      <!-- 0 -->
      <g transform="translate(42.7275 85.359219)scale(0.1 -0.1)">
       <use xlink:href="#DejaVuSans-30"/>
      </g>
     </g>
    </g>
    <g id="ytick_3">
     <g id="line2d_15">
      <path clip-path="url(#pbcf0fe5564)" d="M 56.09 44.874434 
L 223.438574 44.874434 
" style="fill:none;stroke:#b0b0b0;stroke-linecap:square;stroke-width:0.8;"/>
     </g>
     <g id="line2d_16">
      <g>
       <use style="stroke:#000000;stroke-width:0.8;" x="56.09" xlink:href="#mfa579671e8" y="44.874434"/>
      </g>
     </g>
     <g id="text_9">
      <!-- 1 -->
      <g transform="translate(42.7275 48.673652)scale(0.1 -0.1)">
       <use xlink:href="#DejaVuSans-31"/>
      </g>
     </g>
    </g>
    <g id="text_10">
     <!-- Amplitude -->
     <defs>
      <path d="M 34.1875 63.1875 
L 20.796875 26.90625 
L 47.609375 26.90625 
z
M 28.609375 72.90625 
L 39.796875 72.90625 
L 67.578125 0 
L 57.328125 0 
L 50.6875 18.703125 
L 17.828125 18.703125 
L 11.1875 0 
L 0.78125 0 
z
" id="DejaVuSans-41"/>
      <path d="M 18.109375 8.203125 
L 18.109375 -20.796875 
L 9.078125 -20.796875 
L 9.078125 54.6875 
L 18.109375 54.6875 
L 18.109375 46.390625 
Q 20.953125 51.265625 25.265625 53.625 
Q 29.59375 56 35.59375 56 
Q 45.5625 56 51.78125 48.09375 
Q 58.015625 40.1875 58.015625 27.296875 
Q 58.015625 14.40625 51.78125 6.484375 
Q 45.5625 -1.421875 35.59375 -1.421875 
Q 29.59375 -1.421875 25.265625 0.953125 
Q 20.953125 3.328125 18.109375 8.203125 
M 48.6875 27.296875 
Q 48.6875 37.203125 44.609375 42.84375 
Q 40.53125 48.484375 33.40625 48.484375 
Q 26.265625 48.484375 22.1875 42.84375 
Q 18.109375 37.203125 18.109375 27.296875 
Q 18.109375 17.390625 22.1875 11.75 
Q 26.265625 6.109375 33.40625 6.109375 
Q 40.53125 6.109375 44.609375 11.75 
Q 48.6875 17.390625 48.6875 27.296875 
" id="DejaVuSans-70"/>
      <path d="M 9.421875 75.984375 
L 18.40625 75.984375 
L 18.40625 0 
L 9.421875 0 
z
" id="DejaVuSans-6c"/>
      <path d="M 18.3125 70.21875 
L 18.3125 54.6875 
L 36.8125 54.6875 
L 36.8125 47.703125 
L 18.3125 47.703125 
L 18.3125 18.015625 
Q 18.3125 11.328125 20.140625 9.421875 
Q 21.96875 7.515625 27.59375 7.515625 
L 36.8125 7.515625 
L 36.8125 0 
L 27.59375 0 
Q 17.1875 0 13.234375 3.875 
Q 9.28125 7.765625 9.28125 18.015625 
L 9.28125 47.703125 
L 2.6875 47.703125 
L 2.6875 54.6875 
L 9.28125 54.6875 
L 9.28125 70.21875 
z
" id="DejaVuSans-74"/>
      <path d="M 8.5 21.578125 
L 8.5 54.6875 
L 17.484375 54.6875 
L 17.484375 21.921875 
Q 17.484375 14.15625 20.5 10.265625 
Q 23.53125 6.390625 29.59375 6.390625 
Q 36.859375 6.390625 41.078125 11.03125 
Q 45.3125 15.671875 45.3125 23.6875 
L 45.3125 54.6875 
L 54.296875 54.6875 
L 54.296875 0 
L 45.3125 0 
L 45.3125 8.40625 
Q 42.046875 3.421875 37.71875 1 
Q 33.40625 -1.421875 27.6875 -1.421875 
Q 18.265625 -1.421875 13.375 4.4375 
Q 8.5 10.296875 8.5 21.578125 
M 31.109375 56 
z
" id="DejaVuSans-75"/>
      <path d="M 45.40625 46.390625 
L 45.40625 75.984375 
L 54.390625 75.984375 
L 54.390625 0 
L 45.40625 0 
L 45.40625 8.203125 
Q 42.578125 3.328125 38.25 0.953125 
Q 33.9375 -1.421875 27.875 -1.421875 
Q 17.96875 -1.421875 11.734375 6.484375 
Q 5.515625 14.40625 5.515625 27.296875 
Q 5.515625 40.1875 11.734375 48.09375 
Q 17.96875 56 27.875 56 
Q 33.9375 56 38.25 53.625 
Q 42.578125 51.265625 45.40625 46.390625 
M 14.796875 27.296875 
Q 14.796875 17.390625 18.875 11.75 
Q 22.953125 6.109375 30.078125 6.109375 
Q 37.203125 6.109375 41.296875 11.75 
Q 45.40625 17.390625 45.40625 27.296875 
Q 45.40625 37.203125 41.296875 42.84375 
Q 37.203125 48.484375 30.078125 48.484375 
Q 22.953125 48.484375 18.875 42.84375 
Q 14.796875 37.203125 14.796875 27.296875 
" id="DejaVuSans-64"/>
     </defs>
     <g transform="translate(28.268125 107.182656)rotate(-90)scale(0.1 -0.1)">
      <use xlink:href="#DejaVuSans-41"/>
      <use x="68.408203" xlink:href="#DejaVuSans-6d"/>
      <use x="165.820312" xlink:href="#DejaVuSans-70"/>
      <use x="229.296875" xlink:href="#DejaVuSans-6c"/>
      <use x="257.080078" xlink:href="#DejaVuSans-69"/>
      <use x="284.863281" xlink:href="#DejaVuSans-74"/>
      <use x="324.072266" xlink:href="#DejaVuSans-75"/>
      <use x="387.451172" xlink:href="#DejaVuSans-64"/>
      <use x="450.927734" xlink:href="#DejaVuSans-65"/>
     </g>
    </g>
   </g>
   <g id="line2d_17">
    <path clip-path="url(#pbcf0fe5564)" d="M 63.696753 83.365434 
L 64.293361 81.507401 
L 64.88997 74.459592 
L 66.083186 56.284538 
L 66.679794 51.02449 
L 67.276402 51.528925 
L 67.87301 58.694042 
L 68.469618 71.807492 
L 70.259443 120.557131 
L 70.856051 129.215304 
L 71.452659 130.372863 
L 72.049267 123.982658 
L 72.645875 111.622029 
L 73.839091 80.785141 
L 74.435699 68.776534 
L 75.032307 62.193358 
L 75.628916 61.685703 
L 76.225524 66.328762 
L 77.41874 81.529912 
L 78.015348 86.385802 
L 78.611956 86.506045 
L 79.208564 81.285437 
L 79.805172 71.665256 
L 80.998389 49.095098 
L 81.594997 42.253498 
L 82.191605 41.687228 
L 82.788213 48.321516 
L 83.384821 61.442026 
L 85.174645 113.114042 
L 85.771253 123.544399 
L 86.367861 126.766294 
L 86.96447 122.651852 
L 87.561078 112.682216 
L 88.754294 86.505595 
L 89.350902 76.501972 
L 89.94751 71.527729 
L 90.544118 72.115073 
L 91.140726 77.251298 
L 92.333943 91.498175 
L 92.930551 94.963056 
L 93.527159 93.199075 
L 94.123767 85.733163 
L 95.316983 59.40214 
L 95.913591 46.158735 
L 96.510199 37.112378 
L 97.106807 34.655127 
L 97.703416 39.785495 
L 98.300024 51.839876 
L 100.089848 103.205737 
L 100.686456 114.524786 
L 101.283064 119.109502 
L 101.879672 116.78924 
L 102.47628 108.974825 
L 103.669497 87.760059 
L 104.266105 80.281739 
L 104.862713 77.649573 
L 105.459321 80.238165 
L 106.055929 86.898013 
L 107.249145 102.39863 
L 107.845753 105.531296 
L 108.442362 102.834812 
L 109.03897 93.916819 
L 110.232186 63.570736 
L 110.828794 48.012199 
L 111.425402 36.60584 
L 112.02201 31.850909 
L 112.618618 34.841084 
L 113.215226 44.997982 
L 115.601659 103.998949 
L 116.198267 108.936402 
L 116.794875 107.537155 
L 117.391483 101.188773 
L 118.584699 84.2453 
L 119.181307 79.327563 
L 119.777916 79.328234 
L 120.374524 84.448547 
L 122.164348 112.076177 
L 122.760956 115.978474 
L 123.357564 113.458567 
L 123.954172 104.144866 
L 124.55078 89.289474 
L 125.743997 54.221935 
L 126.340605 40.800048 
L 126.937213 33.836871 
L 127.533821 34.51628 
L 128.130429 42.354411 
L 129.323645 70.42093 
L 129.920253 84.282097 
L 130.516862 94.113826 
L 131.11347 98.290076 
L 131.710078 96.724243 
L 132.306686 90.8393 
L 133.499902 76.625102 
L 134.09651 73.81126 
L 134.693118 76.234263 
L 135.289726 83.933332 
L 137.079551 118.623084 
L 137.676159 124.216359 
L 138.272767 122.914631 
L 138.869375 114.310781 
L 139.465983 99.648046 
L 140.659199 63.471954 
L 141.255807 48.809219 
L 141.852416 40.205369 
L 142.449024 38.903641 
L 143.045632 44.496916 
L 143.64224 55.068125 
L 144.835456 79.186668 
L 145.432064 86.885737 
L 146.028672 89.30874 
L 146.62528 86.494898 
L 148.415105 66.395757 
L 149.011713 64.829924 
L 149.608321 69.006174 
L 150.204929 78.837903 
L 151.994753 120.765589 
L 152.591362 128.60372 
L 153.18797 129.283129 
L 153.784578 122.319952 
L 154.381186 108.898065 
L 156.17101 58.975134 
L 156.767618 49.661433 
L 157.364226 47.141526 
L 157.960834 51.043823 
L 158.557443 59.519052 
L 159.750659 78.671453 
L 160.347267 83.791766 
L 160.943875 83.792437 
L 161.540483 78.8747 
L 163.330307 55.582845 
L 163.926916 54.183598 
L 164.523524 59.121051 
L 165.120132 70.236448 
L 166.909956 118.122018 
L 167.506564 128.278916 
L 168.103172 131.269091 
L 168.69978 126.51416 
L 169.296389 115.107801 
L 171.086213 69.203181 
L 171.682821 60.285188 
L 172.279429 57.588704 
L 172.876037 60.72137 
L 174.665862 82.881835 
L 175.26247 85.470427 
L 175.859078 82.838261 
L 176.455686 75.359941 
L 177.648902 54.145175 
L 178.24551 46.33076 
L 178.842118 44.010498 
L 179.438726 48.595214 
L 180.035335 59.914263 
L 182.421767 123.334505 
L 183.018375 128.464873 
L 183.614983 126.007622 
L 184.211591 116.961265 
L 186.001416 77.386837 
L 186.598024 69.920925 
L 187.194632 68.156944 
L 187.79124 71.621825 
L 189.581064 91.004927 
L 190.177672 91.592271 
L 190.77428 86.618028 
L 191.370889 76.614405 
L 192.564105 50.437784 
L 193.160713 40.468148 
L 193.757321 36.353706 
L 194.353929 39.575601 
L 194.950537 50.005958 
L 196.143753 84.29842 
L 196.740362 101.677974 
L 197.33697 114.798484 
L 197.933578 121.432772 
L 198.530186 120.866502 
L 199.126794 114.024902 
L 200.916618 81.834563 
L 201.513226 76.613955 
L 202.109835 76.734198 
L 202.706443 81.590088 
L 203.899659 96.791238 
L 204.496267 101.434297 
L 205.092875 100.926642 
L 205.689483 94.343466 
L 206.286091 82.334859 
L 208.075916 39.137342 
L 208.672524 32.747137 
L 209.269132 33.904696 
L 209.86574 42.562869 
L 210.462348 57.04873 
L 211.655564 91.312508 
L 212.252172 104.425958 
L 212.84878 111.591075 
L 213.445389 112.09551 
L 214.041997 106.835462 
L 215.831821 81.612599 
L 215.831821 81.612599 
" style="fill:none;stroke:#1f77b4;stroke-linecap:square;stroke-width:1.5;"/>
   </g>
   <g id="patch_3">
    <path d="M 56.09 136.24 
L 56.09 26.88 
" style="fill:none;stroke:#000000;stroke-linecap:square;stroke-linejoin:miter;stroke-width:0.8;"/>
   </g>
   <g id="patch_4">
    <path d="M 223.438574 136.24 
L 223.438574 26.88 
" style="fill:none;stroke:#000000;stroke-linecap:square;stroke-linejoin:miter;stroke-width:0.8;"/>
   </g>
   <g id="patch_5">
    <path d="M 56.09 136.24 
L 223.438574 136.24 
" style="fill:none;stroke:#000000;stroke-linecap:square;stroke-linejoin:miter;stroke-width:0.8;"/>
   </g>
   <g id="patch_6">
    <path d="M 56.09 26.88 
L 223.438574 26.88 
" style="fill:none;stroke:#000000;stroke-linecap:square;stroke-linejoin:miter;stroke-width:0.8;"/>
   </g>
   <g id="text_11">
    <!-- Reconstructed Signal (k=2) -->
    <defs>
     <path d="M 44.390625 34.1875 
Q 47.5625 33.109375 50.5625 29.59375 
Q 53.5625 26.078125 56.59375 19.921875 
L 66.609375 0 
L 56 0 
L 46.6875 18.703125 
Q 43.0625 26.03125 39.671875 28.421875 
Q 36.28125 30.8125 30.421875 30.8125 
L 19.671875 30.8125 
L 19.671875 0 
L 9.8125 0 
L 9.8125 72.90625 
L 32.078125 72.90625 
Q 44.578125 72.90625 50.734375 67.671875 
Q 56.890625 62.453125 56.890625 51.90625 
Q 56.890625 45.015625 53.6875 40.46875 
Q 50.484375 35.9375 44.390625 34.1875 
M 19.671875 64.796875 
L 19.671875 38.921875 
L 32.078125 38.921875 
Q 39.203125 38.921875 42.84375 42.21875 
Q 46.484375 45.515625 46.484375 51.90625 
Q 46.484375 58.296875 42.84375 61.546875 
Q 39.203125 64.796875 32.078125 64.796875 
z
" id="DejaVuSans-52"/>
     <path d="M 48.78125 52.59375 
L 48.78125 44.1875 
Q 44.96875 46.296875 41.140625 47.34375 
Q 37.3125 48.390625 33.40625 48.390625 
Q 24.65625 48.390625 19.8125 42.84375 
Q 14.984375 37.3125 14.984375 27.296875 
Q 14.984375 17.28125 19.8125 11.734375 
Q 24.65625 6.203125 33.40625 6.203125 
Q 37.3125 6.203125 41.140625 7.25 
Q 44.96875 8.296875 48.78125 10.40625 
L 48.78125 2.09375 
Q 45.015625 0.34375 40.984375 -0.53125 
Q 36.96875 -1.421875 32.421875 -1.421875 
Q 20.0625 -1.421875 12.78125 6.34375 
Q 5.515625 14.109375 5.515625 27.296875 
Q 5.515625 40.671875 12.859375 48.328125 
Q 20.21875 56 33.015625 56 
Q 37.15625 56 41.109375 55.140625 
Q 45.0625 54.296875 48.78125 52.59375 
" id="DejaVuSans-63"/>
     <path d="M 30.609375 48.390625 
Q 23.390625 48.390625 19.1875 42.75 
Q 14.984375 37.109375 14.984375 27.296875 
Q 14.984375 17.484375 19.15625 11.84375 
Q 23.34375 6.203125 30.609375 6.203125 
Q 37.796875 6.203125 41.984375 11.859375 
Q 46.1875 17.53125 46.1875 27.296875 
Q 46.1875 37.015625 41.984375 42.703125 
Q 37.796875 48.390625 30.609375 48.390625 
M 30.609375 56 
Q 42.328125 56 49.015625 48.375 
Q 55.71875 40.765625 55.71875 27.296875 
Q 55.71875 13.875 49.015625 6.21875 
Q 42.328125 -1.421875 30.609375 -1.421875 
Q 18.84375 -1.421875 12.171875 6.21875 
Q 5.515625 13.875 5.515625 27.296875 
Q 5.515625 40.765625 12.171875 48.375 
Q 18.84375 56 30.609375 56 
" id="DejaVuSans-6f"/>
     <path d="M 54.890625 33.015625 
L 54.890625 0 
L 45.90625 0 
L 45.90625 32.71875 
Q 45.90625 40.484375 42.875 44.328125 
Q 39.84375 48.1875 33.796875 48.1875 
Q 26.515625 48.1875 22.3125 43.546875 
Q 18.109375 38.921875 18.109375 30.90625 
L 18.109375 0 
L 9.078125 0 
L 9.078125 54.6875 
L 18.109375 54.6875 
L 18.109375 46.1875 
Q 21.34375 51.125 25.703125 53.5625 
Q 30.078125 56 35.796875 56 
Q 45.21875 56 50.046875 50.171875 
Q 54.890625 44.34375 54.890625 33.015625 
" id="DejaVuSans-6e"/>
     <path d="M 41.109375 46.296875 
Q 39.59375 47.171875 37.8125 47.578125 
Q 36.03125 48 33.890625 48 
Q 26.265625 48 22.1875 43.046875 
Q 18.109375 38.09375 18.109375 28.8125 
L 18.109375 0 
L 9.078125 0 
L 9.078125 54.6875 
L 18.109375 54.6875 
L 18.109375 46.1875 
Q 20.953125 51.171875 25.484375 53.578125 
Q 30.03125 56 36.53125 56 
Q 37.453125 56 38.578125 55.875 
Q 39.703125 55.765625 41.0625 55.515625 
z
" id="DejaVuSans-72"/>
     <path id="DejaVuSans-20"/>
     <path d="M 53.515625 70.515625 
L 53.515625 60.890625 
Q 47.90625 63.578125 42.921875 64.890625 
Q 37.9375 66.21875 33.296875 66.21875 
Q 25.25 66.21875 20.875 63.09375 
Q 16.5 59.96875 16.5 54.203125 
Q 16.5 49.359375 19.40625 46.890625 
Q 22.3125 44.4375 30.421875 42.921875 
L 36.375 41.703125 
Q 47.40625 39.59375 52.65625 34.296875 
Q 57.90625 29 57.90625 20.125 
Q 57.90625 9.515625 50.796875 4.046875 
Q 43.703125 -1.421875 29.984375 -1.421875 
Q 24.8125 -1.421875 18.96875 -0.25 
Q 13.140625 0.921875 6.890625 3.21875 
L 6.890625 13.375 
Q 12.890625 10.015625 18.65625 8.296875 
Q 24.421875 6.59375 29.984375 6.59375 
Q 38.421875 6.59375 43.015625 9.90625 
Q 47.609375 13.234375 47.609375 19.390625 
Q 47.609375 24.75 44.3125 27.78125 
Q 41.015625 30.8125 33.5 32.328125 
L 27.484375 33.5 
Q 16.453125 35.6875 11.515625 40.375 
Q 6.59375 45.0625 6.59375 53.421875 
Q 6.59375 63.09375 13.40625 68.65625 
Q 20.21875 74.21875 32.171875 74.21875 
Q 37.3125 74.21875 42.625 73.28125 
Q 47.953125 72.359375 53.515625 70.515625 
" id="DejaVuSans-53"/>
     <path d="M 45.40625 27.984375 
Q 45.40625 37.75 41.375 43.109375 
Q 37.359375 48.484375 30.078125 48.484375 
Q 22.859375 48.484375 18.828125 43.109375 
Q 14.796875 37.75 14.796875 27.984375 
Q 14.796875 18.265625 18.828125 12.890625 
Q 22.859375 7.515625 30.078125 7.515625 
Q 37.359375 7.515625 41.375 12.890625 
Q 45.40625 18.265625 45.40625 27.984375 
M 54.390625 6.78125 
Q 54.390625 -7.171875 48.1875 -13.984375 
Q 42 -20.796875 29.203125 -20.796875 
Q 24.46875 -20.796875 20.265625 -20.09375 
Q 16.0625 -19.390625 12.109375 -17.921875 
L 12.109375 -9.1875 
Q 16.0625 -11.328125 19.921875 -12.34375 
Q 23.78125 -13.375 27.78125 -13.375 
Q 36.625 -13.375 41.015625 -8.765625 
Q 45.40625 -4.15625 45.40625 5.171875 
L 45.40625 9.625 
Q 42.625 4.78125 38.28125 2.390625 
Q 33.9375 0 27.875 0 
Q 17.828125 0 11.671875 7.65625 
Q 5.515625 15.328125 5.515625 27.984375 
Q 5.515625 40.671875 11.671875 48.328125 
Q 17.828125 56 27.875 56 
Q 33.9375 56 38.28125 53.609375 
Q 42.625 51.21875 45.40625 46.390625 
L 45.40625 54.6875 
L 54.390625 54.6875 
z
" id="DejaVuSans-67"/>
     <path d="M 34.28125 27.484375 
Q 23.390625 27.484375 19.1875 25 
Q 14.984375 22.515625 14.984375 16.5 
Q 14.984375 11.71875 18.140625 8.90625 
Q 21.296875 6.109375 26.703125 6.109375 
Q 34.1875 6.109375 38.703125 11.40625 
Q 43.21875 16.703125 43.21875 25.484375 
L 43.21875 27.484375 
z
M 52.203125 31.203125 
L 52.203125 0 
L 43.21875 0 
L 43.21875 8.296875 
Q 40.140625 3.328125 35.546875 0.953125 
Q 30.953125 -1.421875 24.3125 -1.421875 
Q 15.921875 -1.421875 10.953125 3.296875 
Q 6 8.015625 6 15.921875 
Q 6 25.140625 12.171875 29.828125 
Q 18.359375 34.515625 30.609375 34.515625 
L 43.21875 34.515625 
L 43.21875 35.40625 
Q 43.21875 41.609375 39.140625 45 
Q 35.0625 48.390625 27.6875 48.390625 
Q 23 48.390625 18.546875 47.265625 
Q 14.109375 46.140625 10.015625 43.890625 
L 10.015625 52.203125 
Q 14.9375 54.109375 19.578125 55.046875 
Q 24.21875 56 28.609375 56 
Q 40.484375 56 46.34375 49.84375 
Q 52.203125 43.703125 52.203125 31.203125 
" id="DejaVuSans-61"/>
     <path d="M 31 75.875 
Q 24.46875 64.65625 21.28125 53.65625 
Q 18.109375 42.671875 18.109375 31.390625 
Q 18.109375 20.125 21.3125 9.0625 
Q 24.515625 -2 31 -13.1875 
L 23.1875 -13.1875 
Q 15.875 -1.703125 12.234375 9.375 
Q 8.59375 20.453125 8.59375 31.390625 
Q 8.59375 42.28125 12.203125 53.3125 
Q 15.828125 64.359375 23.1875 75.875 
z
" id="DejaVuSans-28"/>
     <path d="M 9.078125 75.984375 
L 18.109375 75.984375 
L 18.109375 31.109375 
L 44.921875 54.6875 
L 56.390625 54.6875 
L 27.390625 29.109375 
L 57.625 0 
L 45.90625 0 
L 18.109375 26.703125 
L 18.109375 0 
L 9.078125 0 
z
" id="DejaVuSans-6b"/>
     <path d="M 10.59375 45.40625 
L 73.1875 45.40625 
L 73.1875 37.203125 
L 10.59375 37.203125 
z
M 10.59375 25.484375 
L 73.1875 25.484375 
L 73.1875 17.1875 
L 10.59375 17.1875 
z
" id="DejaVuSans-3d"/>
     <path d="M 8.015625 75.875 
L 15.828125 75.875 
Q 23.140625 64.359375 26.78125 53.3125 
Q 30.421875 42.28125 30.421875 31.390625 
Q 30.421875 20.453125 26.78125 9.375 
Q 23.140625 -1.703125 15.828125 -13.1875 
L 8.015625 -13.1875 
Q 14.5 -2 17.703125 9.0625 
Q 20.90625 20.125 20.90625 31.390625 
Q 20.90625 42.671875 17.703125 53.65625 
Q 14.5 64.65625 8.015625 75.875 
" id="DejaVuSans-29"/>
    </defs>
    <g transform="translate(56.988662 20.88)scale(0.12 -0.12)">
     <use xlink:href="#DejaVuSans-52"/>
     <use x="69.419922" xlink:href="#DejaVuSans-65"/>
     <use x="130.943359" xlink:href="#DejaVuSans-63"/>
     <use x="185.923828" xlink:href="#DejaVuSans-6f"/>
     <use x="247.105469" xlink:href="#DejaVuSans-6e"/>
     <use x="310.484375" xlink:href="#DejaVuSans-73"/>
     <use x="362.583984" xlink:href="#DejaVuSans-74"/>
     <use x="401.792969" xlink:href="#DejaVuSans-72"/>
     <use x="442.90625" xlink:href="#DejaVuSans-75"/>
     <use x="506.285156" xlink:href="#DejaVuSans-63"/>
     <use x="561.265625" xlink:href="#DejaVuSans-74"/>
     <use x="600.474609" xlink:href="#DejaVuSans-65"/>
     <use x="661.998047" xlink:href="#DejaVuSans-64"/>
     <use x="725.474609" xlink:href="#DejaVuSans-20"/>
     <use x="757.261719" xlink:href="#DejaVuSans-53"/>
     <use x="820.738281" xlink:href="#DejaVuSans-69"/>
     <use x="848.521484" xlink:href="#DejaVuSans-67"/>
     <use x="911.998047" xlink:href="#DejaVuSans-6e"/>
     <use x="975.376953" xlink:href="#DejaVuSans-61"/>
     <use x="1036.65625" xlink:href="#DejaVuSans-6c"/>
     <use x="1064.439453" xlink:href="#DejaVuSans-20"/>
     <use x="1096.226562" xlink:href="#DejaVuSans-28"/>
     <use x="1135.240234" xlink:href="#DejaVuSans-6b"/>
     <use x="1193.150391" xlink:href="#DejaVuSans-3d"/>
     <use x="1276.939453" xlink:href="#DejaVuSans-32"/>
     <use x="1340.5625" xlink:href="#DejaVuSans-29"/>
    </g>
   </g>
  </g>
  <g id="axes_2">
   <g id="patch_7">
    <path d="M 273.770062 136.24 
L 441.118636 136.24 
L 441.118636 26.88 
L 273.770062 26.88 
z
" style="fill:#ffffff;"/>
   </g>
   <g id="matplotlib.axis_3">
    <g id="xtick_6">
     <g id="line2d_18">
      <path clip-path="url(#pcaee52976a)" d="M 281.376815 136.24 
L 281.376815 26.88 
" style="fill:none;stroke:#b0b0b0;stroke-linecap:square;stroke-width:0.8;"/>
     </g>
     <g id="line2d_19">
      <g>
       <use style="stroke:#000000;stroke-width:0.8;" x="281.376815" xlink:href="#m0da9e5a826" y="136.24"/>
      </g>
     </g>
     <g id="text_12">
      <!-- 0.00 -->
      <g transform="translate(270.244003 150.838437)scale(0.1 -0.1)">
       <use xlink:href="#DejaVuSans-30"/>
       <use x="63.623047" xlink:href="#DejaVuSans-2e"/>
       <use x="95.410156" xlink:href="#DejaVuSans-30"/>
       <use x="159.033203" xlink:href="#DejaVuSans-30"/>
      </g>
     </g>
    </g>
    <g id="xtick_7">
     <g id="line2d_20">
      <path clip-path="url(#pcaee52976a)" d="M 319.410582 136.24 
L 319.410582 26.88 
" style="fill:none;stroke:#b0b0b0;stroke-linecap:square;stroke-width:0.8;"/>
     </g>
     <g id="line2d_21">
      <g>
       <use style="stroke:#000000;stroke-width:0.8;" x="319.410582" xlink:href="#m0da9e5a826" y="136.24"/>
      </g>
     </g>
     <g id="text_13">
      <!-- 0.25 -->
      <g transform="translate(308.27777 150.838437)scale(0.1 -0.1)">
       <use xlink:href="#DejaVuSans-30"/>
       <use x="63.623047" xlink:href="#DejaVuSans-2e"/>
       <use x="95.410156" xlink:href="#DejaVuSans-32"/>
       <use x="159.033203" xlink:href="#DejaVuSans-35"/>
      </g>
     </g>
    </g>
    <g id="xtick_8">
     <g id="line2d_22">
      <path clip-path="url(#pcaee52976a)" d="M 357.444349 136.24 
L 357.444349 26.88 
" style="fill:none;stroke:#b0b0b0;stroke-linecap:square;stroke-width:0.8;"/>
     </g>
     <g id="line2d_23">
      <g>
       <use style="stroke:#000000;stroke-width:0.8;" x="357.444349" xlink:href="#m0da9e5a826" y="136.24"/>
      </g>
     </g>
     <g id="text_14">
      <!-- 0.50 -->
      <g transform="translate(346.311537 150.838437)scale(0.1 -0.1)">
       <use xlink:href="#DejaVuSans-30"/>
       <use x="63.623047" xlink:href="#DejaVuSans-2e"/>
       <use x="95.410156" xlink:href="#DejaVuSans-35"/>
       <use x="159.033203" xlink:href="#DejaVuSans-30"/>
      </g>
     </g>
    </g>
    <g id="xtick_9">
     <g id="line2d_24">
      <path clip-path="url(#pcaee52976a)" d="M 395.478116 136.24 
L 395.478116 26.88 
" style="fill:none;stroke:#b0b0b0;stroke-linecap:square;stroke-width:0.8;"/>
     </g>
     <g id="line2d_25">
      <g>
       <use style="stroke:#000000;stroke-width:0.8;" x="395.478116" xlink:href="#m0da9e5a826" y="136.24"/>
      </g>
     </g>
     <g id="text_15">
      <!-- 0.75 -->
      <g transform="translate(384.345304 150.838437)scale(0.1 -0.1)">
       <use xlink:href="#DejaVuSans-30"/>
       <use x="63.623047" xlink:href="#DejaVuSans-2e"/>
       <use x="95.410156" xlink:href="#DejaVuSans-37"/>
       <use x="159.033203" xlink:href="#DejaVuSans-35"/>
      </g>
     </g>
    </g>
    <g id="xtick_10">
     <g id="line2d_26">
      <path clip-path="url(#pcaee52976a)" d="M 433.511883 136.24 
L 433.511883 26.88 
" style="fill:none;stroke:#b0b0b0;stroke-linecap:square;stroke-width:0.8;"/>
     </g>
     <g id="line2d_27">
      <g>
       <use style="stroke:#000000;stroke-width:0.8;" x="433.511883" xlink:href="#m0da9e5a826" y="136.24"/>
      </g>
     </g>
     <g id="text_16">
      <!-- 1.00 -->
      <g transform="translate(422.37907 150.838437)scale(0.1 -0.1)">
       <use xlink:href="#DejaVuSans-31"/>
       <use x="63.623047" xlink:href="#DejaVuSans-2e"/>
       <use x="95.410156" xlink:href="#DejaVuSans-30"/>
       <use x="159.033203" xlink:href="#DejaVuSans-30"/>
      </g>
     </g>
    </g>
    <g id="text_17">
     <!-- Time/s -->
     <g transform="translate(340.767787 164.516562)scale(0.1 -0.1)">
      <use xlink:href="#DejaVuSans-54"/>
      <use x="61.037109" xlink:href="#DejaVuSans-69"/>
      <use x="88.820312" xlink:href="#DejaVuSans-6d"/>
      <use x="186.232422" xlink:href="#DejaVuSans-65"/>
      <use x="247.755859" xlink:href="#DejaVuSans-2f"/>
      <use x="281.447266" xlink:href="#DejaVuSans-73"/>
     </g>
    </g>
   </g>
   <g id="matplotlib.axis_4">
    <g id="ytick_4">
     <g id="line2d_28">
      <path clip-path="url(#pcaee52976a)" d="M 273.770062 123.956314 
L 441.118636 123.956314 
" style="fill:none;stroke:#b0b0b0;stroke-linecap:square;stroke-width:0.8;"/>
     </g>
     <g id="line2d_29">
      <g>
       <use style="stroke:#000000;stroke-width:0.8;" x="273.770062" xlink:href="#mfa579671e8" y="123.956314"/>
      </g>
     </g>
     <g id="text_18">
      <!-- −2 -->
      <g transform="translate(252.027874 127.755533)scale(0.1 -0.1)">
       <use xlink:href="#DejaVuSans-2212"/>
       <use x="83.789062" xlink:href="#DejaVuSans-32"/>
      </g>
     </g>
    </g>
    <g id="ytick_5">
     <g id="line2d_30">
      <path clip-path="url(#pcaee52976a)" d="M 273.770062 81.56 
L 441.118636 81.56 
" style="fill:none;stroke:#b0b0b0;stroke-linecap:square;stroke-width:0.8;"/>
     </g>
     <g id="line2d_31">
      <g>
       <use style="stroke:#000000;stroke-width:0.8;" x="273.770062" xlink:href="#mfa579671e8" y="81.56"/>
      </g>
     </g>
     <g id="text_19">
      <!-- 0 -->
      <g transform="translate(260.407562 85.359219)scale(0.1 -0.1)">
       <use xlink:href="#DejaVuSans-30"/>
      </g>
     </g>
    </g>
    <g id="ytick_6">
     <g id="line2d_32">
      <path clip-path="url(#pcaee52976a)" d="M 273.770062 39.163686 
L 441.118636 39.163686 
" style="fill:none;stroke:#b0b0b0;stroke-linecap:square;stroke-width:0.8;"/>
     </g>
     <g id="line2d_33">
      <g>
       <use style="stroke:#000000;stroke-width:0.8;" x="273.770062" xlink:href="#mfa579671e8" y="39.163686"/>
      </g>
     </g>
     <g id="text_20">
      <!-- 2 -->
      <g transform="translate(260.407562 42.962905)scale(0.1 -0.1)">
       <use xlink:href="#DejaVuSans-32"/>
      </g>
     </g>
    </g>
    <g id="text_21">
     <!-- Amplitude -->
     <g transform="translate(245.948187 107.182656)rotate(-90)scale(0.1 -0.1)">
      <use xlink:href="#DejaVuSans-41"/>
      <use x="68.408203" xlink:href="#DejaVuSans-6d"/>
      <use x="165.820312" xlink:href="#DejaVuSans-70"/>
      <use x="229.296875" xlink:href="#DejaVuSans-6c"/>
      <use x="257.080078" xlink:href="#DejaVuSans-69"/>
      <use x="284.863281" xlink:href="#DejaVuSans-74"/>
      <use x="324.072266" xlink:href="#DejaVuSans-75"/>
      <use x="387.451172" xlink:href="#DejaVuSans-64"/>
      <use x="450.927734" xlink:href="#DejaVuSans-65"/>
     </g>
    </g>
   </g>
   <g id="line2d_34">
    <path clip-path="url(#pcaee52976a)" d="M 281.376815 101.060324 
L 281.973423 92.412315 
L 282.570032 76.945354 
L 283.16664 87.406345 
L 283.763248 83.971211 
L 284.359856 58.414441 
L 284.956464 57.107319 
L 285.553072 76.660914 
L 286.14968 73.329723 
L 286.746288 64.015612 
L 287.939505 104.073857 
L 288.536113 91.668675 
L 289.132721 85.729335 
L 289.729329 102.138326 
L 290.325937 97.686868 
L 290.922545 71.953587 
L 291.519153 71.390898 
L 292.115761 85.34373 
L 293.308978 62.883013 
L 293.905586 83.843193 
L 294.502194 99.832739 
L 295.098802 87.571316 
L 295.69541 87.755013 
L 296.292018 107.145596 
L 296.888626 100.432953 
L 297.485234 74.552909 
L 298.081842 73.897583 
L 298.678451 80.428609 
L 299.275059 59.513726 
L 299.871667 44.308149 
L 300.468275 62.142333 
L 301.064883 72.773854 
L 301.661491 61.258661 
L 302.258099 70.314347 
L 302.854707 97.737127 
L 303.451315 97.507411 
L 304.047923 82.986551 
L 305.24114 103.811035 
L 305.837748 83.110556 
L 306.434356 70.355589 
L 307.030964 86.536396 
L 307.627572 89.468381 
L 308.22418 73.462692 
L 308.820788 82.679453 
L 309.417396 107.1329 
L 310.014005 102.766078 
L 310.610613 89.829675 
L 311.207221 102.499596 
L 311.803829 107.405244 
L 312.400437 80.522456 
L 312.997045 64.408016 
L 313.593653 72.830208 
L 314.190261 63.124363 
L 314.786869 39.386864 
L 315.383478 46.357793 
L 315.980086 67.414 
L 316.576694 62.740143 
L 317.173302 59.337082 
L 317.76991 84.832154 
L 318.366518 99.383169 
L 318.963126 84.471724 
L 319.559734 83.603755 
L 320.156342 101.049032 
L 320.752951 93.314988 
L 321.349559 72.662063 
L 321.946167 81.95039 
L 322.542775 98.191512 
L 323.139383 87.523198 
L 323.735991 83.682944 
L 324.332599 108.037668 
L 324.929207 116.920298 
L 325.525815 99.102994 
L 326.122423 98.441305 
L 326.719032 110.098578 
L 327.31564 91.483661 
L 327.912248 62.724729 
L 328.508856 63.49637 
L 329.105464 65.53336 
L 329.702072 42.626867 
L 330.29868 34.888603 
L 330.895288 57.578733 
L 331.491896 65.456134 
L 332.088505 55.411499 
L 332.685113 70.092616 
L 333.281721 95.005209 
L 333.878329 88.548256 
L 334.474937 76.182253 
L 335.071545 90.933509 
L 335.668153 98.125716 
L 336.264761 78.333402 
L 336.861369 75.506516 
L 337.457978 97.811255 
L 338.054586 100.202599 
L 338.651194 88.630127 
L 339.247802 104.313294 
L 339.84441 124.95027 
L 341.037626 98.270723 
L 341.634234 107.936238 
L 342.230842 102.196935 
L 342.827451 69.448568 
L 343.424059 56.405103 
L 344.020667 64.431819 
L 344.617275 50.988675 
L 345.213883 31.850909 
L 345.810491 46.431053 
L 346.407099 66.22795 
L 347.003707 58.732022 
L 347.600315 59.260409 
L 348.196923 85.114989 
L 348.793532 91.984802 
L 349.39014 74.443794 
L 349.986748 78.06697 
L 350.583356 95.070374 
L 351.179964 84.888666 
L 351.776572 71.207509 
L 352.969788 106.551421 
L 353.566396 96.639602 
L 354.163005 99.50895 
L 354.759613 124.475951 
L 355.356221 125.092705 
L 355.952829 103.365038 
L 356.549437 103.010087 
L 357.146045 107.973068 
L 358.339261 55.146932 
L 358.935869 60.109913 
L 359.532478 59.754962 
L 360.129086 38.027295 
L 360.725694 38.644049 
L 361.322302 63.61105 
L 361.91891 66.480398 
L 362.515518 56.568579 
L 363.708734 91.912491 
L 364.305342 78.231334 
L 364.901951 68.049626 
L 365.498559 85.05303 
L 366.095167 88.676206 
L 366.691775 71.135198 
L 367.288383 78.005011 
L 367.884991 103.859591 
L 368.481599 104.387978 
L 369.078207 96.89205 
L 369.674815 116.688947 
L 370.271424 131.269091 
L 370.868032 112.131325 
L 371.46464 98.688181 
L 372.061248 106.714897 
L 372.657856 93.671432 
L 373.254464 60.923065 
L 373.851072 55.183762 
L 374.44768 64.849277 
L 375.640896 38.16973 
L 376.237505 58.806706 
L 376.834113 74.489873 
L 377.430721 62.917401 
L 378.027329 65.308745 
L 378.623937 87.613484 
L 379.220545 84.786598 
L 379.817153 64.994284 
L 380.413761 72.186491 
L 381.010369 86.937747 
L 381.606978 74.571744 
L 382.203586 68.114791 
L 382.800194 93.027384 
L 383.396802 107.708501 
L 383.99341 97.663866 
L 384.590018 105.541267 
L 385.186626 128.231397 
L 385.783234 120.493133 
L 386.379842 97.58664 
L 386.976451 99.62363 
L 387.573059 100.395271 
L 388.169667 71.636339 
L 388.766275 53.021422 
L 389.362883 64.678695 
L 389.959491 64.017006 
L 390.556099 46.199702 
L 391.152707 55.082332 
L 391.749315 79.437056 
L 392.345924 75.596802 
L 392.942532 64.928488 
L 393.53914 81.16961 
L 394.135748 90.457937 
L 394.732356 69.805012 
L 395.328964 62.070968 
L 395.925572 79.516245 
L 396.52218 78.648276 
L 397.118788 63.736831 
L 397.715396 78.287846 
L 398.312005 103.782918 
L 398.908613 100.379857 
L 399.505221 95.706 
L 400.101829 116.762207 
L 400.698437 123.733136 
L 401.295045 99.995637 
L 401.891653 90.289792 
L 402.488261 98.711984 
L 403.084869 82.597544 
L 403.681478 55.714756 
L 404.278086 60.620404 
L 404.874694 73.290325 
L 405.471302 60.353922 
L 406.06791 55.9871 
L 406.664518 80.440547 
L 407.261126 89.657308 
L 407.857734 73.651619 
L 408.454342 76.583604 
L 409.050951 92.764411 
L 409.647559 80.009444 
L 410.244167 59.308965 
L 411.437383 80.133449 
L 412.033991 65.612589 
L 412.630599 65.382873 
L 413.227207 92.805653 
L 413.823815 101.861339 
L 414.420424 90.346146 
L 415.017032 100.977667 
L 415.61364 118.811851 
L 416.210248 103.606274 
L 416.806856 82.691391 
L 417.403464 89.222417 
L 418.000072 88.567091 
L 418.59668 62.687047 
L 419.193288 55.974404 
L 419.789896 75.364987 
L 420.386505 75.548684 
L 420.983113 63.287261 
L 421.579721 79.276807 
L 422.176329 100.236987 
L 423.369545 77.77627 
L 423.966153 91.729102 
L 424.562761 91.166413 
L 425.159369 65.433132 
L 425.755978 60.981674 
L 426.352586 77.390665 
L 426.949194 71.451325 
L 427.545802 59.046143 
L 428.739018 99.104388 
L 429.335626 89.790277 
L 429.932234 86.459086 
L 430.528842 106.012681 
L 431.125451 104.705559 
L 431.722059 79.148789 
L 432.318667 75.713655 
L 432.915275 86.174646 
L 433.511883 70.707685 
L 433.511883 70.707685 
" style="fill:none;stroke:#1f77b4;stroke-linecap:square;stroke-width:1.5;"/>
   </g>
   <g id="patch_8">
    <path d="M 273.770062 136.24 
L 273.770062 26.88 
" style="fill:none;stroke:#000000;stroke-linecap:square;stroke-linejoin:miter;stroke-width:0.8;"/>
   </g>
   <g id="patch_9">
    <path d="M 441.118636 136.24 
L 441.118636 26.88 
" style="fill:none;stroke:#000000;stroke-linecap:square;stroke-linejoin:miter;stroke-width:0.8;"/>
   </g>
   <g id="patch_10">
    <path d="M 273.770062 136.24 
L 441.118636 136.24 
" style="fill:none;stroke:#000000;stroke-linecap:square;stroke-linejoin:miter;stroke-width:0.8;"/>
   </g>
   <g id="patch_11">
    <path d="M 273.770062 26.88 
L 441.118636 26.88 
" style="fill:none;stroke:#000000;stroke-linecap:square;stroke-linejoin:miter;stroke-width:0.8;"/>
   </g>
   <g id="text_22">
    <!-- Reconstructed Signal (k=4) -->
    <defs>
     <path d="M 37.796875 64.3125 
L 12.890625 25.390625 
L 37.796875 25.390625 
z
M 35.203125 72.90625 
L 47.609375 72.90625 
L 47.609375 25.390625 
L 58.015625 25.390625 
L 58.015625 17.1875 
L 47.609375 17.1875 
L 47.609375 0 
L 37.796875 0 
L 37.796875 17.1875 
L 4.890625 17.1875 
L 4.890625 26.703125 
z
" id="DejaVuSans-34"/>
    </defs>
    <g transform="translate(274.668724 20.88)scale(0.12 -0.12)">
     <use xlink:href="#DejaVuSans-52"/>
     <use x="69.419922" xlink:href="#DejaVuSans-65"/>
     <use x="130.943359" xlink:href="#DejaVuSans-63"/>
     <use x="185.923828" xlink:href="#DejaVuSans-6f"/>
     <use x="247.105469" xlink:href="#DejaVuSans-6e"/>
     <use x="310.484375" xlink:href="#DejaVuSans-73"/>
     <use x="362.583984" xlink:href="#DejaVuSans-74"/>
     <use x="401.792969" xlink:href="#DejaVuSans-72"/>
     <use x="442.90625" xlink:href="#DejaVuSans-75"/>
     <use x="506.285156" xlink:href="#DejaVuSans-63"/>
     <use x="561.265625" xlink:href="#DejaVuSans-74"/>
     <use x="600.474609" xlink:href="#DejaVuSans-65"/>
     <use x="661.998047" xlink:href="#DejaVuSans-64"/>
     <use x="725.474609" xlink:href="#DejaVuSans-20"/>
     <use x="757.261719" xlink:href="#DejaVuSans-53"/>
     <use x="820.738281" xlink:href="#DejaVuSans-69"/>
     <use x="848.521484" xlink:href="#DejaVuSans-67"/>
     <use x="911.998047" xlink:href="#DejaVuSans-6e"/>
     <use x="975.376953" xlink:href="#DejaVuSans-61"/>
     <use x="1036.65625" xlink:href="#DejaVuSans-6c"/>
     <use x="1064.439453" xlink:href="#DejaVuSans-20"/>
     <use x="1096.226562" xlink:href="#DejaVuSans-28"/>
     <use x="1135.240234" xlink:href="#DejaVuSans-6b"/>
     <use x="1193.150391" xlink:href="#DejaVuSans-3d"/>
     <use x="1276.939453" xlink:href="#DejaVuSans-34"/>
     <use x="1340.5625" xlink:href="#DejaVuSans-29"/>
    </g>
   </g>
  </g>
  <g id="axes_3">
   <g id="patch_12">
    <path d="M 56.09 303.64 
L 223.438574 303.64 
L 223.438574 194.28 
L 56.09 194.28 
z
" style="fill:#ffffff;"/>
   </g>
   <g id="matplotlib.axis_5">
    <g id="xtick_11">
     <g id="line2d_35">
      <path clip-path="url(#p76babbcce5)" d="M 63.696753 303.64 
L 63.696753 194.28 
" style="fill:none;stroke:#b0b0b0;stroke-linecap:square;stroke-width:0.8;"/>
     </g>
     <g id="line2d_36">
      <g>
       <use style="stroke:#000000;stroke-width:0.8;" x="63.696753" xlink:href="#m0da9e5a826" y="303.64"/>
      </g>
     </g>
     <g id="text_23">
      <!-- 0.00 -->
      <g transform="translate(52.563941 318.238438)scale(0.1 -0.1)">
       <use xlink:href="#DejaVuSans-30"/>
       <use x="63.623047" xlink:href="#DejaVuSans-2e"/>
       <use x="95.410156" xlink:href="#DejaVuSans-30"/>
       <use x="159.033203" xlink:href="#DejaVuSans-30"/>
      </g>
     </g>
    </g>
    <g id="xtick_12">
     <g id="line2d_37">
      <path clip-path="url(#p76babbcce5)" d="M 101.73052 303.64 
L 101.73052 194.28 
" style="fill:none;stroke:#b0b0b0;stroke-linecap:square;stroke-width:0.8;"/>
     </g>
     <g id="line2d_38">
      <g>
       <use style="stroke:#000000;stroke-width:0.8;" x="101.73052" xlink:href="#m0da9e5a826" y="303.64"/>
      </g>
     </g>
     <g id="text_24">
      <!-- 0.25 -->
      <g transform="translate(90.597708 318.238438)scale(0.1 -0.1)">
       <use xlink:href="#DejaVuSans-30"/>
       <use x="63.623047" xlink:href="#DejaVuSans-2e"/>
       <use x="95.410156" xlink:href="#DejaVuSans-32"/>
       <use x="159.033203" xlink:href="#DejaVuSans-35"/>
      </g>
     </g>
    </g>
    <g id="xtick_13">
     <g id="line2d_39">
      <path clip-path="url(#p76babbcce5)" d="M 139.764287 303.64 
L 139.764287 194.28 
" style="fill:none;stroke:#b0b0b0;stroke-linecap:square;stroke-width:0.8;"/>
     </g>
     <g id="line2d_40">
      <g>
       <use style="stroke:#000000;stroke-width:0.8;" x="139.764287" xlink:href="#m0da9e5a826" y="303.64"/>
      </g>
     </g>
     <g id="text_25">
      <!-- 0.50 -->
      <g transform="translate(128.631475 318.238438)scale(0.1 -0.1)">
       <use xlink:href="#DejaVuSans-30"/>
       <use x="63.623047" xlink:href="#DejaVuSans-2e"/>
       <use x="95.410156" xlink:href="#DejaVuSans-35"/>
       <use x="159.033203" xlink:href="#DejaVuSans-30"/>
      </g>
     </g>
    </g>
    <g id="xtick_14">
     <g id="line2d_41">
      <path clip-path="url(#p76babbcce5)" d="M 177.798054 303.64 
L 177.798054 194.28 
" style="fill:none;stroke:#b0b0b0;stroke-linecap:square;stroke-width:0.8;"/>
     </g>
     <g id="line2d_42">
      <g>
       <use style="stroke:#000000;stroke-width:0.8;" x="177.798054" xlink:href="#m0da9e5a826" y="303.64"/>
      </g>
     </g>
     <g id="text_26">
      <!-- 0.75 -->
      <g transform="translate(166.665242 318.238438)scale(0.1 -0.1)">
       <use xlink:href="#DejaVuSans-30"/>
       <use x="63.623047" xlink:href="#DejaVuSans-2e"/>
       <use x="95.410156" xlink:href="#DejaVuSans-37"/>
       <use x="159.033203" xlink:href="#DejaVuSans-35"/>
      </g>
     </g>
    </g>
    <g id="xtick_15">
     <g id="line2d_43">
      <path clip-path="url(#p76babbcce5)" d="M 215.831821 303.64 
L 215.831821 194.28 
" style="fill:none;stroke:#b0b0b0;stroke-linecap:square;stroke-width:0.8;"/>
     </g>
     <g id="line2d_44">
      <g>
       <use style="stroke:#000000;stroke-width:0.8;" x="215.831821" xlink:href="#m0da9e5a826" y="303.64"/>
      </g>
     </g>
     <g id="text_27">
      <!-- 1.00 -->
      <g transform="translate(204.699008 318.238438)scale(0.1 -0.1)">
       <use xlink:href="#DejaVuSans-31"/>
       <use x="63.623047" xlink:href="#DejaVuSans-2e"/>
       <use x="95.410156" xlink:href="#DejaVuSans-30"/>
       <use x="159.033203" xlink:href="#DejaVuSans-30"/>
      </g>
     </g>
    </g>
    <g id="text_28">
     <!-- Time/s -->
     <g transform="translate(123.087725 331.916562)scale(0.1 -0.1)">
      <use xlink:href="#DejaVuSans-54"/>
      <use x="61.037109" xlink:href="#DejaVuSans-69"/>
      <use x="88.820312" xlink:href="#DejaVuSans-6d"/>
      <use x="186.232422" xlink:href="#DejaVuSans-65"/>
      <use x="247.755859" xlink:href="#DejaVuSans-2f"/>
      <use x="281.447266" xlink:href="#DejaVuSans-73"/>
     </g>
    </g>
   </g>
   <g id="matplotlib.axis_6">
    <g id="ytick_7">
     <g id="line2d_45">
      <path clip-path="url(#p76babbcce5)" d="M 56.09 288.030831 
L 223.438574 288.030831 
" style="fill:none;stroke:#b0b0b0;stroke-linecap:square;stroke-width:0.8;"/>
     </g>
     <g id="line2d_46">
      <g>
       <use style="stroke:#000000;stroke-width:0.8;" x="56.09" xlink:href="#mfa579671e8" y="288.030831"/>
      </g>
     </g>
     <g id="text_29">
      <!-- −2 -->
      <g transform="translate(34.347813 291.83005)scale(0.1 -0.1)">
       <use xlink:href="#DejaVuSans-2212"/>
       <use x="83.789062" xlink:href="#DejaVuSans-32"/>
      </g>
     </g>
    </g>
    <g id="ytick_8">
     <g id="line2d_47">
      <path clip-path="url(#p76babbcce5)" d="M 56.09 248.96 
L 223.438574 248.96 
" style="fill:none;stroke:#b0b0b0;stroke-linecap:square;stroke-width:0.8;"/>
     </g>
     <g id="line2d_48">
      <g>
       <use style="stroke:#000000;stroke-width:0.8;" x="56.09" xlink:href="#mfa579671e8" y="248.96"/>
      </g>
     </g>
     <g id="text_30">
      <!-- 0 -->
      <g transform="translate(42.7275 252.759219)scale(0.1 -0.1)">
       <use xlink:href="#DejaVuSans-30"/>
      </g>
     </g>
    </g>
    <g id="ytick_9">
     <g id="line2d_49">
      <path clip-path="url(#p76babbcce5)" d="M 56.09 209.889169 
L 223.438574 209.889169 
" style="fill:none;stroke:#b0b0b0;stroke-linecap:square;stroke-width:0.8;"/>
     </g>
     <g id="line2d_50">
      <g>
       <use style="stroke:#000000;stroke-width:0.8;" x="56.09" xlink:href="#mfa579671e8" y="209.889169"/>
      </g>
     </g>
     <g id="text_31">
      <!-- 2 -->
      <g transform="translate(42.7275 213.688388)scale(0.1 -0.1)">
       <use xlink:href="#DejaVuSans-32"/>
      </g>
     </g>
    </g>
    <g id="text_32">
     <!-- Amplitude -->
     <g transform="translate(28.268125 274.582656)rotate(-90)scale(0.1 -0.1)">
      <use xlink:href="#DejaVuSans-41"/>
      <use x="68.408203" xlink:href="#DejaVuSans-6d"/>
      <use x="165.820312" xlink:href="#DejaVuSans-70"/>
      <use x="229.296875" xlink:href="#DejaVuSans-6c"/>
      <use x="257.080078" xlink:href="#DejaVuSans-69"/>
      <use x="284.863281" xlink:href="#DejaVuSans-74"/>
      <use x="324.072266" xlink:href="#DejaVuSans-75"/>
      <use x="387.451172" xlink:href="#DejaVuSans-64"/>
      <use x="450.927734" xlink:href="#DejaVuSans-65"/>
     </g>
    </g>
   </g>
   <g id="line2d_51">
    <path clip-path="url(#p76babbcce5)" d="M 63.696753 256.083619 
L 64.293361 244.931253 
L 64.88997 234.189378 
L 65.486578 248.716021 
L 66.083186 250.988634 
L 66.679794 232.380429 
L 67.276402 234.484553 
L 67.87301 253.633608 
L 68.469618 249.639422 
L 69.066226 238.408973 
L 70.259443 267.901765 
L 70.856051 253.952714 
L 71.452659 247.661942 
L 72.049267 263.881453 
L 72.645875 262.793019 
L 73.242483 243.359335 
L 73.839091 247.216 
L 74.435699 263.550623 
L 75.032307 255.014451 
L 75.628916 244.324595 
L 76.225524 260.767789 
L 76.822132 270.770744 
L 77.41874 253.841018 
L 78.015348 248.370681 
L 78.611956 261.631948 
L 79.208564 252.915032 
L 79.805172 228.993674 
L 80.40178 230.478959 
L 80.998389 240.263156 
L 81.594997 225.677667 
L 82.191605 216.067402 
L 82.788213 235.536355 
L 83.384821 246.54676 
L 83.981429 235.210514 
L 84.578037 240.99942 
L 85.174645 262.616492 
L 85.771253 258.840092 
L 86.367861 242.914729 
L 87.561078 262.389344 
L 88.157686 246.692281 
L 88.754294 239.731161 
L 89.350902 259.821327 
L 89.94751 267.205449 
L 90.544118 255.67586 
L 91.140726 265.037762 
L 91.737334 285.913084 
L 92.333943 278.197017 
L 92.930551 261.195253 
L 93.527159 267.268573 
L 94.123767 266.909703 
L 94.720375 239.005547 
L 95.316983 223.115651 
L 95.913591 231.918469 
L 96.510199 225.861415 
L 97.106807 207.881427 
L 97.703416 217.988017 
L 98.300024 239.971268 
L 98.896632 236.622838 
L 99.49324 232.4235 
L 100.089848 252.921055 
L 100.686456 262.248009 
L 101.283064 244.383129 
L 101.879672 240.250538 
L 102.47628 254.641249 
L 103.072889 248.193408 
L 103.669497 232.17899 
L 104.266105 245.427127 
L 104.862713 265.991359 
L 105.459321 261.740766 
L 106.055929 262.544537 
L 106.652537 287.181579 
L 107.249145 295.231009 
L 107.845753 276.522086 
L 108.442362 271.863604 
L 109.03897 277.758676 
L 109.635578 256.221245 
L 110.232186 226.658053 
L 110.828794 226.073459 
L 111.425402 228.71951 
L 112.02201 210.240419 
L 112.618618 206.673615 
L 113.215226 231.031303 
L 113.811834 240.842762 
L 114.408443 232.485594 
L 115.005051 244.691213 
L 115.601659 264.291736 
L 116.198267 253.737851 
L 116.794875 237.310527 
L 117.391483 246.365598 
L 117.988091 250.08438 
L 118.584699 231.31259 
L 119.181307 230.535921 
L 119.777916 254.920096 
L 120.374524 262.400783 
L 120.971132 257.392343 
L 122.164348 298.669091 
L 122.760956 288.312946 
L 123.357564 273.899985 
L 123.954172 279.740841 
L 124.55078 270.540582 
L 125.147389 236.681492 
L 125.743997 221.961601 
L 126.340605 228.324526 
L 126.937213 217.024292 
L 127.533821 202.28809 
L 128.130429 219.574846 
L 128.727037 241.789835 
L 129.323645 238.096937 
L 129.920253 240.017793 
L 130.516862 262.926076 
L 131.11347 266.191879 
L 131.710078 245.33264 
L 132.306686 243.019472 
L 132.903294 253.202765 
L 134.09651 225.142977 
L 135.289726 260.547571 
L 135.886334 255.728817 
L 136.482943 263.307978 
L 137.079551 290.756006 
L 137.676159 294.541005 
L 138.272767 275.890841 
L 138.869375 274.743808 
L 139.465983 276.728999 
L 140.659199 221.191001 
L 141.255807 223.176192 
L 141.852416 222.029159 
L 142.449024 203.378995 
L 143.045632 207.163994 
L 143.64224 234.612022 
L 144.238848 242.191183 
L 144.835456 237.372429 
L 146.028672 272.777023 
L 147.221889 244.717235 
L 147.818497 254.900528 
L 148.415105 252.58736 
L 149.011713 231.728121 
L 149.608321 234.993924 
L 150.204929 257.902207 
L 150.801537 259.823063 
L 151.398145 256.130165 
L 151.994753 278.345154 
L 152.591362 295.63191 
L 153.18797 280.895708 
L 153.784578 269.595474 
L 154.381186 275.958399 
L 154.977794 261.238508 
L 155.574402 227.379418 
L 156.17101 218.179159 
L 156.767618 224.020015 
L 157.364226 209.607054 
L 157.960834 199.250909 
L 159.154051 240.527657 
L 159.750659 235.519217 
L 160.347267 242.999904 
L 160.943875 267.384079 
L 161.540483 266.60741 
L 162.137091 247.83562 
L 162.733699 251.554402 
L 163.330307 260.609473 
L 163.926916 244.182149 
L 164.523524 233.628264 
L 165.120132 253.228787 
L 165.71674 265.434406 
L 166.313348 257.077238 
L 166.909956 266.888697 
L 167.506564 291.246385 
L 168.103172 287.679581 
L 168.69978 269.20049 
L 169.296389 271.846541 
L 169.892997 271.261947 
L 170.489605 241.698755 
L 171.086213 220.161324 
L 171.682821 226.056396 
L 172.279429 221.397914 
L 172.876037 202.688991 
L 173.472645 210.738421 
L 174.069253 235.375463 
L 174.665862 236.179234 
L 175.26247 231.928641 
L 175.859078 252.492873 
L 176.455686 265.74101 
L 177.052294 249.726592 
L 177.648902 243.278751 
L 178.24551 257.669462 
L 178.842118 253.536871 
L 179.438726 235.671991 
L 180.035335 244.998945 
L 180.631943 265.4965 
L 181.228551 261.297162 
L 181.825159 257.948732 
L 182.421767 279.931983 
L 183.018375 290.038573 
L 183.614983 272.058585 
L 184.211591 266.001531 
L 184.808199 274.804349 
L 185.404807 258.914453 
L 186.001416 231.010297 
L 186.598024 230.651427 
L 187.194632 236.724747 
L 187.79124 219.722983 
L 188.387848 212.006916 
L 188.984456 232.882238 
L 189.581064 242.24414 
L 190.177672 230.714551 
L 190.77428 238.098673 
L 191.370889 258.188839 
L 191.967497 251.227719 
L 192.564105 235.530656 
L 193.757321 255.005271 
L 194.353929 239.079908 
L 194.950537 235.303508 
L 195.547145 256.92058 
L 196.143753 262.709486 
L 196.740362 251.37324 
L 197.33697 262.383645 
L 197.933578 281.852598 
L 198.530186 272.242333 
L 199.126794 257.656844 
L 199.723402 267.441041 
L 200.32001 268.926326 
L 200.916618 245.004968 
L 201.513226 236.288052 
L 202.109835 249.549319 
L 202.706443 244.078982 
L 203.303051 227.149256 
L 203.899659 237.152211 
L 204.496267 253.595405 
L 205.092875 242.905549 
L 205.689483 234.369377 
L 206.286091 250.704 
L 206.882699 254.560665 
L 207.479307 235.126981 
L 208.075916 234.038547 
L 208.672524 250.258058 
L 209.269132 243.967286 
L 209.86574 230.018235 
L 211.058956 259.511027 
L 211.655564 248.280578 
L 212.252172 244.286392 
L 212.84878 263.435447 
L 213.445389 265.539571 
L 214.041997 246.931366 
L 214.638605 249.203979 
L 215.235213 263.730622 
L 215.831821 252.988747 
L 215.831821 252.988747 
" style="fill:none;stroke:#1f77b4;stroke-linecap:square;stroke-width:1.5;"/>
   </g>
   <g id="patch_13">
    <path d="M 56.09 303.64 
L 56.09 194.28 
" style="fill:none;stroke:#000000;stroke-linecap:square;stroke-linejoin:miter;stroke-width:0.8;"/>
   </g>
   <g id="patch_14">
    <path d="M 223.438574 303.64 
L 223.438574 194.28 
" style="fill:none;stroke:#000000;stroke-linecap:square;stroke-linejoin:miter;stroke-width:0.8;"/>
   </g>
   <g id="patch_15">
    <path d="M 56.09 303.64 
L 223.438574 303.64 
" style="fill:none;stroke:#000000;stroke-linecap:square;stroke-linejoin:miter;stroke-width:0.8;"/>
   </g>
   <g id="patch_16">
    <path d="M 56.09 194.28 
L 223.438574 194.28 
" style="fill:none;stroke:#000000;stroke-linecap:square;stroke-linejoin:miter;stroke-width:0.8;"/>
   </g>
   <g id="text_33">
    <!-- Reconstructed Signal (k=6) -->
    <defs>
     <path d="M 33.015625 40.375 
Q 26.375 40.375 22.484375 35.828125 
Q 18.609375 31.296875 18.609375 23.390625 
Q 18.609375 15.53125 22.484375 10.953125 
Q 26.375 6.390625 33.015625 6.390625 
Q 39.65625 6.390625 43.53125 10.953125 
Q 47.40625 15.53125 47.40625 23.390625 
Q 47.40625 31.296875 43.53125 35.828125 
Q 39.65625 40.375 33.015625 40.375 
M 52.59375 71.296875 
L 52.59375 62.3125 
Q 48.875 64.0625 45.09375 64.984375 
Q 41.3125 65.921875 37.59375 65.921875 
Q 27.828125 65.921875 22.671875 59.328125 
Q 17.53125 52.734375 16.796875 39.40625 
Q 19.671875 43.65625 24.015625 45.921875 
Q 28.375 48.1875 33.59375 48.1875 
Q 44.578125 48.1875 50.953125 41.515625 
Q 57.328125 34.859375 57.328125 23.390625 
Q 57.328125 12.15625 50.6875 5.359375 
Q 44.046875 -1.421875 33.015625 -1.421875 
Q 20.359375 -1.421875 13.671875 8.265625 
Q 6.984375 17.96875 6.984375 36.375 
Q 6.984375 53.65625 15.1875 63.9375 
Q 23.390625 74.21875 37.203125 74.21875 
Q 40.921875 74.21875 44.703125 73.484375 
Q 48.484375 72.75 52.59375 71.296875 
" id="DejaVuSans-36"/>
    </defs>
    <g transform="translate(56.988662 188.28)scale(0.12 -0.12)">
     <use xlink:href="#DejaVuSans-52"/>
     <use x="69.419922" xlink:href="#DejaVuSans-65"/>
     <use x="130.943359" xlink:href="#DejaVuSans-63"/>
     <use x="185.923828" xlink:href="#DejaVuSans-6f"/>
     <use x="247.105469" xlink:href="#DejaVuSans-6e"/>
     <use x="310.484375" xlink:href="#DejaVuSans-73"/>
     <use x="362.583984" xlink:href="#DejaVuSans-74"/>
     <use x="401.792969" xlink:href="#DejaVuSans-72"/>
     <use x="442.90625" xlink:href="#DejaVuSans-75"/>
     <use x="506.285156" xlink:href="#DejaVuSans-63"/>
     <use x="561.265625" xlink:href="#DejaVuSans-74"/>
     <use x="600.474609" xlink:href="#DejaVuSans-65"/>
     <use x="661.998047" xlink:href="#DejaVuSans-64"/>
     <use x="725.474609" xlink:href="#DejaVuSans-20"/>
     <use x="757.261719" xlink:href="#DejaVuSans-53"/>
     <use x="820.738281" xlink:href="#DejaVuSans-69"/>
     <use x="848.521484" xlink:href="#DejaVuSans-67"/>
     <use x="911.998047" xlink:href="#DejaVuSans-6e"/>
     <use x="975.376953" xlink:href="#DejaVuSans-61"/>
     <use x="1036.65625" xlink:href="#DejaVuSans-6c"/>
     <use x="1064.439453" xlink:href="#DejaVuSans-20"/>
     <use x="1096.226562" xlink:href="#DejaVuSans-28"/>
     <use x="1135.240234" xlink:href="#DejaVuSans-6b"/>
     <use x="1193.150391" xlink:href="#DejaVuSans-3d"/>
     <use x="1276.939453" xlink:href="#DejaVuSans-36"/>
     <use x="1340.5625" xlink:href="#DejaVuSans-29"/>
    </g>
   </g>
  </g>
  <g id="axes_4">
   <g id="patch_17">
    <path d="M 273.770062 303.64 
L 441.118636 303.64 
L 441.118636 194.28 
L 273.770062 194.28 
z
" style="fill:#ffffff;"/>
   </g>
   <g id="matplotlib.axis_7">
    <g id="xtick_16">
     <g id="line2d_52">
      <path clip-path="url(#p6828769886)" d="M 281.376815 303.64 
L 281.376815 194.28 
" style="fill:none;stroke:#b0b0b0;stroke-linecap:square;stroke-width:0.8;"/>
     </g>
     <g id="line2d_53">
      <g>
       <use style="stroke:#000000;stroke-width:0.8;" x="281.376815" xlink:href="#m0da9e5a826" y="303.64"/>
      </g>
     </g>
     <g id="text_34">
      <!-- 0.00 -->
      <g transform="translate(270.244003 318.238438)scale(0.1 -0.1)">
       <use xlink:href="#DejaVuSans-30"/>
       <use x="63.623047" xlink:href="#DejaVuSans-2e"/>
       <use x="95.410156" xlink:href="#DejaVuSans-30"/>
       <use x="159.033203" xlink:href="#DejaVuSans-30"/>
      </g>
     </g>
    </g>
    <g id="xtick_17">
     <g id="line2d_54">
      <path clip-path="url(#p6828769886)" d="M 319.410582 303.64 
L 319.410582 194.28 
" style="fill:none;stroke:#b0b0b0;stroke-linecap:square;stroke-width:0.8;"/>
     </g>
     <g id="line2d_55">
      <g>
       <use style="stroke:#000000;stroke-width:0.8;" x="319.410582" xlink:href="#m0da9e5a826" y="303.64"/>
      </g>
     </g>
     <g id="text_35">
      <!-- 0.25 -->
      <g transform="translate(308.27777 318.238438)scale(0.1 -0.1)">
       <use xlink:href="#DejaVuSans-30"/>
       <use x="63.623047" xlink:href="#DejaVuSans-2e"/>
       <use x="95.410156" xlink:href="#DejaVuSans-32"/>
       <use x="159.033203" xlink:href="#DejaVuSans-35"/>
      </g>
     </g>
    </g>
    <g id="xtick_18">
     <g id="line2d_56">
      <path clip-path="url(#p6828769886)" d="M 357.444349 303.64 
L 357.444349 194.28 
" style="fill:none;stroke:#b0b0b0;stroke-linecap:square;stroke-width:0.8;"/>
     </g>
     <g id="line2d_57">
      <g>
       <use style="stroke:#000000;stroke-width:0.8;" x="357.444349" xlink:href="#m0da9e5a826" y="303.64"/>
      </g>
     </g>
     <g id="text_36">
      <!-- 0.50 -->
      <g transform="translate(346.311537 318.238438)scale(0.1 -0.1)">
       <use xlink:href="#DejaVuSans-30"/>
       <use x="63.623047" xlink:href="#DejaVuSans-2e"/>
       <use x="95.410156" xlink:href="#DejaVuSans-35"/>
       <use x="159.033203" xlink:href="#DejaVuSans-30"/>
      </g>
     </g>
    </g>
    <g id="xtick_19">
     <g id="line2d_58">
      <path clip-path="url(#p6828769886)" d="M 395.478116 303.64 
L 395.478116 194.28 
" style="fill:none;stroke:#b0b0b0;stroke-linecap:square;stroke-width:0.8;"/>
     </g>
     <g id="line2d_59">
      <g>
       <use style="stroke:#000000;stroke-width:0.8;" x="395.478116" xlink:href="#m0da9e5a826" y="303.64"/>
      </g>
     </g>
     <g id="text_37">
      <!-- 0.75 -->
      <g transform="translate(384.345304 318.238438)scale(0.1 -0.1)">
       <use xlink:href="#DejaVuSans-30"/>
       <use x="63.623047" xlink:href="#DejaVuSans-2e"/>
       <use x="95.410156" xlink:href="#DejaVuSans-37"/>
       <use x="159.033203" xlink:href="#DejaVuSans-35"/>
      </g>
     </g>
    </g>
    <g id="xtick_20">
     <g id="line2d_60">
      <path clip-path="url(#p6828769886)" d="M 433.511883 303.64 
L 433.511883 194.28 
" style="fill:none;stroke:#b0b0b0;stroke-linecap:square;stroke-width:0.8;"/>
     </g>
     <g id="line2d_61">
      <g>
       <use style="stroke:#000000;stroke-width:0.8;" x="433.511883" xlink:href="#m0da9e5a826" y="303.64"/>
      </g>
     </g>
     <g id="text_38">
      <!-- 1.00 -->
      <g transform="translate(422.37907 318.238438)scale(0.1 -0.1)">
       <use xlink:href="#DejaVuSans-31"/>
       <use x="63.623047" xlink:href="#DejaVuSans-2e"/>
       <use x="95.410156" xlink:href="#DejaVuSans-30"/>
       <use x="159.033203" xlink:href="#DejaVuSans-30"/>
      </g>
     </g>
    </g>
    <g id="text_39">
     <!-- Time/s -->
     <g transform="translate(340.767787 331.916562)scale(0.1 -0.1)">
      <use xlink:href="#DejaVuSans-54"/>
      <use x="61.037109" xlink:href="#DejaVuSans-69"/>
      <use x="88.820312" xlink:href="#DejaVuSans-6d"/>
      <use x="186.232422" xlink:href="#DejaVuSans-65"/>
      <use x="247.755859" xlink:href="#DejaVuSans-2f"/>
      <use x="281.447266" xlink:href="#DejaVuSans-73"/>
     </g>
    </g>
   </g>
   <g id="matplotlib.axis_8">
    <g id="ytick_10">
     <g id="line2d_62">
      <path clip-path="url(#p6828769886)" d="M 273.770062 291.884021 
L 441.118636 291.884021 
" style="fill:none;stroke:#b0b0b0;stroke-linecap:square;stroke-width:0.8;"/>
     </g>
     <g id="line2d_63">
      <g>
       <use style="stroke:#000000;stroke-width:0.8;" x="273.770062" xlink:href="#mfa579671e8" y="291.884021"/>
      </g>
     </g>
     <g id="text_40">
      <!-- −2 -->
      <g transform="translate(252.027874 295.683239)scale(0.1 -0.1)">
       <use xlink:href="#DejaVuSans-2212"/>
       <use x="83.789062" xlink:href="#DejaVuSans-32"/>
      </g>
     </g>
    </g>
    <g id="ytick_11">
     <g id="line2d_64">
      <path clip-path="url(#p6828769886)" d="M 273.770062 248.96 
L 441.118636 248.96 
" style="fill:none;stroke:#b0b0b0;stroke-linecap:square;stroke-width:0.8;"/>
     </g>
     <g id="line2d_65">
      <g>
       <use style="stroke:#000000;stroke-width:0.8;" x="273.770062" xlink:href="#mfa579671e8" y="248.96"/>
      </g>
     </g>
     <g id="text_41">
      <!-- 0 -->
      <g transform="translate(260.407562 252.759219)scale(0.1 -0.1)">
       <use xlink:href="#DejaVuSans-30"/>
      </g>
     </g>
    </g>
    <g id="ytick_12">
     <g id="line2d_66">
      <path clip-path="url(#p6828769886)" d="M 273.770062 206.035979 
L 441.118636 206.035979 
" style="fill:none;stroke:#b0b0b0;stroke-linecap:square;stroke-width:0.8;"/>
     </g>
     <g id="line2d_67">
      <g>
       <use style="stroke:#000000;stroke-width:0.8;" x="273.770062" xlink:href="#mfa579671e8" y="206.035979"/>
      </g>
     </g>
     <g id="text_42">
      <!-- 2 -->
      <g transform="translate(260.407562 209.835198)scale(0.1 -0.1)">
       <use xlink:href="#DejaVuSans-32"/>
      </g>
     </g>
    </g>
    <g id="text_43">
     <!-- Amplitude -->
     <g transform="translate(245.948187 274.582656)rotate(-90)scale(0.1 -0.1)">
      <use xlink:href="#DejaVuSans-41"/>
      <use x="68.408203" xlink:href="#DejaVuSans-6d"/>
      <use x="165.820312" xlink:href="#DejaVuSans-70"/>
      <use x="229.296875" xlink:href="#DejaVuSans-6c"/>
      <use x="257.080078" xlink:href="#DejaVuSans-69"/>
      <use x="284.863281" xlink:href="#DejaVuSans-74"/>
      <use x="324.072266" xlink:href="#DejaVuSans-75"/>
      <use x="387.451172" xlink:href="#DejaVuSans-64"/>
      <use x="450.927734" xlink:href="#DejaVuSans-65"/>
     </g>
    </g>
   </g>
   <g id="line2d_68">
    <path clip-path="url(#p6828769886)" d="M 281.376815 248.700164 
L 281.973423 230.829796 
L 282.570032 219.785257 
L 283.16664 229.893721 
L 284.359856 199.250909 
L 285.553072 242.436621 
L 286.14968 234.482067 
L 286.746288 236.406845 
L 287.342896 263.207135 
L 287.939505 265.869564 
L 288.536113 242.797266 
L 289.132721 244.437119 
L 289.729329 258.734623 
L 290.922545 228.079729 
L 292.115761 266.855444 
L 292.712369 257.037524 
L 293.308978 262.84773 
L 293.905586 292.158375 
L 294.502194 293.921883 
L 295.098802 271.588599 
L 295.69541 272.10544 
L 296.292018 277.791239 
L 297.485234 220.101445 
L 298.081842 225.825787 
L 298.678451 226.353007 
L 299.275059 203.960433 
L 299.871667 205.790728 
L 300.468275 235.046633 
L 301.064883 240.887143 
L 301.661491 231.106045 
L 302.854707 269.876414 
L 304.047923 239.178068 
L 304.644532 253.550422 
L 305.24114 255.057149 
L 305.837748 232.119653 
L 306.434356 234.64608 
L 307.030964 261.491594 
L 307.627572 263.529855 
L 308.22418 255.37041 
L 309.417396 298.499991 
L 310.610613 268.014421 
L 311.207221 278.07011 
L 311.803829 267.282775 
L 312.400437 230.644776 
L 312.997045 219.883226 
L 313.593653 229.837041 
L 314.786869 199.409183 
L 315.980086 242.597145 
L 316.576694 234.332773 
L 317.173302 236.445457 
L 317.76991 263.24086 
L 318.366518 265.811719 
L 318.963126 242.917527 
L 319.559734 244.328767 
L 320.156342 258.768305 
L 321.349559 228.043652 
L 322.542775 266.786476 
L 323.139383 257.078768 
L 323.735991 262.814871 
L 324.332599 292.119397 
L 324.929207 293.993464 
L 325.525815 271.54246 
L 326.122423 272.162823 
L 326.719032 277.762186 
L 327.912248 220.141819 
L 328.508856 225.780438 
L 329.105464 226.418294 
L 329.702072 203.947087 
L 330.29868 205.766727 
L 330.895288 235.06701 
L 331.491896 240.830144 
L 332.088505 231.161705 
L 333.281721 269.876268 
L 334.474937 239.114786 
L 335.071545 253.585632 
L 335.668153 255.045471 
L 336.264761 232.136027 
L 336.861369 234.678955 
L 337.457978 261.43876 
L 338.054586 263.550527 
L 338.651194 255.339168 
L 339.84441 298.541374 
L 341.037626 268.038484 
L 341.634234 278.024063 
L 342.230842 267.28129 
L 342.827451 230.677476 
L 343.424059 219.87123 
L 344.020667 229.878886 
L 345.213883 199.394524 
L 346.407099 242.585013 
L 347.003707 234.390165 
L 347.600315 236.422174 
L 348.196923 263.230812 
L 348.793532 265.799553 
L 349.39014 242.887963 
L 349.986748 244.383707 
L 350.583356 258.764266 
L 351.776572 228.02818 
L 352.969788 266.819846 
L 353.566396 257.076316 
L 354.163005 262.851837 
L 354.759613 292.121088 
L 355.356221 293.944045 
L 355.952829 271.550528 
L 356.549437 272.140722 
L 357.146045 277.806749 
L 358.339261 220.113251 
L 358.935869 225.779278 
L 359.532478 226.369472 
L 360.129086 203.975955 
L 360.725694 205.798912 
L 361.322302 235.068163 
L 361.91891 240.843684 
L 362.515518 231.100154 
L 363.708734 269.89182 
L 364.901951 239.155734 
L 365.498559 253.536293 
L 366.095167 255.032037 
L 366.691775 232.120447 
L 367.288383 234.689188 
L 367.884991 261.497826 
L 368.481599 263.529835 
L 369.078207 255.334987 
L 370.271424 298.525476 
L 371.46464 268.041114 
L 372.061248 278.04877 
L 372.657856 267.242524 
L 373.254464 230.63871 
L 373.851072 219.895937 
L 374.44768 229.881516 
L 375.640896 199.378626 
L 376.834113 242.580832 
L 377.430721 234.369473 
L 378.027329 236.48124 
L 378.623937 263.241045 
L 379.220545 265.783973 
L 379.817153 242.874529 
L 380.413761 244.334368 
L 381.010369 258.805214 
L 382.203586 228.043732 
L 383.396802 266.758295 
L 383.99341 257.089856 
L 384.590018 262.85299 
L 385.186626 292.153273 
L 385.783234 293.972913 
L 386.379842 271.501706 
L 386.976451 272.139562 
L 387.573059 277.778181 
L 388.766275 220.157814 
L 389.362883 225.757177 
L 389.959491 226.37754 
L 390.556099 203.926536 
L 391.152707 205.800603 
L 391.749315 235.105129 
L 392.345924 240.841232 
L 392.942532 231.133524 
L 394.135748 269.876348 
L 395.328964 239.151695 
L 395.925572 253.591233 
L 396.52218 255.002473 
L 397.118788 232.108281 
L 397.715396 234.67914 
L 398.312005 261.474543 
L 398.908613 263.587227 
L 399.505221 255.322855 
L 400.698437 298.510817 
L 401.891653 268.082959 
L 402.488261 278.036774 
L 403.084869 267.275224 
L 403.681478 230.637225 
L 404.278086 219.84989 
L 404.874694 229.905579 
L 406.06791 199.420009 
L 407.261126 242.54959 
L 407.857734 234.390145 
L 408.454342 236.428406 
L 409.050951 263.27392 
L 409.647559 265.800347 
L 410.244167 242.862851 
L 410.840775 244.369578 
L 411.437383 258.741932 
L 412.630599 228.043586 
L 413.823815 266.813955 
L 414.420424 257.032857 
L 415.017032 262.873367 
L 415.61364 292.129272 
L 416.210248 293.959567 
L 416.806856 271.566993 
L 417.403464 272.094213 
L 418.000072 277.818555 
L 419.193288 220.128761 
L 419.789896 225.81456 
L 420.386505 226.331401 
L 420.983113 203.998117 
L 421.579721 205.761625 
L 422.176329 235.07227 
L 422.772937 240.882476 
L 423.369545 231.064556 
L 424.562761 269.840271 
L 425.755978 239.185377 
L 426.352586 253.482881 
L 426.949194 255.122734 
L 427.545802 232.050436 
L 428.14241 234.712865 
L 428.739018 261.513155 
L 429.335626 263.437933 
L 429.932234 255.483379 
L 431.125451 298.669091 
L 432.318667 268.026279 
L 432.915275 278.134743 
L 433.511883 267.090204 
L 433.511883 267.090204 
" style="fill:none;stroke:#1f77b4;stroke-linecap:square;stroke-width:1.5;"/>
   </g>
   <g id="patch_18">
    <path d="M 273.770062 303.64 
L 273.770062 194.28 
" style="fill:none;stroke:#000000;stroke-linecap:square;stroke-linejoin:miter;stroke-width:0.8;"/>
   </g>
   <g id="patch_19">
    <path d="M 441.118636 303.64 
L 441.118636 194.28 
" style="fill:none;stroke:#000000;stroke-linecap:square;stroke-linejoin:miter;stroke-width:0.8;"/>
   </g>
   <g id="patch_20">
    <path d="M 273.770062 303.64 
L 441.118636 303.64 
" style="fill:none;stroke:#000000;stroke-linecap:square;stroke-linejoin:miter;stroke-width:0.8;"/>
   </g>
   <g id="patch_21">
    <path d="M 273.770062 194.28 
L 441.118636 194.28 
" style="fill:none;stroke:#000000;stroke-linecap:square;stroke-linejoin:miter;stroke-width:0.8;"/>
   </g>
   <g id="text_44">
    <!-- Reconstructed Signal (k=100) -->
    <g transform="translate(267.033724 188.28)scale(0.12 -0.12)">
     <use xlink:href="#DejaVuSans-52"/>
     <use x="69.419922" xlink:href="#DejaVuSans-65"/>
     <use x="130.943359" xlink:href="#DejaVuSans-63"/>
     <use x="185.923828" xlink:href="#DejaVuSans-6f"/>
     <use x="247.105469" xlink:href="#DejaVuSans-6e"/>
     <use x="310.484375" xlink:href="#DejaVuSans-73"/>
     <use x="362.583984" xlink:href="#DejaVuSans-74"/>
     <use x="401.792969" xlink:href="#DejaVuSans-72"/>
     <use x="442.90625" xlink:href="#DejaVuSans-75"/>
     <use x="506.285156" xlink:href="#DejaVuSans-63"/>
     <use x="561.265625" xlink:href="#DejaVuSans-74"/>
     <use x="600.474609" xlink:href="#DejaVuSans-65"/>
     <use x="661.998047" xlink:href="#DejaVuSans-64"/>
     <use x="725.474609" xlink:href="#DejaVuSans-20"/>
     <use x="757.261719" xlink:href="#DejaVuSans-53"/>
     <use x="820.738281" xlink:href="#DejaVuSans-69"/>
     <use x="848.521484" xlink:href="#DejaVuSans-67"/>
     <use x="911.998047" xlink:href="#DejaVuSans-6e"/>
     <use x="975.376953" xlink:href="#DejaVuSans-61"/>
     <use x="1036.65625" xlink:href="#DejaVuSans-6c"/>
     <use x="1064.439453" xlink:href="#DejaVuSans-20"/>
     <use x="1096.226562" xlink:href="#DejaVuSans-28"/>
     <use x="1135.240234" xlink:href="#DejaVuSans-6b"/>
     <use x="1193.150391" xlink:href="#DejaVuSans-3d"/>
     <use x="1276.939453" xlink:href="#DejaVuSans-31"/>
     <use x="1340.5625" xlink:href="#DejaVuSans-30"/>
     <use x="1404.185547" xlink:href="#DejaVuSans-30"/>
     <use x="1467.808594" xlink:href="#DejaVuSans-29"/>
    </g>
   </g>
  </g>
 </g>
 <defs>
  <clipPath id="pbcf0fe5564">
   <rect height="109.36" width="167.348574" x="56.09" y="26.88"/>
  </clipPath>
  <clipPath id="pcaee52976a">
   <rect height="109.36" width="167.348574" x="273.770062" y="26.88"/>
  </clipPath>
  <clipPath id="p76babbcce5">
   <rect height="109.36" width="167.348574" x="56.09" y="194.28"/>
  </clipPath>
  <clipPath id="p6828769886">
   <rect height="109.36" width="167.348574" x="273.770062" y="194.28"/>
  </clipPath>
 </defs>
</svg>
