<?xml version="1.0" encoding="utf-8" standalone="no"?>
<!DOCTYPE svg PUBLIC "-//W3C//DTD SVG 1.1//EN"
  "http://www.w3.org/Graphics/SVG/1.1/DTD/svg11.dtd">
<!-- Created with matplotlib (http://matplotlib.org/) -->
<svg height="345pt" version="1.1" viewBox="0 0 460 345" width="460pt" xmlns="http://www.w3.org/2000/svg" xmlns:xlink="http://www.w3.org/1999/xlink">
 <defs>
  <style type="text/css">
*{stroke-linecap:butt;stroke-linejoin:round;}
  </style>
 </defs>
 <g id="figure_1">
  <g id="patch_1">
   <path d="M 0 345.6 
L 460.8 345.6 
L 460.8 0 
L 0 0 
z
" style="fill:#ffffff;"/>
  </g>
  <g id="axes_1">
   <g id="patch_2">
    <path d="M 46.64 136.24 
L 218.713574 136.24 
L 218.713574 26.88 
L 46.64 26.88 
z
" style="fill:#ffffff;"/>
   </g>
   <g id="matplotlib.axis_1">
    <g id="xtick_1">
     <g id="line2d_1">
      <path clip-path="url(#p874b716f0c)" d="M 54.461526 136.24 
L 54.461526 26.88 
" style="fill:none;stroke:#b0b0b0;stroke-linecap:square;stroke-width:0.8;"/>
     </g>
     <g id="line2d_2">
      <defs>
       <path d="M 0 0 
L 0 3.5 
" id="m45faa6564d" style="stroke:#000000;stroke-width:0.8;"/>
      </defs>
      <g>
       <use style="stroke:#000000;stroke-width:0.8;" x="54.461526" xlink:href="#m45faa6564d" y="136.24"/>
      </g>
     </g>
     <g id="text_1">
      <!-- 0.00 -->
      <defs>
       <path d="M 31.78125 66.40625 
Q 24.171875 66.40625 20.328125 58.90625 
Q 16.5 51.421875 16.5 36.375 
Q 16.5 21.390625 20.328125 13.890625 
Q 24.171875 6.390625 31.78125 6.390625 
Q 39.453125 6.390625 43.28125 13.890625 
Q 47.125 21.390625 47.125 36.375 
Q 47.125 51.421875 43.28125 58.90625 
Q 39.453125 66.40625 31.78125 66.40625 
M 31.78125 74.21875 
Q 44.046875 74.21875 50.515625 64.515625 
Q 56.984375 54.828125 56.984375 36.375 
Q 56.984375 17.96875 50.515625 8.265625 
Q 44.046875 -1.421875 31.78125 -1.421875 
Q 19.53125 -1.421875 13.0625 8.265625 
Q 6.59375 17.96875 6.59375 36.375 
Q 6.59375 54.828125 13.0625 64.515625 
Q 19.53125 74.21875 31.78125 74.21875 
" id="DejaVuSans-30"/>
       <path d="M 10.6875 12.40625 
L 21 12.40625 
L 21 0 
L 10.6875 0 
z
" id="DejaVuSans-2e"/>
      </defs>
      <g transform="translate(43.328714 150.838437)scale(0.1 -0.1)">
       <use xlink:href="#DejaVuSans-30"/>
       <use x="63.623047" xlink:href="#DejaVuSans-2e"/>
       <use x="95.410156" xlink:href="#DejaVuSans-30"/>
       <use x="159.033203" xlink:href="#DejaVuSans-30"/>
      </g>
     </g>
    </g>
    <g id="xtick_2">
     <g id="line2d_3">
      <path clip-path="url(#p874b716f0c)" d="M 93.569157 136.24 
L 93.569157 26.88 
" style="fill:none;stroke:#b0b0b0;stroke-linecap:square;stroke-width:0.8;"/>
     </g>
     <g id="line2d_4">
      <g>
       <use style="stroke:#000000;stroke-width:0.8;" x="93.569157" xlink:href="#m45faa6564d" y="136.24"/>
      </g>
     </g>
     <g id="text_2">
      <!-- 0.25 -->
      <defs>
       <path d="M 19.1875 8.296875 
L 53.609375 8.296875 
L 53.609375 0 
L 7.328125 0 
L 7.328125 8.296875 
Q 12.9375 14.109375 22.625 23.890625 
Q 32.328125 33.6875 34.8125 36.53125 
Q 39.546875 41.84375 41.421875 45.53125 
Q 43.3125 49.21875 43.3125 52.78125 
Q 43.3125 58.59375 39.234375 62.25 
Q 35.15625 65.921875 28.609375 65.921875 
Q 23.96875 65.921875 18.8125 64.3125 
Q 13.671875 62.703125 7.8125 59.421875 
L 7.8125 69.390625 
Q 13.765625 71.78125 18.9375 73 
Q 24.125 74.21875 28.421875 74.21875 
Q 39.75 74.21875 46.484375 68.546875 
Q 53.21875 62.890625 53.21875 53.421875 
Q 53.21875 48.921875 51.53125 44.890625 
Q 49.859375 40.875 45.40625 35.40625 
Q 44.1875 33.984375 37.640625 27.21875 
Q 31.109375 20.453125 19.1875 8.296875 
" id="DejaVuSans-32"/>
       <path d="M 10.796875 72.90625 
L 49.515625 72.90625 
L 49.515625 64.59375 
L 19.828125 64.59375 
L 19.828125 46.734375 
Q 21.96875 47.46875 24.109375 47.828125 
Q 26.265625 48.1875 28.421875 48.1875 
Q 40.625 48.1875 47.75 41.5 
Q 54.890625 34.8125 54.890625 23.390625 
Q 54.890625 11.625 47.5625 5.09375 
Q 40.234375 -1.421875 26.90625 -1.421875 
Q 22.3125 -1.421875 17.546875 -0.640625 
Q 12.796875 0.140625 7.71875 1.703125 
L 7.71875 11.625 
Q 12.109375 9.234375 16.796875 8.0625 
Q 21.484375 6.890625 26.703125 6.890625 
Q 35.15625 6.890625 40.078125 11.328125 
Q 45.015625 15.765625 45.015625 23.390625 
Q 45.015625 31 40.078125 35.4375 
Q 35.15625 39.890625 26.703125 39.890625 
Q 22.75 39.890625 18.8125 39.015625 
Q 14.890625 38.140625 10.796875 36.28125 
z
" id="DejaVuSans-35"/>
      </defs>
      <g transform="translate(82.436344 150.838437)scale(0.1 -0.1)">
       <use xlink:href="#DejaVuSans-30"/>
       <use x="63.623047" xlink:href="#DejaVuSans-2e"/>
       <use x="95.410156" xlink:href="#DejaVuSans-32"/>
       <use x="159.033203" xlink:href="#DejaVuSans-35"/>
      </g>
     </g>
    </g>
    <g id="xtick_3">
     <g id="line2d_5">
      <path clip-path="url(#p874b716f0c)" d="M 132.676787 136.24 
L 132.676787 26.88 
" style="fill:none;stroke:#b0b0b0;stroke-linecap:square;stroke-width:0.8;"/>
     </g>
     <g id="line2d_6">
      <g>
       <use style="stroke:#000000;stroke-width:0.8;" x="132.676787" xlink:href="#m45faa6564d" y="136.24"/>
      </g>
     </g>
     <g id="text_3">
      <!-- 0.50 -->
      <g transform="translate(121.543975 150.838437)scale(0.1 -0.1)">
       <use xlink:href="#DejaVuSans-30"/>
       <use x="63.623047" xlink:href="#DejaVuSans-2e"/>
       <use x="95.410156" xlink:href="#DejaVuSans-35"/>
       <use x="159.033203" xlink:href="#DejaVuSans-30"/>
      </g>
     </g>
    </g>
    <g id="xtick_4">
     <g id="line2d_7">
      <path clip-path="url(#p874b716f0c)" d="M 171.784418 136.24 
L 171.784418 26.88 
" style="fill:none;stroke:#b0b0b0;stroke-linecap:square;stroke-width:0.8;"/>
     </g>
     <g id="line2d_8">
      <g>
       <use style="stroke:#000000;stroke-width:0.8;" x="171.784418" xlink:href="#m45faa6564d" y="136.24"/>
      </g>
     </g>
     <g id="text_4">
      <!-- 0.75 -->
      <defs>
       <path d="M 8.203125 72.90625 
L 55.078125 72.90625 
L 55.078125 68.703125 
L 28.609375 0 
L 18.3125 0 
L 43.21875 64.59375 
L 8.203125 64.59375 
z
" id="DejaVuSans-37"/>
      </defs>
      <g transform="translate(160.651605 150.838437)scale(0.1 -0.1)">
       <use xlink:href="#DejaVuSans-30"/>
       <use x="63.623047" xlink:href="#DejaVuSans-2e"/>
       <use x="95.410156" xlink:href="#DejaVuSans-37"/>
       <use x="159.033203" xlink:href="#DejaVuSans-35"/>
      </g>
     </g>
    </g>
    <g id="xtick_5">
     <g id="line2d_9">
      <path clip-path="url(#p874b716f0c)" d="M 210.892048 136.24 
L 210.892048 26.88 
" style="fill:none;stroke:#b0b0b0;stroke-linecap:square;stroke-width:0.8;"/>
     </g>
     <g id="line2d_10">
      <g>
       <use style="stroke:#000000;stroke-width:0.8;" x="210.892048" xlink:href="#m45faa6564d" y="136.24"/>
      </g>
     </g>
     <g id="text_5">
      <!-- 1.00 -->
      <defs>
       <path d="M 12.40625 8.296875 
L 28.515625 8.296875 
L 28.515625 63.921875 
L 10.984375 60.40625 
L 10.984375 69.390625 
L 28.421875 72.90625 
L 38.28125 72.90625 
L 38.28125 8.296875 
L 54.390625 8.296875 
L 54.390625 0 
L 12.40625 0 
z
" id="DejaVuSans-31"/>
      </defs>
      <g transform="translate(199.759236 150.838437)scale(0.1 -0.1)">
       <use xlink:href="#DejaVuSans-31"/>
       <use x="63.623047" xlink:href="#DejaVuSans-2e"/>
       <use x="95.410156" xlink:href="#DejaVuSans-30"/>
       <use x="159.033203" xlink:href="#DejaVuSans-30"/>
      </g>
     </g>
    </g>
    <g id="text_6">
     <!-- Time/s -->
     <defs>
      <path d="M -0.296875 72.90625 
L 61.375 72.90625 
L 61.375 64.59375 
L 35.5 64.59375 
L 35.5 0 
L 25.59375 0 
L 25.59375 64.59375 
L -0.296875 64.59375 
z
" id="DejaVuSans-54"/>
      <path d="M 9.421875 54.6875 
L 18.40625 54.6875 
L 18.40625 0 
L 9.421875 0 
z
M 9.421875 75.984375 
L 18.40625 75.984375 
L 18.40625 64.59375 
L 9.421875 64.59375 
z
" id="DejaVuSans-69"/>
      <path d="M 52 44.1875 
Q 55.375 50.25 60.0625 53.125 
Q 64.75 56 71.09375 56 
Q 79.640625 56 84.28125 50.015625 
Q 88.921875 44.046875 88.921875 33.015625 
L 88.921875 0 
L 79.890625 0 
L 79.890625 32.71875 
Q 79.890625 40.578125 77.09375 44.375 
Q 74.3125 48.1875 68.609375 48.1875 
Q 61.625 48.1875 57.5625 43.546875 
Q 53.515625 38.921875 53.515625 30.90625 
L 53.515625 0 
L 44.484375 0 
L 44.484375 32.71875 
Q 44.484375 40.625 41.703125 44.40625 
Q 38.921875 48.1875 33.109375 48.1875 
Q 26.21875 48.1875 22.15625 43.53125 
Q 18.109375 38.875 18.109375 30.90625 
L 18.109375 0 
L 9.078125 0 
L 9.078125 54.6875 
L 18.109375 54.6875 
L 18.109375 46.1875 
Q 21.1875 51.21875 25.484375 53.609375 
Q 29.78125 56 35.6875 56 
Q 41.65625 56 45.828125 52.96875 
Q 50 49.953125 52 44.1875 
" id="DejaVuSans-6d"/>
      <path d="M 56.203125 29.59375 
L 56.203125 25.203125 
L 14.890625 25.203125 
Q 15.484375 15.921875 20.484375 11.0625 
Q 25.484375 6.203125 34.421875 6.203125 
Q 39.59375 6.203125 44.453125 7.46875 
Q 49.3125 8.734375 54.109375 11.28125 
L 54.109375 2.78125 
Q 49.265625 0.734375 44.1875 -0.34375 
Q 39.109375 -1.421875 33.890625 -1.421875 
Q 20.796875 -1.421875 13.15625 6.1875 
Q 5.515625 13.8125 5.515625 26.8125 
Q 5.515625 40.234375 12.765625 48.109375 
Q 20.015625 56 32.328125 56 
Q 43.359375 56 49.78125 48.890625 
Q 56.203125 41.796875 56.203125 29.59375 
M 47.21875 32.234375 
Q 47.125 39.59375 43.09375 43.984375 
Q 39.0625 48.390625 32.421875 48.390625 
Q 24.90625 48.390625 20.390625 44.140625 
Q 15.875 39.890625 15.1875 32.171875 
z
" id="DejaVuSans-65"/>
      <path d="M 25.390625 72.90625 
L 33.6875 72.90625 
L 8.296875 -9.28125 
L 0 -9.28125 
z
" id="DejaVuSans-2f"/>
      <path d="M 44.28125 53.078125 
L 44.28125 44.578125 
Q 40.484375 46.53125 36.375 47.5 
Q 32.28125 48.484375 27.875 48.484375 
Q 21.1875 48.484375 17.84375 46.4375 
Q 14.5 44.390625 14.5 40.28125 
Q 14.5 37.15625 16.890625 35.375 
Q 19.28125 33.59375 26.515625 31.984375 
L 29.59375 31.296875 
Q 39.15625 29.25 43.1875 25.515625 
Q 47.21875 21.78125 47.21875 15.09375 
Q 47.21875 7.46875 41.1875 3.015625 
Q 35.15625 -1.421875 24.609375 -1.421875 
Q 20.21875 -1.421875 15.453125 -0.5625 
Q 10.6875 0.296875 5.421875 2 
L 5.421875 11.28125 
Q 10.40625 8.6875 15.234375 7.390625 
Q 20.0625 6.109375 24.8125 6.109375 
Q 31.15625 6.109375 34.5625 8.28125 
Q 37.984375 10.453125 37.984375 14.40625 
Q 37.984375 18.0625 35.515625 20.015625 
Q 33.0625 21.96875 24.703125 23.78125 
L 21.578125 24.515625 
Q 13.234375 26.265625 9.515625 29.90625 
Q 5.8125 33.546875 5.8125 39.890625 
Q 5.8125 47.609375 11.28125 51.796875 
Q 16.75 56 26.8125 56 
Q 31.78125 56 36.171875 55.265625 
Q 40.578125 54.546875 44.28125 53.078125 
" id="DejaVuSans-73"/>
     </defs>
     <g transform="translate(116.000225 164.516562)scale(0.1 -0.1)">
      <use xlink:href="#DejaVuSans-54"/>
      <use x="61.037109" xlink:href="#DejaVuSans-69"/>
      <use x="88.820312" xlink:href="#DejaVuSans-6d"/>
      <use x="186.232422" xlink:href="#DejaVuSans-65"/>
      <use x="247.755859" xlink:href="#DejaVuSans-2f"/>
      <use x="281.447266" xlink:href="#DejaVuSans-73"/>
     </g>
    </g>
   </g>
   <g id="matplotlib.axis_2">
    <g id="ytick_1">
     <g id="line2d_11">
      <path clip-path="url(#p874b716f0c)" d="M 46.64 115.349094 
L 218.713574 115.349094 
" style="fill:none;stroke:#b0b0b0;stroke-linecap:square;stroke-width:0.8;"/>
     </g>
     <g id="line2d_12">
      <defs>
       <path d="M 0 0 
L -3.5 0 
" id="mb5467f5fab" style="stroke:#000000;stroke-width:0.8;"/>
      </defs>
      <g>
       <use style="stroke:#000000;stroke-width:0.8;" x="46.64" xlink:href="#mb5467f5fab" y="115.349094"/>
      </g>
     </g>
     <g id="text_7">
      <!-- −1 -->
      <defs>
       <path d="M 10.59375 35.5 
L 73.1875 35.5 
L 73.1875 27.203125 
L 10.59375 27.203125 
z
" id="DejaVuSans-2212"/>
      </defs>
      <g transform="translate(24.897813 119.148313)scale(0.1 -0.1)">
       <use xlink:href="#DejaVuSans-2212"/>
       <use x="83.789062" xlink:href="#DejaVuSans-31"/>
      </g>
     </g>
    </g>
    <g id="ytick_2">
     <g id="line2d_13">
      <path clip-path="url(#p874b716f0c)" d="M 46.64 81.63948 
L 218.713574 81.63948 
" style="fill:none;stroke:#b0b0b0;stroke-linecap:square;stroke-width:0.8;"/>
     </g>
     <g id="line2d_14">
      <g>
       <use style="stroke:#000000;stroke-width:0.8;" x="46.64" xlink:href="#mb5467f5fab" y="81.63948"/>
      </g>
     </g>
     <g id="text_8">
      <!-- 0 -->
      <g transform="translate(33.2775 85.438699)scale(0.1 -0.1)">
       <use xlink:href="#DejaVuSans-30"/>
      </g>
     </g>
    </g>
    <g id="ytick_3">
     <g id="line2d_15">
      <path clip-path="url(#p874b716f0c)" d="M 46.64 47.929866 
L 218.713574 47.929866 
" style="fill:none;stroke:#b0b0b0;stroke-linecap:square;stroke-width:0.8;"/>
     </g>
     <g id="line2d_16">
      <g>
       <use style="stroke:#000000;stroke-width:0.8;" x="46.64" xlink:href="#mb5467f5fab" y="47.929866"/>
      </g>
     </g>
     <g id="text_9">
      <!-- 1 -->
      <g transform="translate(33.2775 51.729085)scale(0.1 -0.1)">
       <use xlink:href="#DejaVuSans-31"/>
      </g>
     </g>
    </g>
    <g id="text_10">
     <!-- Amplitude -->
     <defs>
      <path d="M 34.1875 63.1875 
L 20.796875 26.90625 
L 47.609375 26.90625 
z
M 28.609375 72.90625 
L 39.796875 72.90625 
L 67.578125 0 
L 57.328125 0 
L 50.6875 18.703125 
L 17.828125 18.703125 
L 11.1875 0 
L 0.78125 0 
z
" id="DejaVuSans-41"/>
      <path d="M 18.109375 8.203125 
L 18.109375 -20.796875 
L 9.078125 -20.796875 
L 9.078125 54.6875 
L 18.109375 54.6875 
L 18.109375 46.390625 
Q 20.953125 51.265625 25.265625 53.625 
Q 29.59375 56 35.59375 56 
Q 45.5625 56 51.78125 48.09375 
Q 58.015625 40.1875 58.015625 27.296875 
Q 58.015625 14.40625 51.78125 6.484375 
Q 45.5625 -1.421875 35.59375 -1.421875 
Q 29.59375 -1.421875 25.265625 0.953125 
Q 20.953125 3.328125 18.109375 8.203125 
M 48.6875 27.296875 
Q 48.6875 37.203125 44.609375 42.84375 
Q 40.53125 48.484375 33.40625 48.484375 
Q 26.265625 48.484375 22.1875 42.84375 
Q 18.109375 37.203125 18.109375 27.296875 
Q 18.109375 17.390625 22.1875 11.75 
Q 26.265625 6.109375 33.40625 6.109375 
Q 40.53125 6.109375 44.609375 11.75 
Q 48.6875 17.390625 48.6875 27.296875 
" id="DejaVuSans-70"/>
      <path d="M 9.421875 75.984375 
L 18.40625 75.984375 
L 18.40625 0 
L 9.421875 0 
z
" id="DejaVuSans-6c"/>
      <path d="M 18.3125 70.21875 
L 18.3125 54.6875 
L 36.8125 54.6875 
L 36.8125 47.703125 
L 18.3125 47.703125 
L 18.3125 18.015625 
Q 18.3125 11.328125 20.140625 9.421875 
Q 21.96875 7.515625 27.59375 7.515625 
L 36.8125 7.515625 
L 36.8125 0 
L 27.59375 0 
Q 17.1875 0 13.234375 3.875 
Q 9.28125 7.765625 9.28125 18.015625 
L 9.28125 47.703125 
L 2.6875 47.703125 
L 2.6875 54.6875 
L 9.28125 54.6875 
L 9.28125 70.21875 
z
" id="DejaVuSans-74"/>
      <path d="M 8.5 21.578125 
L 8.5 54.6875 
L 17.484375 54.6875 
L 17.484375 21.921875 
Q 17.484375 14.15625 20.5 10.265625 
Q 23.53125 6.390625 29.59375 6.390625 
Q 36.859375 6.390625 41.078125 11.03125 
Q 45.3125 15.671875 45.3125 23.6875 
L 45.3125 54.6875 
L 54.296875 54.6875 
L 54.296875 0 
L 45.3125 0 
L 45.3125 8.40625 
Q 42.046875 3.421875 37.71875 1 
Q 33.40625 -1.421875 27.6875 -1.421875 
Q 18.265625 -1.421875 13.375 4.4375 
Q 8.5 10.296875 8.5 21.578125 
M 31.109375 56 
z
" id="DejaVuSans-75"/>
      <path d="M 45.40625 46.390625 
L 45.40625 75.984375 
L 54.390625 75.984375 
L 54.390625 0 
L 45.40625 0 
L 45.40625 8.203125 
Q 42.578125 3.328125 38.25 0.953125 
Q 33.9375 -1.421875 27.875 -1.421875 
Q 17.96875 -1.421875 11.734375 6.484375 
Q 5.515625 14.40625 5.515625 27.296875 
Q 5.515625 40.1875 11.734375 48.09375 
Q 17.96875 56 27.875 56 
Q 33.9375 56 38.25 53.625 
Q 42.578125 51.265625 45.40625 46.390625 
M 14.796875 27.296875 
Q 14.796875 17.390625 18.875 11.75 
Q 22.953125 6.109375 30.078125 6.109375 
Q 37.203125 6.109375 41.296875 11.75 
Q 45.40625 17.390625 45.40625 27.296875 
Q 45.40625 37.203125 41.296875 42.84375 
Q 37.203125 48.484375 30.078125 48.484375 
Q 22.953125 48.484375 18.875 42.84375 
Q 14.796875 37.203125 14.796875 27.296875 
" id="DejaVuSans-64"/>
     </defs>
     <g transform="translate(18.818125 107.182656)rotate(-90)scale(0.1 -0.1)">
      <use xlink:href="#DejaVuSans-41"/>
      <use x="68.408203" xlink:href="#DejaVuSans-6d"/>
      <use x="165.820312" xlink:href="#DejaVuSans-70"/>
      <use x="229.296875" xlink:href="#DejaVuSans-6c"/>
      <use x="257.080078" xlink:href="#DejaVuSans-69"/>
      <use x="284.863281" xlink:href="#DejaVuSans-74"/>
      <use x="324.072266" xlink:href="#DejaVuSans-75"/>
      <use x="387.451172" xlink:href="#DejaVuSans-64"/>
      <use x="450.927734" xlink:href="#DejaVuSans-65"/>
     </g>
    </g>
   </g>
   <g id="line2d_17">
    <path clip-path="url(#p874b716f0c)" d="M 54.461526 80.671037 
L 55.074979 52.600755 
L 55.688432 35.51546 
L 56.301885 73.502061 
L 56.915338 85.968582 
L 57.528791 54.093846 
L 58.142244 63.999911 
L 58.755697 105.954501 
L 59.36915 96.248541 
L 59.982603 70.951376 
L 61.209509 127.581731 
L 61.822962 97.163512 
L 62.436415 86.459283 
L 63.049869 122.93018 
L 63.663322 121.170495 
L 64.276775 81.407553 
L 64.890228 89.187972 
L 65.503681 116.967447 
L 66.730587 57.041023 
L 67.34404 81.881956 
L 67.957493 91.765923 
L 68.570946 50.848981 
L 69.184399 42.851688 
L 69.797852 77.142624 
L 70.411305 67.479825 
L 71.024758 32.781765 
L 71.638211 53.36152 
L 72.251664 84.315052 
L 72.865117 59.705871 
L 73.47857 45.45359 
L 74.092023 85.666606 
L 74.705476 99.53378 
L 75.318929 68.409342 
L 75.932382 78.387182 
L 76.545835 119.473456 
L 77.159288 108.077208 
L 77.772741 80.596629 
L 78.999647 131.269091 
L 79.6131 97.426371 
L 80.226553 83.440797 
L 80.840006 116.709944 
L 81.453459 111.964784 
L 82.066912 69.857634 
L 82.680365 76.022586 
L 83.293818 102.759747 
L 84.520724 43.230182 
L 85.134178 69.505219 
L 85.747631 81.347141 
L 86.361084 43.038867 
L 86.974537 38.224404 
L 87.58799 75.837786 
L 88.201443 69.467593 
L 88.814896 38.102271 
L 89.428349 61.772801 
L 90.041802 95.181995 
L 90.655255 72.425633 
L 91.268708 59.487264 
L 91.882161 100.179604 
L 92.495614 113.570138 
L 93.109067 81.292945 
L 93.72252 89.518665 
L 94.335973 128.093286 
L 94.949426 113.636021 
L 95.562879 82.949706 
L 96.176332 107.321208 
L 96.789785 126.868117 
L 97.403238 89.872312 
L 98.016691 73.310819 
L 98.630144 104.47822 
L 99.243597 98.181845 
L 99.85705 55.419336 
L 100.470503 61.817663 
L 101.083956 89.418907 
L 102.310862 33.852332 
L 102.924315 63.022094 
L 103.537768 77.955363 
L 104.151221 42.999289 
L 104.764674 41.679266 
L 105.378127 82.477387 
L 105.99158 78.821222 
L 106.605033 49.801147 
L 107.218487 75.220169 
L 107.83194 109.462921 
L 108.445393 86.748157 
L 109.058846 73.223364 
L 109.672299 112.510729 
L 110.285752 123.661766 
L 110.899205 88.688494 
L 111.512658 93.923234 
L 112.126111 129.120711 
L 112.739564 111.159147 
L 113.353017 77.27031 
L 113.96647 98.771687 
L 114.579923 115.753698 
L 115.193376 76.84838 
L 115.806829 59.25818 
L 116.420282 90.088493 
L 117.033735 84.125775 
L 117.647188 42.608283 
L 118.260641 51.049523 
L 118.874094 81.133295 
L 120.101 31.850909 
L 120.714453 64.488186 
L 121.327906 82.644177 
L 121.941359 50.7233 
L 122.554812 52.149172 
L 123.168265 94.993447 
L 123.781718 92.586722 
L 124.395171 64.202482 
L 125.008624 89.509973 
L 125.622077 122.679386 
L 126.23553 98.158974 
L 126.848983 82.362157 
L 127.462436 118.81382 
L 128.075889 126.629723 
L 128.689343 88.260844 
L 129.302796 90.239248 
L 129.916249 122.243235 
L 130.529702 101.400594 
L 131.143155 65.337067 
L 131.756608 85.343013 
L 132.370061 101.405877 
L 132.983514 62.41691 
L 133.596967 45.701855 
L 134.21042 78.070918 
L 134.823873 74.186272 
L 135.437326 35.429881 
L 136.050779 47.116793 
L 136.664232 80.505977 
L 137.891138 37.856297 
L 138.504591 73.466334 
L 139.118044 93.933167 
L 139.731497 63.769458 
L 140.34495 66.367267 
L 140.958403 109.475164 
L 141.571856 106.42658 
L 142.185309 76.782984 
L 142.798762 100.184399 
L 143.412215 130.686673 
L 144.025668 103.056687 
L 144.639121 84.045615 
L 145.252574 117.132974 
L 145.866027 121.528873 
L 146.47948 80.128129 
L 147.092933 79.641549 
L 147.706386 109.627144 
L 148.319839 87.397765 
L 148.933292 50.889776 
L 150.160198 88.318569 
L 150.773652 51.081647 
L 151.387105 36.905244 
L 152.000558 72.211736 
L 152.614011 71.4621 
L 153.227464 36.123293 
L 153.840917 51.274653 
L 154.45437 87.738431 
L 155.681276 49.988147 
L 156.294729 87.163703 
L 156.908182 108.272146 
L 157.521635 78.027424 
L 158.135088 79.89138 
L 158.748541 121.395283 
L 159.361994 115.979933 
L 159.975447 83.590414 
L 160.5889 103.919365 
L 161.202353 130.973503 
L 161.815806 99.882317 
L 162.429259 77.753649 
L 163.042712 108.015884 
L 163.656165 109.944273 
L 164.269618 66.824717 
L 164.883071 65.473041 
L 165.496524 95.238195 
L 166.109977 73.518981 
L 166.72343 38.456674 
L 167.950336 80.590343 
L 168.563789 46.375441 
L 169.177242 35.639241 
L 169.790695 74.365966 
L 170.404148 76.78937 
L 171.017601 44.459273 
L 171.631054 62.241233 
L 172.244508 100.567369 
L 173.471414 64.445022 
L 174.084867 101.307567 
L 174.69832 121.154434 
L 175.311773 89.006899 
L 175.925226 88.497011 
L 176.538679 127.029764 
L 177.152132 118.230062 
L 177.765585 82.482942 
L 178.379038 99.566903 
L 178.992491 123.449535 
L 179.605944 89.608168 
L 180.219397 65.467201 
L 180.83285 94.342093 
L 181.446303 95.494115 
L 182.059756 52.506476 
L 182.673209 52.196417 
L 183.286662 83.598016 
L 183.900115 64.093645 
L 184.513568 31.934454 
L 185.740474 80.639177 
L 186.353927 49.752409 
L 186.96738 42.313327 
L 187.580833 83.87571 
L 188.194286 88.479347 
L 188.807739 57.812054 
L 189.421192 76.599588 
L 190.034645 114.974469 
L 191.261551 76.69647 
L 191.875004 111.485164 
L 192.488457 128.530082 
L 193.10191 93.245705 
L 193.715363 89.502068 
L 194.328817 124.625583 
L 194.94227 112.450386 
L 195.555723 73.800788 
L 196.169176 88.515137 
L 196.782629 110.473693 
L 197.396082 75.432931 
L 198.009535 51.04705 
L 198.622988 80.420014 
L 199.236441 82.695131 
L 199.849894 41.64756 
L 200.463347 43.994727 
L 201.0768 78.3662 
L 201.690253 62.054616 
L 202.303706 33.366322 
L 203.530612 88.444222 
L 204.144065 60.131944 
L 204.757518 54.847161 
L 205.370971 97.776451 
L 205.984424 102.84801 
L 206.597877 71.982745 
L 207.21133 89.869191 
L 207.824783 126.446451 
L 209.051689 82.903694 
L 209.665142 114.527471 
L 210.278595 128.075867 
L 210.892048 89.39547 
L 210.892048 89.39547 
" style="fill:none;stroke:#1f77b4;stroke-linecap:square;stroke-width:1.5;"/>
   </g>
   <g id="patch_3">
    <path d="M 46.64 136.24 
L 46.64 26.88 
" style="fill:none;stroke:#000000;stroke-linecap:square;stroke-linejoin:miter;stroke-width:0.8;"/>
   </g>
   <g id="patch_4">
    <path d="M 218.713574 136.24 
L 218.713574 26.88 
" style="fill:none;stroke:#000000;stroke-linecap:square;stroke-linejoin:miter;stroke-width:0.8;"/>
   </g>
   <g id="patch_5">
    <path d="M 46.64 136.24 
L 218.713574 136.24 
" style="fill:none;stroke:#000000;stroke-linecap:square;stroke-linejoin:miter;stroke-width:0.8;"/>
   </g>
   <g id="patch_6">
    <path d="M 46.64 26.88 
L 218.713574 26.88 
" style="fill:none;stroke:#000000;stroke-linecap:square;stroke-linejoin:miter;stroke-width:0.8;"/>
   </g>
   <g id="text_11">
    <!-- Reconstructed Signal (k=2) -->
    <defs>
     <path d="M 44.390625 34.1875 
Q 47.5625 33.109375 50.5625 29.59375 
Q 53.5625 26.078125 56.59375 19.921875 
L 66.609375 0 
L 56 0 
L 46.6875 18.703125 
Q 43.0625 26.03125 39.671875 28.421875 
Q 36.28125 30.8125 30.421875 30.8125 
L 19.671875 30.8125 
L 19.671875 0 
L 9.8125 0 
L 9.8125 72.90625 
L 32.078125 72.90625 
Q 44.578125 72.90625 50.734375 67.671875 
Q 56.890625 62.453125 56.890625 51.90625 
Q 56.890625 45.015625 53.6875 40.46875 
Q 50.484375 35.9375 44.390625 34.1875 
M 19.671875 64.796875 
L 19.671875 38.921875 
L 32.078125 38.921875 
Q 39.203125 38.921875 42.84375 42.21875 
Q 46.484375 45.515625 46.484375 51.90625 
Q 46.484375 58.296875 42.84375 61.546875 
Q 39.203125 64.796875 32.078125 64.796875 
z
" id="DejaVuSans-52"/>
     <path d="M 48.78125 52.59375 
L 48.78125 44.1875 
Q 44.96875 46.296875 41.140625 47.34375 
Q 37.3125 48.390625 33.40625 48.390625 
Q 24.65625 48.390625 19.8125 42.84375 
Q 14.984375 37.3125 14.984375 27.296875 
Q 14.984375 17.28125 19.8125 11.734375 
Q 24.65625 6.203125 33.40625 6.203125 
Q 37.3125 6.203125 41.140625 7.25 
Q 44.96875 8.296875 48.78125 10.40625 
L 48.78125 2.09375 
Q 45.015625 0.34375 40.984375 -0.53125 
Q 36.96875 -1.421875 32.421875 -1.421875 
Q 20.0625 -1.421875 12.78125 6.34375 
Q 5.515625 14.109375 5.515625 27.296875 
Q 5.515625 40.671875 12.859375 48.328125 
Q 20.21875 56 33.015625 56 
Q 37.15625 56 41.109375 55.140625 
Q 45.0625 54.296875 48.78125 52.59375 
" id="DejaVuSans-63"/>
     <path d="M 30.609375 48.390625 
Q 23.390625 48.390625 19.1875 42.75 
Q 14.984375 37.109375 14.984375 27.296875 
Q 14.984375 17.484375 19.15625 11.84375 
Q 23.34375 6.203125 30.609375 6.203125 
Q 37.796875 6.203125 41.984375 11.859375 
Q 46.1875 17.53125 46.1875 27.296875 
Q 46.1875 37.015625 41.984375 42.703125 
Q 37.796875 48.390625 30.609375 48.390625 
M 30.609375 56 
Q 42.328125 56 49.015625 48.375 
Q 55.71875 40.765625 55.71875 27.296875 
Q 55.71875 13.875 49.015625 6.21875 
Q 42.328125 -1.421875 30.609375 -1.421875 
Q 18.84375 -1.421875 12.171875 6.21875 
Q 5.515625 13.875 5.515625 27.296875 
Q 5.515625 40.765625 12.171875 48.375 
Q 18.84375 56 30.609375 56 
" id="DejaVuSans-6f"/>
     <path d="M 54.890625 33.015625 
L 54.890625 0 
L 45.90625 0 
L 45.90625 32.71875 
Q 45.90625 40.484375 42.875 44.328125 
Q 39.84375 48.1875 33.796875 48.1875 
Q 26.515625 48.1875 22.3125 43.546875 
Q 18.109375 38.921875 18.109375 30.90625 
L 18.109375 0 
L 9.078125 0 
L 9.078125 54.6875 
L 18.109375 54.6875 
L 18.109375 46.1875 
Q 21.34375 51.125 25.703125 53.5625 
Q 30.078125 56 35.796875 56 
Q 45.21875 56 50.046875 50.171875 
Q 54.890625 44.34375 54.890625 33.015625 
" id="DejaVuSans-6e"/>
     <path d="M 41.109375 46.296875 
Q 39.59375 47.171875 37.8125 47.578125 
Q 36.03125 48 33.890625 48 
Q 26.265625 48 22.1875 43.046875 
Q 18.109375 38.09375 18.109375 28.8125 
L 18.109375 0 
L 9.078125 0 
L 9.078125 54.6875 
L 18.109375 54.6875 
L 18.109375 46.1875 
Q 20.953125 51.171875 25.484375 53.578125 
Q 30.03125 56 36.53125 56 
Q 37.453125 56 38.578125 55.875 
Q 39.703125 55.765625 41.0625 55.515625 
z
" id="DejaVuSans-72"/>
     <path id="DejaVuSans-20"/>
     <path d="M 53.515625 70.515625 
L 53.515625 60.890625 
Q 47.90625 63.578125 42.921875 64.890625 
Q 37.9375 66.21875 33.296875 66.21875 
Q 25.25 66.21875 20.875 63.09375 
Q 16.5 59.96875 16.5 54.203125 
Q 16.5 49.359375 19.40625 46.890625 
Q 22.3125 44.4375 30.421875 42.921875 
L 36.375 41.703125 
Q 47.40625 39.59375 52.65625 34.296875 
Q 57.90625 29 57.90625 20.125 
Q 57.90625 9.515625 50.796875 4.046875 
Q 43.703125 -1.421875 29.984375 -1.421875 
Q 24.8125 -1.421875 18.96875 -0.25 
Q 13.140625 0.921875 6.890625 3.21875 
L 6.890625 13.375 
Q 12.890625 10.015625 18.65625 8.296875 
Q 24.421875 6.59375 29.984375 6.59375 
Q 38.421875 6.59375 43.015625 9.90625 
Q 47.609375 13.234375 47.609375 19.390625 
Q 47.609375 24.75 44.3125 27.78125 
Q 41.015625 30.8125 33.5 32.328125 
L 27.484375 33.5 
Q 16.453125 35.6875 11.515625 40.375 
Q 6.59375 45.0625 6.59375 53.421875 
Q 6.59375 63.09375 13.40625 68.65625 
Q 20.21875 74.21875 32.171875 74.21875 
Q 37.3125 74.21875 42.625 73.28125 
Q 47.953125 72.359375 53.515625 70.515625 
" id="DejaVuSans-53"/>
     <path d="M 45.40625 27.984375 
Q 45.40625 37.75 41.375 43.109375 
Q 37.359375 48.484375 30.078125 48.484375 
Q 22.859375 48.484375 18.828125 43.109375 
Q 14.796875 37.75 14.796875 27.984375 
Q 14.796875 18.265625 18.828125 12.890625 
Q 22.859375 7.515625 30.078125 7.515625 
Q 37.359375 7.515625 41.375 12.890625 
Q 45.40625 18.265625 45.40625 27.984375 
M 54.390625 6.78125 
Q 54.390625 -7.171875 48.1875 -13.984375 
Q 42 -20.796875 29.203125 -20.796875 
Q 24.46875 -20.796875 20.265625 -20.09375 
Q 16.0625 -19.390625 12.109375 -17.921875 
L 12.109375 -9.1875 
Q 16.0625 -11.328125 19.921875 -12.34375 
Q 23.78125 -13.375 27.78125 -13.375 
Q 36.625 -13.375 41.015625 -8.765625 
Q 45.40625 -4.15625 45.40625 5.171875 
L 45.40625 9.625 
Q 42.625 4.78125 38.28125 2.390625 
Q 33.9375 0 27.875 0 
Q 17.828125 0 11.671875 7.65625 
Q 5.515625 15.328125 5.515625 27.984375 
Q 5.515625 40.671875 11.671875 48.328125 
Q 17.828125 56 27.875 56 
Q 33.9375 56 38.28125 53.609375 
Q 42.625 51.21875 45.40625 46.390625 
L 45.40625 54.6875 
L 54.390625 54.6875 
z
" id="DejaVuSans-67"/>
     <path d="M 34.28125 27.484375 
Q 23.390625 27.484375 19.1875 25 
Q 14.984375 22.515625 14.984375 16.5 
Q 14.984375 11.71875 18.140625 8.90625 
Q 21.296875 6.109375 26.703125 6.109375 
Q 34.1875 6.109375 38.703125 11.40625 
Q 43.21875 16.703125 43.21875 25.484375 
L 43.21875 27.484375 
z
M 52.203125 31.203125 
L 52.203125 0 
L 43.21875 0 
L 43.21875 8.296875 
Q 40.140625 3.328125 35.546875 0.953125 
Q 30.953125 -1.421875 24.3125 -1.421875 
Q 15.921875 -1.421875 10.953125 3.296875 
Q 6 8.015625 6 15.921875 
Q 6 25.140625 12.171875 29.828125 
Q 18.359375 34.515625 30.609375 34.515625 
L 43.21875 34.515625 
L 43.21875 35.40625 
Q 43.21875 41.609375 39.140625 45 
Q 35.0625 48.390625 27.6875 48.390625 
Q 23 48.390625 18.546875 47.265625 
Q 14.109375 46.140625 10.015625 43.890625 
L 10.015625 52.203125 
Q 14.9375 54.109375 19.578125 55.046875 
Q 24.21875 56 28.609375 56 
Q 40.484375 56 46.34375 49.84375 
Q 52.203125 43.703125 52.203125 31.203125 
" id="DejaVuSans-61"/>
     <path d="M 31 75.875 
Q 24.46875 64.65625 21.28125 53.65625 
Q 18.109375 42.671875 18.109375 31.390625 
Q 18.109375 20.125 21.3125 9.0625 
Q 24.515625 -2 31 -13.1875 
L 23.1875 -13.1875 
Q 15.875 -1.703125 12.234375 9.375 
Q 8.59375 20.453125 8.59375 31.390625 
Q 8.59375 42.28125 12.203125 53.3125 
Q 15.828125 64.359375 23.1875 75.875 
z
" id="DejaVuSans-28"/>
     <path d="M 9.078125 75.984375 
L 18.109375 75.984375 
L 18.109375 31.109375 
L 44.921875 54.6875 
L 56.390625 54.6875 
L 27.390625 29.109375 
L 57.625 0 
L 45.90625 0 
L 18.109375 26.703125 
L 18.109375 0 
L 9.078125 0 
z
" id="DejaVuSans-6b"/>
     <path d="M 10.59375 45.40625 
L 73.1875 45.40625 
L 73.1875 37.203125 
L 10.59375 37.203125 
z
M 10.59375 25.484375 
L 73.1875 25.484375 
L 73.1875 17.1875 
L 10.59375 17.1875 
z
" id="DejaVuSans-3d"/>
     <path d="M 8.015625 75.875 
L 15.828125 75.875 
Q 23.140625 64.359375 26.78125 53.3125 
Q 30.421875 42.28125 30.421875 31.390625 
Q 30.421875 20.453125 26.78125 9.375 
Q 23.140625 -1.703125 15.828125 -13.1875 
L 8.015625 -13.1875 
Q 14.5 -2 17.703125 9.0625 
Q 20.90625 20.125 20.90625 31.390625 
Q 20.90625 42.671875 17.703125 53.65625 
Q 14.5 64.65625 8.015625 75.875 
" id="DejaVuSans-29"/>
    </defs>
    <g transform="translate(49.901162 20.88)scale(0.12 -0.12)">
     <use xlink:href="#DejaVuSans-52"/>
     <use x="69.419922" xlink:href="#DejaVuSans-65"/>
     <use x="130.943359" xlink:href="#DejaVuSans-63"/>
     <use x="185.923828" xlink:href="#DejaVuSans-6f"/>
     <use x="247.105469" xlink:href="#DejaVuSans-6e"/>
     <use x="310.484375" xlink:href="#DejaVuSans-73"/>
     <use x="362.583984" xlink:href="#DejaVuSans-74"/>
     <use x="401.792969" xlink:href="#DejaVuSans-72"/>
     <use x="442.90625" xlink:href="#DejaVuSans-75"/>
     <use x="506.285156" xlink:href="#DejaVuSans-63"/>
     <use x="561.265625" xlink:href="#DejaVuSans-74"/>
     <use x="600.474609" xlink:href="#DejaVuSans-65"/>
     <use x="661.998047" xlink:href="#DejaVuSans-64"/>
     <use x="725.474609" xlink:href="#DejaVuSans-20"/>
     <use x="757.261719" xlink:href="#DejaVuSans-53"/>
     <use x="820.738281" xlink:href="#DejaVuSans-69"/>
     <use x="848.521484" xlink:href="#DejaVuSans-67"/>
     <use x="911.998047" xlink:href="#DejaVuSans-6e"/>
     <use x="975.376953" xlink:href="#DejaVuSans-61"/>
     <use x="1036.65625" xlink:href="#DejaVuSans-6c"/>
     <use x="1064.439453" xlink:href="#DejaVuSans-20"/>
     <use x="1096.226562" xlink:href="#DejaVuSans-28"/>
     <use x="1135.240234" xlink:href="#DejaVuSans-6b"/>
     <use x="1193.150391" xlink:href="#DejaVuSans-3d"/>
     <use x="1276.939453" xlink:href="#DejaVuSans-32"/>
     <use x="1340.5625" xlink:href="#DejaVuSans-29"/>
    </g>
   </g>
  </g>
  <g id="axes_2">
   <g id="patch_7">
    <path d="M 269.045062 136.24 
L 441.118636 136.24 
L 441.118636 26.88 
L 269.045062 26.88 
z
" style="fill:#ffffff;"/>
   </g>
   <g id="matplotlib.axis_3">
    <g id="xtick_6">
     <g id="line2d_18">
      <path clip-path="url(#p66c3dc62d5)" d="M 276.866588 136.24 
L 276.866588 26.88 
" style="fill:none;stroke:#b0b0b0;stroke-linecap:square;stroke-width:0.8;"/>
     </g>
     <g id="line2d_19">
      <g>
       <use style="stroke:#000000;stroke-width:0.8;" x="276.866588" xlink:href="#m45faa6564d" y="136.24"/>
      </g>
     </g>
     <g id="text_12">
      <!-- 0.00 -->
      <g transform="translate(265.733776 150.838437)scale(0.1 -0.1)">
       <use xlink:href="#DejaVuSans-30"/>
       <use x="63.623047" xlink:href="#DejaVuSans-2e"/>
       <use x="95.410156" xlink:href="#DejaVuSans-30"/>
       <use x="159.033203" xlink:href="#DejaVuSans-30"/>
      </g>
     </g>
    </g>
    <g id="xtick_7">
     <g id="line2d_20">
      <path clip-path="url(#p66c3dc62d5)" d="M 315.974219 136.24 
L 315.974219 26.88 
" style="fill:none;stroke:#b0b0b0;stroke-linecap:square;stroke-width:0.8;"/>
     </g>
     <g id="line2d_21">
      <g>
       <use style="stroke:#000000;stroke-width:0.8;" x="315.974219" xlink:href="#m45faa6564d" y="136.24"/>
      </g>
     </g>
     <g id="text_13">
      <!-- 0.25 -->
      <g transform="translate(304.841406 150.838437)scale(0.1 -0.1)">
       <use xlink:href="#DejaVuSans-30"/>
       <use x="63.623047" xlink:href="#DejaVuSans-2e"/>
       <use x="95.410156" xlink:href="#DejaVuSans-32"/>
       <use x="159.033203" xlink:href="#DejaVuSans-35"/>
      </g>
     </g>
    </g>
    <g id="xtick_8">
     <g id="line2d_22">
      <path clip-path="url(#p66c3dc62d5)" d="M 355.081849 136.24 
L 355.081849 26.88 
" style="fill:none;stroke:#b0b0b0;stroke-linecap:square;stroke-width:0.8;"/>
     </g>
     <g id="line2d_23">
      <g>
       <use style="stroke:#000000;stroke-width:0.8;" x="355.081849" xlink:href="#m45faa6564d" y="136.24"/>
      </g>
     </g>
     <g id="text_14">
      <!-- 0.50 -->
      <g transform="translate(343.949037 150.838437)scale(0.1 -0.1)">
       <use xlink:href="#DejaVuSans-30"/>
       <use x="63.623047" xlink:href="#DejaVuSans-2e"/>
       <use x="95.410156" xlink:href="#DejaVuSans-35"/>
       <use x="159.033203" xlink:href="#DejaVuSans-30"/>
      </g>
     </g>
    </g>
    <g id="xtick_9">
     <g id="line2d_24">
      <path clip-path="url(#p66c3dc62d5)" d="M 394.18948 136.24 
L 394.18948 26.88 
" style="fill:none;stroke:#b0b0b0;stroke-linecap:square;stroke-width:0.8;"/>
     </g>
     <g id="line2d_25">
      <g>
       <use style="stroke:#000000;stroke-width:0.8;" x="394.18948" xlink:href="#m45faa6564d" y="136.24"/>
      </g>
     </g>
     <g id="text_15">
      <!-- 0.75 -->
      <g transform="translate(383.056667 150.838437)scale(0.1 -0.1)">
       <use xlink:href="#DejaVuSans-30"/>
       <use x="63.623047" xlink:href="#DejaVuSans-2e"/>
       <use x="95.410156" xlink:href="#DejaVuSans-37"/>
       <use x="159.033203" xlink:href="#DejaVuSans-35"/>
      </g>
     </g>
    </g>
    <g id="xtick_10">
     <g id="line2d_26">
      <path clip-path="url(#p66c3dc62d5)" d="M 433.29711 136.24 
L 433.29711 26.88 
" style="fill:none;stroke:#b0b0b0;stroke-linecap:square;stroke-width:0.8;"/>
     </g>
     <g id="line2d_27">
      <g>
       <use style="stroke:#000000;stroke-width:0.8;" x="433.29711" xlink:href="#m45faa6564d" y="136.24"/>
      </g>
     </g>
     <g id="text_16">
      <!-- 1.00 -->
      <g transform="translate(422.164298 150.838437)scale(0.1 -0.1)">
       <use xlink:href="#DejaVuSans-31"/>
       <use x="63.623047" xlink:href="#DejaVuSans-2e"/>
       <use x="95.410156" xlink:href="#DejaVuSans-30"/>
       <use x="159.033203" xlink:href="#DejaVuSans-30"/>
      </g>
     </g>
    </g>
    <g id="text_17">
     <!-- Time/s -->
     <g transform="translate(338.405287 164.516562)scale(0.1 -0.1)">
      <use xlink:href="#DejaVuSans-54"/>
      <use x="61.037109" xlink:href="#DejaVuSans-69"/>
      <use x="88.820312" xlink:href="#DejaVuSans-6d"/>
      <use x="186.232422" xlink:href="#DejaVuSans-65"/>
      <use x="247.755859" xlink:href="#DejaVuSans-2f"/>
      <use x="281.447266" xlink:href="#DejaVuSans-73"/>
     </g>
    </g>
   </g>
   <g id="matplotlib.axis_4">
    <g id="ytick_4">
     <g id="line2d_28">
      <path clip-path="url(#p66c3dc62d5)" d="M 269.045062 124.292661 
L 441.118636 124.292661 
" style="fill:none;stroke:#b0b0b0;stroke-linecap:square;stroke-width:0.8;"/>
     </g>
     <g id="line2d_29">
      <g>
       <use style="stroke:#000000;stroke-width:0.8;" x="269.045062" xlink:href="#mb5467f5fab" y="124.292661"/>
      </g>
     </g>
     <g id="text_18">
      <!-- −2 -->
      <g transform="translate(247.302874 128.091879)scale(0.1 -0.1)">
       <use xlink:href="#DejaVuSans-2212"/>
       <use x="83.789062" xlink:href="#DejaVuSans-32"/>
      </g>
     </g>
    </g>
    <g id="ytick_5">
     <g id="line2d_30">
      <path clip-path="url(#p66c3dc62d5)" d="M 269.045062 83.298022 
L 441.118636 83.298022 
" style="fill:none;stroke:#b0b0b0;stroke-linecap:square;stroke-width:0.8;"/>
     </g>
     <g id="line2d_31">
      <g>
       <use style="stroke:#000000;stroke-width:0.8;" x="269.045062" xlink:href="#mb5467f5fab" y="83.298022"/>
      </g>
     </g>
     <g id="text_19">
      <!-- 0 -->
      <g transform="translate(255.682562 87.09724)scale(0.1 -0.1)">
       <use xlink:href="#DejaVuSans-30"/>
      </g>
     </g>
    </g>
    <g id="ytick_6">
     <g id="line2d_32">
      <path clip-path="url(#p66c3dc62d5)" d="M 269.045062 42.303383 
L 441.118636 42.303383 
" style="fill:none;stroke:#b0b0b0;stroke-linecap:square;stroke-width:0.8;"/>
     </g>
     <g id="line2d_33">
      <g>
       <use style="stroke:#000000;stroke-width:0.8;" x="269.045062" xlink:href="#mb5467f5fab" y="42.303383"/>
      </g>
     </g>
     <g id="text_20">
      <!-- 2 -->
      <g transform="translate(255.682562 46.102602)scale(0.1 -0.1)">
       <use xlink:href="#DejaVuSans-32"/>
      </g>
     </g>
    </g>
    <g id="text_21">
     <!-- Amplitude -->
     <g transform="translate(241.223187 107.182656)rotate(-90)scale(0.1 -0.1)">
      <use xlink:href="#DejaVuSans-41"/>
      <use x="68.408203" xlink:href="#DejaVuSans-6d"/>
      <use x="165.820312" xlink:href="#DejaVuSans-70"/>
      <use x="229.296875" xlink:href="#DejaVuSans-6c"/>
      <use x="257.080078" xlink:href="#DejaVuSans-69"/>
      <use x="284.863281" xlink:href="#DejaVuSans-74"/>
      <use x="324.072266" xlink:href="#DejaVuSans-75"/>
      <use x="387.451172" xlink:href="#DejaVuSans-64"/>
      <use x="450.927734" xlink:href="#DejaVuSans-65"/>
     </g>
    </g>
   </g>
   <g id="line2d_34">
    <path clip-path="url(#p66c3dc62d5)" d="M 276.866588 82.531339 
L 277.480041 80.353095 
L 278.706947 73.324898 
L 279.3204 68.16633 
L 279.933853 65.193314 
L 280.547306 67.947464 
L 281.774212 77.391278 
L 282.387665 87.79748 
L 283.001118 100.470365 
L 283.614571 106.448587 
L 284.228024 108.787968 
L 284.841477 113.274525 
L 285.45493 111.839581 
L 286.068384 100.31502 
L 286.681837 91.120439 
L 287.29529 87.837198 
L 287.908743 79.126928 
L 288.522196 68.685449 
L 289.135649 70.731255 
L 289.749102 77.542141 
L 290.362555 75.363676 
L 290.976008 75.0791 
L 291.589461 85.030482 
L 292.202914 87.420434 
L 292.816367 76.630187 
L 293.42982 72.796842 
L 294.043273 76.162559 
L 294.656726 67.256081 
L 295.270179 55.374552 
L 295.883632 61.775897 
L 296.497085 72.390391 
L 297.110538 70.35822 
L 297.723991 75.503881 
L 298.337444 97.084441 
L 298.950897 107.579406 
L 299.56435 101.918012 
L 300.177803 107.129565 
L 300.791256 117.571 
L 301.404709 105.948474 
L 302.018162 88.061796 
L 302.631615 90.303401 
L 303.245068 91.369602 
L 303.858521 73.937044 
L 304.471974 68.449693 
L 305.085427 84.630409 
L 305.69888 87.174815 
L 306.312333 75.059626 
L 306.925786 82.424874 
L 307.539239 96.547323 
L 308.152693 83.588382 
L 308.766146 66.375454 
L 309.379599 73.532607 
L 309.993052 74.6704 
L 310.606505 52.935149 
L 311.219958 48.577829 
L 311.833411 69.355286 
L 312.446864 72.807888 
L 313.060317 63.959871 
L 313.67377 83.044153 
L 314.287223 108.947574 
L 314.900676 102.790112 
L 315.514129 94.70817 
L 316.127582 112.704631 
L 316.741035 116.089102 
L 317.354488 89.596592 
L 317.967941 82.20874 
L 318.581394 97.710711 
L 319.194847 88.072931 
L 319.8083 67.014268 
L 320.421753 80.811272 
L 321.035206 100.649346 
L 321.648659 86.172287 
L 322.262112 76.544976 
L 322.875565 97.858257 
L 323.489018 99.52386 
L 324.102471 69.4466 
L 324.715924 63.665977 
L 325.329377 79.351575 
L 325.94283 63.449944 
L 326.556283 38.96508 
L 327.169736 56.092965 
L 327.783189 77.711097 
L 328.396642 64.249891 
L 329.010095 64.117225 
L 329.623549 99.517681 
L 330.237002 110.360251 
L 330.850455 88.835192 
L 331.463908 95.72482 
L 332.077361 118.939441 
L 332.690814 100.90885 
L 333.304267 73.837529 
L 334.531173 102.264474 
L 335.144626 76.466912 
L 335.758079 70.574366 
L 336.371532 102.648529 
L 336.984985 105.842886 
L 337.598438 79.590178 
L 338.211891 88.77202 
L 338.825344 111.39551 
L 339.438797 87.170705 
L 340.05225 57.402287 
L 340.665703 72.545246 
L 341.279156 78.495661 
L 341.892609 44.614725 
L 342.506062 38.566254 
L 343.119515 72.759948 
L 343.732968 75.390056 
L 344.346421 54.695664 
L 344.959874 77.938611 
L 345.573327 112.326125 
L 346.800233 78.66467 
L 347.413686 105.59002 
L 348.027139 113.376329 
L 348.640592 77.211081 
L 349.254045 71.854209 
L 349.867498 102.539898 
L 350.480951 94.764784 
L 351.094404 67.513119 
L 351.707858 89.894501 
L 352.321311 119.69317 
L 352.934764 97.267467 
L 353.548217 80.303877 
L 354.16167 108.484962 
L 354.775123 109.947389 
L 355.388576 66.959369 
L 356.002029 59.313908 
L 356.615482 83.610584 
L 357.228935 64.375599 
L 357.842388 31.850909 
L 358.455841 55.317715 
L 359.069294 83.950363 
L 359.682747 62.671878 
L 360.2962 57.015601 
L 360.909653 98.757213 
L 361.523106 108.514949 
L 362.136559 75.703111 
L 362.750012 81.792662 
L 363.363465 112.490095 
L 363.976918 91.922821 
L 364.590371 60.49376 
L 365.817277 107.353821 
L 366.43073 79.184072 
L 367.044183 73.954638 
L 367.657636 115.52125 
L 368.271089 120.013944 
L 368.884542 85.827837 
L 369.497995 94.68701 
L 370.111448 121.370583 
L 370.724901 91.504769 
L 371.338354 54.865609 
L 371.951807 73.918547 
L 372.56526 83.479479 
L 373.178714 44.668858 
L 373.792167 37.589186 
L 374.40562 77.936221 
L 375.019073 80.06227 
L 375.632526 52.275021 
L 376.245979 74.554412 
L 376.859432 110.518463 
L 378.086338 64.408594 
L 378.699791 93.663466 
L 379.313244 103.970356 
L 379.926697 65.396001 
L 380.54015 62.218901 
L 381.153603 101.212563 
L 381.767056 97.464505 
L 382.380509 70.071862 
L 382.993962 96.370359 
L 383.607415 130.62602 
L 384.834321 85.475084 
L 385.447774 114.466824 
L 386.061227 115.739421 
L 386.67468 68.901015 
L 387.288133 60.254436 
L 387.901586 87.583448 
L 388.515039 69.254291 
L 389.128492 35.492592 
L 389.741945 60.118367 
L 390.355398 90.192729 
L 390.968851 66.367126 
L 391.582304 56.566981 
L 392.195757 95.818089 
L 392.80921 102.729462 
L 393.422663 65.486605 
L 394.036116 68.668384 
L 394.649569 99.619055 
L 395.263023 80.50217 
L 395.876476 50.767222 
L 397.103382 105.496572 
L 397.716835 81.401922 
L 398.330288 78.232856 
L 398.943741 120.856435 
L 399.557194 126.471774 
L 400.170647 92.17684 
L 400.7841 98.830084 
L 401.397553 123.831269 
L 402.011006 94.677829 
L 402.624459 58.615177 
L 403.237912 76.979446 
L 403.851365 87.950583 
L 404.464818 52.62367 
L 405.078271 46.127672 
L 405.691724 84.292595 
L 406.305177 86.086405 
L 406.91863 57.71795 
L 407.532083 74.49772 
L 408.145536 104.407505 
L 409.372442 55.206854 
L 409.985895 79.769103 
L 410.599348 89.673993 
L 411.212801 56.409052 
L 411.826254 55.639127 
L 412.439707 94.338152 
L 413.05316 95.57937 
L 413.666613 74.381954 
L 414.280066 99.451882 
L 414.893519 131.269091 
L 416.120425 90.786544 
L 416.733878 114.290403 
L 417.347332 114.78363 
L 417.960785 73.861666 
L 418.574238 65.794634 
L 419.187691 89.962101 
L 419.801144 76.377561 
L 420.414597 48.965011 
L 421.02805 69.949436 
L 421.641503 95.430166 
L 422.254956 74.724316 
L 422.868409 63.49005 
L 423.481862 91.999297 
L 424.095315 94.304209 
L 424.708768 60.308256 
L 425.322221 59.458601 
L 425.935674 83.177842 
L 426.549127 68.80087 
L 427.16258 46.836428 
L 428.389486 97.393762 
L 429.002939 82.802796 
L 429.616392 83.089639 
L 430.229845 118.074365 
L 430.843298 123.714468 
L 431.456751 96.963743 
L 432.070204 100.192214 
L 432.683657 117.704515 
L 433.29711 94.936142 
L 433.29711 94.936142 
" style="fill:none;stroke:#1f77b4;stroke-linecap:square;stroke-width:1.5;"/>
   </g>
   <g id="patch_8">
    <path d="M 269.045062 136.24 
L 269.045062 26.88 
" style="fill:none;stroke:#000000;stroke-linecap:square;stroke-linejoin:miter;stroke-width:0.8;"/>
   </g>
   <g id="patch_9">
    <path d="M 441.118636 136.24 
L 441.118636 26.88 
" style="fill:none;stroke:#000000;stroke-linecap:square;stroke-linejoin:miter;stroke-width:0.8;"/>
   </g>
   <g id="patch_10">
    <path d="M 269.045062 136.24 
L 441.118636 136.24 
" style="fill:none;stroke:#000000;stroke-linecap:square;stroke-linejoin:miter;stroke-width:0.8;"/>
   </g>
   <g id="patch_11">
    <path d="M 269.045062 26.88 
L 441.118636 26.88 
" style="fill:none;stroke:#000000;stroke-linecap:square;stroke-linejoin:miter;stroke-width:0.8;"/>
   </g>
   <g id="text_22">
    <!-- Reconstructed Signal (k=4) -->
    <defs>
     <path d="M 37.796875 64.3125 
L 12.890625 25.390625 
L 37.796875 25.390625 
z
M 35.203125 72.90625 
L 47.609375 72.90625 
L 47.609375 25.390625 
L 58.015625 25.390625 
L 58.015625 17.1875 
L 47.609375 17.1875 
L 47.609375 0 
L 37.796875 0 
L 37.796875 17.1875 
L 4.890625 17.1875 
L 4.890625 26.703125 
z
" id="DejaVuSans-34"/>
    </defs>
    <g transform="translate(272.306224 20.88)scale(0.12 -0.12)">
     <use xlink:href="#DejaVuSans-52"/>
     <use x="69.419922" xlink:href="#DejaVuSans-65"/>
     <use x="130.943359" xlink:href="#DejaVuSans-63"/>
     <use x="185.923828" xlink:href="#DejaVuSans-6f"/>
     <use x="247.105469" xlink:href="#DejaVuSans-6e"/>
     <use x="310.484375" xlink:href="#DejaVuSans-73"/>
     <use x="362.583984" xlink:href="#DejaVuSans-74"/>
     <use x="401.792969" xlink:href="#DejaVuSans-72"/>
     <use x="442.90625" xlink:href="#DejaVuSans-75"/>
     <use x="506.285156" xlink:href="#DejaVuSans-63"/>
     <use x="561.265625" xlink:href="#DejaVuSans-74"/>
     <use x="600.474609" xlink:href="#DejaVuSans-65"/>
     <use x="661.998047" xlink:href="#DejaVuSans-64"/>
     <use x="725.474609" xlink:href="#DejaVuSans-20"/>
     <use x="757.261719" xlink:href="#DejaVuSans-53"/>
     <use x="820.738281" xlink:href="#DejaVuSans-69"/>
     <use x="848.521484" xlink:href="#DejaVuSans-67"/>
     <use x="911.998047" xlink:href="#DejaVuSans-6e"/>
     <use x="975.376953" xlink:href="#DejaVuSans-61"/>
     <use x="1036.65625" xlink:href="#DejaVuSans-6c"/>
     <use x="1064.439453" xlink:href="#DejaVuSans-20"/>
     <use x="1096.226562" xlink:href="#DejaVuSans-28"/>
     <use x="1135.240234" xlink:href="#DejaVuSans-6b"/>
     <use x="1193.150391" xlink:href="#DejaVuSans-3d"/>
     <use x="1276.939453" xlink:href="#DejaVuSans-34"/>
     <use x="1340.5625" xlink:href="#DejaVuSans-29"/>
    </g>
   </g>
  </g>
  <g id="axes_3">
   <g id="patch_12">
    <path d="M 46.64 303.64 
L 218.713574 303.64 
L 218.713574 194.28 
L 46.64 194.28 
z
" style="fill:#ffffff;"/>
   </g>
   <g id="matplotlib.axis_5">
    <g id="xtick_11">
     <g id="line2d_35">
      <path clip-path="url(#pff16b782ed)" d="M 54.461526 303.64 
L 54.461526 194.28 
" style="fill:none;stroke:#b0b0b0;stroke-linecap:square;stroke-width:0.8;"/>
     </g>
     <g id="line2d_36">
      <g>
       <use style="stroke:#000000;stroke-width:0.8;" x="54.461526" xlink:href="#m45faa6564d" y="303.64"/>
      </g>
     </g>
     <g id="text_23">
      <!-- 0.00 -->
      <g transform="translate(43.328714 318.238438)scale(0.1 -0.1)">
       <use xlink:href="#DejaVuSans-30"/>
       <use x="63.623047" xlink:href="#DejaVuSans-2e"/>
       <use x="95.410156" xlink:href="#DejaVuSans-30"/>
       <use x="159.033203" xlink:href="#DejaVuSans-30"/>
      </g>
     </g>
    </g>
    <g id="xtick_12">
     <g id="line2d_37">
      <path clip-path="url(#pff16b782ed)" d="M 93.569157 303.64 
L 93.569157 194.28 
" style="fill:none;stroke:#b0b0b0;stroke-linecap:square;stroke-width:0.8;"/>
     </g>
     <g id="line2d_38">
      <g>
       <use style="stroke:#000000;stroke-width:0.8;" x="93.569157" xlink:href="#m45faa6564d" y="303.64"/>
      </g>
     </g>
     <g id="text_24">
      <!-- 0.25 -->
      <g transform="translate(82.436344 318.238438)scale(0.1 -0.1)">
       <use xlink:href="#DejaVuSans-30"/>
       <use x="63.623047" xlink:href="#DejaVuSans-2e"/>
       <use x="95.410156" xlink:href="#DejaVuSans-32"/>
       <use x="159.033203" xlink:href="#DejaVuSans-35"/>
      </g>
     </g>
    </g>
    <g id="xtick_13">
     <g id="line2d_39">
      <path clip-path="url(#pff16b782ed)" d="M 132.676787 303.64 
L 132.676787 194.28 
" style="fill:none;stroke:#b0b0b0;stroke-linecap:square;stroke-width:0.8;"/>
     </g>
     <g id="line2d_40">
      <g>
       <use style="stroke:#000000;stroke-width:0.8;" x="132.676787" xlink:href="#m45faa6564d" y="303.64"/>
      </g>
     </g>
     <g id="text_25">
      <!-- 0.50 -->
      <g transform="translate(121.543975 318.238438)scale(0.1 -0.1)">
       <use xlink:href="#DejaVuSans-30"/>
       <use x="63.623047" xlink:href="#DejaVuSans-2e"/>
       <use x="95.410156" xlink:href="#DejaVuSans-35"/>
       <use x="159.033203" xlink:href="#DejaVuSans-30"/>
      </g>
     </g>
    </g>
    <g id="xtick_14">
     <g id="line2d_41">
      <path clip-path="url(#pff16b782ed)" d="M 171.784418 303.64 
L 171.784418 194.28 
" style="fill:none;stroke:#b0b0b0;stroke-linecap:square;stroke-width:0.8;"/>
     </g>
     <g id="line2d_42">
      <g>
       <use style="stroke:#000000;stroke-width:0.8;" x="171.784418" xlink:href="#m45faa6564d" y="303.64"/>
      </g>
     </g>
     <g id="text_26">
      <!-- 0.75 -->
      <g transform="translate(160.651605 318.238438)scale(0.1 -0.1)">
       <use xlink:href="#DejaVuSans-30"/>
       <use x="63.623047" xlink:href="#DejaVuSans-2e"/>
       <use x="95.410156" xlink:href="#DejaVuSans-37"/>
       <use x="159.033203" xlink:href="#DejaVuSans-35"/>
      </g>
     </g>
    </g>
    <g id="xtick_15">
     <g id="line2d_43">
      <path clip-path="url(#pff16b782ed)" d="M 210.892048 303.64 
L 210.892048 194.28 
" style="fill:none;stroke:#b0b0b0;stroke-linecap:square;stroke-width:0.8;"/>
     </g>
     <g id="line2d_44">
      <g>
       <use style="stroke:#000000;stroke-width:0.8;" x="210.892048" xlink:href="#m45faa6564d" y="303.64"/>
      </g>
     </g>
     <g id="text_27">
      <!-- 1.00 -->
      <g transform="translate(199.759236 318.238438)scale(0.1 -0.1)">
       <use xlink:href="#DejaVuSans-31"/>
       <use x="63.623047" xlink:href="#DejaVuSans-2e"/>
       <use x="95.410156" xlink:href="#DejaVuSans-30"/>
       <use x="159.033203" xlink:href="#DejaVuSans-30"/>
      </g>
     </g>
    </g>
    <g id="text_28">
     <!-- Time/s -->
     <g transform="translate(116.000225 331.916562)scale(0.1 -0.1)">
      <use xlink:href="#DejaVuSans-54"/>
      <use x="61.037109" xlink:href="#DejaVuSans-69"/>
      <use x="88.820312" xlink:href="#DejaVuSans-6d"/>
      <use x="186.232422" xlink:href="#DejaVuSans-65"/>
      <use x="247.755859" xlink:href="#DejaVuSans-2f"/>
      <use x="281.447266" xlink:href="#DejaVuSans-73"/>
     </g>
    </g>
   </g>
   <g id="matplotlib.axis_6">
    <g id="ytick_7">
     <g id="line2d_45">
      <path clip-path="url(#pff16b782ed)" d="M 46.64 278.17959 
L 218.713574 278.17959 
" style="fill:none;stroke:#b0b0b0;stroke-linecap:square;stroke-width:0.8;"/>
     </g>
     <g id="line2d_46">
      <g>
       <use style="stroke:#000000;stroke-width:0.8;" x="46.64" xlink:href="#mb5467f5fab" y="278.17959"/>
      </g>
     </g>
     <g id="text_29">
      <!-- −2 -->
      <g transform="translate(24.897813 281.978809)scale(0.1 -0.1)">
       <use xlink:href="#DejaVuSans-2212"/>
       <use x="83.789062" xlink:href="#DejaVuSans-32"/>
      </g>
     </g>
    </g>
    <g id="ytick_8">
     <g id="line2d_47">
      <path clip-path="url(#pff16b782ed)" d="M 46.64 245.764014 
L 218.713574 245.764014 
" style="fill:none;stroke:#b0b0b0;stroke-linecap:square;stroke-width:0.8;"/>
     </g>
     <g id="line2d_48">
      <g>
       <use style="stroke:#000000;stroke-width:0.8;" x="46.64" xlink:href="#mb5467f5fab" y="245.764014"/>
      </g>
     </g>
     <g id="text_30">
      <!-- 0 -->
      <g transform="translate(33.2775 249.563233)scale(0.1 -0.1)">
       <use xlink:href="#DejaVuSans-30"/>
      </g>
     </g>
    </g>
    <g id="ytick_9">
     <g id="line2d_49">
      <path clip-path="url(#pff16b782ed)" d="M 46.64 213.348438 
L 218.713574 213.348438 
" style="fill:none;stroke:#b0b0b0;stroke-linecap:square;stroke-width:0.8;"/>
     </g>
     <g id="line2d_50">
      <g>
       <use style="stroke:#000000;stroke-width:0.8;" x="46.64" xlink:href="#mb5467f5fab" y="213.348438"/>
      </g>
     </g>
     <g id="text_31">
      <!-- 2 -->
      <g transform="translate(33.2775 217.147657)scale(0.1 -0.1)">
       <use xlink:href="#DejaVuSans-32"/>
      </g>
     </g>
    </g>
    <g id="text_32">
     <!-- Amplitude -->
     <g transform="translate(18.818125 274.582656)rotate(-90)scale(0.1 -0.1)">
      <use xlink:href="#DejaVuSans-41"/>
      <use x="68.408203" xlink:href="#DejaVuSans-6d"/>
      <use x="165.820312" xlink:href="#DejaVuSans-70"/>
      <use x="229.296875" xlink:href="#DejaVuSans-6c"/>
      <use x="257.080078" xlink:href="#DejaVuSans-69"/>
      <use x="284.863281" xlink:href="#DejaVuSans-74"/>
      <use x="324.072266" xlink:href="#DejaVuSans-75"/>
      <use x="387.451172" xlink:href="#DejaVuSans-64"/>
      <use x="450.927734" xlink:href="#DejaVuSans-65"/>
     </g>
    </g>
   </g>
   <g id="line2d_51">
    <path clip-path="url(#pff16b782ed)" d="M 54.461526 246.586586 
L 55.074979 246.242077 
L 56.301885 244.841491 
L 56.915338 242.828215 
L 57.528791 241.589182 
L 58.142244 242.964909 
L 58.755697 243.5568 
L 59.36915 242.813786 
L 59.982603 245.282422 
L 60.596056 249.126379 
L 61.209509 248.547007 
L 61.822962 247.17485 
L 62.436415 249.995979 
L 63.049869 250.665256 
L 63.663322 245.845252 
L 64.276775 244.634278 
L 64.890228 248.48796 
L 65.503681 247.354172 
L 66.117134 243.524108 
L 66.730587 247.56138 
L 67.34404 253.008982 
L 67.957493 249.570375 
L 68.570946 246.791087 
L 69.184399 251.900445 
L 69.797852 251.521172 
L 70.411305 242.063019 
L 71.024758 239.645449 
L 71.638211 243.872778 
L 72.251664 238.759753 
L 72.865117 231.11954 
L 73.47857 236.819273 
L 74.092023 243.913133 
L 74.705476 239.107251 
L 75.318929 238.561672 
L 75.932382 250.053606 
L 76.545835 252.71361 
L 77.159288 243.895061 
L 77.772741 245.89242 
L 78.386194 254.470519 
L 78.999647 248.144765 
L 79.6131 239.208503 
L 80.840006 254.796054 
L 81.453459 246.536364 
L 82.066912 246.091171 
L 82.680365 260.436632 
L 83.293818 261.611567 
L 83.907271 249.599214 
L 84.520724 252.221507 
L 85.134178 260.062222 
L 86.361084 232.648435 
L 86.974537 238.780493 
L 87.58799 241.06708 
L 88.201443 225.719426 
L 88.814896 223.878392 
L 89.428349 240.643869 
L 90.041802 241.870599 
L 90.655255 231.72934 
L 91.268708 242.39951 
L 91.882161 257.682501 
L 93.109067 238.240603 
L 93.72252 251.382871 
L 94.335973 255.374132 
L 94.949426 238.245942 
L 95.562879 238.250797 
L 96.176332 257.145788 
L 96.789785 255.753592 
L 97.403238 244.126129 
L 98.630144 274.209185 
L 99.243597 260.938175 
L 99.85705 250.079458 
L 100.470503 263.007137 
L 101.083956 260.50936 
L 101.697409 234.039779 
L 102.310862 228.47652 
L 102.924315 241.341398 
L 103.537768 230.220169 
L 104.151221 212.82764 
L 105.378127 245.317217 
L 105.99158 233.238501 
L 106.605033 230.22039 
L 107.218487 254.101405 
L 107.83194 258.012402 
L 108.445393 236.981319 
L 109.058846 240.121005 
L 109.672299 258.319341 
L 110.285752 246.272201 
L 110.899205 229.428506 
L 112.126111 264.525098 
L 112.739564 249.873812 
L 113.353017 249.437091 
L 113.96647 276.689986 
L 114.579923 278.464705 
L 115.193376 254.854978 
L 115.806829 258.008771 
L 116.420282 271.301466 
L 117.647188 221.843462 
L 118.260641 232.979177 
L 118.874094 238.356763 
L 119.487547 213.343865 
L 120.101 210.834492 
L 120.714453 239.624684 
L 121.327906 242.086213 
L 121.941359 224.544061 
L 122.554812 240.326796 
L 123.168265 263.799472 
L 124.395171 230.004595 
L 125.008624 249.85397 
L 125.622077 256.652961 
L 126.23553 230.992186 
L 126.848983 231.767284 
L 127.462436 262.157653 
L 128.075889 262.046445 
L 128.689343 245.507123 
L 129.916249 290.505857 
L 131.143155 253.499322 
L 131.756608 270.867025 
L 132.370061 266.933949 
L 132.983514 228.759398 
L 133.596967 220.307564 
L 134.21042 239.043179 
L 134.823873 224.975802 
L 135.437326 201.576332 
L 136.664232 247.537082 
L 137.277685 231.384598 
L 137.891138 226.069791 
L 138.504591 256.819526 
L 139.118044 261.248002 
L 139.731497 231.912373 
L 140.34495 234.324163 
L 140.958403 257.863994 
L 141.571856 242.878325 
L 142.185309 221.450503 
L 143.412215 269.46787 
L 144.025668 252.561116 
L 144.639121 252.460329 
L 145.252574 287.219769 
L 145.866027 290.0083 
L 146.47948 259.791167 
L 147.092933 261.98481 
L 147.706386 277.525751 
L 148.933292 215.627005 
L 149.546745 228.756923 
L 150.160198 236.446972 
L 150.773652 207.602069 
L 151.387105 205.017754 
L 152.000558 240.180689 
L 152.614011 244.308456 
L 153.227464 223.361269 
L 153.840917 240.464896 
L 154.45437 266.958198 
L 155.681276 224.757885 
L 156.294729 246.075369 
L 156.908182 254.020202 
L 157.521635 225.22353 
L 158.135088 226.358602 
L 158.748541 262.196082 
L 159.361994 264.499632 
L 159.975447 247.332882 
L 161.202353 298.669091 
L 162.429259 256.617852 
L 163.042712 273.970311 
L 163.656165 269.029397 
L 164.269618 226.724189 
L 164.883071 216.372042 
L 165.496524 236.767953 
L 166.109977 223.235284 
L 166.72343 199.250909 
L 167.336883 222.528379 
L 167.950336 250.161857 
L 168.563789 234.178364 
L 169.177242 227.772788 
L 169.790695 258.555461 
L 170.404148 262.299099 
L 171.017601 230.244352 
L 171.631054 230.303496 
L 172.244508 253.371183 
L 172.857961 238.375482 
L 173.471414 216.771008 
L 174.69832 268.311578 
L 175.311773 253.782365 
L 175.925226 254.757695 
L 176.538679 290.150205 
L 177.152132 293.843455 
L 177.765585 263.445133 
L 178.379038 263.554693 
L 178.992491 277.252245 
L 180.219397 214.730266 
L 180.83285 226.491257 
L 181.446303 234.900166 
L 182.059756 208.915563 
L 182.673209 207.457862 
L 183.286662 242.263976 
L 183.900115 248.088474 
L 184.513568 228.840677 
L 185.127021 243.672354 
L 185.740474 267.198742 
L 186.96738 224.159408 
L 187.580833 241.357264 
L 188.194286 247.999595 
L 188.807739 221.930977 
L 189.421192 223.239157 
L 190.034645 257.272573 
L 190.648098 262.332007 
L 191.261551 249.222717 
L 192.488457 297.1529 
L 193.715363 258.905517 
L 194.328817 271.740584 
L 194.94227 265.854341 
L 195.555723 227.653111 
L 196.169176 217.031573 
L 196.782629 234.390789 
L 197.396082 224.479696 
L 198.009535 205.823777 
L 198.622988 227.095794 
L 199.236441 252.633247 
L 199.849894 241.077573 
L 200.463347 235.56098 
L 201.0768 259.739009 
L 201.690253 261.371712 
L 202.303706 232.698354 
L 202.917159 229.520011 
L 203.530612 246.122944 
L 204.144065 233.579059 
L 204.757518 216.38489 
L 205.984424 261.258863 
L 206.597877 253.119988 
L 207.21133 256.104761 
L 207.824783 285.217884 
L 208.438236 289.111293 
L 209.051689 264.960526 
L 209.665142 262.527337 
L 210.278595 270.344812 
L 210.892048 246.143672 
L 210.892048 246.143672 
" style="fill:none;stroke:#1f77b4;stroke-linecap:square;stroke-width:1.5;"/>
   </g>
   <g id="patch_13">
    <path d="M 46.64 303.64 
L 46.64 194.28 
" style="fill:none;stroke:#000000;stroke-linecap:square;stroke-linejoin:miter;stroke-width:0.8;"/>
   </g>
   <g id="patch_14">
    <path d="M 218.713574 303.64 
L 218.713574 194.28 
" style="fill:none;stroke:#000000;stroke-linecap:square;stroke-linejoin:miter;stroke-width:0.8;"/>
   </g>
   <g id="patch_15">
    <path d="M 46.64 303.64 
L 218.713574 303.64 
" style="fill:none;stroke:#000000;stroke-linecap:square;stroke-linejoin:miter;stroke-width:0.8;"/>
   </g>
   <g id="patch_16">
    <path d="M 46.64 194.28 
L 218.713574 194.28 
" style="fill:none;stroke:#000000;stroke-linecap:square;stroke-linejoin:miter;stroke-width:0.8;"/>
   </g>
   <g id="text_33">
    <!-- Reconstructed Signal (k=6) -->
    <defs>
     <path d="M 33.015625 40.375 
Q 26.375 40.375 22.484375 35.828125 
Q 18.609375 31.296875 18.609375 23.390625 
Q 18.609375 15.53125 22.484375 10.953125 
Q 26.375 6.390625 33.015625 6.390625 
Q 39.65625 6.390625 43.53125 10.953125 
Q 47.40625 15.53125 47.40625 23.390625 
Q 47.40625 31.296875 43.53125 35.828125 
Q 39.65625 40.375 33.015625 40.375 
M 52.59375 71.296875 
L 52.59375 62.3125 
Q 48.875 64.0625 45.09375 64.984375 
Q 41.3125 65.921875 37.59375 65.921875 
Q 27.828125 65.921875 22.671875 59.328125 
Q 17.53125 52.734375 16.796875 39.40625 
Q 19.671875 43.65625 24.015625 45.921875 
Q 28.375 48.1875 33.59375 48.1875 
Q 44.578125 48.1875 50.953125 41.515625 
Q 57.328125 34.859375 57.328125 23.390625 
Q 57.328125 12.15625 50.6875 5.359375 
Q 44.046875 -1.421875 33.015625 -1.421875 
Q 20.359375 -1.421875 13.671875 8.265625 
Q 6.984375 17.96875 6.984375 36.375 
Q 6.984375 53.65625 15.1875 63.9375 
Q 23.390625 74.21875 37.203125 74.21875 
Q 40.921875 74.21875 44.703125 73.484375 
Q 48.484375 72.75 52.59375 71.296875 
" id="DejaVuSans-36"/>
    </defs>
    <g transform="translate(49.901162 188.28)scale(0.12 -0.12)">
     <use xlink:href="#DejaVuSans-52"/>
     <use x="69.419922" xlink:href="#DejaVuSans-65"/>
     <use x="130.943359" xlink:href="#DejaVuSans-63"/>
     <use x="185.923828" xlink:href="#DejaVuSans-6f"/>
     <use x="247.105469" xlink:href="#DejaVuSans-6e"/>
     <use x="310.484375" xlink:href="#DejaVuSans-73"/>
     <use x="362.583984" xlink:href="#DejaVuSans-74"/>
     <use x="401.792969" xlink:href="#DejaVuSans-72"/>
     <use x="442.90625" xlink:href="#DejaVuSans-75"/>
     <use x="506.285156" xlink:href="#DejaVuSans-63"/>
     <use x="561.265625" xlink:href="#DejaVuSans-74"/>
     <use x="600.474609" xlink:href="#DejaVuSans-65"/>
     <use x="661.998047" xlink:href="#DejaVuSans-64"/>
     <use x="725.474609" xlink:href="#DejaVuSans-20"/>
     <use x="757.261719" xlink:href="#DejaVuSans-53"/>
     <use x="820.738281" xlink:href="#DejaVuSans-69"/>
     <use x="848.521484" xlink:href="#DejaVuSans-67"/>
     <use x="911.998047" xlink:href="#DejaVuSans-6e"/>
     <use x="975.376953" xlink:href="#DejaVuSans-61"/>
     <use x="1036.65625" xlink:href="#DejaVuSans-6c"/>
     <use x="1064.439453" xlink:href="#DejaVuSans-20"/>
     <use x="1096.226562" xlink:href="#DejaVuSans-28"/>
     <use x="1135.240234" xlink:href="#DejaVuSans-6b"/>
     <use x="1193.150391" xlink:href="#DejaVuSans-3d"/>
     <use x="1276.939453" xlink:href="#DejaVuSans-36"/>
     <use x="1340.5625" xlink:href="#DejaVuSans-29"/>
    </g>
   </g>
  </g>
  <g id="axes_4">
   <g id="patch_17">
    <path d="M 269.045062 303.64 
L 441.118636 303.64 
L 441.118636 194.28 
L 269.045062 194.28 
z
" style="fill:#ffffff;"/>
   </g>
   <g id="matplotlib.axis_7">
    <g id="xtick_16">
     <g id="line2d_52">
      <path clip-path="url(#p9ecfbad13a)" d="M 276.866588 303.64 
L 276.866588 194.28 
" style="fill:none;stroke:#b0b0b0;stroke-linecap:square;stroke-width:0.8;"/>
     </g>
     <g id="line2d_53">
      <g>
       <use style="stroke:#000000;stroke-width:0.8;" x="276.866588" xlink:href="#m45faa6564d" y="303.64"/>
      </g>
     </g>
     <g id="text_34">
      <!-- 0.00 -->
      <g transform="translate(265.733776 318.238438)scale(0.1 -0.1)">
       <use xlink:href="#DejaVuSans-30"/>
       <use x="63.623047" xlink:href="#DejaVuSans-2e"/>
       <use x="95.410156" xlink:href="#DejaVuSans-30"/>
       <use x="159.033203" xlink:href="#DejaVuSans-30"/>
      </g>
     </g>
    </g>
    <g id="xtick_17">
     <g id="line2d_54">
      <path clip-path="url(#p9ecfbad13a)" d="M 315.974219 303.64 
L 315.974219 194.28 
" style="fill:none;stroke:#b0b0b0;stroke-linecap:square;stroke-width:0.8;"/>
     </g>
     <g id="line2d_55">
      <g>
       <use style="stroke:#000000;stroke-width:0.8;" x="315.974219" xlink:href="#m45faa6564d" y="303.64"/>
      </g>
     </g>
     <g id="text_35">
      <!-- 0.25 -->
      <g transform="translate(304.841406 318.238438)scale(0.1 -0.1)">
       <use xlink:href="#DejaVuSans-30"/>
       <use x="63.623047" xlink:href="#DejaVuSans-2e"/>
       <use x="95.410156" xlink:href="#DejaVuSans-32"/>
       <use x="159.033203" xlink:href="#DejaVuSans-35"/>
      </g>
     </g>
    </g>
    <g id="xtick_18">
     <g id="line2d_56">
      <path clip-path="url(#p9ecfbad13a)" d="M 355.081849 303.64 
L 355.081849 194.28 
" style="fill:none;stroke:#b0b0b0;stroke-linecap:square;stroke-width:0.8;"/>
     </g>
     <g id="line2d_57">
      <g>
       <use style="stroke:#000000;stroke-width:0.8;" x="355.081849" xlink:href="#m45faa6564d" y="303.64"/>
      </g>
     </g>
     <g id="text_36">
      <!-- 0.50 -->
      <g transform="translate(343.949037 318.238438)scale(0.1 -0.1)">
       <use xlink:href="#DejaVuSans-30"/>
       <use x="63.623047" xlink:href="#DejaVuSans-2e"/>
       <use x="95.410156" xlink:href="#DejaVuSans-35"/>
       <use x="159.033203" xlink:href="#DejaVuSans-30"/>
      </g>
     </g>
    </g>
    <g id="xtick_19">
     <g id="line2d_58">
      <path clip-path="url(#p9ecfbad13a)" d="M 394.18948 303.64 
L 394.18948 194.28 
" style="fill:none;stroke:#b0b0b0;stroke-linecap:square;stroke-width:0.8;"/>
     </g>
     <g id="line2d_59">
      <g>
       <use style="stroke:#000000;stroke-width:0.8;" x="394.18948" xlink:href="#m45faa6564d" y="303.64"/>
      </g>
     </g>
     <g id="text_37">
      <!-- 0.75 -->
      <g transform="translate(383.056667 318.238438)scale(0.1 -0.1)">
       <use xlink:href="#DejaVuSans-30"/>
       <use x="63.623047" xlink:href="#DejaVuSans-2e"/>
       <use x="95.410156" xlink:href="#DejaVuSans-37"/>
       <use x="159.033203" xlink:href="#DejaVuSans-35"/>
      </g>
     </g>
    </g>
    <g id="xtick_20">
     <g id="line2d_60">
      <path clip-path="url(#p9ecfbad13a)" d="M 433.29711 303.64 
L 433.29711 194.28 
" style="fill:none;stroke:#b0b0b0;stroke-linecap:square;stroke-width:0.8;"/>
     </g>
     <g id="line2d_61">
      <g>
       <use style="stroke:#000000;stroke-width:0.8;" x="433.29711" xlink:href="#m45faa6564d" y="303.64"/>
      </g>
     </g>
     <g id="text_38">
      <!-- 1.00 -->
      <g transform="translate(422.164298 318.238438)scale(0.1 -0.1)">
       <use xlink:href="#DejaVuSans-31"/>
       <use x="63.623047" xlink:href="#DejaVuSans-2e"/>
       <use x="95.410156" xlink:href="#DejaVuSans-30"/>
       <use x="159.033203" xlink:href="#DejaVuSans-30"/>
      </g>
     </g>
    </g>
    <g id="text_39">
     <!-- Time/s -->
     <g transform="translate(338.405287 331.916562)scale(0.1 -0.1)">
      <use xlink:href="#DejaVuSans-54"/>
      <use x="61.037109" xlink:href="#DejaVuSans-69"/>
      <use x="88.820312" xlink:href="#DejaVuSans-6d"/>
      <use x="186.232422" xlink:href="#DejaVuSans-65"/>
      <use x="247.755859" xlink:href="#DejaVuSans-2f"/>
      <use x="281.447266" xlink:href="#DejaVuSans-73"/>
     </g>
    </g>
   </g>
   <g id="matplotlib.axis_8">
    <g id="ytick_10">
     <g id="line2d_62">
      <path clip-path="url(#p9ecfbad13a)" d="M 269.045062 285.875934 
L 441.118636 285.875934 
" style="fill:none;stroke:#b0b0b0;stroke-linecap:square;stroke-width:0.8;"/>
     </g>
     <g id="line2d_63">
      <g>
       <use style="stroke:#000000;stroke-width:0.8;" x="269.045062" xlink:href="#mb5467f5fab" y="285.875934"/>
      </g>
     </g>
     <g id="text_40">
      <!-- −2 -->
      <g transform="translate(247.302874 289.675153)scale(0.1 -0.1)">
       <use xlink:href="#DejaVuSans-2212"/>
       <use x="83.789062" xlink:href="#DejaVuSans-32"/>
      </g>
     </g>
    </g>
    <g id="ytick_11">
     <g id="line2d_64">
      <path clip-path="url(#p9ecfbad13a)" d="M 269.045062 249.162158 
L 441.118636 249.162158 
" style="fill:none;stroke:#b0b0b0;stroke-linecap:square;stroke-width:0.8;"/>
     </g>
     <g id="line2d_65">
      <g>
       <use style="stroke:#000000;stroke-width:0.8;" x="269.045062" xlink:href="#mb5467f5fab" y="249.162158"/>
      </g>
     </g>
     <g id="text_41">
      <!-- 0 -->
      <g transform="translate(255.682562 252.961377)scale(0.1 -0.1)">
       <use xlink:href="#DejaVuSans-30"/>
      </g>
     </g>
    </g>
    <g id="ytick_12">
     <g id="line2d_66">
      <path clip-path="url(#p9ecfbad13a)" d="M 269.045062 212.448382 
L 441.118636 212.448382 
" style="fill:none;stroke:#b0b0b0;stroke-linecap:square;stroke-width:0.8;"/>
     </g>
     <g id="line2d_67">
      <g>
       <use style="stroke:#000000;stroke-width:0.8;" x="269.045062" xlink:href="#mb5467f5fab" y="212.448382"/>
      </g>
     </g>
     <g id="text_42">
      <!-- 2 -->
      <g transform="translate(255.682562 216.247601)scale(0.1 -0.1)">
       <use xlink:href="#DejaVuSans-32"/>
      </g>
     </g>
    </g>
    <g id="text_43">
     <!-- Amplitude -->
     <g transform="translate(241.223187 274.582656)rotate(-90)scale(0.1 -0.1)">
      <use xlink:href="#DejaVuSans-41"/>
      <use x="68.408203" xlink:href="#DejaVuSans-6d"/>
      <use x="165.820312" xlink:href="#DejaVuSans-70"/>
      <use x="229.296875" xlink:href="#DejaVuSans-6c"/>
      <use x="257.080078" xlink:href="#DejaVuSans-69"/>
      <use x="284.863281" xlink:href="#DejaVuSans-74"/>
      <use x="324.072266" xlink:href="#DejaVuSans-75"/>
      <use x="387.451172" xlink:href="#DejaVuSans-64"/>
      <use x="450.927734" xlink:href="#DejaVuSans-65"/>
     </g>
    </g>
   </g>
   <g id="line2d_68">
    <path clip-path="url(#p9ecfbad13a)" d="M 276.866588 243.75065 
L 277.480041 225.060288 
L 278.093494 224.878811 
L 278.706947 236.715951 
L 279.3204 209.388829 
L 279.933853 206.782941 
L 280.547306 243.149291 
L 281.160759 241.511808 
L 281.774212 225.97268 
L 283.001118 274.692989 
L 284.228024 234.175298 
L 284.841477 254.050278 
L 285.45493 260.458266 
L 286.068384 229.954087 
L 286.681837 231.956321 
L 287.29529 266.159439 
L 287.908743 264.345145 
L 288.522196 249.6352 
L 289.749102 296.940149 
L 290.362555 276.772166 
L 290.976008 260.408338 
L 291.589461 277.783111 
L 292.202914 270.195461 
L 292.816367 227.81722 
L 293.42982 220.47986 
L 294.043273 238.36228 
L 295.270179 199.4849 
L 296.497085 250.257186 
L 297.110538 235.564926 
L 297.723991 233.154354 
L 298.337444 265.75505 
L 298.950897 268.846361 
L 299.56435 238.863629 
L 300.177803 242.921224 
L 300.791256 263.724184 
L 302.018162 225.109193 
L 303.245068 269.603588 
L 303.858521 252.819676 
L 304.471974 255.705033 
L 305.085427 291.304897 
L 305.69888 292.09921 
L 306.312333 263.018961 
L 306.925786 267.901548 
L 307.539239 280.614858 
L 308.766146 218.107334 
L 309.379599 230.67215 
L 309.993052 235.441969 
L 310.606505 207.063724 
L 311.219958 207.175208 
L 311.833411 242.29792 
L 312.446864 245.182094 
L 313.060317 227.918876 
L 314.287223 273.642819 
L 315.514129 235.102304 
L 316.127582 255.684227 
L 316.741035 259.569093 
L 317.354488 230.011122 
L 317.967941 232.41495 
L 318.581394 265.669123 
L 319.194847 264.168264 
L 319.8083 248.706265 
L 321.035206 298.543299 
L 321.648659 276.955737 
L 322.262112 260.204726 
L 322.875565 277.48323 
L 323.489018 270.042794 
L 324.102471 228.722531 
L 324.715924 220.664404 
L 325.329377 238.47132 
L 325.94283 221.4948 
L 326.556283 200.019756 
L 327.783189 249.836381 
L 328.396642 234.874974 
L 329.010095 233.577287 
L 329.623549 265.675935 
L 330.237002 268.523205 
L 330.850455 239.274033 
L 331.463908 242.61006 
L 332.077361 263.53513 
L 333.304267 225.38318 
L 334.531173 269.405601 
L 335.144626 253.324698 
L 335.758079 256.156455 
L 336.371532 290.102668 
L 336.984985 291.445204 
L 337.598438 264.057131 
L 338.211891 268.340873 
L 338.825344 280.217656 
L 340.05225 218.359188 
L 340.665703 230.687251 
L 341.279156 234.535263 
L 341.892609 206.652492 
L 342.506062 207.693734 
L 343.119515 242.655218 
L 343.732968 245.871987 
L 344.346421 228.596218 
L 344.959874 248.808994 
L 345.573327 273.568651 
L 346.800233 235.251483 
L 347.413686 255.309118 
L 348.027139 259.17662 
L 348.640592 230.564925 
L 349.254045 232.5457 
L 349.867498 264.342504 
L 350.480951 263.287045 
L 351.094404 248.919853 
L 352.321311 298.667212 
L 352.934764 277.317935 
L 353.548217 261.160911 
L 354.16167 278.210915 
L 354.775123 269.933568 
L 355.388576 228.611756 
L 356.002029 220.573923 
L 356.615482 238.329492 
L 357.228935 221.780823 
L 357.842388 199.985208 
L 359.069294 249.263085 
L 359.682747 234.412508 
L 360.2962 233.02841 
L 360.909653 265.091333 
L 361.523106 268.058799 
L 362.136559 239.245973 
L 362.750012 242.816037 
L 363.363465 263.289347 
L 364.590371 224.700743 
L 365.203824 249.8086 
L 365.817277 270.189227 
L 366.43073 253.482576 
L 367.044183 256.762484 
L 367.657636 291.554459 
L 368.271089 292.181815 
L 368.884542 263.206184 
L 369.497995 267.326366 
L 370.111448 280.244982 
L 371.338354 217.802105 
L 371.951807 230.450056 
L 372.56526 234.737199 
L 373.178714 206.500743 
L 373.792167 207.020896 
L 374.40562 241.888358 
L 375.019073 245.328629 
L 375.632526 228.401637 
L 376.245979 249.151828 
L 376.859432 273.968114 
L 378.086338 234.811073 
L 378.699791 255.454188 
L 379.313244 259.023673 
L 379.926697 229.736673 
L 380.54015 232.244023 
L 381.153603 265.149268 
L 381.767056 263.879442 
L 382.380509 248.354549 
L 383.607415 298.64845 
L 384.220868 276.866677 
L 384.834321 260.235053 
L 385.447774 277.736566 
L 386.061227 269.923752 
L 386.67468 228.417785 
L 387.288133 220.070767 
L 387.901586 237.812758 
L 388.515039 221.099662 
L 389.128492 199.250909 
L 390.355398 249.542175 
L 390.968851 234.323083 
L 391.582304 233.139014 
L 392.195757 265.790304 
L 392.80921 268.458473 
L 393.422663 238.838759 
L 394.036116 242.582131 
L 394.649569 263.893781 
L 395.876476 224.294131 
L 396.489929 249.646657 
L 397.103382 270.267007 
L 397.716835 252.887157 
L 398.330288 255.707637 
L 398.943741 290.851576 
L 399.557194 291.78841 
L 400.170647 262.632155 
L 400.7841 266.917883 
L 401.397553 280.307236 
L 402.624459 217.283131 
L 403.237912 230.360677 
L 403.851365 234.765649 
L 404.464818 206.098903 
L 405.078271 206.671212 
L 405.691724 242.068355 
L 406.305177 245.42014 
L 406.91863 227.845645 
L 407.532083 248.755529 
L 408.145536 274.121635 
L 409.372442 234.405144 
L 409.985895 255.728192 
L 410.599348 259.637823 
L 411.212801 229.901629 
L 411.826254 232.225804 
L 412.439707 265.525903 
L 413.05316 264.055176 
L 413.666613 247.728391 
L 414.893519 298.669091 
L 415.506972 276.580071 
L 416.120425 259.651761 
L 416.733878 277.557778 
L 417.347332 270.008382 
L 417.960785 228.195644 
L 418.574238 219.776734 
L 419.187691 238.045103 
L 419.801144 221.458234 
L 420.414597 199.412814 
L 421.641503 250.242839 
L 422.254956 234.298581 
L 422.868409 232.813604 
L 423.481862 265.86413 
L 424.095315 268.490191 
L 424.708768 238.256496 
L 425.322221 242.203308 
L 425.935674 264.444617 
L 427.16258 223.60534 
L 428.389486 270.165105 
L 429.002939 252.576481 
L 429.616392 255.088697 
L 430.229845 290.649154 
L 430.843298 292.080477 
L 431.456751 262.78927 
L 432.070204 267.204261 
L 432.683657 281.112067 
L 433.29711 249.832521 
L 433.29711 249.832521 
" style="fill:none;stroke:#1f77b4;stroke-linecap:square;stroke-width:1.5;"/>
   </g>
   <g id="patch_18">
    <path d="M 269.045062 303.64 
L 269.045062 194.28 
" style="fill:none;stroke:#000000;stroke-linecap:square;stroke-linejoin:miter;stroke-width:0.8;"/>
   </g>
   <g id="patch_19">
    <path d="M 441.118636 303.64 
L 441.118636 194.28 
" style="fill:none;stroke:#000000;stroke-linecap:square;stroke-linejoin:miter;stroke-width:0.8;"/>
   </g>
   <g id="patch_20">
    <path d="M 269.045062 303.64 
L 441.118636 303.64 
" style="fill:none;stroke:#000000;stroke-linecap:square;stroke-linejoin:miter;stroke-width:0.8;"/>
   </g>
   <g id="patch_21">
    <path d="M 269.045062 194.28 
L 441.118636 194.28 
" style="fill:none;stroke:#000000;stroke-linecap:square;stroke-linejoin:miter;stroke-width:0.8;"/>
   </g>
   <g id="text_44">
    <!-- Reconstructed Signal (k=100) -->
    <g transform="translate(264.671224 188.28)scale(0.12 -0.12)">
     <use xlink:href="#DejaVuSans-52"/>
     <use x="69.419922" xlink:href="#DejaVuSans-65"/>
     <use x="130.943359" xlink:href="#DejaVuSans-63"/>
     <use x="185.923828" xlink:href="#DejaVuSans-6f"/>
     <use x="247.105469" xlink:href="#DejaVuSans-6e"/>
     <use x="310.484375" xlink:href="#DejaVuSans-73"/>
     <use x="362.583984" xlink:href="#DejaVuSans-74"/>
     <use x="401.792969" xlink:href="#DejaVuSans-72"/>
     <use x="442.90625" xlink:href="#DejaVuSans-75"/>
     <use x="506.285156" xlink:href="#DejaVuSans-63"/>
     <use x="561.265625" xlink:href="#DejaVuSans-74"/>
     <use x="600.474609" xlink:href="#DejaVuSans-65"/>
     <use x="661.998047" xlink:href="#DejaVuSans-64"/>
     <use x="725.474609" xlink:href="#DejaVuSans-20"/>
     <use x="757.261719" xlink:href="#DejaVuSans-53"/>
     <use x="820.738281" xlink:href="#DejaVuSans-69"/>
     <use x="848.521484" xlink:href="#DejaVuSans-67"/>
     <use x="911.998047" xlink:href="#DejaVuSans-6e"/>
     <use x="975.376953" xlink:href="#DejaVuSans-61"/>
     <use x="1036.65625" xlink:href="#DejaVuSans-6c"/>
     <use x="1064.439453" xlink:href="#DejaVuSans-20"/>
     <use x="1096.226562" xlink:href="#DejaVuSans-28"/>
     <use x="1135.240234" xlink:href="#DejaVuSans-6b"/>
     <use x="1193.150391" xlink:href="#DejaVuSans-3d"/>
     <use x="1276.939453" xlink:href="#DejaVuSans-31"/>
     <use x="1340.5625" xlink:href="#DejaVuSans-30"/>
     <use x="1404.185547" xlink:href="#DejaVuSans-30"/>
     <use x="1467.808594" xlink:href="#DejaVuSans-29"/>
    </g>
   </g>
  </g>
 </g>
 <defs>
  <clipPath id="p874b716f0c">
   <rect height="109.36" width="172.073574" x="46.64" y="26.88"/>
  </clipPath>
  <clipPath id="p66c3dc62d5">
   <rect height="109.36" width="172.073574" x="269.045062" y="26.88"/>
  </clipPath>
  <clipPath id="pff16b782ed">
   <rect height="109.36" width="172.073574" x="46.64" y="194.28"/>
  </clipPath>
  <clipPath id="p9ecfbad13a">
   <rect height="109.36" width="172.073574" x="269.045062" y="194.28"/>
  </clipPath>
 </defs>
</svg>
