<?xml version="1.0" encoding="utf-8" standalone="no"?>
<!DOCTYPE svg PUBLIC "-//W3C//DTD SVG 1.1//EN"
  "http://www.w3.org/Graphics/SVG/1.1/DTD/svg11.dtd">
<!-- Created with matplotlib (http://matplotlib.org/) -->
<svg height="345pt" version="1.1" viewBox="0 0 789 345" width="789pt" xmlns="http://www.w3.org/2000/svg" xmlns:xlink="http://www.w3.org/1999/xlink">
 <defs>
  <style type="text/css">
*{stroke-linecap:butt;stroke-linejoin:round;}
  </style>
 </defs>
 <g id="figure_1">
  <g id="patch_1">
   <path d="M 0 345.6 
L 789.12 345.6 
L 789.12 0 
L 0 0 
z
" style="fill:#ffffff;"/>
  </g>
  <g id="axes_1">
   <g id="patch_2">
    <path d="M 98.64 307.584 
L 376.625455 307.584 
L 376.625455 41.472 
L 98.64 41.472 
z
" style="fill:#ffffff;"/>
   </g>
   <g id="matplotlib.axis_1">
    <g id="xtick_1">
     <g id="line2d_1">
      <path clip-path="url(#p321f6d0165)" d="M 111.275702 307.584 
L 111.275702 41.472 
" style="fill:none;stroke:#b0b0b0;stroke-linecap:square;stroke-width:0.8;"/>
     </g>
     <g id="line2d_2">
      <defs>
       <path d="M 0 0 
L 0 3.5 
" id="m4f34648dd0" style="stroke:#000000;stroke-width:0.8;"/>
      </defs>
      <g>
       <use style="stroke:#000000;stroke-width:0.8;" x="111.275702" xlink:href="#m4f34648dd0" y="307.584"/>
      </g>
     </g>
     <g id="text_1">
      <!-- 0.0 -->
      <defs>
       <path d="M 31.78125 66.40625 
Q 24.171875 66.40625 20.328125 58.90625 
Q 16.5 51.421875 16.5 36.375 
Q 16.5 21.390625 20.328125 13.890625 
Q 24.171875 6.390625 31.78125 6.390625 
Q 39.453125 6.390625 43.28125 13.890625 
Q 47.125 21.390625 47.125 36.375 
Q 47.125 51.421875 43.28125 58.90625 
Q 39.453125 66.40625 31.78125 66.40625 
M 31.78125 74.21875 
Q 44.046875 74.21875 50.515625 64.515625 
Q 56.984375 54.828125 56.984375 36.375 
Q 56.984375 17.96875 50.515625 8.265625 
Q 44.046875 -1.421875 31.78125 -1.421875 
Q 19.53125 -1.421875 13.0625 8.265625 
Q 6.59375 17.96875 6.59375 36.375 
Q 6.59375 54.828125 13.0625 64.515625 
Q 19.53125 74.21875 31.78125 74.21875 
" id="DejaVuSans-30"/>
       <path d="M 10.6875 12.40625 
L 21 12.40625 
L 21 0 
L 10.6875 0 
z
" id="DejaVuSans-2e"/>
      </defs>
      <g transform="translate(103.32414 322.182437)scale(0.1 -0.1)">
       <use xlink:href="#DejaVuSans-30"/>
       <use x="63.623047" xlink:href="#DejaVuSans-2e"/>
       <use x="95.410156" xlink:href="#DejaVuSans-30"/>
      </g>
     </g>
    </g>
    <g id="xtick_2">
     <g id="line2d_3">
      <path clip-path="url(#p321f6d0165)" d="M 161.818512 307.584 
L 161.818512 41.472 
" style="fill:none;stroke:#b0b0b0;stroke-linecap:square;stroke-width:0.8;"/>
     </g>
     <g id="line2d_4">
      <g>
       <use style="stroke:#000000;stroke-width:0.8;" x="161.818512" xlink:href="#m4f34648dd0" y="307.584"/>
      </g>
     </g>
     <g id="text_2">
      <!-- 0.2 -->
      <defs>
       <path d="M 19.1875 8.296875 
L 53.609375 8.296875 
L 53.609375 0 
L 7.328125 0 
L 7.328125 8.296875 
Q 12.9375 14.109375 22.625 23.890625 
Q 32.328125 33.6875 34.8125 36.53125 
Q 39.546875 41.84375 41.421875 45.53125 
Q 43.3125 49.21875 43.3125 52.78125 
Q 43.3125 58.59375 39.234375 62.25 
Q 35.15625 65.921875 28.609375 65.921875 
Q 23.96875 65.921875 18.8125 64.3125 
Q 13.671875 62.703125 7.8125 59.421875 
L 7.8125 69.390625 
Q 13.765625 71.78125 18.9375 73 
Q 24.125 74.21875 28.421875 74.21875 
Q 39.75 74.21875 46.484375 68.546875 
Q 53.21875 62.890625 53.21875 53.421875 
Q 53.21875 48.921875 51.53125 44.890625 
Q 49.859375 40.875 45.40625 35.40625 
Q 44.1875 33.984375 37.640625 27.21875 
Q 31.109375 20.453125 19.1875 8.296875 
" id="DejaVuSans-32"/>
      </defs>
      <g transform="translate(153.86695 322.182437)scale(0.1 -0.1)">
       <use xlink:href="#DejaVuSans-30"/>
       <use x="63.623047" xlink:href="#DejaVuSans-2e"/>
       <use x="95.410156" xlink:href="#DejaVuSans-32"/>
      </g>
     </g>
    </g>
    <g id="xtick_3">
     <g id="line2d_5">
      <path clip-path="url(#p321f6d0165)" d="M 212.361322 307.584 
L 212.361322 41.472 
" style="fill:none;stroke:#b0b0b0;stroke-linecap:square;stroke-width:0.8;"/>
     </g>
     <g id="line2d_6">
      <g>
       <use style="stroke:#000000;stroke-width:0.8;" x="212.361322" xlink:href="#m4f34648dd0" y="307.584"/>
      </g>
     </g>
     <g id="text_3">
      <!-- 0.4 -->
      <defs>
       <path d="M 37.796875 64.3125 
L 12.890625 25.390625 
L 37.796875 25.390625 
z
M 35.203125 72.90625 
L 47.609375 72.90625 
L 47.609375 25.390625 
L 58.015625 25.390625 
L 58.015625 17.1875 
L 47.609375 17.1875 
L 47.609375 0 
L 37.796875 0 
L 37.796875 17.1875 
L 4.890625 17.1875 
L 4.890625 26.703125 
z
" id="DejaVuSans-34"/>
      </defs>
      <g transform="translate(204.40976 322.182437)scale(0.1 -0.1)">
       <use xlink:href="#DejaVuSans-30"/>
       <use x="63.623047" xlink:href="#DejaVuSans-2e"/>
       <use x="95.410156" xlink:href="#DejaVuSans-34"/>
      </g>
     </g>
    </g>
    <g id="xtick_4">
     <g id="line2d_7">
      <path clip-path="url(#p321f6d0165)" d="M 262.904132 307.584 
L 262.904132 41.472 
" style="fill:none;stroke:#b0b0b0;stroke-linecap:square;stroke-width:0.8;"/>
     </g>
     <g id="line2d_8">
      <g>
       <use style="stroke:#000000;stroke-width:0.8;" x="262.904132" xlink:href="#m4f34648dd0" y="307.584"/>
      </g>
     </g>
     <g id="text_4">
      <!-- 0.6 -->
      <defs>
       <path d="M 33.015625 40.375 
Q 26.375 40.375 22.484375 35.828125 
Q 18.609375 31.296875 18.609375 23.390625 
Q 18.609375 15.53125 22.484375 10.953125 
Q 26.375 6.390625 33.015625 6.390625 
Q 39.65625 6.390625 43.53125 10.953125 
Q 47.40625 15.53125 47.40625 23.390625 
Q 47.40625 31.296875 43.53125 35.828125 
Q 39.65625 40.375 33.015625 40.375 
M 52.59375 71.296875 
L 52.59375 62.3125 
Q 48.875 64.0625 45.09375 64.984375 
Q 41.3125 65.921875 37.59375 65.921875 
Q 27.828125 65.921875 22.671875 59.328125 
Q 17.53125 52.734375 16.796875 39.40625 
Q 19.671875 43.65625 24.015625 45.921875 
Q 28.375 48.1875 33.59375 48.1875 
Q 44.578125 48.1875 50.953125 41.515625 
Q 57.328125 34.859375 57.328125 23.390625 
Q 57.328125 12.15625 50.6875 5.359375 
Q 44.046875 -1.421875 33.015625 -1.421875 
Q 20.359375 -1.421875 13.671875 8.265625 
Q 6.984375 17.96875 6.984375 36.375 
Q 6.984375 53.65625 15.1875 63.9375 
Q 23.390625 74.21875 37.203125 74.21875 
Q 40.921875 74.21875 44.703125 73.484375 
Q 48.484375 72.75 52.59375 71.296875 
" id="DejaVuSans-36"/>
      </defs>
      <g transform="translate(254.95257 322.182437)scale(0.1 -0.1)">
       <use xlink:href="#DejaVuSans-30"/>
       <use x="63.623047" xlink:href="#DejaVuSans-2e"/>
       <use x="95.410156" xlink:href="#DejaVuSans-36"/>
      </g>
     </g>
    </g>
    <g id="xtick_5">
     <g id="line2d_9">
      <path clip-path="url(#p321f6d0165)" d="M 313.446942 307.584 
L 313.446942 41.472 
" style="fill:none;stroke:#b0b0b0;stroke-linecap:square;stroke-width:0.8;"/>
     </g>
     <g id="line2d_10">
      <g>
       <use style="stroke:#000000;stroke-width:0.8;" x="313.446942" xlink:href="#m4f34648dd0" y="307.584"/>
      </g>
     </g>
     <g id="text_5">
      <!-- 0.8 -->
      <defs>
       <path d="M 31.78125 34.625 
Q 24.75 34.625 20.71875 30.859375 
Q 16.703125 27.09375 16.703125 20.515625 
Q 16.703125 13.921875 20.71875 10.15625 
Q 24.75 6.390625 31.78125 6.390625 
Q 38.8125 6.390625 42.859375 10.171875 
Q 46.921875 13.96875 46.921875 20.515625 
Q 46.921875 27.09375 42.890625 30.859375 
Q 38.875 34.625 31.78125 34.625 
M 21.921875 38.8125 
Q 15.578125 40.375 12.03125 44.71875 
Q 8.5 49.078125 8.5 55.328125 
Q 8.5 64.0625 14.71875 69.140625 
Q 20.953125 74.21875 31.78125 74.21875 
Q 42.671875 74.21875 48.875 69.140625 
Q 55.078125 64.0625 55.078125 55.328125 
Q 55.078125 49.078125 51.53125 44.71875 
Q 48 40.375 41.703125 38.8125 
Q 48.828125 37.15625 52.796875 32.3125 
Q 56.78125 27.484375 56.78125 20.515625 
Q 56.78125 9.90625 50.3125 4.234375 
Q 43.84375 -1.421875 31.78125 -1.421875 
Q 19.734375 -1.421875 13.25 4.234375 
Q 6.78125 9.90625 6.78125 20.515625 
Q 6.78125 27.484375 10.78125 32.3125 
Q 14.796875 37.15625 21.921875 38.8125 
M 18.3125 54.390625 
Q 18.3125 48.734375 21.84375 45.5625 
Q 25.390625 42.390625 31.78125 42.390625 
Q 38.140625 42.390625 41.71875 45.5625 
Q 45.3125 48.734375 45.3125 54.390625 
Q 45.3125 60.0625 41.71875 63.234375 
Q 38.140625 66.40625 31.78125 66.40625 
Q 25.390625 66.40625 21.84375 63.234375 
Q 18.3125 60.0625 18.3125 54.390625 
" id="DejaVuSans-38"/>
      </defs>
      <g transform="translate(305.49538 322.182437)scale(0.1 -0.1)">
       <use xlink:href="#DejaVuSans-30"/>
       <use x="63.623047" xlink:href="#DejaVuSans-2e"/>
       <use x="95.410156" xlink:href="#DejaVuSans-38"/>
      </g>
     </g>
    </g>
    <g id="xtick_6">
     <g id="line2d_11">
      <path clip-path="url(#p321f6d0165)" d="M 363.989752 307.584 
L 363.989752 41.472 
" style="fill:none;stroke:#b0b0b0;stroke-linecap:square;stroke-width:0.8;"/>
     </g>
     <g id="line2d_12">
      <g>
       <use style="stroke:#000000;stroke-width:0.8;" x="363.989752" xlink:href="#m4f34648dd0" y="307.584"/>
      </g>
     </g>
     <g id="text_6">
      <!-- 1.0 -->
      <defs>
       <path d="M 12.40625 8.296875 
L 28.515625 8.296875 
L 28.515625 63.921875 
L 10.984375 60.40625 
L 10.984375 69.390625 
L 28.421875 72.90625 
L 38.28125 72.90625 
L 38.28125 8.296875 
L 54.390625 8.296875 
L 54.390625 0 
L 12.40625 0 
z
" id="DejaVuSans-31"/>
      </defs>
      <g transform="translate(356.03819 322.182437)scale(0.1 -0.1)">
       <use xlink:href="#DejaVuSans-31"/>
       <use x="63.623047" xlink:href="#DejaVuSans-2e"/>
       <use x="95.410156" xlink:href="#DejaVuSans-30"/>
      </g>
     </g>
    </g>
    <g id="text_7">
     <!-- Time/s -->
     <defs>
      <path d="M -0.296875 72.90625 
L 61.375 72.90625 
L 61.375 64.59375 
L 35.5 64.59375 
L 35.5 0 
L 25.59375 0 
L 25.59375 64.59375 
L -0.296875 64.59375 
z
" id="DejaVuSans-54"/>
      <path d="M 9.421875 54.6875 
L 18.40625 54.6875 
L 18.40625 0 
L 9.421875 0 
z
M 9.421875 75.984375 
L 18.40625 75.984375 
L 18.40625 64.59375 
L 9.421875 64.59375 
z
" id="DejaVuSans-69"/>
      <path d="M 52 44.1875 
Q 55.375 50.25 60.0625 53.125 
Q 64.75 56 71.09375 56 
Q 79.640625 56 84.28125 50.015625 
Q 88.921875 44.046875 88.921875 33.015625 
L 88.921875 0 
L 79.890625 0 
L 79.890625 32.71875 
Q 79.890625 40.578125 77.09375 44.375 
Q 74.3125 48.1875 68.609375 48.1875 
Q 61.625 48.1875 57.5625 43.546875 
Q 53.515625 38.921875 53.515625 30.90625 
L 53.515625 0 
L 44.484375 0 
L 44.484375 32.71875 
Q 44.484375 40.625 41.703125 44.40625 
Q 38.921875 48.1875 33.109375 48.1875 
Q 26.21875 48.1875 22.15625 43.53125 
Q 18.109375 38.875 18.109375 30.90625 
L 18.109375 0 
L 9.078125 0 
L 9.078125 54.6875 
L 18.109375 54.6875 
L 18.109375 46.1875 
Q 21.1875 51.21875 25.484375 53.609375 
Q 29.78125 56 35.6875 56 
Q 41.65625 56 45.828125 52.96875 
Q 50 49.953125 52 44.1875 
" id="DejaVuSans-6d"/>
      <path d="M 56.203125 29.59375 
L 56.203125 25.203125 
L 14.890625 25.203125 
Q 15.484375 15.921875 20.484375 11.0625 
Q 25.484375 6.203125 34.421875 6.203125 
Q 39.59375 6.203125 44.453125 7.46875 
Q 49.3125 8.734375 54.109375 11.28125 
L 54.109375 2.78125 
Q 49.265625 0.734375 44.1875 -0.34375 
Q 39.109375 -1.421875 33.890625 -1.421875 
Q 20.796875 -1.421875 13.15625 6.1875 
Q 5.515625 13.8125 5.515625 26.8125 
Q 5.515625 40.234375 12.765625 48.109375 
Q 20.015625 56 32.328125 56 
Q 43.359375 56 49.78125 48.890625 
Q 56.203125 41.796875 56.203125 29.59375 
M 47.21875 32.234375 
Q 47.125 39.59375 43.09375 43.984375 
Q 39.0625 48.390625 32.421875 48.390625 
Q 24.90625 48.390625 20.390625 44.140625 
Q 15.875 39.890625 15.1875 32.171875 
z
" id="DejaVuSans-65"/>
      <path d="M 25.390625 72.90625 
L 33.6875 72.90625 
L 8.296875 -9.28125 
L 0 -9.28125 
z
" id="DejaVuSans-2f"/>
      <path d="M 44.28125 53.078125 
L 44.28125 44.578125 
Q 40.484375 46.53125 36.375 47.5 
Q 32.28125 48.484375 27.875 48.484375 
Q 21.1875 48.484375 17.84375 46.4375 
Q 14.5 44.390625 14.5 40.28125 
Q 14.5 37.15625 16.890625 35.375 
Q 19.28125 33.59375 26.515625 31.984375 
L 29.59375 31.296875 
Q 39.15625 29.25 43.1875 25.515625 
Q 47.21875 21.78125 47.21875 15.09375 
Q 47.21875 7.46875 41.1875 3.015625 
Q 35.15625 -1.421875 24.609375 -1.421875 
Q 20.21875 -1.421875 15.453125 -0.5625 
Q 10.6875 0.296875 5.421875 2 
L 5.421875 11.28125 
Q 10.40625 8.6875 15.234375 7.390625 
Q 20.0625 6.109375 24.8125 6.109375 
Q 31.15625 6.109375 34.5625 8.28125 
Q 37.984375 10.453125 37.984375 14.40625 
Q 37.984375 18.0625 35.515625 20.015625 
Q 33.0625 21.96875 24.703125 23.78125 
L 21.578125 24.515625 
Q 13.234375 26.265625 9.515625 29.90625 
Q 5.8125 33.546875 5.8125 39.890625 
Q 5.8125 47.609375 11.28125 51.796875 
Q 16.75 56 26.8125 56 
Q 31.78125 56 36.171875 55.265625 
Q 40.578125 54.546875 44.28125 53.078125 
" id="DejaVuSans-73"/>
     </defs>
     <g transform="translate(220.956165 335.860562)scale(0.1 -0.1)">
      <use xlink:href="#DejaVuSans-54"/>
      <use x="61.037109" xlink:href="#DejaVuSans-69"/>
      <use x="88.820312" xlink:href="#DejaVuSans-6d"/>
      <use x="186.232422" xlink:href="#DejaVuSans-65"/>
      <use x="247.755859" xlink:href="#DejaVuSans-2f"/>
      <use x="281.447266" xlink:href="#DejaVuSans-73"/>
     </g>
    </g>
   </g>
   <g id="matplotlib.axis_2">
    <g id="ytick_1">
     <g id="line2d_13">
      <path clip-path="url(#p321f6d0165)" d="M 98.64 264.497384 
L 376.625455 264.497384 
" style="fill:none;stroke:#b0b0b0;stroke-linecap:square;stroke-width:0.8;"/>
     </g>
     <g id="line2d_14">
      <defs>
       <path d="M 0 0 
L -3.5 0 
" id="m54bde66933" style="stroke:#000000;stroke-width:0.8;"/>
      </defs>
      <g>
       <use style="stroke:#000000;stroke-width:0.8;" x="98.64" xlink:href="#m54bde66933" y="264.497384"/>
      </g>
     </g>
     <g id="text_8">
      <!-- −2 -->
      <defs>
       <path d="M 10.59375 35.5 
L 73.1875 35.5 
L 73.1875 27.203125 
L 10.59375 27.203125 
z
" id="DejaVuSans-2212"/>
      </defs>
      <g transform="translate(76.897813 268.296603)scale(0.1 -0.1)">
       <use xlink:href="#DejaVuSans-2212"/>
       <use x="83.789062" xlink:href="#DejaVuSans-32"/>
      </g>
     </g>
    </g>
    <g id="ytick_2">
     <g id="line2d_15">
      <path clip-path="url(#p321f6d0165)" d="M 98.64 219.512692 
L 376.625455 219.512692 
" style="fill:none;stroke:#b0b0b0;stroke-linecap:square;stroke-width:0.8;"/>
     </g>
     <g id="line2d_16">
      <g>
       <use style="stroke:#000000;stroke-width:0.8;" x="98.64" xlink:href="#m54bde66933" y="219.512692"/>
      </g>
     </g>
     <g id="text_9">
      <!-- −1 -->
      <g transform="translate(76.897813 223.311911)scale(0.1 -0.1)">
       <use xlink:href="#DejaVuSans-2212"/>
       <use x="83.789062" xlink:href="#DejaVuSans-31"/>
      </g>
     </g>
    </g>
    <g id="ytick_3">
     <g id="line2d_17">
      <path clip-path="url(#p321f6d0165)" d="M 98.64 174.528 
L 376.625455 174.528 
" style="fill:none;stroke:#b0b0b0;stroke-linecap:square;stroke-width:0.8;"/>
     </g>
     <g id="line2d_18">
      <g>
       <use style="stroke:#000000;stroke-width:0.8;" x="98.64" xlink:href="#m54bde66933" y="174.528"/>
      </g>
     </g>
     <g id="text_10">
      <!-- 0 -->
      <g transform="translate(85.2775 178.327219)scale(0.1 -0.1)">
       <use xlink:href="#DejaVuSans-30"/>
      </g>
     </g>
    </g>
    <g id="ytick_4">
     <g id="line2d_19">
      <path clip-path="url(#p321f6d0165)" d="M 98.64 129.543308 
L 376.625455 129.543308 
" style="fill:none;stroke:#b0b0b0;stroke-linecap:square;stroke-width:0.8;"/>
     </g>
     <g id="line2d_20">
      <g>
       <use style="stroke:#000000;stroke-width:0.8;" x="98.64" xlink:href="#m54bde66933" y="129.543308"/>
      </g>
     </g>
     <g id="text_11">
      <!-- 1 -->
      <g transform="translate(85.2775 133.342527)scale(0.1 -0.1)">
       <use xlink:href="#DejaVuSans-31"/>
      </g>
     </g>
    </g>
    <g id="ytick_5">
     <g id="line2d_21">
      <path clip-path="url(#p321f6d0165)" d="M 98.64 84.558616 
L 376.625455 84.558616 
" style="fill:none;stroke:#b0b0b0;stroke-linecap:square;stroke-width:0.8;"/>
     </g>
     <g id="line2d_22">
      <g>
       <use style="stroke:#000000;stroke-width:0.8;" x="98.64" xlink:href="#m54bde66933" y="84.558616"/>
      </g>
     </g>
     <g id="text_12">
      <!-- 2 -->
      <g transform="translate(85.2775 88.357834)scale(0.1 -0.1)">
       <use xlink:href="#DejaVuSans-32"/>
      </g>
     </g>
    </g>
    <g id="text_13">
     <!-- Amplitude -->
     <defs>
      <path d="M 34.1875 63.1875 
L 20.796875 26.90625 
L 47.609375 26.90625 
z
M 28.609375 72.90625 
L 39.796875 72.90625 
L 67.578125 0 
L 57.328125 0 
L 50.6875 18.703125 
L 17.828125 18.703125 
L 11.1875 0 
L 0.78125 0 
z
" id="DejaVuSans-41"/>
      <path d="M 18.109375 8.203125 
L 18.109375 -20.796875 
L 9.078125 -20.796875 
L 9.078125 54.6875 
L 18.109375 54.6875 
L 18.109375 46.390625 
Q 20.953125 51.265625 25.265625 53.625 
Q 29.59375 56 35.59375 56 
Q 45.5625 56 51.78125 48.09375 
Q 58.015625 40.1875 58.015625 27.296875 
Q 58.015625 14.40625 51.78125 6.484375 
Q 45.5625 -1.421875 35.59375 -1.421875 
Q 29.59375 -1.421875 25.265625 0.953125 
Q 20.953125 3.328125 18.109375 8.203125 
M 48.6875 27.296875 
Q 48.6875 37.203125 44.609375 42.84375 
Q 40.53125 48.484375 33.40625 48.484375 
Q 26.265625 48.484375 22.1875 42.84375 
Q 18.109375 37.203125 18.109375 27.296875 
Q 18.109375 17.390625 22.1875 11.75 
Q 26.265625 6.109375 33.40625 6.109375 
Q 40.53125 6.109375 44.609375 11.75 
Q 48.6875 17.390625 48.6875 27.296875 
" id="DejaVuSans-70"/>
      <path d="M 9.421875 75.984375 
L 18.40625 75.984375 
L 18.40625 0 
L 9.421875 0 
z
" id="DejaVuSans-6c"/>
      <path d="M 18.3125 70.21875 
L 18.3125 54.6875 
L 36.8125 54.6875 
L 36.8125 47.703125 
L 18.3125 47.703125 
L 18.3125 18.015625 
Q 18.3125 11.328125 20.140625 9.421875 
Q 21.96875 7.515625 27.59375 7.515625 
L 36.8125 7.515625 
L 36.8125 0 
L 27.59375 0 
Q 17.1875 0 13.234375 3.875 
Q 9.28125 7.765625 9.28125 18.015625 
L 9.28125 47.703125 
L 2.6875 47.703125 
L 2.6875 54.6875 
L 9.28125 54.6875 
L 9.28125 70.21875 
z
" id="DejaVuSans-74"/>
      <path d="M 8.5 21.578125 
L 8.5 54.6875 
L 17.484375 54.6875 
L 17.484375 21.921875 
Q 17.484375 14.15625 20.5 10.265625 
Q 23.53125 6.390625 29.59375 6.390625 
Q 36.859375 6.390625 41.078125 11.03125 
Q 45.3125 15.671875 45.3125 23.6875 
L 45.3125 54.6875 
L 54.296875 54.6875 
L 54.296875 0 
L 45.3125 0 
L 45.3125 8.40625 
Q 42.046875 3.421875 37.71875 1 
Q 33.40625 -1.421875 27.6875 -1.421875 
Q 18.265625 -1.421875 13.375 4.4375 
Q 8.5 10.296875 8.5 21.578125 
M 31.109375 56 
z
" id="DejaVuSans-75"/>
      <path d="M 45.40625 46.390625 
L 45.40625 75.984375 
L 54.390625 75.984375 
L 54.390625 0 
L 45.40625 0 
L 45.40625 8.203125 
Q 42.578125 3.328125 38.25 0.953125 
Q 33.9375 -1.421875 27.875 -1.421875 
Q 17.96875 -1.421875 11.734375 6.484375 
Q 5.515625 14.40625 5.515625 27.296875 
Q 5.515625 40.1875 11.734375 48.09375 
Q 17.96875 56 27.875 56 
Q 33.9375 56 38.25 53.625 
Q 42.578125 51.265625 45.40625 46.390625 
M 14.796875 27.296875 
Q 14.796875 17.390625 18.875 11.75 
Q 22.953125 6.109375 30.078125 6.109375 
Q 37.203125 6.109375 41.296875 11.75 
Q 45.40625 17.390625 45.40625 27.296875 
Q 45.40625 37.203125 41.296875 42.84375 
Q 37.203125 48.484375 30.078125 48.484375 
Q 22.953125 48.484375 18.875 42.84375 
Q 14.796875 37.203125 14.796875 27.296875 
" id="DejaVuSans-64"/>
     </defs>
     <g transform="translate(70.818125 200.150656)rotate(-90)scale(0.1 -0.1)">
      <use xlink:href="#DejaVuSans-41"/>
      <use x="68.408203" xlink:href="#DejaVuSans-6d"/>
      <use x="165.820312" xlink:href="#DejaVuSans-70"/>
      <use x="229.296875" xlink:href="#DejaVuSans-6c"/>
      <use x="257.080078" xlink:href="#DejaVuSans-69"/>
      <use x="284.863281" xlink:href="#DejaVuSans-74"/>
      <use x="324.072266" xlink:href="#DejaVuSans-75"/>
      <use x="387.451172" xlink:href="#DejaVuSans-64"/>
      <use x="450.927734" xlink:href="#DejaVuSans-65"/>
     </g>
    </g>
   </g>
   <g id="line2d_23">
    <path clip-path="url(#p321f6d0165)" d="M 111.275702 174.528 
L 112.266738 97.821329 
L 113.257773 129.383915 
L 114.248809 139.697859 
L 115.239844 69.611024 
L 116.23088 71.603467 
L 117.221915 157.367848 
L 118.212951 164.994878 
L 119.203986 122.968884 
L 120.195022 173.630956 
L 121.186057 235.232603 
L 122.177093 184.359687 
L 123.168128 139.244999 
L 124.159164 190.571024 
L 125.150199 199.673599 
L 126.141235 127.634752 
L 127.13227 133.657716 
L 128.123306 213.485886 
L 129.114341 210.364387 
L 130.105377 172.778838 
L 132.087448 295.488 
L 133.078483 242.169532 
L 134.069519 201.519839 
L 135.060554 244.765725 
L 136.05159 225.190072 
L 137.042625 123.865928 
L 138.033661 104.290275 
L 139.024696 147.536161 
L 140.015732 106.886468 
L 141.006767 53.568 
L 142.988838 176.277162 
L 143.979874 138.691613 
L 144.970909 135.570114 
L 145.961945 215.398284 
L 146.95298 221.421248 
L 147.944016 149.382401 
L 148.935051 158.484976 
L 149.926087 209.811001 
L 150.917122 164.696313 
L 151.908158 113.823397 
L 152.899193 175.425044 
L 153.890228 226.087116 
L 154.881264 184.061122 
L 155.872299 191.688152 
L 156.863335 277.452533 
L 157.85437 279.444976 
L 158.845406 209.358141 
L 159.836441 219.672085 
L 160.827477 251.234671 
L 162.809548 97.821329 
L 163.800583 129.383915 
L 164.791619 139.697859 
L 165.782654 69.611024 
L 166.77369 71.603467 
L 167.764725 157.367848 
L 168.755761 164.994878 
L 169.746796 122.968884 
L 170.737832 173.630956 
L 171.728867 235.232603 
L 172.719903 184.359687 
L 173.710938 139.244999 
L 174.701974 190.571024 
L 175.693009 199.673599 
L 176.684045 127.634752 
L 177.67508 133.657716 
L 178.666116 213.485886 
L 179.657151 210.364387 
L 180.648187 172.778838 
L 182.630258 295.488 
L 183.621293 242.169532 
L 184.612329 201.519839 
L 185.603364 244.765725 
L 186.5944 225.190072 
L 187.585435 123.865928 
L 188.576471 104.290275 
L 189.567506 147.536161 
L 190.558542 106.886468 
L 191.549577 53.568 
L 193.531648 176.277162 
L 194.522684 138.691613 
L 195.513719 135.570114 
L 196.504754 215.398284 
L 197.49579 221.421248 
L 198.486825 149.382401 
L 199.477861 158.484976 
L 200.468896 209.811001 
L 201.459932 164.696313 
L 202.450967 113.823397 
L 203.442003 175.425044 
L 204.433038 226.087116 
L 205.424074 184.061122 
L 206.415109 191.688152 
L 207.406145 277.452533 
L 208.39718 279.444976 
L 209.388216 209.358141 
L 210.379251 219.672085 
L 211.370287 251.234671 
L 213.352358 97.821329 
L 214.343393 129.383915 
L 215.334429 139.697859 
L 216.325464 69.611024 
L 217.3165 71.603467 
L 218.307535 157.367848 
L 219.298571 164.994878 
L 220.289606 122.968884 
L 221.280642 173.630956 
L 222.271677 235.232603 
L 223.262713 184.359687 
L 224.253748 139.244999 
L 225.244784 190.571024 
L 226.235819 199.673599 
L 227.226855 127.634752 
L 228.21789 133.657716 
L 229.208926 213.485886 
L 230.199961 210.364387 
L 231.190997 172.778838 
L 233.173068 295.488 
L 234.164103 242.169532 
L 235.155139 201.519839 
L 236.146174 244.765725 
L 237.13721 225.190072 
L 238.128245 123.865928 
L 239.119281 104.290275 
L 240.110316 147.536161 
L 241.101351 106.886468 
L 242.092387 53.568 
L 244.074458 176.277162 
L 245.065493 138.691613 
L 246.056529 135.570114 
L 247.047564 215.398284 
L 248.0386 221.421248 
L 249.029635 149.382401 
L 250.020671 158.484976 
L 251.011706 209.811001 
L 252.002742 164.696313 
L 252.993777 113.823397 
L 253.984813 175.425044 
L 254.975848 226.087116 
L 255.966884 184.061122 
L 256.957919 191.688152 
L 257.948955 277.452533 
L 258.93999 279.444976 
L 259.931026 209.358141 
L 260.922061 219.672085 
L 261.913097 251.234671 
L 263.895168 97.821329 
L 264.886203 129.383915 
L 265.877239 139.697859 
L 266.868274 69.611024 
L 267.85931 71.603467 
L 268.850345 157.367848 
L 269.841381 164.994878 
L 270.832416 122.968884 
L 271.823452 173.630956 
L 272.814487 235.232603 
L 273.805523 184.359687 
L 274.796558 139.244999 
L 275.787594 190.571024 
L 276.778629 199.673599 
L 277.769665 127.634752 
L 278.7607 133.657716 
L 279.751736 213.485886 
L 280.742771 210.364387 
L 281.733807 172.778838 
L 283.715877 295.488 
L 284.706913 242.169532 
L 285.697948 201.519839 
L 286.688984 244.765725 
L 287.680019 225.190072 
L 288.671055 123.865928 
L 289.66209 104.290275 
L 290.653126 147.536161 
L 291.644161 106.886468 
L 292.635197 53.568 
L 294.617268 176.277162 
L 295.608303 138.691613 
L 296.599339 135.570114 
L 297.590374 215.398284 
L 298.58141 221.421248 
L 299.572445 149.382401 
L 300.563481 158.484976 
L 301.554516 209.811001 
L 302.545552 164.696313 
L 303.536587 113.823397 
L 304.527623 175.425044 
L 305.518658 226.087116 
L 306.509694 184.061122 
L 307.500729 191.688152 
L 308.491765 277.452533 
L 309.4828 279.444976 
L 310.473836 209.358141 
L 311.464871 219.672085 
L 312.455907 251.234671 
L 314.437978 97.821329 
L 315.429013 129.383915 
L 316.420049 139.697859 
L 317.411084 69.611024 
L 318.40212 71.603467 
L 319.393155 157.367848 
L 320.384191 164.994878 
L 321.375226 122.968884 
L 322.366262 173.630956 
L 323.357297 235.232603 
L 324.348333 184.359687 
L 325.339368 139.244999 
L 326.330404 190.571024 
L 327.321439 199.673599 
L 328.312474 127.634752 
L 329.30351 133.657716 
L 330.294545 213.485886 
L 331.285581 210.364387 
L 332.276616 172.778838 
L 334.258687 295.488 
L 335.249723 242.169532 
L 336.240758 201.519839 
L 337.231794 244.765725 
L 338.222829 225.190072 
L 339.213865 123.865928 
L 340.2049 104.290275 
L 341.195936 147.536161 
L 342.186971 106.886468 
L 343.178007 53.568 
L 345.160078 176.277162 
L 346.151113 138.691613 
L 347.142149 135.570114 
L 348.133184 215.398284 
L 349.12422 221.421248 
L 350.115255 149.382401 
L 351.106291 158.484976 
L 352.097326 209.811001 
L 353.088362 164.696313 
L 354.079397 113.823397 
L 355.070433 175.425044 
L 356.061468 226.087116 
L 357.052504 184.061122 
L 358.043539 191.688152 
L 359.034575 277.452533 
L 360.02561 279.444976 
L 361.016646 209.358141 
L 362.007681 219.672085 
L 362.998717 251.234671 
L 363.989752 174.528 
L 363.989752 174.528 
" style="fill:none;stroke:#1f77b4;stroke-linecap:square;stroke-width:1.5;"/>
   </g>
   <g id="patch_3">
    <path d="M 98.64 307.584 
L 98.64 41.472 
" style="fill:none;stroke:#000000;stroke-linecap:square;stroke-linejoin:miter;stroke-width:0.8;"/>
   </g>
   <g id="patch_4">
    <path d="M 376.625455 307.584 
L 376.625455 41.472 
" style="fill:none;stroke:#000000;stroke-linecap:square;stroke-linejoin:miter;stroke-width:0.8;"/>
   </g>
   <g id="patch_5">
    <path d="M 98.64 307.584 
L 376.625455 307.584 
" style="fill:none;stroke:#000000;stroke-linecap:square;stroke-linejoin:miter;stroke-width:0.8;"/>
   </g>
   <g id="patch_6">
    <path d="M 98.64 41.472 
L 376.625455 41.472 
" style="fill:none;stroke:#000000;stroke-linecap:square;stroke-linejoin:miter;stroke-width:0.8;"/>
   </g>
   <g id="text_14">
    <!-- Orignal Signal (Time domain) -->
    <defs>
     <path d="M 39.40625 66.21875 
Q 28.65625 66.21875 22.328125 58.203125 
Q 16.015625 50.203125 16.015625 36.375 
Q 16.015625 22.609375 22.328125 14.59375 
Q 28.65625 6.59375 39.40625 6.59375 
Q 50.140625 6.59375 56.421875 14.59375 
Q 62.703125 22.609375 62.703125 36.375 
Q 62.703125 50.203125 56.421875 58.203125 
Q 50.140625 66.21875 39.40625 66.21875 
M 39.40625 74.21875 
Q 54.734375 74.21875 63.90625 63.9375 
Q 73.09375 53.65625 73.09375 36.375 
Q 73.09375 19.140625 63.90625 8.859375 
Q 54.734375 -1.421875 39.40625 -1.421875 
Q 24.03125 -1.421875 14.8125 8.828125 
Q 5.609375 19.09375 5.609375 36.375 
Q 5.609375 53.65625 14.8125 63.9375 
Q 24.03125 74.21875 39.40625 74.21875 
" id="DejaVuSans-4f"/>
     <path d="M 41.109375 46.296875 
Q 39.59375 47.171875 37.8125 47.578125 
Q 36.03125 48 33.890625 48 
Q 26.265625 48 22.1875 43.046875 
Q 18.109375 38.09375 18.109375 28.8125 
L 18.109375 0 
L 9.078125 0 
L 9.078125 54.6875 
L 18.109375 54.6875 
L 18.109375 46.1875 
Q 20.953125 51.171875 25.484375 53.578125 
Q 30.03125 56 36.53125 56 
Q 37.453125 56 38.578125 55.875 
Q 39.703125 55.765625 41.0625 55.515625 
z
" id="DejaVuSans-72"/>
     <path d="M 45.40625 27.984375 
Q 45.40625 37.75 41.375 43.109375 
Q 37.359375 48.484375 30.078125 48.484375 
Q 22.859375 48.484375 18.828125 43.109375 
Q 14.796875 37.75 14.796875 27.984375 
Q 14.796875 18.265625 18.828125 12.890625 
Q 22.859375 7.515625 30.078125 7.515625 
Q 37.359375 7.515625 41.375 12.890625 
Q 45.40625 18.265625 45.40625 27.984375 
M 54.390625 6.78125 
Q 54.390625 -7.171875 48.1875 -13.984375 
Q 42 -20.796875 29.203125 -20.796875 
Q 24.46875 -20.796875 20.265625 -20.09375 
Q 16.0625 -19.390625 12.109375 -17.921875 
L 12.109375 -9.1875 
Q 16.0625 -11.328125 19.921875 -12.34375 
Q 23.78125 -13.375 27.78125 -13.375 
Q 36.625 -13.375 41.015625 -8.765625 
Q 45.40625 -4.15625 45.40625 5.171875 
L 45.40625 9.625 
Q 42.625 4.78125 38.28125 2.390625 
Q 33.9375 0 27.875 0 
Q 17.828125 0 11.671875 7.65625 
Q 5.515625 15.328125 5.515625 27.984375 
Q 5.515625 40.671875 11.671875 48.328125 
Q 17.828125 56 27.875 56 
Q 33.9375 56 38.28125 53.609375 
Q 42.625 51.21875 45.40625 46.390625 
L 45.40625 54.6875 
L 54.390625 54.6875 
z
" id="DejaVuSans-67"/>
     <path d="M 54.890625 33.015625 
L 54.890625 0 
L 45.90625 0 
L 45.90625 32.71875 
Q 45.90625 40.484375 42.875 44.328125 
Q 39.84375 48.1875 33.796875 48.1875 
Q 26.515625 48.1875 22.3125 43.546875 
Q 18.109375 38.921875 18.109375 30.90625 
L 18.109375 0 
L 9.078125 0 
L 9.078125 54.6875 
L 18.109375 54.6875 
L 18.109375 46.1875 
Q 21.34375 51.125 25.703125 53.5625 
Q 30.078125 56 35.796875 56 
Q 45.21875 56 50.046875 50.171875 
Q 54.890625 44.34375 54.890625 33.015625 
" id="DejaVuSans-6e"/>
     <path d="M 34.28125 27.484375 
Q 23.390625 27.484375 19.1875 25 
Q 14.984375 22.515625 14.984375 16.5 
Q 14.984375 11.71875 18.140625 8.90625 
Q 21.296875 6.109375 26.703125 6.109375 
Q 34.1875 6.109375 38.703125 11.40625 
Q 43.21875 16.703125 43.21875 25.484375 
L 43.21875 27.484375 
z
M 52.203125 31.203125 
L 52.203125 0 
L 43.21875 0 
L 43.21875 8.296875 
Q 40.140625 3.328125 35.546875 0.953125 
Q 30.953125 -1.421875 24.3125 -1.421875 
Q 15.921875 -1.421875 10.953125 3.296875 
Q 6 8.015625 6 15.921875 
Q 6 25.140625 12.171875 29.828125 
Q 18.359375 34.515625 30.609375 34.515625 
L 43.21875 34.515625 
L 43.21875 35.40625 
Q 43.21875 41.609375 39.140625 45 
Q 35.0625 48.390625 27.6875 48.390625 
Q 23 48.390625 18.546875 47.265625 
Q 14.109375 46.140625 10.015625 43.890625 
L 10.015625 52.203125 
Q 14.9375 54.109375 19.578125 55.046875 
Q 24.21875 56 28.609375 56 
Q 40.484375 56 46.34375 49.84375 
Q 52.203125 43.703125 52.203125 31.203125 
" id="DejaVuSans-61"/>
     <path id="DejaVuSans-20"/>
     <path d="M 53.515625 70.515625 
L 53.515625 60.890625 
Q 47.90625 63.578125 42.921875 64.890625 
Q 37.9375 66.21875 33.296875 66.21875 
Q 25.25 66.21875 20.875 63.09375 
Q 16.5 59.96875 16.5 54.203125 
Q 16.5 49.359375 19.40625 46.890625 
Q 22.3125 44.4375 30.421875 42.921875 
L 36.375 41.703125 
Q 47.40625 39.59375 52.65625 34.296875 
Q 57.90625 29 57.90625 20.125 
Q 57.90625 9.515625 50.796875 4.046875 
Q 43.703125 -1.421875 29.984375 -1.421875 
Q 24.8125 -1.421875 18.96875 -0.25 
Q 13.140625 0.921875 6.890625 3.21875 
L 6.890625 13.375 
Q 12.890625 10.015625 18.65625 8.296875 
Q 24.421875 6.59375 29.984375 6.59375 
Q 38.421875 6.59375 43.015625 9.90625 
Q 47.609375 13.234375 47.609375 19.390625 
Q 47.609375 24.75 44.3125 27.78125 
Q 41.015625 30.8125 33.5 32.328125 
L 27.484375 33.5 
Q 16.453125 35.6875 11.515625 40.375 
Q 6.59375 45.0625 6.59375 53.421875 
Q 6.59375 63.09375 13.40625 68.65625 
Q 20.21875 74.21875 32.171875 74.21875 
Q 37.3125 74.21875 42.625 73.28125 
Q 47.953125 72.359375 53.515625 70.515625 
" id="DejaVuSans-53"/>
     <path d="M 31 75.875 
Q 24.46875 64.65625 21.28125 53.65625 
Q 18.109375 42.671875 18.109375 31.390625 
Q 18.109375 20.125 21.3125 9.0625 
Q 24.515625 -2 31 -13.1875 
L 23.1875 -13.1875 
Q 15.875 -1.703125 12.234375 9.375 
Q 8.59375 20.453125 8.59375 31.390625 
Q 8.59375 42.28125 12.203125 53.3125 
Q 15.828125 64.359375 23.1875 75.875 
z
" id="DejaVuSans-28"/>
     <path d="M 30.609375 48.390625 
Q 23.390625 48.390625 19.1875 42.75 
Q 14.984375 37.109375 14.984375 27.296875 
Q 14.984375 17.484375 19.15625 11.84375 
Q 23.34375 6.203125 30.609375 6.203125 
Q 37.796875 6.203125 41.984375 11.859375 
Q 46.1875 17.53125 46.1875 27.296875 
Q 46.1875 37.015625 41.984375 42.703125 
Q 37.796875 48.390625 30.609375 48.390625 
M 30.609375 56 
Q 42.328125 56 49.015625 48.375 
Q 55.71875 40.765625 55.71875 27.296875 
Q 55.71875 13.875 49.015625 6.21875 
Q 42.328125 -1.421875 30.609375 -1.421875 
Q 18.84375 -1.421875 12.171875 6.21875 
Q 5.515625 13.875 5.515625 27.296875 
Q 5.515625 40.765625 12.171875 48.375 
Q 18.84375 56 30.609375 56 
" id="DejaVuSans-6f"/>
     <path d="M 8.015625 75.875 
L 15.828125 75.875 
Q 23.140625 64.359375 26.78125 53.3125 
Q 30.421875 42.28125 30.421875 31.390625 
Q 30.421875 20.453125 26.78125 9.375 
Q 23.140625 -1.703125 15.828125 -13.1875 
L 8.015625 -13.1875 
Q 14.5 -2 17.703125 9.0625 
Q 20.90625 20.125 20.90625 31.390625 
Q 20.90625 42.671875 17.703125 53.65625 
Q 14.5 64.65625 8.015625 75.875 
" id="DejaVuSans-29"/>
    </defs>
    <g transform="translate(149.651165 35.472)scale(0.12 -0.12)">
     <use xlink:href="#DejaVuSans-4f"/>
     <use x="78.710938" xlink:href="#DejaVuSans-72"/>
     <use x="119.824219" xlink:href="#DejaVuSans-69"/>
     <use x="147.607422" xlink:href="#DejaVuSans-67"/>
     <use x="211.083984" xlink:href="#DejaVuSans-6e"/>
     <use x="274.462891" xlink:href="#DejaVuSans-61"/>
     <use x="335.742188" xlink:href="#DejaVuSans-6c"/>
     <use x="363.525391" xlink:href="#DejaVuSans-20"/>
     <use x="395.3125" xlink:href="#DejaVuSans-53"/>
     <use x="458.789062" xlink:href="#DejaVuSans-69"/>
     <use x="486.572266" xlink:href="#DejaVuSans-67"/>
     <use x="550.048828" xlink:href="#DejaVuSans-6e"/>
     <use x="613.427734" xlink:href="#DejaVuSans-61"/>
     <use x="674.707031" xlink:href="#DejaVuSans-6c"/>
     <use x="702.490234" xlink:href="#DejaVuSans-20"/>
     <use x="734.277344" xlink:href="#DejaVuSans-28"/>
     <use x="773.291016" xlink:href="#DejaVuSans-54"/>
     <use x="834.328125" xlink:href="#DejaVuSans-69"/>
     <use x="862.111328" xlink:href="#DejaVuSans-6d"/>
     <use x="959.523438" xlink:href="#DejaVuSans-65"/>
     <use x="1021.046875" xlink:href="#DejaVuSans-20"/>
     <use x="1052.833984" xlink:href="#DejaVuSans-64"/>
     <use x="1116.310547" xlink:href="#DejaVuSans-6f"/>
     <use x="1177.492188" xlink:href="#DejaVuSans-6d"/>
     <use x="1274.904297" xlink:href="#DejaVuSans-61"/>
     <use x="1336.183594" xlink:href="#DejaVuSans-69"/>
     <use x="1363.966797" xlink:href="#DejaVuSans-6e"/>
     <use x="1427.345703" xlink:href="#DejaVuSans-29"/>
    </g>
   </g>
  </g>
  <g id="axes_2">
   <g id="patch_7">
    <path d="M 432.222545 307.584 
L 710.208 307.584 
L 710.208 41.472 
L 432.222545 41.472 
z
" style="fill:#ffffff;"/>
   </g>
   <g id="matplotlib.axis_3">
    <g id="xtick_7">
     <g id="line2d_24">
      <path clip-path="url(#pc5c4763c7b)" d="M 444.858248 307.584 
L 444.858248 41.472 
" style="fill:none;stroke:#b0b0b0;stroke-linecap:square;stroke-width:0.8;"/>
     </g>
     <g id="line2d_25">
      <g>
       <use style="stroke:#000000;stroke-width:0.8;" x="444.858248" xlink:href="#m4f34648dd0" y="307.584"/>
      </g>
     </g>
     <g id="text_15">
      <!-- 0 -->
      <g transform="translate(441.676998 322.182437)scale(0.1 -0.1)">
       <use xlink:href="#DejaVuSans-30"/>
      </g>
     </g>
    </g>
    <g id="xtick_8">
     <g id="line2d_26">
      <path clip-path="url(#pc5c4763c7b)" d="M 494.216461 307.584 
L 494.216461 41.472 
" style="fill:none;stroke:#b0b0b0;stroke-linecap:square;stroke-width:0.8;"/>
     </g>
     <g id="line2d_27">
      <g>
       <use style="stroke:#000000;stroke-width:0.8;" x="494.216461" xlink:href="#m4f34648dd0" y="307.584"/>
      </g>
     </g>
     <g id="text_16">
      <!-- 50 -->
      <defs>
       <path d="M 10.796875 72.90625 
L 49.515625 72.90625 
L 49.515625 64.59375 
L 19.828125 64.59375 
L 19.828125 46.734375 
Q 21.96875 47.46875 24.109375 47.828125 
Q 26.265625 48.1875 28.421875 48.1875 
Q 40.625 48.1875 47.75 41.5 
Q 54.890625 34.8125 54.890625 23.390625 
Q 54.890625 11.625 47.5625 5.09375 
Q 40.234375 -1.421875 26.90625 -1.421875 
Q 22.3125 -1.421875 17.546875 -0.640625 
Q 12.796875 0.140625 7.71875 1.703125 
L 7.71875 11.625 
Q 12.109375 9.234375 16.796875 8.0625 
Q 21.484375 6.890625 26.703125 6.890625 
Q 35.15625 6.890625 40.078125 11.328125 
Q 45.015625 15.765625 45.015625 23.390625 
Q 45.015625 31 40.078125 35.4375 
Q 35.15625 39.890625 26.703125 39.890625 
Q 22.75 39.890625 18.8125 39.015625 
Q 14.890625 38.140625 10.796875 36.28125 
z
" id="DejaVuSans-35"/>
      </defs>
      <g transform="translate(487.853961 322.182437)scale(0.1 -0.1)">
       <use xlink:href="#DejaVuSans-35"/>
       <use x="63.623047" xlink:href="#DejaVuSans-30"/>
      </g>
     </g>
    </g>
    <g id="xtick_9">
     <g id="line2d_28">
      <path clip-path="url(#pc5c4763c7b)" d="M 543.574674 307.584 
L 543.574674 41.472 
" style="fill:none;stroke:#b0b0b0;stroke-linecap:square;stroke-width:0.8;"/>
     </g>
     <g id="line2d_29">
      <g>
       <use style="stroke:#000000;stroke-width:0.8;" x="543.574674" xlink:href="#m4f34648dd0" y="307.584"/>
      </g>
     </g>
     <g id="text_17">
      <!-- 100 -->
      <g transform="translate(534.030924 322.182437)scale(0.1 -0.1)">
       <use xlink:href="#DejaVuSans-31"/>
       <use x="63.623047" xlink:href="#DejaVuSans-30"/>
       <use x="127.246094" xlink:href="#DejaVuSans-30"/>
      </g>
     </g>
    </g>
    <g id="xtick_10">
     <g id="line2d_30">
      <path clip-path="url(#pc5c4763c7b)" d="M 592.932886 307.584 
L 592.932886 41.472 
" style="fill:none;stroke:#b0b0b0;stroke-linecap:square;stroke-width:0.8;"/>
     </g>
     <g id="line2d_31">
      <g>
       <use style="stroke:#000000;stroke-width:0.8;" x="592.932886" xlink:href="#m4f34648dd0" y="307.584"/>
      </g>
     </g>
     <g id="text_18">
      <!-- 150 -->
      <g transform="translate(583.389136 322.182437)scale(0.1 -0.1)">
       <use xlink:href="#DejaVuSans-31"/>
       <use x="63.623047" xlink:href="#DejaVuSans-35"/>
       <use x="127.246094" xlink:href="#DejaVuSans-30"/>
      </g>
     </g>
    </g>
    <g id="xtick_11">
     <g id="line2d_32">
      <path clip-path="url(#pc5c4763c7b)" d="M 642.291099 307.584 
L 642.291099 41.472 
" style="fill:none;stroke:#b0b0b0;stroke-linecap:square;stroke-width:0.8;"/>
     </g>
     <g id="line2d_33">
      <g>
       <use style="stroke:#000000;stroke-width:0.8;" x="642.291099" xlink:href="#m4f34648dd0" y="307.584"/>
      </g>
     </g>
     <g id="text_19">
      <!-- 200 -->
      <g transform="translate(632.747349 322.182437)scale(0.1 -0.1)">
       <use xlink:href="#DejaVuSans-32"/>
       <use x="63.623047" xlink:href="#DejaVuSans-30"/>
       <use x="127.246094" xlink:href="#DejaVuSans-30"/>
      </g>
     </g>
    </g>
    <g id="xtick_12">
     <g id="line2d_34">
      <path clip-path="url(#pc5c4763c7b)" d="M 691.649312 307.584 
L 691.649312 41.472 
" style="fill:none;stroke:#b0b0b0;stroke-linecap:square;stroke-width:0.8;"/>
     </g>
     <g id="line2d_35">
      <g>
       <use style="stroke:#000000;stroke-width:0.8;" x="691.649312" xlink:href="#m4f34648dd0" y="307.584"/>
      </g>
     </g>
     <g id="text_20">
      <!-- 250 -->
      <g transform="translate(682.105562 322.182437)scale(0.1 -0.1)">
       <use xlink:href="#DejaVuSans-32"/>
       <use x="63.623047" xlink:href="#DejaVuSans-35"/>
       <use x="127.246094" xlink:href="#DejaVuSans-30"/>
      </g>
     </g>
    </g>
    <g id="text_21">
     <!-- Frequency/Hz -->
     <defs>
      <path d="M 9.8125 72.90625 
L 51.703125 72.90625 
L 51.703125 64.59375 
L 19.671875 64.59375 
L 19.671875 43.109375 
L 48.578125 43.109375 
L 48.578125 34.8125 
L 19.671875 34.8125 
L 19.671875 0 
L 9.8125 0 
z
" id="DejaVuSans-46"/>
      <path d="M 14.796875 27.296875 
Q 14.796875 17.390625 18.875 11.75 
Q 22.953125 6.109375 30.078125 6.109375 
Q 37.203125 6.109375 41.296875 11.75 
Q 45.40625 17.390625 45.40625 27.296875 
Q 45.40625 37.203125 41.296875 42.84375 
Q 37.203125 48.484375 30.078125 48.484375 
Q 22.953125 48.484375 18.875 42.84375 
Q 14.796875 37.203125 14.796875 27.296875 
M 45.40625 8.203125 
Q 42.578125 3.328125 38.25 0.953125 
Q 33.9375 -1.421875 27.875 -1.421875 
Q 17.96875 -1.421875 11.734375 6.484375 
Q 5.515625 14.40625 5.515625 27.296875 
Q 5.515625 40.1875 11.734375 48.09375 
Q 17.96875 56 27.875 56 
Q 33.9375 56 38.25 53.625 
Q 42.578125 51.265625 45.40625 46.390625 
L 45.40625 54.6875 
L 54.390625 54.6875 
L 54.390625 -20.796875 
L 45.40625 -20.796875 
z
" id="DejaVuSans-71"/>
      <path d="M 48.78125 52.59375 
L 48.78125 44.1875 
Q 44.96875 46.296875 41.140625 47.34375 
Q 37.3125 48.390625 33.40625 48.390625 
Q 24.65625 48.390625 19.8125 42.84375 
Q 14.984375 37.3125 14.984375 27.296875 
Q 14.984375 17.28125 19.8125 11.734375 
Q 24.65625 6.203125 33.40625 6.203125 
Q 37.3125 6.203125 41.140625 7.25 
Q 44.96875 8.296875 48.78125 10.40625 
L 48.78125 2.09375 
Q 45.015625 0.34375 40.984375 -0.53125 
Q 36.96875 -1.421875 32.421875 -1.421875 
Q 20.0625 -1.421875 12.78125 6.34375 
Q 5.515625 14.109375 5.515625 27.296875 
Q 5.515625 40.671875 12.859375 48.328125 
Q 20.21875 56 33.015625 56 
Q 37.15625 56 41.109375 55.140625 
Q 45.0625 54.296875 48.78125 52.59375 
" id="DejaVuSans-63"/>
      <path d="M 32.171875 -5.078125 
Q 28.375 -14.84375 24.75 -17.8125 
Q 21.140625 -20.796875 15.09375 -20.796875 
L 7.90625 -20.796875 
L 7.90625 -13.28125 
L 13.1875 -13.28125 
Q 16.890625 -13.28125 18.9375 -11.515625 
Q 21 -9.765625 23.484375 -3.21875 
L 25.09375 0.875 
L 2.984375 54.6875 
L 12.5 54.6875 
L 29.59375 11.921875 
L 46.6875 54.6875 
L 56.203125 54.6875 
z
" id="DejaVuSans-79"/>
      <path d="M 9.8125 72.90625 
L 19.671875 72.90625 
L 19.671875 43.015625 
L 55.515625 43.015625 
L 55.515625 72.90625 
L 65.375 72.90625 
L 65.375 0 
L 55.515625 0 
L 55.515625 34.71875 
L 19.671875 34.71875 
L 19.671875 0 
L 9.8125 0 
z
" id="DejaVuSans-48"/>
      <path d="M 5.515625 54.6875 
L 48.1875 54.6875 
L 48.1875 46.484375 
L 14.40625 7.171875 
L 48.1875 7.171875 
L 48.1875 0 
L 4.296875 0 
L 4.296875 8.203125 
L 38.09375 47.515625 
L 5.515625 47.515625 
z
" id="DejaVuSans-7a"/>
     </defs>
     <g transform="translate(536.848866 335.860562)scale(0.1 -0.1)">
      <use xlink:href="#DejaVuSans-46"/>
      <use x="57.410156" xlink:href="#DejaVuSans-72"/>
      <use x="98.492188" xlink:href="#DejaVuSans-65"/>
      <use x="160.015625" xlink:href="#DejaVuSans-71"/>
      <use x="223.492188" xlink:href="#DejaVuSans-75"/>
      <use x="286.871094" xlink:href="#DejaVuSans-65"/>
      <use x="348.394531" xlink:href="#DejaVuSans-6e"/>
      <use x="411.773438" xlink:href="#DejaVuSans-63"/>
      <use x="466.753906" xlink:href="#DejaVuSans-79"/>
      <use x="525.933594" xlink:href="#DejaVuSans-2f"/>
      <use x="559.625" xlink:href="#DejaVuSans-48"/>
      <use x="634.820312" xlink:href="#DejaVuSans-7a"/>
     </g>
    </g>
   </g>
   <g id="matplotlib.axis_4">
    <g id="ytick_6">
     <g id="line2d_36">
      <path clip-path="url(#pc5c4763c7b)" d="M 432.222545 290.029946 
L 710.208 290.029946 
" style="fill:none;stroke:#b0b0b0;stroke-linecap:square;stroke-width:0.8;"/>
     </g>
     <g id="line2d_37">
      <g>
       <use style="stroke:#000000;stroke-width:0.8;" x="432.222545" xlink:href="#m54bde66933" y="290.029946"/>
      </g>
     </g>
     <g id="text_22">
      <!-- −10.0 -->
      <g transform="translate(394.577233 293.829165)scale(0.1 -0.1)">
       <use xlink:href="#DejaVuSans-2212"/>
       <use x="83.789062" xlink:href="#DejaVuSans-31"/>
       <use x="147.412109" xlink:href="#DejaVuSans-30"/>
       <use x="211.035156" xlink:href="#DejaVuSans-2e"/>
       <use x="242.822266" xlink:href="#DejaVuSans-30"/>
      </g>
     </g>
    </g>
    <g id="ytick_7">
     <g id="line2d_38">
      <path clip-path="url(#pc5c4763c7b)" d="M 432.222545 255.941164 
L 710.208 255.941164 
" style="fill:none;stroke:#b0b0b0;stroke-linecap:square;stroke-width:0.8;"/>
     </g>
     <g id="line2d_39">
      <g>
       <use style="stroke:#000000;stroke-width:0.8;" x="432.222545" xlink:href="#m54bde66933" y="255.941164"/>
      </g>
     </g>
     <g id="text_23">
      <!-- −7.5 -->
      <defs>
       <path d="M 8.203125 72.90625 
L 55.078125 72.90625 
L 55.078125 68.703125 
L 28.609375 0 
L 18.3125 0 
L 43.21875 64.59375 
L 8.203125 64.59375 
z
" id="DejaVuSans-37"/>
      </defs>
      <g transform="translate(400.939733 259.740383)scale(0.1 -0.1)">
       <use xlink:href="#DejaVuSans-2212"/>
       <use x="83.789062" xlink:href="#DejaVuSans-37"/>
       <use x="147.412109" xlink:href="#DejaVuSans-2e"/>
       <use x="179.199219" xlink:href="#DejaVuSans-35"/>
      </g>
     </g>
    </g>
    <g id="ytick_8">
     <g id="line2d_40">
      <path clip-path="url(#pc5c4763c7b)" d="M 432.222545 221.852382 
L 710.208 221.852382 
" style="fill:none;stroke:#b0b0b0;stroke-linecap:square;stroke-width:0.8;"/>
     </g>
     <g id="line2d_41">
      <g>
       <use style="stroke:#000000;stroke-width:0.8;" x="432.222545" xlink:href="#m54bde66933" y="221.852382"/>
      </g>
     </g>
     <g id="text_24">
      <!-- −5.0 -->
      <g transform="translate(400.939733 225.651601)scale(0.1 -0.1)">
       <use xlink:href="#DejaVuSans-2212"/>
       <use x="83.789062" xlink:href="#DejaVuSans-35"/>
       <use x="147.412109" xlink:href="#DejaVuSans-2e"/>
       <use x="179.199219" xlink:href="#DejaVuSans-30"/>
      </g>
     </g>
    </g>
    <g id="ytick_9">
     <g id="line2d_42">
      <path clip-path="url(#pc5c4763c7b)" d="M 432.222545 187.7636 
L 710.208 187.7636 
" style="fill:none;stroke:#b0b0b0;stroke-linecap:square;stroke-width:0.8;"/>
     </g>
     <g id="line2d_43">
      <g>
       <use style="stroke:#000000;stroke-width:0.8;" x="432.222545" xlink:href="#m54bde66933" y="187.7636"/>
      </g>
     </g>
     <g id="text_25">
      <!-- −2.5 -->
      <g transform="translate(400.939733 191.562819)scale(0.1 -0.1)">
       <use xlink:href="#DejaVuSans-2212"/>
       <use x="83.789062" xlink:href="#DejaVuSans-32"/>
       <use x="147.412109" xlink:href="#DejaVuSans-2e"/>
       <use x="179.199219" xlink:href="#DejaVuSans-35"/>
      </g>
     </g>
    </g>
    <g id="ytick_10">
     <g id="line2d_44">
      <path clip-path="url(#pc5c4763c7b)" d="M 432.222545 153.674818 
L 710.208 153.674818 
" style="fill:none;stroke:#b0b0b0;stroke-linecap:square;stroke-width:0.8;"/>
     </g>
     <g id="line2d_45">
      <g>
       <use style="stroke:#000000;stroke-width:0.8;" x="432.222545" xlink:href="#m54bde66933" y="153.674818"/>
      </g>
     </g>
     <g id="text_26">
      <!-- 0.0 -->
      <g transform="translate(409.31942 157.474037)scale(0.1 -0.1)">
       <use xlink:href="#DejaVuSans-30"/>
       <use x="63.623047" xlink:href="#DejaVuSans-2e"/>
       <use x="95.410156" xlink:href="#DejaVuSans-30"/>
      </g>
     </g>
    </g>
    <g id="ytick_11">
     <g id="line2d_46">
      <path clip-path="url(#pc5c4763c7b)" d="M 432.222545 119.586036 
L 710.208 119.586036 
" style="fill:none;stroke:#b0b0b0;stroke-linecap:square;stroke-width:0.8;"/>
     </g>
     <g id="line2d_47">
      <g>
       <use style="stroke:#000000;stroke-width:0.8;" x="432.222545" xlink:href="#m54bde66933" y="119.586036"/>
      </g>
     </g>
     <g id="text_27">
      <!-- 2.5 -->
      <g transform="translate(409.31942 123.385254)scale(0.1 -0.1)">
       <use xlink:href="#DejaVuSans-32"/>
       <use x="63.623047" xlink:href="#DejaVuSans-2e"/>
       <use x="95.410156" xlink:href="#DejaVuSans-35"/>
      </g>
     </g>
    </g>
    <g id="ytick_12">
     <g id="line2d_48">
      <path clip-path="url(#pc5c4763c7b)" d="M 432.222545 85.497254 
L 710.208 85.497254 
" style="fill:none;stroke:#b0b0b0;stroke-linecap:square;stroke-width:0.8;"/>
     </g>
     <g id="line2d_49">
      <g>
       <use style="stroke:#000000;stroke-width:0.8;" x="432.222545" xlink:href="#m54bde66933" y="85.497254"/>
      </g>
     </g>
     <g id="text_28">
      <!-- 5.0 -->
      <g transform="translate(409.31942 89.296472)scale(0.1 -0.1)">
       <use xlink:href="#DejaVuSans-35"/>
       <use x="63.623047" xlink:href="#DejaVuSans-2e"/>
       <use x="95.410156" xlink:href="#DejaVuSans-30"/>
      </g>
     </g>
    </g>
    <g id="ytick_13">
     <g id="line2d_50">
      <path clip-path="url(#pc5c4763c7b)" d="M 432.222545 51.408471 
L 710.208 51.408471 
" style="fill:none;stroke:#b0b0b0;stroke-linecap:square;stroke-width:0.8;"/>
     </g>
     <g id="line2d_51">
      <g>
       <use style="stroke:#000000;stroke-width:0.8;" x="432.222545" xlink:href="#m54bde66933" y="51.408471"/>
      </g>
     </g>
     <g id="text_29">
      <!-- 7.5 -->
      <g transform="translate(409.31942 55.20769)scale(0.1 -0.1)">
       <use xlink:href="#DejaVuSans-37"/>
       <use x="63.623047" xlink:href="#DejaVuSans-2e"/>
       <use x="95.410156" xlink:href="#DejaVuSans-35"/>
      </g>
     </g>
    </g>
    <g id="text_30">
     <!-- Amplitude -->
     <g transform="translate(388.497545 200.150656)rotate(-90)scale(0.1 -0.1)">
      <use xlink:href="#DejaVuSans-41"/>
      <use x="68.408203" xlink:href="#DejaVuSans-6d"/>
      <use x="165.820312" xlink:href="#DejaVuSans-70"/>
      <use x="229.296875" xlink:href="#DejaVuSans-6c"/>
      <use x="257.080078" xlink:href="#DejaVuSans-69"/>
      <use x="284.863281" xlink:href="#DejaVuSans-74"/>
      <use x="324.072266" xlink:href="#DejaVuSans-75"/>
      <use x="387.451172" xlink:href="#DejaVuSans-64"/>
      <use x="450.927734" xlink:href="#DejaVuSans-65"/>
     </g>
    </g>
   </g>
   <g id="line2d_52">
    <path clip-path="url(#pc5c4763c7b)" d="M 444.858248 153.674818 
L 445.849283 138.090065 
L 446.840319 153.674818 
L 447.831354 137.868448 
L 448.82239 153.674818 
L 449.813425 137.399422 
L 450.804461 153.674818 
L 451.795496 136.62285 
L 452.786532 153.674818 
L 453.777567 135.421231 
L 454.768603 153.674818 
L 455.759638 133.56284 
L 456.750674 153.674818 
L 457.741709 130.546118 
L 458.732745 153.674818 
L 459.72378 125.074763 
L 460.714816 153.674818 
L 461.705851 112.486099 
L 462.696887 153.674818 
L 463.687922 53.568 
L 465.669993 249.406188 
L 466.661029 153.674818 
L 467.652064 176.581582 
L 468.6431 153.674818 
L 469.634135 162.433789 
L 470.625171 153.674818 
L 471.616206 155.886163 
L 473.598277 151.551203 
L 474.589313 153.674818 
L 475.580348 147.796103 
L 476.571384 153.674818 
L 477.562419 143.609695 
L 478.553455 153.674818 
L 479.54449 137.531247 
L 480.535526 153.674818 
L 481.526561 125.144978 
L 482.517596 153.674818 
L 483.508632 72.457491 
L 484.499667 153.674818 
L 485.490703 267.332818 
L 486.481738 153.674818 
L 487.472774 187.531169 
L 488.463809 153.674818 
L 489.454845 173.419983 
L 490.44588 153.674818 
L 491.436916 167.440998 
L 492.427951 153.674818 
L 493.418987 164.097525 
L 494.410022 153.674818 
L 495.401058 161.943437 
L 496.392093 153.674818 
L 497.383129 160.430564 
L 498.374164 153.674818 
L 499.3652 159.304439 
L 500.356235 153.674818 
L 501.347271 158.430348 
L 502.338306 153.674818 
L 503.329342 157.730032 
L 504.320377 153.674818 
L 505.311413 157.154763 
L 506.302448 153.674818 
L 507.293484 156.672523 
L 508.284519 153.674818 
L 509.275555 156.261342 
L 510.26659 153.674818 
L 511.257626 155.905602 
L 512.248661 153.674818 
L 513.239697 155.593864 
L 514.230732 153.674818 
L 515.221768 155.317534 
L 516.212803 153.674818 
L 517.203839 155.070004 
L 518.194874 153.674818 
L 519.18591 154.846095 
L 520.176945 153.674818 
L 521.167981 154.641666 
L 522.159016 153.674818 
L 523.150052 154.45335 
L 524.141087 153.674818 
L 525.132123 154.278359 
L 526.123158 153.674818 
L 527.114193 154.114345 
L 528.105229 153.674818 
L 529.096264 153.959291 
L 530.0873 153.674818 
L 531.078335 153.811431 
L 532.069371 153.674818 
L 534.051442 153.674818 
L 535.042477 153.531105 
L 536.033513 153.674818 
L 537.024548 153.395828 
L 538.015584 153.674818 
L 539.006619 153.262034 
L 539.997655 153.674818 
L 540.98869 153.128406 
L 541.979726 153.674818 
L 542.970761 152.993589 
L 543.961797 153.674818 
L 544.952832 152.85614 
L 545.943868 153.674818 
L 546.934903 152.714483 
L 547.925939 153.674818 
L 548.916974 152.566832 
L 549.90801 153.674818 
L 550.899045 152.411118 
L 551.890081 153.674818 
L 552.881116 152.244867 
L 553.872152 153.674818 
L 554.863187 152.065054 
L 555.854223 153.674818 
L 556.845258 151.867879 
L 557.836294 153.674818 
L 558.827329 151.648456 
L 559.818365 153.674818 
L 560.8094 151.40033 
L 561.800436 153.674818 
L 562.791471 151.114741 
L 563.782507 153.674818 
L 564.773542 150.779433 
L 565.764578 153.674818 
L 566.755613 150.376648 
L 567.746649 153.674818 
L 568.737684 149.879576 
L 569.728719 153.674818 
L 570.719755 149.245665 
L 571.71079 153.674818 
L 572.701826 148.402977 
L 573.692861 153.674818 
L 574.683897 147.219406 
L 575.674932 153.674818 
L 576.665968 145.422956 
L 577.657003 153.674818 
L 578.648039 142.349629 
L 579.639074 153.674818 
L 580.63011 135.838872 
L 581.621145 153.674818 
L 582.612181 112.572219 
L 583.603216 153.674818 
L 584.594252 295.488 
L 585.585287 153.674818 
L 586.576323 179.853637 
L 587.567358 153.674818 
L 588.558394 168.120998 
L 589.549429 153.674818 
L 590.540465 163.65264 
L 591.5315 153.674818 
L 592.522536 161.291535 
L 593.513571 153.674818 
L 594.504607 159.828216 
L 595.495642 153.674818 
L 596.486678 158.830297 
L 597.477713 153.674818 
L 598.468749 158.10474 
L 599.459784 153.674818 
L 600.45082 157.552365 
L 601.441855 153.674818 
L 602.432891 157.116982 
L 603.423926 153.674818 
L 604.414962 156.764369 
L 605.405997 153.674818 
L 606.397033 156.472492 
L 607.388068 153.674818 
L 608.379104 156.226516 
L 609.370139 153.674818 
L 610.361175 156.016087 
L 611.35221 153.674818 
L 612.343246 155.833758 
L 613.334281 153.674818 
L 614.325316 155.674033 
L 615.316352 153.674818 
L 616.307387 155.532765 
L 617.298423 153.674818 
L 618.289458 155.406767 
L 619.280494 153.674818 
L 620.271529 155.293549 
L 621.262565 153.674818 
L 622.2536 155.191135 
L 623.244636 153.674818 
L 624.235671 155.097938 
L 625.226707 153.674818 
L 626.217742 155.012666 
L 627.208778 153.674818 
L 628.199813 154.934258 
L 629.190849 153.674818 
L 630.181884 154.861833 
L 631.17292 153.674818 
L 632.163955 154.794656 
L 633.154991 153.674818 
L 634.146026 154.732103 
L 635.137062 153.674818 
L 636.128097 154.673647 
L 637.119133 153.674818 
L 638.110168 154.618834 
L 639.101204 153.674818 
L 640.092239 154.567274 
L 641.083275 153.674818 
L 642.07431 154.518629 
L 643.065346 153.674818 
L 644.056381 154.472605 
L 645.047417 153.674818 
L 646.038452 154.428943 
L 647.029488 153.674818 
L 648.020523 154.387416 
L 649.011559 153.674818 
L 650.002594 154.347822 
L 650.99363 153.674818 
L 651.984665 154.309982 
L 652.975701 153.674818 
L 653.966736 154.273736 
L 654.957772 153.674818 
L 655.948807 154.238941 
L 656.939842 153.674818 
L 657.930878 154.205467 
L 658.921913 153.674818 
L 659.912949 154.173197 
L 660.903984 153.674818 
L 661.89502 154.142026 
L 662.886055 153.674818 
L 663.877091 154.111857 
L 664.868126 153.674818 
L 665.859162 154.0826 
L 666.850197 153.674818 
L 667.841233 154.054175 
L 668.832268 153.674818 
L 669.823304 154.026506 
L 670.814339 153.674818 
L 671.805375 153.999524 
L 672.79641 153.674818 
L 673.787446 153.973163 
L 674.778481 153.674818 
L 675.769517 153.947364 
L 676.760552 153.674818 
L 677.751588 153.922069 
L 678.742623 153.674818 
L 679.733659 153.897225 
L 680.724694 153.674818 
L 681.71573 153.872782 
L 682.706765 153.674818 
L 683.697801 153.84869 
L 684.688836 153.674818 
L 685.679872 153.824904 
L 686.670907 153.674818 
L 687.661943 153.80138 
L 688.652978 153.674818 
L 689.644014 153.778074 
L 690.635049 153.674818 
L 691.626085 153.754946 
L 692.61712 153.674818 
L 693.608156 153.731955 
L 695.590227 153.709062 
L 697.572298 153.686226 
L 697.572298 153.686226 
" style="fill:none;stroke:#1f77b4;stroke-linecap:square;stroke-width:1.5;"/>
   </g>
   <g id="patch_8">
    <path d="M 432.222545 307.584 
L 432.222545 41.472 
" style="fill:none;stroke:#000000;stroke-linecap:square;stroke-linejoin:miter;stroke-width:0.8;"/>
   </g>
   <g id="patch_9">
    <path d="M 710.208 307.584 
L 710.208 41.472 
" style="fill:none;stroke:#000000;stroke-linecap:square;stroke-linejoin:miter;stroke-width:0.8;"/>
   </g>
   <g id="patch_10">
    <path d="M 432.222545 307.584 
L 710.208 307.584 
" style="fill:none;stroke:#000000;stroke-linecap:square;stroke-linejoin:miter;stroke-width:0.8;"/>
   </g>
   <g id="patch_11">
    <path d="M 432.222545 41.472 
L 710.208 41.472 
" style="fill:none;stroke:#000000;stroke-linecap:square;stroke-linejoin:miter;stroke-width:0.8;"/>
   </g>
   <g id="text_31">
    <!-- Orignal Signal (frequency domain) -->
    <defs>
     <path d="M 37.109375 75.984375 
L 37.109375 68.5 
L 28.515625 68.5 
Q 23.6875 68.5 21.796875 66.546875 
Q 19.921875 64.59375 19.921875 59.515625 
L 19.921875 54.6875 
L 34.71875 54.6875 
L 34.71875 47.703125 
L 19.921875 47.703125 
L 19.921875 0 
L 10.890625 0 
L 10.890625 47.703125 
L 2.296875 47.703125 
L 2.296875 54.6875 
L 10.890625 54.6875 
L 10.890625 58.5 
Q 10.890625 67.625 15.140625 71.796875 
Q 19.390625 75.984375 28.609375 75.984375 
z
" id="DejaVuSans-66"/>
    </defs>
    <g transform="translate(467.87371 35.472)scale(0.12 -0.12)">
     <use xlink:href="#DejaVuSans-4f"/>
     <use x="78.710938" xlink:href="#DejaVuSans-72"/>
     <use x="119.824219" xlink:href="#DejaVuSans-69"/>
     <use x="147.607422" xlink:href="#DejaVuSans-67"/>
     <use x="211.083984" xlink:href="#DejaVuSans-6e"/>
     <use x="274.462891" xlink:href="#DejaVuSans-61"/>
     <use x="335.742188" xlink:href="#DejaVuSans-6c"/>
     <use x="363.525391" xlink:href="#DejaVuSans-20"/>
     <use x="395.3125" xlink:href="#DejaVuSans-53"/>
     <use x="458.789062" xlink:href="#DejaVuSans-69"/>
     <use x="486.572266" xlink:href="#DejaVuSans-67"/>
     <use x="550.048828" xlink:href="#DejaVuSans-6e"/>
     <use x="613.427734" xlink:href="#DejaVuSans-61"/>
     <use x="674.707031" xlink:href="#DejaVuSans-6c"/>
     <use x="702.490234" xlink:href="#DejaVuSans-20"/>
     <use x="734.277344" xlink:href="#DejaVuSans-28"/>
     <use x="773.291016" xlink:href="#DejaVuSans-66"/>
     <use x="808.496094" xlink:href="#DejaVuSans-72"/>
     <use x="849.578125" xlink:href="#DejaVuSans-65"/>
     <use x="911.101562" xlink:href="#DejaVuSans-71"/>
     <use x="974.578125" xlink:href="#DejaVuSans-75"/>
     <use x="1037.957031" xlink:href="#DejaVuSans-65"/>
     <use x="1099.480469" xlink:href="#DejaVuSans-6e"/>
     <use x="1162.859375" xlink:href="#DejaVuSans-63"/>
     <use x="1217.839844" xlink:href="#DejaVuSans-79"/>
     <use x="1277.019531" xlink:href="#DejaVuSans-20"/>
     <use x="1308.806641" xlink:href="#DejaVuSans-64"/>
     <use x="1372.283203" xlink:href="#DejaVuSans-6f"/>
     <use x="1433.464844" xlink:href="#DejaVuSans-6d"/>
     <use x="1530.876953" xlink:href="#DejaVuSans-61"/>
     <use x="1592.15625" xlink:href="#DejaVuSans-69"/>
     <use x="1619.939453" xlink:href="#DejaVuSans-6e"/>
     <use x="1683.318359" xlink:href="#DejaVuSans-29"/>
    </g>
   </g>
  </g>
 </g>
 <defs>
  <clipPath id="p321f6d0165">
   <rect height="266.112" width="277.985455" x="98.64" y="41.472"/>
  </clipPath>
  <clipPath id="pc5c4763c7b">
   <rect height="266.112" width="277.985455" x="432.222545" y="41.472"/>
  </clipPath>
 </defs>
</svg>
